<svg width="536" height="190" viewBox="0 0 536 190" fill="none" xmlns="http://www.w3.org/2000/svg">
<path d="M0.5 14H56L48.785 85.5L56 124L42.68 149L48.785 190H0.5V14Z" fill="#C4C4C4"/>
<rect x="401.5" y="58.5" width="60" height="131" fill="white" stroke="black"/>
<path d="M435.688 149.926C435.289 149.926 434.938 149.988 434.633 150.113C434.32 150.23 434.039 150.441 433.789 150.746C433.539 151.043 433.301 151.457 433.074 151.988C432.848 152.512 432.617 153.176 432.383 153.98C432.133 154.824 431.855 155.586 431.551 156.266C431.238 156.945 430.883 157.527 430.484 158.012C430.086 158.496 429.629 158.867 429.113 159.125C428.598 159.383 428.008 159.512 427.344 159.512C426.68 159.512 426.066 159.375 425.504 159.102C424.941 158.828 424.453 158.438 424.039 157.93C423.617 157.414 423.289 156.801 423.055 156.09C422.82 155.379 422.703 154.586 422.703 153.711C422.703 152.43 422.949 151.344 423.441 150.453C423.926 149.555 424.562 148.871 425.352 148.402C426.133 147.934 426.969 147.699 427.859 147.699V149.949C427.219 149.949 426.652 150.086 426.16 150.359C425.66 150.633 425.27 151.047 424.988 151.602C424.699 152.156 424.555 152.859 424.555 153.711C424.555 154.516 424.676 155.18 424.918 155.703C425.16 156.227 425.488 156.617 425.902 156.875C426.316 157.125 426.789 157.25 427.32 157.25C427.68 157.25 428.008 157.176 428.305 157.027C428.594 156.871 428.863 156.633 429.113 156.312C429.363 155.984 429.594 155.57 429.805 155.07C430.016 154.562 430.219 153.957 430.414 153.254C430.688 152.285 430.992 151.449 431.328 150.746C431.664 150.043 432.043 149.465 432.465 149.012C432.879 148.551 433.352 148.211 433.883 147.992C434.406 147.766 435 147.652 435.664 147.652C436.359 147.652 436.988 147.793 437.551 148.074C438.113 148.355 438.594 148.758 438.992 149.281C439.391 149.805 439.699 150.434 439.918 151.168C440.129 151.895 440.234 152.707 440.234 153.605C440.234 154.395 440.125 155.172 439.906 155.938C439.688 156.695 439.359 157.387 438.922 158.012C438.484 158.629 437.945 159.125 437.305 159.5C436.656 159.867 435.906 160.051 435.055 160.051V157.801C435.641 157.801 436.145 157.688 436.566 157.461C436.98 157.234 437.324 156.926 437.598 156.535C437.871 156.137 438.074 155.688 438.207 155.188C438.332 154.68 438.395 154.152 438.395 153.605C438.395 152.816 438.285 152.148 438.066 151.602C437.848 151.055 437.535 150.641 437.129 150.359C436.723 150.07 436.242 149.926 435.688 149.926ZM440.234 139.836C440.234 140.719 440.086 141.52 439.789 142.238C439.484 142.949 439.059 143.562 438.512 144.078C437.965 144.586 437.316 144.977 436.566 145.25C435.816 145.523 434.996 145.66 434.105 145.66H433.613C432.582 145.66 431.664 145.508 430.859 145.203C430.047 144.898 429.359 144.484 428.797 143.961C428.234 143.438 427.809 142.844 427.52 142.18C427.23 141.516 427.086 140.828 427.086 140.117C427.086 139.211 427.242 138.43 427.555 137.773C427.867 137.109 428.305 136.566 428.867 136.145C429.422 135.723 430.078 135.41 430.836 135.207C431.586 135.004 432.406 134.902 433.297 134.902H434.27V144.371H432.5V137.07H432.336C431.773 137.102 431.227 137.219 430.695 137.422C430.164 137.617 429.727 137.93 429.383 138.359C429.039 138.789 428.867 139.375 428.867 140.117C428.867 140.609 428.973 141.062 429.184 141.477C429.387 141.891 429.691 142.246 430.098 142.543C430.504 142.84 431 143.07 431.586 143.234C432.172 143.398 432.848 143.48 433.613 143.48H434.105C434.707 143.48 435.273 143.398 435.805 143.234C436.328 143.062 436.789 142.816 437.188 142.496C437.586 142.168 437.898 141.773 438.125 141.312C438.352 140.844 438.465 140.312 438.465 139.719C438.465 138.953 438.309 138.305 437.996 137.773C437.684 137.242 437.266 136.777 436.742 136.379L437.785 135.066C438.199 135.34 438.594 135.688 438.969 136.109C439.344 136.531 439.648 137.051 439.883 137.668C440.117 138.277 440.234 139 440.234 139.836ZM430.027 130.203H440V132.371H427.32V130.32L430.027 130.203ZM433.18 130.719L433.145 131.621C432.277 131.613 431.477 131.484 430.742 131.234C430 130.984 429.355 130.633 428.809 130.18C428.262 129.727 427.84 129.188 427.543 128.562C427.238 127.93 427.086 127.23 427.086 126.465C427.086 125.84 427.172 125.277 427.344 124.777C427.508 124.277 427.773 123.852 428.141 123.5C428.508 123.141 428.984 122.867 429.57 122.68C430.148 122.492 430.855 122.398 431.691 122.398H440V124.578H431.668C431.004 124.578 430.473 124.676 430.074 124.871C429.668 125.066 429.375 125.352 429.195 125.727C429.008 126.102 428.914 126.562 428.914 127.109C428.914 127.648 429.027 128.141 429.254 128.586C429.48 129.023 429.793 129.402 430.191 129.723C430.59 130.035 431.047 130.281 431.562 130.461C432.07 130.633 432.609 130.719 433.18 130.719ZM436.637 111.723C436.324 111.723 436.035 111.793 435.77 111.934C435.496 112.066 435.25 112.344 435.031 112.766C434.805 113.18 434.609 113.805 434.445 114.641C434.297 115.344 434.121 115.98 433.918 116.551C433.715 117.113 433.469 117.594 433.18 117.992C432.891 118.383 432.551 118.684 432.16 118.895C431.77 119.105 431.312 119.211 430.789 119.211C430.289 119.211 429.816 119.102 429.371 118.883C428.926 118.656 428.531 118.34 428.188 117.934C427.844 117.52 427.574 117.023 427.379 116.445C427.184 115.867 427.086 115.223 427.086 114.512C427.086 113.496 427.266 112.629 427.625 111.91C427.984 111.191 428.465 110.641 429.066 110.258C429.66 109.875 430.32 109.684 431.047 109.684V111.852C430.695 111.852 430.355 111.957 430.027 112.168C429.691 112.371 429.414 112.672 429.195 113.07C428.977 113.461 428.867 113.941 428.867 114.512C428.867 115.113 428.961 115.602 429.148 115.977C429.328 116.344 429.559 116.613 429.84 116.785C430.121 116.949 430.418 117.031 430.73 117.031C430.965 117.031 431.176 116.992 431.363 116.914C431.543 116.828 431.711 116.68 431.867 116.469C432.016 116.258 432.156 115.961 432.289 115.578C432.422 115.195 432.555 114.707 432.688 114.113C432.922 113.074 433.203 112.219 433.531 111.547C433.859 110.875 434.262 110.375 434.738 110.047C435.215 109.719 435.793 109.555 436.473 109.555C437.027 109.555 437.535 109.672 437.996 109.906C438.457 110.133 438.855 110.465 439.191 110.902C439.52 111.332 439.777 111.848 439.965 112.449C440.145 113.043 440.234 113.711 440.234 114.453C440.234 115.57 440.035 116.516 439.637 117.289C439.238 118.062 438.723 118.648 438.09 119.047C437.457 119.445 436.789 119.645 436.086 119.645V117.465C436.68 117.434 437.152 117.262 437.504 116.949C437.848 116.637 438.094 116.254 438.242 115.801C438.383 115.348 438.453 114.898 438.453 114.453C438.453 113.859 438.375 113.363 438.219 112.965C438.062 112.559 437.848 112.25 437.574 112.039C437.301 111.828 436.988 111.723 436.637 111.723ZM433.801 107.281H433.531C432.617 107.281 431.77 107.148 430.988 106.883C430.199 106.617 429.516 106.234 428.938 105.734C428.352 105.234 427.898 104.629 427.578 103.918C427.25 103.207 427.086 102.41 427.086 101.527C427.086 100.637 427.25 99.8359 427.578 99.125C427.898 98.4062 428.352 97.7969 428.938 97.2969C429.516 96.7891 430.199 96.4023 430.988 96.1367C431.77 95.8711 432.617 95.7383 433.531 95.7383H433.801C434.715 95.7383 435.562 95.8711 436.344 96.1367C437.125 96.4023 437.809 96.7891 438.395 97.2969C438.973 97.7969 439.426 98.4023 439.754 99.1133C440.074 99.8164 440.234 100.613 440.234 101.504C440.234 102.395 440.074 103.195 439.754 103.906C439.426 104.617 438.973 105.227 438.395 105.734C437.809 106.234 437.125 106.617 436.344 106.883C435.562 107.148 434.715 107.281 433.801 107.281ZM433.531 105.113H433.801C434.434 105.113 435.031 105.039 435.594 104.891C436.148 104.742 436.641 104.52 437.07 104.223C437.5 103.918 437.84 103.539 438.09 103.086C438.332 102.633 438.453 102.105 438.453 101.504C438.453 100.91 438.332 100.391 438.09 99.9453C437.84 99.4922 437.5 99.1172 437.07 98.8203C436.641 98.5234 436.148 98.3008 435.594 98.1523C435.031 97.9961 434.434 97.918 433.801 97.918H433.531C432.906 97.918 432.316 97.9961 431.762 98.1523C431.199 98.3008 430.703 98.5273 430.273 98.832C429.836 99.1289 429.492 99.5039 429.242 99.957C428.992 100.402 428.867 100.926 428.867 101.527C428.867 102.121 428.992 102.645 429.242 103.098C429.492 103.543 429.836 103.918 430.273 104.223C430.703 104.52 431.199 104.742 431.762 104.891C432.316 105.039 432.906 105.113 433.531 105.113ZM429.312 90.8516H440V93.0195H427.32V90.9102L429.312 90.8516ZM427.25 86.8906L429.266 86.9023C429.227 87.082 429.203 87.2539 429.195 87.418C429.18 87.5742 429.172 87.7539 429.172 87.957C429.172 88.457 429.25 88.8984 429.406 89.2812C429.562 89.6641 429.781 89.9883 430.062 90.2539C430.344 90.5195 430.68 90.7305 431.07 90.8867C431.453 91.0352 431.875 91.1328 432.336 91.1797L432.688 91.7891C431.922 91.7891 431.203 91.7148 430.531 91.5664C429.859 91.4102 429.266 91.1719 428.75 90.8516C428.227 90.5312 427.82 90.125 427.531 89.6328C427.234 89.1328 427.086 88.5391 427.086 87.8516C427.086 87.6953 427.105 87.5156 427.145 87.3125C427.176 87.1094 427.211 86.9688 427.25 86.8906Z" fill="black"/>
<path opacity="0.9" d="M354 22.5L393.75 3.01443V41.9856L354 22.5Z" fill="#C4C4C4"/>
<path opacity="0.9" d="M354 22L62 180V22L354 22Z" fill="#FF9900" fill-opacity="0.12"/>
<line x1="388.5" y1="45" x2="388.5" y2="190" stroke="black" stroke-dasharray="2 2"/>
<line x1="354.5" y1="45" x2="354.5" y2="190" stroke="black" stroke-dasharray="2 2"/>
<path d="M413.82 26.1602V28H404.785V26.1602H413.82ZM405.242 10.9375V28H402.98V10.9375H405.242ZM412.625 18.2734V20.1133H404.785V18.2734H412.625ZM413.703 10.9375V12.7891H404.785V10.9375H413.703ZM418.449 17.8398V28H416.27V15.3203H418.332L418.449 17.8398ZM418.004 21.1797L416.996 21.1445C417.004 20.2773 417.117 19.4766 417.336 18.7422C417.555 18 417.879 17.3555 418.309 16.8086C418.738 16.2617 419.273 15.8398 419.914 15.543C420.555 15.2383 421.297 15.0859 422.141 15.0859C422.734 15.0859 423.281 15.1719 423.781 15.3438C424.281 15.5078 424.715 15.7695 425.082 16.1289C425.449 16.4883 425.734 16.9492 425.938 17.5117C426.141 18.0742 426.242 18.7539 426.242 19.5508V28H424.074V19.6562C424.074 18.9922 423.961 18.4609 423.734 18.0625C423.516 17.6641 423.203 17.375 422.797 17.1953C422.391 17.0078 421.914 16.9141 421.367 16.9141C420.727 16.9141 420.191 17.0273 419.762 17.2539C419.332 17.4805 418.988 17.793 418.73 18.1914C418.473 18.5898 418.285 19.0469 418.168 19.5625C418.059 20.0703 418.004 20.6094 418.004 21.1797ZM426.219 19.9844L424.766 20.4297C424.773 19.7344 424.887 19.0664 425.105 18.4258C425.332 17.7852 425.656 17.2148 426.078 16.7148C426.508 16.2148 427.035 15.8203 427.66 15.5312C428.285 15.2344 429 15.0859 429.805 15.0859C430.484 15.0859 431.086 15.1758 431.609 15.3555C432.141 15.5352 432.586 15.8125 432.945 16.1875C433.312 16.5547 433.59 17.0273 433.777 17.6055C433.965 18.1836 434.059 18.8711 434.059 19.668V28H431.879V19.6445C431.879 18.9336 431.766 18.3828 431.539 17.9922C431.32 17.5938 431.008 17.3164 430.602 17.1602C430.203 16.9961 429.727 16.9141 429.172 16.9141C428.695 16.9141 428.273 16.9961 427.906 17.1602C427.539 17.3242 427.23 17.5508 426.98 17.8398C426.73 18.1211 426.539 18.4453 426.406 18.8125C426.281 19.1797 426.219 19.5703 426.219 19.9844ZM439.695 15.3203V28H437.516V15.3203H439.695ZM437.352 11.957C437.352 11.6055 437.457 11.3086 437.668 11.0664C437.887 10.8242 438.207 10.7031 438.629 10.7031C439.043 10.7031 439.359 10.8242 439.578 11.0664C439.805 11.3086 439.918 11.6055 439.918 11.957C439.918 12.293 439.805 12.582 439.578 12.8242C439.359 13.0586 439.043 13.1758 438.629 13.1758C438.207 13.1758 437.887 13.0586 437.668 12.8242C437.457 12.582 437.352 12.293 437.352 11.957ZM448.484 15.3203V16.9844H441.629V15.3203H448.484ZM443.949 12.2383H446.117V24.8594C446.117 25.2891 446.184 25.6133 446.316 25.832C446.449 26.0508 446.621 26.1953 446.832 26.2656C447.043 26.3359 447.27 26.3711 447.512 26.3711C447.691 26.3711 447.879 26.3555 448.074 26.3242C448.277 26.2852 448.43 26.2539 448.531 26.2305L448.543 28C448.371 28.0547 448.145 28.1055 447.863 28.1523C447.59 28.207 447.258 28.2344 446.867 28.2344C446.336 28.2344 445.848 28.1289 445.402 27.918C444.957 27.707 444.602 27.3555 444.336 26.8633C444.078 26.3633 443.949 25.6914 443.949 24.8477V12.2383ZM456.336 15.3203V16.9844H449.48V15.3203H456.336ZM451.801 12.2383H453.969V24.8594C453.969 25.2891 454.035 25.6133 454.168 25.832C454.301 26.0508 454.473 26.1953 454.684 26.2656C454.895 26.3359 455.121 26.3711 455.363 26.3711C455.543 26.3711 455.73 26.3555 455.926 26.3242C456.129 26.2852 456.281 26.2539 456.383 26.2305L456.395 28C456.223 28.0547 455.996 28.1055 455.715 28.1523C455.441 28.207 455.109 28.2344 454.719 28.2344C454.188 28.2344 453.699 28.1289 453.254 27.918C452.809 27.707 452.453 27.3555 452.188 26.8633C451.93 26.3633 451.801 25.6914 451.801 24.8477V12.2383ZM464.141 28.2344C463.258 28.2344 462.457 28.0859 461.738 27.7891C461.027 27.4844 460.414 27.0586 459.898 26.5117C459.391 25.9648 459 25.3164 458.727 24.5664C458.453 23.8164 458.316 22.9961 458.316 22.1055V21.6133C458.316 20.582 458.469 19.6641 458.773 18.8594C459.078 18.0469 459.492 17.3594 460.016 16.7969C460.539 16.2344 461.133 15.8086 461.797 15.5195C462.461 15.2305 463.148 15.0859 463.859 15.0859C464.766 15.0859 465.547 15.2422 466.203 15.5547C466.867 15.8672 467.41 16.3047 467.832 16.8672C468.254 17.4219 468.566 18.0781 468.77 18.8359C468.973 19.5859 469.074 20.4062 469.074 21.2969V22.2695H459.605V20.5H466.906V20.3359C466.875 19.7734 466.758 19.2266 466.555 18.6953C466.359 18.1641 466.047 17.7266 465.617 17.3828C465.188 17.0391 464.602 16.8672 463.859 16.8672C463.367 16.8672 462.914 16.9727 462.5 17.1836C462.086 17.3867 461.73 17.6914 461.434 18.0977C461.137 18.5039 460.906 19 460.742 19.5859C460.578 20.1719 460.496 20.8477 460.496 21.6133V22.1055C460.496 22.707 460.578 23.2734 460.742 23.8047C460.914 24.3281 461.16 24.7891 461.48 25.1875C461.809 25.5859 462.203 25.8984 462.664 26.125C463.133 26.3516 463.664 26.4648 464.258 26.4648C465.023 26.4648 465.672 26.3086 466.203 25.9961C466.734 25.6836 467.199 25.2656 467.598 24.7422L468.91 25.7852C468.637 26.1992 468.289 26.5938 467.867 26.9688C467.445 27.3438 466.926 27.6484 466.309 27.8828C465.699 28.1172 464.977 28.2344 464.141 28.2344ZM473.773 17.3125V28H471.605V15.3203H473.715L473.773 17.3125ZM477.734 15.25L477.723 17.2656C477.543 17.2266 477.371 17.2031 477.207 17.1953C477.051 17.1797 476.871 17.1719 476.668 17.1719C476.168 17.1719 475.727 17.25 475.344 17.4062C474.961 17.5625 474.637 17.7812 474.371 18.0625C474.105 18.3438 473.895 18.6797 473.738 19.0703C473.59 19.4531 473.492 19.875 473.445 20.3359L472.836 20.6875C472.836 19.9219 472.91 19.2031 473.059 18.5312C473.215 17.8594 473.453 17.2656 473.773 16.75C474.094 16.2266 474.5 15.8203 474.992 15.5312C475.492 15.2344 476.086 15.0859 476.773 15.0859C476.93 15.0859 477.109 15.1055 477.312 15.1445C477.516 15.1758 477.656 15.2109 477.734 15.25Z" fill="black"/>
<path d="M160.479 150.927V152H155.208V150.927H160.479ZM155.475 142.047V152H154.155V142.047H155.475ZM159.781 146.326V147.399H155.208V146.326H159.781ZM160.41 142.047V143.127H155.208V142.047H160.41ZM163.179 146.073V152H161.907V144.604H163.11L163.179 146.073ZM162.919 148.021L162.331 148.001C162.336 147.495 162.402 147.028 162.529 146.6C162.657 146.167 162.846 145.791 163.097 145.472C163.347 145.153 163.66 144.907 164.033 144.733C164.407 144.556 164.84 144.467 165.332 144.467C165.678 144.467 165.997 144.517 166.289 144.617C166.581 144.713 166.834 144.866 167.048 145.075C167.262 145.285 167.428 145.554 167.547 145.882C167.665 146.21 167.725 146.606 167.725 147.071V152H166.46V147.133C166.46 146.745 166.394 146.436 166.262 146.203C166.134 145.971 165.952 145.802 165.715 145.697C165.478 145.588 165.2 145.533 164.881 145.533C164.507 145.533 164.195 145.599 163.944 145.731C163.694 145.864 163.493 146.046 163.343 146.278C163.192 146.511 163.083 146.777 163.015 147.078C162.951 147.374 162.919 147.689 162.919 148.021ZM167.711 147.324L166.863 147.584C166.868 147.178 166.934 146.789 167.062 146.415C167.194 146.041 167.383 145.709 167.629 145.417C167.88 145.125 168.187 144.895 168.552 144.727C168.916 144.553 169.333 144.467 169.803 144.467C170.199 144.467 170.55 144.519 170.855 144.624C171.165 144.729 171.425 144.891 171.635 145.109C171.849 145.324 172.011 145.599 172.12 145.937C172.229 146.274 172.284 146.675 172.284 147.14V152H171.013V147.126C171.013 146.711 170.947 146.39 170.814 146.162C170.687 145.93 170.505 145.768 170.268 145.677C170.035 145.581 169.757 145.533 169.434 145.533C169.156 145.533 168.91 145.581 168.695 145.677C168.481 145.772 168.301 145.905 168.155 146.073C168.009 146.237 167.898 146.426 167.82 146.641C167.747 146.855 167.711 147.083 167.711 147.324ZM175.572 144.604V152H174.301V144.604H175.572ZM174.205 142.642C174.205 142.437 174.267 142.263 174.39 142.122C174.517 141.981 174.704 141.91 174.95 141.91C175.192 141.91 175.376 141.981 175.504 142.122C175.636 142.263 175.702 142.437 175.702 142.642C175.702 142.838 175.636 143.006 175.504 143.147C175.376 143.284 175.192 143.353 174.95 143.353C174.704 143.353 174.517 143.284 174.39 143.147C174.267 143.006 174.205 142.838 174.205 142.642ZM180.699 144.604V145.574H176.7V144.604H180.699ZM178.054 142.806H179.318V150.168C179.318 150.419 179.357 150.608 179.435 150.735C179.512 150.863 179.612 150.947 179.735 150.988C179.858 151.029 179.991 151.05 180.132 151.05C180.237 151.05 180.346 151.041 180.46 151.022C180.578 151 180.667 150.981 180.727 150.968L180.733 152C180.633 152.032 180.501 152.062 180.337 152.089C180.177 152.121 179.984 152.137 179.756 152.137C179.446 152.137 179.161 152.075 178.901 151.952C178.642 151.829 178.434 151.624 178.279 151.337C178.129 151.045 178.054 150.653 178.054 150.161V142.806ZM185.279 144.604V145.574H181.28V144.604H185.279ZM182.634 142.806H183.898V150.168C183.898 150.419 183.937 150.608 184.015 150.735C184.092 150.863 184.192 150.947 184.315 150.988C184.438 151.029 184.571 151.05 184.712 151.05C184.817 151.05 184.926 151.041 185.04 151.022C185.159 151 185.247 150.981 185.307 150.968L185.313 152C185.213 152.032 185.081 152.062 184.917 152.089C184.757 152.121 184.564 152.137 184.336 152.137C184.026 152.137 183.741 152.075 183.481 151.952C183.222 151.829 183.014 151.624 182.859 151.337C182.709 151.045 182.634 150.653 182.634 150.161V142.806ZM189.832 152.137C189.317 152.137 188.85 152.05 188.431 151.877C188.016 151.699 187.658 151.451 187.357 151.132C187.061 150.813 186.833 150.435 186.674 149.997C186.514 149.56 186.435 149.081 186.435 148.562V148.274C186.435 147.673 186.523 147.137 186.701 146.668C186.879 146.194 187.12 145.793 187.426 145.465C187.731 145.137 188.077 144.888 188.465 144.72C188.852 144.551 189.253 144.467 189.668 144.467C190.197 144.467 190.652 144.558 191.035 144.74C191.423 144.923 191.739 145.178 191.985 145.506C192.231 145.829 192.414 146.212 192.532 146.654C192.651 147.092 192.71 147.57 192.71 148.09V148.657H187.187V147.625H191.445V147.529C191.427 147.201 191.359 146.882 191.24 146.572C191.126 146.262 190.944 146.007 190.693 145.807C190.443 145.606 190.101 145.506 189.668 145.506C189.381 145.506 189.117 145.567 188.875 145.69C188.633 145.809 188.426 145.987 188.253 146.224C188.08 146.461 187.945 146.75 187.85 147.092C187.754 147.434 187.706 147.828 187.706 148.274V148.562C187.706 148.912 187.754 149.243 187.85 149.553C187.95 149.858 188.093 150.127 188.28 150.359C188.472 150.592 188.702 150.774 188.971 150.906C189.244 151.038 189.554 151.104 189.9 151.104C190.347 151.104 190.725 151.013 191.035 150.831C191.345 150.649 191.616 150.405 191.849 150.1L192.614 150.708C192.455 150.95 192.252 151.18 192.006 151.398C191.76 151.617 191.457 151.795 191.097 151.932C190.741 152.068 190.32 152.137 189.832 152.137ZM198.849 150.564V141.5H200.12V152H198.958L198.849 150.564ZM193.872 148.384V148.24C193.872 147.675 193.94 147.162 194.077 146.702C194.218 146.237 194.417 145.839 194.672 145.506C194.932 145.173 195.239 144.918 195.595 144.74C195.955 144.558 196.356 144.467 196.798 144.467C197.263 144.467 197.668 144.549 198.015 144.713C198.366 144.872 198.662 145.107 198.903 145.417C199.149 145.722 199.343 146.091 199.484 146.524C199.626 146.957 199.724 147.447 199.778 147.994V148.623C199.728 149.165 199.63 149.653 199.484 150.086C199.343 150.519 199.149 150.888 198.903 151.193C198.662 151.499 198.366 151.733 198.015 151.897C197.664 152.057 197.254 152.137 196.784 152.137C196.351 152.137 195.955 152.043 195.595 151.856C195.239 151.67 194.932 151.408 194.672 151.07C194.417 150.733 194.218 150.337 194.077 149.881C193.94 149.421 193.872 148.922 193.872 148.384ZM195.144 148.24V148.384C195.144 148.753 195.18 149.099 195.253 149.423C195.33 149.746 195.449 150.031 195.608 150.277C195.768 150.523 195.971 150.717 196.217 150.858C196.463 150.995 196.757 151.063 197.099 151.063C197.518 151.063 197.862 150.975 198.131 150.797C198.404 150.619 198.623 150.384 198.787 150.093C198.951 149.801 199.079 149.484 199.17 149.143V147.495C199.115 147.244 199.035 147.003 198.931 146.771C198.83 146.534 198.698 146.324 198.534 146.142C198.375 145.955 198.176 145.807 197.939 145.697C197.707 145.588 197.431 145.533 197.112 145.533C196.766 145.533 196.467 145.606 196.217 145.752C195.971 145.893 195.768 146.089 195.608 146.34C195.449 146.586 195.33 146.873 195.253 147.201C195.18 147.525 195.144 147.871 195.144 148.24ZM159.46 165.484C159.46 165.252 159.424 165.047 159.351 164.869C159.282 164.687 159.159 164.523 158.981 164.377C158.808 164.231 158.567 164.092 158.257 163.96C157.951 163.828 157.564 163.693 157.095 163.557C156.603 163.411 156.158 163.249 155.762 163.071C155.365 162.889 155.026 162.682 154.743 162.449C154.461 162.217 154.244 161.95 154.094 161.649C153.943 161.349 153.868 161.005 153.868 160.617C153.868 160.23 153.948 159.872 154.107 159.544C154.267 159.216 154.495 158.931 154.791 158.689C155.092 158.443 155.45 158.252 155.864 158.115C156.279 157.979 156.742 157.91 157.252 157.91C157.999 157.91 158.633 158.054 159.152 158.341C159.676 158.623 160.075 158.995 160.349 159.455C160.622 159.911 160.759 160.398 160.759 160.918H159.446C159.446 160.544 159.367 160.214 159.207 159.927C159.048 159.635 158.806 159.407 158.482 159.243C158.159 159.075 157.749 158.99 157.252 158.99C156.783 158.99 156.395 159.061 156.09 159.202C155.785 159.343 155.557 159.535 155.406 159.776C155.26 160.018 155.188 160.294 155.188 160.604C155.188 160.813 155.231 161.005 155.317 161.178C155.409 161.346 155.548 161.504 155.734 161.649C155.926 161.795 156.167 161.93 156.459 162.053C156.755 162.176 157.108 162.294 157.519 162.408C158.084 162.568 158.571 162.745 158.981 162.941C159.392 163.137 159.729 163.358 159.993 163.604C160.262 163.846 160.46 164.122 160.588 164.432C160.72 164.737 160.786 165.083 160.786 165.471C160.786 165.876 160.704 166.243 160.54 166.571C160.376 166.899 160.141 167.18 159.836 167.412C159.531 167.645 159.164 167.825 158.735 167.952C158.312 168.075 157.838 168.137 157.313 168.137C156.853 168.137 156.4 168.073 155.953 167.945C155.511 167.818 155.108 167.626 154.743 167.371C154.383 167.116 154.094 166.801 153.875 166.428C153.661 166.049 153.554 165.612 153.554 165.115H154.866C154.866 165.457 154.932 165.751 155.064 165.997C155.197 166.239 155.377 166.439 155.604 166.599C155.837 166.758 156.099 166.877 156.391 166.954C156.687 167.027 156.994 167.063 157.313 167.063C157.774 167.063 158.163 167 158.482 166.872C158.801 166.744 159.043 166.562 159.207 166.325C159.376 166.088 159.46 165.808 159.46 165.484ZM163.65 160.604V168H162.379V160.604H163.65ZM162.283 158.642C162.283 158.437 162.345 158.263 162.468 158.122C162.595 157.981 162.782 157.91 163.028 157.91C163.27 157.91 163.454 157.981 163.582 158.122C163.714 158.263 163.78 158.437 163.78 158.642C163.78 158.838 163.714 159.006 163.582 159.147C163.454 159.284 163.27 159.353 163.028 159.353C162.782 159.353 162.595 159.284 162.468 159.147C162.345 159.006 162.283 158.838 162.283 158.642ZM170.473 160.604H171.621V167.843C171.621 168.494 171.489 169.05 171.225 169.511C170.96 169.971 170.591 170.32 170.117 170.557C169.648 170.798 169.105 170.919 168.49 170.919C168.235 170.919 167.934 170.878 167.588 170.796C167.246 170.718 166.909 170.584 166.576 170.393C166.248 170.206 165.972 169.953 165.749 169.634L166.412 168.882C166.722 169.256 167.046 169.515 167.383 169.661C167.725 169.807 168.062 169.88 168.395 169.88C168.796 169.88 169.142 169.805 169.434 169.654C169.725 169.504 169.951 169.281 170.11 168.984C170.274 168.693 170.356 168.333 170.356 167.904V162.23L170.473 160.604ZM165.38 164.384V164.24C165.38 163.675 165.446 163.162 165.578 162.702C165.715 162.237 165.909 161.839 166.159 161.506C166.414 161.173 166.722 160.918 167.082 160.74C167.442 160.558 167.848 160.467 168.299 160.467C168.764 160.467 169.169 160.549 169.516 160.713C169.867 160.872 170.163 161.107 170.404 161.417C170.65 161.722 170.844 162.091 170.985 162.524C171.127 162.957 171.225 163.447 171.279 163.994V164.623C171.229 165.165 171.131 165.653 170.985 166.086C170.844 166.519 170.65 166.888 170.404 167.193C170.163 167.499 169.867 167.733 169.516 167.897C169.165 168.057 168.755 168.137 168.285 168.137C167.843 168.137 167.442 168.043 167.082 167.856C166.727 167.67 166.421 167.408 166.166 167.07C165.911 166.733 165.715 166.337 165.578 165.881C165.446 165.421 165.38 164.922 165.38 164.384ZM166.645 164.24V164.384C166.645 164.753 166.681 165.099 166.754 165.423C166.831 165.746 166.948 166.031 167.103 166.277C167.262 166.523 167.465 166.717 167.711 166.858C167.957 166.995 168.251 167.063 168.593 167.063C169.012 167.063 169.358 166.975 169.632 166.797C169.905 166.619 170.122 166.384 170.281 166.093C170.445 165.801 170.573 165.484 170.664 165.143V163.495C170.614 163.244 170.536 163.003 170.432 162.771C170.331 162.534 170.199 162.324 170.035 162.142C169.876 161.955 169.677 161.807 169.44 161.697C169.203 161.588 168.925 161.533 168.606 161.533C168.26 161.533 167.962 161.606 167.711 161.752C167.465 161.893 167.262 162.089 167.103 162.34C166.948 162.586 166.831 162.873 166.754 163.201C166.681 163.525 166.645 163.871 166.645 164.24ZM174.807 162.183V168H173.542V160.604H174.738L174.807 162.183ZM174.506 164.021L173.979 164.001C173.984 163.495 174.059 163.028 174.205 162.6C174.351 162.167 174.556 161.791 174.82 161.472C175.085 161.153 175.399 160.907 175.764 160.733C176.133 160.556 176.541 160.467 176.987 160.467C177.352 160.467 177.68 160.517 177.972 160.617C178.263 160.713 178.512 160.868 178.717 161.082C178.926 161.296 179.086 161.574 179.195 161.916C179.305 162.253 179.359 162.666 179.359 163.153V168H178.088V163.14C178.088 162.752 178.031 162.442 177.917 162.21C177.803 161.973 177.637 161.802 177.418 161.697C177.199 161.588 176.93 161.533 176.611 161.533C176.297 161.533 176.01 161.599 175.75 161.731C175.495 161.864 175.274 162.046 175.087 162.278C174.905 162.511 174.761 162.777 174.656 163.078C174.556 163.374 174.506 163.689 174.506 164.021ZM185.642 166.735V162.928C185.642 162.636 185.582 162.383 185.464 162.169C185.35 161.95 185.177 161.782 184.944 161.663C184.712 161.545 184.425 161.485 184.083 161.485C183.764 161.485 183.484 161.54 183.242 161.649C183.005 161.759 182.818 161.902 182.682 162.08C182.549 162.258 182.483 162.449 182.483 162.654H181.219C181.219 162.39 181.287 162.128 181.424 161.868C181.561 161.608 181.757 161.374 182.012 161.164C182.271 160.95 182.581 160.781 182.941 160.658C183.306 160.531 183.712 160.467 184.158 160.467C184.696 160.467 185.17 160.558 185.58 160.74C185.995 160.923 186.318 161.198 186.551 161.567C186.788 161.932 186.906 162.39 186.906 162.941V166.387C186.906 166.633 186.927 166.895 186.968 167.173C187.013 167.451 187.079 167.69 187.166 167.891V168H185.847C185.783 167.854 185.733 167.66 185.696 167.419C185.66 167.173 185.642 166.945 185.642 166.735ZM185.86 163.516L185.874 164.404H184.596C184.236 164.404 183.914 164.434 183.632 164.493C183.349 164.548 183.112 164.632 182.921 164.746C182.729 164.86 182.584 165.004 182.483 165.177C182.383 165.345 182.333 165.544 182.333 165.771C182.333 166.004 182.385 166.216 182.49 166.407C182.595 166.599 182.752 166.751 182.962 166.865C183.176 166.975 183.438 167.029 183.748 167.029C184.135 167.029 184.477 166.947 184.773 166.783C185.07 166.619 185.304 166.419 185.478 166.182C185.655 165.945 185.751 165.715 185.765 165.491L186.305 166.1C186.273 166.291 186.186 166.503 186.045 166.735C185.904 166.968 185.715 167.191 185.478 167.405C185.245 167.615 184.967 167.79 184.644 167.932C184.325 168.068 183.965 168.137 183.563 168.137C183.062 168.137 182.622 168.039 182.244 167.843C181.87 167.647 181.579 167.385 181.369 167.057C181.164 166.724 181.062 166.353 181.062 165.942C181.062 165.546 181.139 165.197 181.294 164.896C181.449 164.591 181.672 164.338 181.964 164.138C182.256 163.933 182.606 163.778 183.017 163.673C183.427 163.568 183.885 163.516 184.391 163.516H185.86ZM190.27 157.5V168H188.998V157.5H190.27Z" fill="#FF0000"/>
<path d="M246.155 142.047H249.45C250.198 142.047 250.829 142.161 251.344 142.389C251.863 142.617 252.257 142.954 252.526 143.4C252.8 143.842 252.937 144.387 252.937 145.034C252.937 145.49 252.843 145.907 252.656 146.285C252.474 146.659 252.21 146.978 251.863 147.242C251.521 147.502 251.111 147.696 250.633 147.823L250.264 147.967H247.167L247.153 146.894H249.491C249.965 146.894 250.359 146.812 250.674 146.647C250.988 146.479 251.225 146.253 251.385 145.971C251.544 145.688 251.624 145.376 251.624 145.034C251.624 144.651 251.549 144.316 251.398 144.029C251.248 143.742 251.011 143.521 250.688 143.366C250.368 143.207 249.956 143.127 249.45 143.127H247.475V152H246.155V142.047ZM251.973 152L249.553 147.488L250.927 147.481L253.381 151.918V152H251.973ZM257.66 152.137C257.145 152.137 256.678 152.05 256.259 151.877C255.844 151.699 255.486 151.451 255.186 151.132C254.889 150.813 254.661 150.435 254.502 149.997C254.342 149.56 254.263 149.081 254.263 148.562V148.274C254.263 147.673 254.352 147.137 254.529 146.668C254.707 146.194 254.949 145.793 255.254 145.465C255.559 145.137 255.906 144.888 256.293 144.72C256.68 144.551 257.081 144.467 257.496 144.467C258.025 144.467 258.48 144.558 258.863 144.74C259.251 144.923 259.567 145.178 259.813 145.506C260.06 145.829 260.242 146.212 260.36 146.654C260.479 147.092 260.538 147.57 260.538 148.09V148.657H255.015V147.625H259.273V147.529C259.255 147.201 259.187 146.882 259.068 146.572C258.954 146.262 258.772 146.007 258.521 145.807C258.271 145.606 257.929 145.506 257.496 145.506C257.209 145.506 256.945 145.567 256.703 145.69C256.462 145.809 256.254 145.987 256.081 146.224C255.908 146.461 255.773 146.75 255.678 147.092C255.582 147.434 255.534 147.828 255.534 148.274V148.562C255.534 148.912 255.582 149.243 255.678 149.553C255.778 149.858 255.922 150.127 256.108 150.359C256.3 150.592 256.53 150.774 256.799 150.906C257.072 151.038 257.382 151.104 257.729 151.104C258.175 151.104 258.553 151.013 258.863 150.831C259.173 150.649 259.444 150.405 259.677 150.1L260.442 150.708C260.283 150.95 260.08 151.18 259.834 151.398C259.588 151.617 259.285 151.795 258.925 151.932C258.569 152.068 258.148 152.137 257.66 152.137ZM264.975 151.098C265.275 151.098 265.553 151.036 265.809 150.913C266.064 150.79 266.273 150.621 266.438 150.407C266.602 150.188 266.695 149.94 266.718 149.662H267.921C267.898 150.1 267.75 150.507 267.477 150.886C267.208 151.259 266.854 151.562 266.417 151.795C265.979 152.023 265.499 152.137 264.975 152.137C264.419 152.137 263.933 152.039 263.519 151.843C263.108 151.647 262.767 151.378 262.493 151.036C262.224 150.694 262.021 150.302 261.885 149.86C261.753 149.414 261.687 148.942 261.687 148.445V148.158C261.687 147.661 261.753 147.192 261.885 146.75C262.021 146.303 262.224 145.909 262.493 145.567C262.767 145.226 263.108 144.957 263.519 144.761C263.933 144.565 264.419 144.467 264.975 144.467C265.553 144.467 266.059 144.585 266.492 144.822C266.925 145.055 267.265 145.374 267.511 145.779C267.761 146.18 267.898 146.636 267.921 147.146H266.718C266.695 146.841 266.608 146.565 266.458 146.319C266.312 146.073 266.112 145.877 265.856 145.731C265.606 145.581 265.312 145.506 264.975 145.506C264.587 145.506 264.261 145.583 263.997 145.738C263.737 145.889 263.53 146.094 263.375 146.354C263.225 146.609 263.115 146.894 263.047 147.208C262.983 147.518 262.951 147.835 262.951 148.158V148.445C262.951 148.769 262.983 149.088 263.047 149.402C263.111 149.717 263.218 150.002 263.368 150.257C263.523 150.512 263.73 150.717 263.99 150.872C264.255 151.022 264.583 151.098 264.975 151.098ZM272.412 152.137C271.897 152.137 271.43 152.05 271.011 151.877C270.596 151.699 270.238 151.451 269.938 151.132C269.641 150.813 269.413 150.435 269.254 149.997C269.094 149.56 269.015 149.081 269.015 148.562V148.274C269.015 147.673 269.104 147.137 269.281 146.668C269.459 146.194 269.701 145.793 270.006 145.465C270.311 145.137 270.658 144.888 271.045 144.72C271.432 144.551 271.833 144.467 272.248 144.467C272.777 144.467 273.232 144.558 273.615 144.74C274.003 144.923 274.319 145.178 274.565 145.506C274.812 145.829 274.994 146.212 275.112 146.654C275.231 147.092 275.29 147.57 275.29 148.09V148.657H269.767V147.625H274.025V147.529C274.007 147.201 273.939 146.882 273.82 146.572C273.706 146.262 273.524 146.007 273.273 145.807C273.023 145.606 272.681 145.506 272.248 145.506C271.961 145.506 271.697 145.567 271.455 145.69C271.214 145.809 271.006 145.987 270.833 146.224C270.66 146.461 270.525 146.75 270.43 147.092C270.334 147.434 270.286 147.828 270.286 148.274V148.562C270.286 148.912 270.334 149.243 270.43 149.553C270.53 149.858 270.674 150.127 270.86 150.359C271.052 150.592 271.282 150.774 271.551 150.906C271.824 151.038 272.134 151.104 272.48 151.104C272.927 151.104 273.305 151.013 273.615 150.831C273.925 150.649 274.196 150.405 274.429 150.1L275.194 150.708C275.035 150.95 274.832 151.18 274.586 151.398C274.34 151.617 274.037 151.795 273.677 151.932C273.321 152.068 272.9 152.137 272.412 152.137ZM278.141 144.604V152H276.869V144.604H278.141ZM276.773 142.642C276.773 142.437 276.835 142.263 276.958 142.122C277.086 141.981 277.272 141.91 277.519 141.91C277.76 141.91 277.945 141.981 278.072 142.122C278.204 142.263 278.271 142.437 278.271 142.642C278.271 142.838 278.204 143.006 278.072 143.147C277.945 143.284 277.76 143.353 277.519 143.353C277.272 143.353 277.086 143.284 276.958 143.147C276.835 143.006 276.773 142.838 276.773 142.642ZM282.42 150.858L284.443 144.604H285.735L283.076 152H282.229L282.42 150.858ZM280.731 144.604L282.816 150.893L282.96 152H282.112L279.433 144.604H280.731ZM289.926 152.137C289.411 152.137 288.944 152.05 288.524 151.877C288.11 151.699 287.752 151.451 287.451 151.132C287.155 150.813 286.927 150.435 286.768 149.997C286.608 149.56 286.528 149.081 286.528 148.562V148.274C286.528 147.673 286.617 147.137 286.795 146.668C286.973 146.194 287.214 145.793 287.52 145.465C287.825 145.137 288.171 144.888 288.559 144.72C288.946 144.551 289.347 144.467 289.762 144.467C290.29 144.467 290.746 144.558 291.129 144.74C291.516 144.923 291.833 145.178 292.079 145.506C292.325 145.829 292.507 146.212 292.626 146.654C292.744 147.092 292.804 147.57 292.804 148.09V148.657H287.28V147.625H291.539V147.529C291.521 147.201 291.452 146.882 291.334 146.572C291.22 146.262 291.038 146.007 290.787 145.807C290.536 145.606 290.195 145.506 289.762 145.506C289.475 145.506 289.21 145.567 288.969 145.69C288.727 145.809 288.52 145.987 288.347 146.224C288.174 146.461 288.039 146.75 287.943 147.092C287.848 147.434 287.8 147.828 287.8 148.274V148.562C287.8 148.912 287.848 149.243 287.943 149.553C288.044 149.858 288.187 150.127 288.374 150.359C288.565 150.592 288.796 150.774 289.064 150.906C289.338 151.038 289.648 151.104 289.994 151.104C290.441 151.104 290.819 151.013 291.129 150.831C291.439 150.649 291.71 150.405 291.942 150.1L292.708 150.708C292.549 150.95 292.346 151.18 292.1 151.398C291.854 151.617 291.55 151.795 291.19 151.932C290.835 152.068 290.413 152.137 289.926 152.137ZM298.942 150.564V141.5H300.214V152H299.052L298.942 150.564ZM293.966 148.384V148.24C293.966 147.675 294.034 147.162 294.171 146.702C294.312 146.237 294.51 145.839 294.766 145.506C295.025 145.173 295.333 144.918 295.688 144.74C296.049 144.558 296.45 144.467 296.892 144.467C297.356 144.467 297.762 144.549 298.108 144.713C298.459 144.872 298.756 145.107 298.997 145.417C299.243 145.722 299.437 146.091 299.578 146.524C299.719 146.957 299.817 147.447 299.872 147.994V148.623C299.822 149.165 299.724 149.653 299.578 150.086C299.437 150.519 299.243 150.888 298.997 151.193C298.756 151.499 298.459 151.733 298.108 151.897C297.757 152.057 297.347 152.137 296.878 152.137C296.445 152.137 296.049 152.043 295.688 151.856C295.333 151.67 295.025 151.408 294.766 151.07C294.51 150.733 294.312 150.337 294.171 149.881C294.034 149.421 293.966 148.922 293.966 148.384ZM295.237 148.24V148.384C295.237 148.753 295.274 149.099 295.347 149.423C295.424 149.746 295.543 150.031 295.702 150.277C295.862 150.523 296.064 150.717 296.311 150.858C296.557 150.995 296.851 151.063 297.192 151.063C297.612 151.063 297.956 150.975 298.225 150.797C298.498 150.619 298.717 150.384 298.881 150.093C299.045 149.801 299.173 149.484 299.264 149.143V147.495C299.209 147.244 299.129 147.003 299.024 146.771C298.924 146.534 298.792 146.324 298.628 146.142C298.468 145.955 298.27 145.807 298.033 145.697C297.801 145.588 297.525 145.533 297.206 145.533C296.86 145.533 296.561 145.606 296.311 145.752C296.064 145.893 295.862 146.089 295.702 146.34C295.543 146.586 295.424 146.873 295.347 147.201C295.274 147.525 295.237 147.871 295.237 148.24ZM251.46 165.484C251.46 165.252 251.424 165.047 251.351 164.869C251.282 164.687 251.159 164.523 250.981 164.377C250.808 164.231 250.567 164.092 250.257 163.96C249.951 163.828 249.564 163.693 249.095 163.557C248.603 163.411 248.158 163.249 247.762 163.071C247.365 162.889 247.026 162.682 246.743 162.449C246.461 162.217 246.244 161.95 246.094 161.649C245.943 161.349 245.868 161.005 245.868 160.617C245.868 160.23 245.948 159.872 246.107 159.544C246.267 159.216 246.495 158.931 246.791 158.689C247.092 158.443 247.45 158.252 247.864 158.115C248.279 157.979 248.742 157.91 249.252 157.91C249.999 157.91 250.633 158.054 251.152 158.341C251.676 158.623 252.075 158.995 252.349 159.455C252.622 159.911 252.759 160.398 252.759 160.918H251.446C251.446 160.544 251.367 160.214 251.207 159.927C251.048 159.635 250.806 159.407 250.482 159.243C250.159 159.075 249.749 158.99 249.252 158.99C248.783 158.99 248.395 159.061 248.09 159.202C247.785 159.343 247.557 159.535 247.406 159.776C247.26 160.018 247.188 160.294 247.188 160.604C247.188 160.813 247.231 161.005 247.317 161.178C247.409 161.346 247.548 161.504 247.734 161.649C247.926 161.795 248.167 161.93 248.459 162.053C248.755 162.176 249.108 162.294 249.519 162.408C250.084 162.568 250.571 162.745 250.981 162.941C251.392 163.137 251.729 163.358 251.993 163.604C252.262 163.846 252.46 164.122 252.588 164.432C252.72 164.737 252.786 165.083 252.786 165.471C252.786 165.876 252.704 166.243 252.54 166.571C252.376 166.899 252.141 167.18 251.836 167.412C251.531 167.645 251.164 167.825 250.735 167.952C250.312 168.075 249.838 168.137 249.313 168.137C248.853 168.137 248.4 168.073 247.953 167.945C247.511 167.818 247.108 167.626 246.743 167.371C246.383 167.116 246.094 166.801 245.875 166.428C245.661 166.049 245.554 165.612 245.554 165.115H246.866C246.866 165.457 246.932 165.751 247.064 165.997C247.197 166.239 247.377 166.439 247.604 166.599C247.837 166.758 248.099 166.877 248.391 166.954C248.687 167.027 248.994 167.063 249.313 167.063C249.774 167.063 250.163 167 250.482 166.872C250.801 166.744 251.043 166.562 251.207 166.325C251.376 166.088 251.46 165.808 251.46 165.484ZM255.65 160.604V168H254.379V160.604H255.65ZM254.283 158.642C254.283 158.437 254.345 158.263 254.468 158.122C254.595 157.981 254.782 157.91 255.028 157.91C255.27 157.91 255.454 157.981 255.582 158.122C255.714 158.263 255.78 158.437 255.78 158.642C255.78 158.838 255.714 159.006 255.582 159.147C255.454 159.284 255.27 159.353 255.028 159.353C254.782 159.353 254.595 159.284 254.468 159.147C254.345 159.006 254.283 158.838 254.283 158.642ZM262.473 160.604H263.621V167.843C263.621 168.494 263.489 169.05 263.225 169.511C262.96 169.971 262.591 170.32 262.117 170.557C261.648 170.798 261.105 170.919 260.49 170.919C260.235 170.919 259.934 170.878 259.588 170.796C259.246 170.718 258.909 170.584 258.576 170.393C258.248 170.206 257.972 169.953 257.749 169.634L258.412 168.882C258.722 169.256 259.046 169.515 259.383 169.661C259.725 169.807 260.062 169.88 260.395 169.88C260.796 169.88 261.142 169.805 261.434 169.654C261.725 169.504 261.951 169.281 262.11 168.984C262.274 168.693 262.356 168.333 262.356 167.904V162.23L262.473 160.604ZM257.38 164.384V164.24C257.38 163.675 257.446 163.162 257.578 162.702C257.715 162.237 257.909 161.839 258.159 161.506C258.414 161.173 258.722 160.918 259.082 160.74C259.442 160.558 259.848 160.467 260.299 160.467C260.764 160.467 261.169 160.549 261.516 160.713C261.867 160.872 262.163 161.107 262.404 161.417C262.65 161.722 262.844 162.091 262.985 162.524C263.127 162.957 263.225 163.447 263.279 163.994V164.623C263.229 165.165 263.131 165.653 262.985 166.086C262.844 166.519 262.65 166.888 262.404 167.193C262.163 167.499 261.867 167.733 261.516 167.897C261.165 168.057 260.755 168.137 260.285 168.137C259.843 168.137 259.442 168.043 259.082 167.856C258.727 167.67 258.421 167.408 258.166 167.07C257.911 166.733 257.715 166.337 257.578 165.881C257.446 165.421 257.38 164.922 257.38 164.384ZM258.645 164.24V164.384C258.645 164.753 258.681 165.099 258.754 165.423C258.831 165.746 258.948 166.031 259.103 166.277C259.262 166.523 259.465 166.717 259.711 166.858C259.957 166.995 260.251 167.063 260.593 167.063C261.012 167.063 261.358 166.975 261.632 166.797C261.905 166.619 262.122 166.384 262.281 166.093C262.445 165.801 262.573 165.484 262.664 165.143V163.495C262.614 163.244 262.536 163.003 262.432 162.771C262.331 162.534 262.199 162.324 262.035 162.142C261.876 161.955 261.677 161.807 261.44 161.697C261.203 161.588 260.925 161.533 260.606 161.533C260.26 161.533 259.962 161.606 259.711 161.752C259.465 161.893 259.262 162.089 259.103 162.34C258.948 162.586 258.831 162.873 258.754 163.201C258.681 163.525 258.645 163.871 258.645 164.24ZM266.807 162.183V168H265.542V160.604H266.738L266.807 162.183ZM266.506 164.021L265.979 164.001C265.984 163.495 266.059 163.028 266.205 162.6C266.351 162.167 266.556 161.791 266.82 161.472C267.085 161.153 267.399 160.907 267.764 160.733C268.133 160.556 268.541 160.467 268.987 160.467C269.352 160.467 269.68 160.517 269.972 160.617C270.263 160.713 270.512 160.868 270.717 161.082C270.926 161.296 271.086 161.574 271.195 161.916C271.305 162.253 271.359 162.666 271.359 163.153V168H270.088V163.14C270.088 162.752 270.031 162.442 269.917 162.21C269.803 161.973 269.637 161.802 269.418 161.697C269.199 161.588 268.93 161.533 268.611 161.533C268.297 161.533 268.01 161.599 267.75 161.731C267.495 161.864 267.274 162.046 267.087 162.278C266.905 162.511 266.761 162.777 266.656 163.078C266.556 163.374 266.506 163.689 266.506 164.021ZM277.642 166.735V162.928C277.642 162.636 277.582 162.383 277.464 162.169C277.35 161.95 277.177 161.782 276.944 161.663C276.712 161.545 276.425 161.485 276.083 161.485C275.764 161.485 275.484 161.54 275.242 161.649C275.005 161.759 274.818 161.902 274.682 162.08C274.549 162.258 274.483 162.449 274.483 162.654H273.219C273.219 162.39 273.287 162.128 273.424 161.868C273.561 161.608 273.757 161.374 274.012 161.164C274.271 160.95 274.581 160.781 274.941 160.658C275.306 160.531 275.712 160.467 276.158 160.467C276.696 160.467 277.17 160.558 277.58 160.74C277.995 160.923 278.318 161.198 278.551 161.567C278.788 161.932 278.906 162.39 278.906 162.941V166.387C278.906 166.633 278.927 166.895 278.968 167.173C279.013 167.451 279.079 167.69 279.166 167.891V168H277.847C277.783 167.854 277.733 167.66 277.696 167.419C277.66 167.173 277.642 166.945 277.642 166.735ZM277.86 163.516L277.874 164.404H276.596C276.236 164.404 275.914 164.434 275.632 164.493C275.349 164.548 275.112 164.632 274.921 164.746C274.729 164.86 274.584 165.004 274.483 165.177C274.383 165.345 274.333 165.544 274.333 165.771C274.333 166.004 274.385 166.216 274.49 166.407C274.595 166.599 274.752 166.751 274.962 166.865C275.176 166.975 275.438 167.029 275.748 167.029C276.135 167.029 276.477 166.947 276.773 166.783C277.07 166.619 277.304 166.419 277.478 166.182C277.655 165.945 277.751 165.715 277.765 165.491L278.305 166.1C278.273 166.291 278.186 166.503 278.045 166.735C277.904 166.968 277.715 167.191 277.478 167.405C277.245 167.615 276.967 167.79 276.644 167.932C276.325 168.068 275.965 168.137 275.563 168.137C275.062 168.137 274.622 168.039 274.244 167.843C273.87 167.647 273.579 167.385 273.369 167.057C273.164 166.724 273.062 166.353 273.062 165.942C273.062 165.546 273.139 165.197 273.294 164.896C273.449 164.591 273.672 164.338 273.964 164.138C274.256 163.933 274.606 163.778 275.017 163.673C275.427 163.568 275.885 163.516 276.391 163.516H277.86ZM282.27 157.5V168H280.998V157.5H282.27Z" fill="#0029FF"/>
<path d="M353.47 166.47C353.177 166.763 353.177 167.237 353.47 167.53L358.243 172.303C358.536 172.596 359.01 172.596 359.303 172.303C359.596 172.01 359.596 171.536 359.303 171.243L355.061 167L359.303 162.757C359.596 162.464 359.596 161.99 359.303 161.697C359.01 161.404 358.536 161.404 358.243 161.697L353.47 166.47ZM388.53 167.53C388.823 167.237 388.823 166.763 388.53 166.47L383.757 161.697C383.464 161.404 382.99 161.404 382.697 161.697C382.404 161.99 382.404 162.464 382.697 162.757L386.939 167L382.697 171.243C382.404 171.536 382.404 172.01 382.697 172.303C382.99 172.596 383.464 172.596 383.757 172.303L388.53 167.53ZM354 167.75H388V166.25H354V167.75Z" fill="black"/>
<path d="M371.458 189.201V177.485C371.458 177.075 371.549 176.724 371.73 176.431C371.918 176.132 372.176 175.9 372.504 175.736C372.838 175.572 373.225 175.49 373.664 175.49C374.244 175.49 374.789 175.607 375.299 175.842C375.814 176.076 376.269 176.407 376.661 176.835C377.054 177.257 377.361 177.758 377.584 178.338C377.807 178.912 377.918 179.539 377.918 180.219C377.918 180.869 377.815 181.493 377.61 182.091C377.405 182.683 377.077 183.213 376.626 183.682C376.181 184.145 375.598 184.511 374.877 184.78C374.162 185.05 373.292 185.185 372.267 185.185C371.265 185.185 370.415 185.047 369.718 184.771C369.021 184.49 368.455 184.109 368.021 183.629C367.588 183.148 367.271 182.601 367.072 181.985C366.873 181.364 366.773 180.717 366.773 180.043C366.773 179.387 366.858 178.777 367.028 178.215C367.198 177.652 367.45 177.143 367.784 176.686C368.118 176.223 368.531 175.824 369.023 175.49L369.902 176.65C369.557 176.955 369.275 177.295 369.059 177.67C368.842 178.045 368.681 178.435 368.575 178.839C368.476 179.243 368.417 179.645 368.399 180.043C368.399 180.5 368.467 180.954 368.602 181.405C368.736 181.851 368.953 182.258 369.252 182.627C369.551 182.996 369.946 183.292 370.438 183.515C370.937 183.737 371.546 183.849 372.267 183.849C373.257 183.849 374.045 183.667 374.631 183.304C375.217 182.935 375.639 182.472 375.896 181.915C376.16 181.358 376.292 180.793 376.292 180.219C376.286 179.791 376.225 179.375 376.107 178.971C375.99 178.566 375.82 178.203 375.598 177.881C375.381 177.559 375.111 177.304 374.789 177.116C374.467 176.923 374.092 176.826 373.664 176.826C373.477 176.826 373.333 176.888 373.233 177.011C373.134 177.134 373.084 177.271 373.084 177.424V189.201H371.458Z" fill="black"/>
<path fill-rule="evenodd" clip-rule="evenodd" d="M266.245 101.359L266.246 101.358L266.249 101.353L266.264 101.334L266.326 101.255C266.382 101.185 266.464 101.08 266.574 100.943C266.792 100.669 267.116 100.266 267.537 99.7524C268.38 98.7246 269.609 97.2544 271.153 95.4896C274.242 91.9587 278.586 87.2555 283.607 82.5593C288.632 77.8596 294.313 73.1883 300.077 69.7045C305.858 66.2104 311.623 63.9725 316.838 64.0003C322.016 64.0278 327.735 66.2948 333.469 69.8C339.185 73.2948 344.817 77.9593 349.797 82.6445C350.73 83.5219 351.639 84.3992 352.52 85.2688L353.934 83.8546C353.039 82.9712 352.115 82.0796 351.168 81.1879C346.133 76.4514 340.39 71.6869 334.512 68.0936C328.652 64.5108 322.559 62.0307 316.848 62.0003C311.096 61.9697 304.953 64.4206 299.043 67.9928C293.115 71.5753 287.321 76.3475 282.241 81.0986C277.157 85.8533 272.766 90.6082 269.648 94.1727C268.088 95.9556 266.845 97.4425 265.99 98.4847C265.563 99.0059 265.233 99.4161 265.01 99.6966C264.898 99.8369 264.813 99.9448 264.755 100.018L264.689 100.102L264.672 100.123L264.669 100.127L264.668 100.128L264.668 100.129L264.667 100.13L264.665 100.133L264.65 100.152L264.588 100.23C264.533 100.299 264.451 100.402 264.342 100.537C264.125 100.807 263.802 101.204 263.383 101.71C262.545 102.722 261.322 104.171 259.786 105.91C256.713 109.389 252.392 114.023 247.398 118.654C242.4 123.287 236.751 127.896 231.021 131.338C225.274 134.79 219.545 137.009 214.364 137C209.196 136.991 203.482 134.762 197.751 131.306C192.037 127.861 186.404 123.255 181.421 118.626C176.442 114 172.135 109.372 169.071 105.899C167.54 104.164 166.321 102.718 165.485 101.707C165.068 101.202 164.746 100.806 164.529 100.536C164.421 100.402 164.339 100.299 164.284 100.23L164.223 100.152L164.208 100.133L164.204 100.129L164.204 100.129L164.203 100.128L164.203 100.128L164.199 100.122L164.182 100.1L164.116 100.017C164.058 99.9436 163.973 99.8357 163.86 99.6954C163.636 99.4149 163.305 99.0047 162.877 98.4835C162.02 97.4413 160.773 95.9545 159.208 94.1716C156.08 90.6071 151.676 85.8523 146.577 81.0977C141.481 76.3466 135.67 71.5746 129.726 67.9923C123.8 64.4202 117.642 61.9697 111.877 62.0003C106.154 62.0306 100.045 64.5101 94.1687 68.0929C88.275 71.6859 82.5146 76.4503 77.4651 81.1868C72.4119 85.9267 68.0485 90.6596 64.9494 94.2058C63.3992 95.9796 62.1639 97.4582 61.3152 98.4945C60.8909 99.0127 60.563 99.4205 60.3408 99.6994C60.2297 99.8388 60.1449 99.9461 60.0876 100.019L60.0225 100.102L60.0057 100.123L60.0012 100.129L60 100.131C59.9997 100.131 59.9995 100.131 60.7889 100.745C61.5782 101.359 61.5782 101.359 61.5784 101.359L61.5792 101.358L61.5827 101.353L61.5978 101.334L61.6593 101.256C61.7141 101.186 61.7963 101.082 61.9049 100.946C62.1219 100.673 62.4441 100.273 62.8626 99.7617C63.6995 98.7397 64.9209 97.2776 66.4553 95.5219C69.5253 92.009 73.842 87.3273 78.8334 82.6455C83.8284 77.9601 89.477 73.2955 95.2097 69.8005C100.959 66.2953 106.695 64.0278 111.887 64.0003C117.116 63.9726 122.897 66.2111 128.694 69.7052C134.474 73.1892 140.173 77.8607 145.213 82.5604C150.249 87.2566 154.606 91.9599 157.705 95.4908C159.254 97.2556 160.487 98.7258 161.332 99.7536C161.754 100.267 162.079 100.671 162.299 100.945C162.408 101.082 162.491 101.186 162.546 101.256L162.609 101.335L162.624 101.355L162.627 101.359L162.628 101.36C162.628 101.36 162.628 101.36 163.187 100.924L162.628 101.36L162.63 101.363L163.417 100.745C162.63 101.363 162.63 101.363 162.631 101.363L162.632 101.365L162.636 101.371L162.653 101.392L162.718 101.474C162.775 101.546 162.86 101.652 162.971 101.79C163.193 102.066 163.52 102.469 163.944 102.982C164.791 104.006 166.024 105.469 167.571 107.222C170.664 110.729 175.019 115.407 180.06 120.091C185.097 124.771 190.843 129.476 196.718 133.019C202.577 136.552 208.663 138.99 214.361 139C220.072 139.01 226.175 136.582 232.051 133.052C237.943 129.513 243.705 124.805 248.758 120.12C253.814 115.432 258.182 110.746 261.285 107.234C262.837 105.477 264.074 104.012 264.924 102.985C265.349 102.472 265.677 102.068 265.9 101.791C266.011 101.653 266.096 101.547 266.153 101.475L266.219 101.392L266.236 101.371L266.24 101.365L266.241 101.364C266.242 101.363 266.242 101.363 265.456 100.745L266.242 101.363L266.245 101.359L266.145 101.282C266.245 101.359 266.245 101.359 266.245 101.359Z" fill="#FF0000"/>
<path fill-rule="evenodd" clip-rule="evenodd" d="M62.4121 124.82L80.9962 100.877L80.997 100.876L81.0003 100.872L81.0005 100.871L81.0156 100.852L81.077 100.775C81.1318 100.706 81.2139 100.604 81.3224 100.469C81.5392 100.2 81.8612 99.8048 82.2793 99.3004C83.1155 98.2917 84.336 96.8486 85.8691 95.1155C88.9367 91.6481 93.25 87.027 98.2374 82.4057C103.229 77.781 108.873 73.1766 114.601 69.7267C120.346 66.2668 126.079 64.0274 131.27 64.0003C136.498 63.9729 142.276 66.1837 148.069 69.6326C153.845 73.0717 159.539 77.6829 164.575 82.3218C169.607 86.9573 173.961 91.5997 177.057 95.0849C178.605 96.8268 179.837 98.278 180.681 99.2925C181.103 99.7997 181.428 100.198 181.647 100.468C181.757 100.603 181.84 100.707 181.895 100.776L181.957 100.854L181.972 100.873L181.976 100.877L181.977 100.878C181.977 100.878 181.977 100.878 181.993 100.865L181.977 100.878L181.979 100.881L182.762 100.258C181.979 100.881 181.979 100.881 181.979 100.881L181.98 100.883L181.985 100.888L182.002 100.909L182.067 100.991C182.124 101.062 182.208 101.166 182.319 101.303C182.541 101.575 182.868 101.973 183.291 102.479C184.138 103.491 185.37 104.934 186.916 106.665C190.007 110.126 194.359 114.745 199.396 119.368C204.43 123.988 210.171 128.633 216.042 132.13C221.897 135.618 227.977 138.023 233.668 138.033C239.372 138.043 245.469 135.647 251.34 132.163C257.228 128.669 262.986 124.022 268.035 119.397C273.088 114.769 277.453 110.144 280.553 106.676C282.104 104.942 283.34 103.496 284.19 102.482C284.614 101.976 284.943 101.577 285.165 101.304C285.276 101.167 285.361 101.062 285.418 100.991L285.484 100.91L285.501 100.889L285.505 100.883L285.506 100.882C285.507 100.881 285.507 100.881 284.724 100.258L285.507 100.881L285.51 100.877L284.724 100.258C285.51 100.877 285.51 100.877 285.51 100.877L285.511 100.876L285.514 100.871L285.53 100.852L285.591 100.775C285.646 100.705 285.729 100.602 285.838 100.467C286.057 100.196 286.381 99.7985 286.801 99.2913C287.643 98.2768 288.871 96.8256 290.414 95.0837C293.501 91.5985 297.841 86.9561 302.858 82.3207C307.879 77.6818 313.556 73.0707 319.316 69.6319C325.092 66.1831 330.854 63.9728 336.068 64.0003C341.245 64.0275 346.962 66.2664 352.691 69.7261C358.403 73.1759 364.031 77.7801 369.007 82.4048C373.979 87.026 378.279 91.647 381.337 95.1144C382.865 96.8474 384.082 98.2906 384.915 99.2992C385.332 99.8036 385.653 100.199 385.869 100.468C385.977 100.602 386.059 100.705 386.114 100.774L386.175 100.851L386.19 100.87L386.194 100.875L386.194 100.876C386.194 100.876 386.194 100.876 386.981 100.258C387.768 99.6412 387.768 99.6409 387.767 99.6405L387.766 99.6389L387.762 99.6333L387.745 99.612L387.68 99.53C387.623 99.4582 387.539 99.3523 387.428 99.2146C387.206 98.9393 386.88 98.5368 386.457 98.0252C385.612 97.0022 384.381 95.5426 382.837 93.7916C379.75 90.2909 375.403 85.6188 370.368 80.9398C365.338 76.2642 359.598 71.561 353.725 68.0141C347.869 64.4773 341.782 62.0303 336.079 62.0003C330.333 61.9701 324.197 64.3883 318.291 67.9146C312.368 71.4509 306.577 76.1616 301.501 80.8516C296.421 85.5452 292.033 90.239 288.917 93.7577C287.358 95.5177 286.116 96.9854 285.262 98.0144C284.835 98.5289 284.505 98.9337 284.282 99.2107C284.17 99.3492 284.085 99.4558 284.027 99.528L283.962 99.6105L283.945 99.6319L283.942 99.636L283.941 99.637L283.94 99.6375L283.939 99.6391L283.937 99.6415L283.922 99.6603L283.861 99.737C283.806 99.805 283.724 99.9068 283.615 100.04C283.398 100.306 283.075 100.698 282.657 101.198C281.819 102.197 280.597 103.627 279.062 105.343C275.992 108.777 271.674 113.352 266.684 117.922C261.69 122.496 256.045 127.045 250.319 130.443C244.577 133.85 238.851 136.042 233.671 136.033C228.504 136.024 222.792 133.823 217.066 130.412C211.356 127.01 205.727 122.464 200.749 117.895C195.774 113.329 191.47 108.761 188.408 105.333C186.878 103.62 185.66 102.193 184.825 101.195C184.408 100.697 184.087 100.305 183.87 100.04C183.762 99.9067 183.68 99.8051 183.625 99.7372L183.564 99.6607L183.549 99.6419L183.546 99.6379L183.545 99.6375L183.545 99.6365L183.544 99.6363L183.54 99.6307L183.523 99.6092L183.457 99.5268C183.428 99.4906 183.392 99.4457 183.349 99.3925C183.307 99.3397 183.258 99.2786 183.202 99.2095C182.977 98.9325 182.647 98.5277 182.219 98.0132C181.362 96.9843 180.116 95.5166 178.552 93.7565C175.426 90.2379 171.025 85.5442 165.93 80.8507C160.838 76.1607 155.031 71.4502 149.092 67.9141C143.17 64.3879 137.018 61.9701 131.26 62.0003C125.544 62.0302 119.442 64.4766 113.569 68.0134C107.68 71.5601 101.924 76.2631 96.8781 80.9387C91.8285 85.6176 87.4681 90.2897 84.3712 93.7903C82.8221 95.5414 81.5877 97.001 80.7396 98.024C80.3155 98.5356 79.9879 98.9381 79.7658 99.2134C79.6547 99.3511 79.57 99.457 79.5128 99.5288L79.4477 99.6108L79.4308 99.632L79.4264 99.6377L79.4252 99.6392C79.4248 99.6396 79.4246 99.6399 80.2066 100.256L79.4246 99.6399L79.4204 99.6453L60.8918 123.517L62.4121 124.82Z" fill="#0029FF"/>
</svg>
