<svg width="696" height="332" viewBox="0 0 696 332" fill="none" xmlns="http://www.w3.org/2000/svg">
<rect x="536" y="30" width="133" height="249" fill="#0029FF" fill-opacity="0.3"/>
<rect x="367" y="30" width="133" height="249" fill="#FF9900" fill-opacity="0.3"/>
<rect x="28" y="30" width="300" height="249" fill="#FF0000" fill-opacity="0.3"/>
<rect x="44" y="290" width="608" height="42" rx="15" fill="#C4C4C4"/>
<path d="M64.126 90.4385H60.8652V88.3818H64.126C64.6299 88.3818 65.04 88.2998 65.3564 88.1357C65.6729 87.9658 65.9043 87.7314 66.0508 87.4326C66.1973 87.1338 66.2705 86.7969 66.2705 86.4219C66.2705 86.041 66.1973 85.6865 66.0508 85.3584C65.9043 85.0303 65.6729 84.7666 65.3564 84.5674C65.04 84.3682 64.6299 84.2686 64.126 84.2686H61.7793V95H59.1426V82.2031H64.126C65.1279 82.2031 65.9863 82.3848 66.7012 82.748C67.4219 83.1055 67.9727 83.6006 68.3535 84.2334C68.7344 84.8662 68.9248 85.5898 68.9248 86.4043C68.9248 87.2305 68.7344 87.9453 68.3535 88.5488C67.9727 89.1523 67.4219 89.6182 66.7012 89.9463C65.9863 90.2744 65.1279 90.4385 64.126 90.4385ZM74.8398 95.1758C74.1016 95.1758 73.4395 95.0586 72.8535 94.8242C72.2676 94.584 71.7695 94.2529 71.3594 93.8311C70.9551 93.4092 70.6445 92.9199 70.4277 92.3633C70.2109 91.8008 70.1025 91.2031 70.1025 90.5703V90.2188C70.1025 89.498 70.2051 88.8389 70.4102 88.2412C70.6152 87.6436 70.9082 87.125 71.2891 86.6855C71.6758 86.2461 72.1445 85.9092 72.6953 85.6748C73.2461 85.4346 73.8672 85.3145 74.5586 85.3145C75.2324 85.3145 75.8301 85.4258 76.3516 85.6484C76.873 85.8711 77.3096 86.1875 77.6611 86.5977C78.0186 87.0078 78.2881 87.5 78.4697 88.0742C78.6514 88.6426 78.7422 89.2754 78.7422 89.9727V91.0273H71.1836V89.3398H76.2549V89.1465C76.2549 88.7949 76.1904 88.4814 76.0615 88.2061C75.9385 87.9248 75.751 87.7021 75.499 87.5381C75.2471 87.374 74.9248 87.292 74.5322 87.292C74.1982 87.292 73.9111 87.3652 73.6709 87.5117C73.4307 87.6582 73.2344 87.8633 73.082 88.127C72.9355 88.3906 72.8242 88.7012 72.748 89.0586C72.6777 89.4102 72.6426 89.7969 72.6426 90.2188V90.5703C72.6426 90.9512 72.6953 91.3027 72.8008 91.625C72.9121 91.9473 73.0674 92.2256 73.2666 92.46C73.4717 92.6943 73.7178 92.876 74.0049 93.0049C74.2979 93.1338 74.6289 93.1982 74.998 93.1982C75.4551 93.1982 75.8799 93.1104 76.2725 92.9346C76.6709 92.7529 77.0137 92.4805 77.3008 92.1172L78.5312 93.4531C78.332 93.7402 78.0596 94.0156 77.7139 94.2793C77.374 94.543 76.9639 94.7598 76.4834 94.9297C76.0029 95.0938 75.4551 95.1758 74.8398 95.1758ZM82.7148 87.5645V95H80.1836V85.4902H82.5654L82.7148 87.5645ZM85.5801 85.4287L85.5361 87.7754C85.4131 87.7578 85.2637 87.7432 85.0879 87.7314C84.918 87.7139 84.7627 87.7051 84.6221 87.7051C84.2646 87.7051 83.9541 87.752 83.6904 87.8457C83.4326 87.9336 83.2158 88.0654 83.04 88.2412C82.8701 88.417 82.7412 88.6309 82.6533 88.8828C82.5713 89.1348 82.5244 89.4219 82.5127 89.7441L82.0029 89.5859C82.0029 88.9707 82.0645 88.4053 82.1875 87.8896C82.3105 87.3682 82.4893 86.9141 82.7236 86.5273C82.9639 86.1406 83.2568 85.8418 83.6025 85.6309C83.9482 85.4199 84.3438 85.3145 84.7891 85.3145C84.9297 85.3145 85.0732 85.3262 85.2197 85.3496C85.3662 85.3672 85.4863 85.3936 85.5801 85.4287ZM90.5283 93.1982C90.8389 93.1982 91.1143 93.1396 91.3545 93.0225C91.5947 92.8994 91.7822 92.7295 91.917 92.5127C92.0576 92.29 92.1309 92.0293 92.1367 91.7305H94.5186C94.5127 92.3984 94.334 92.9932 93.9824 93.5146C93.6309 94.0303 93.1592 94.4375 92.5674 94.7363C91.9756 95.0293 91.3135 95.1758 90.5811 95.1758C89.8428 95.1758 89.1982 95.0527 88.6475 94.8066C88.1025 94.5605 87.6484 94.2207 87.2852 93.7871C86.9219 93.3477 86.6494 92.8379 86.4678 92.2578C86.2861 91.6719 86.1953 91.0449 86.1953 90.377V90.1221C86.1953 89.4482 86.2861 88.8213 86.4678 88.2412C86.6494 87.6553 86.9219 87.1455 87.2852 86.7119C87.6484 86.2725 88.1025 85.9297 88.6475 85.6836C89.1924 85.4375 89.8311 85.3145 90.5635 85.3145C91.3428 85.3145 92.0254 85.4639 92.6113 85.7627C93.2031 86.0615 93.666 86.4893 94 87.0459C94.3398 87.5967 94.5127 88.25 94.5186 89.0059H92.1367C92.1309 88.6895 92.0635 88.4023 91.9346 88.1445C91.8115 87.8867 91.6299 87.6816 91.3896 87.5293C91.1553 87.3711 90.8652 87.292 90.5195 87.292C90.1504 87.292 89.8486 87.3711 89.6143 87.5293C89.3799 87.6816 89.1982 87.8926 89.0693 88.1621C88.9404 88.4258 88.8496 88.7275 88.7969 89.0674C88.75 89.4014 88.7266 89.7529 88.7266 90.1221V90.377C88.7266 90.7461 88.75 91.1006 88.7969 91.4404C88.8438 91.7803 88.9316 92.082 89.0605 92.3457C89.1953 92.6094 89.3799 92.8174 89.6143 92.9697C89.8486 93.1221 90.1533 93.1982 90.5283 93.1982ZM100.363 95.1758C99.625 95.1758 98.9629 95.0586 98.377 94.8242C97.791 94.584 97.293 94.2529 96.8828 93.8311C96.4785 93.4092 96.168 92.9199 95.9512 92.3633C95.7344 91.8008 95.626 91.2031 95.626 90.5703V90.2188C95.626 89.498 95.7285 88.8389 95.9336 88.2412C96.1387 87.6436 96.4316 87.125 96.8125 86.6855C97.1992 86.2461 97.668 85.9092 98.2188 85.6748C98.7695 85.4346 99.3906 85.3145 100.082 85.3145C100.756 85.3145 101.354 85.4258 101.875 85.6484C102.396 85.8711 102.833 86.1875 103.185 86.5977C103.542 87.0078 103.812 87.5 103.993 88.0742C104.175 88.6426 104.266 89.2754 104.266 89.9727V91.0273H96.707V89.3398H101.778V89.1465C101.778 88.7949 101.714 88.4814 101.585 88.2061C101.462 87.9248 101.274 87.7021 101.022 87.5381C100.771 87.374 100.448 87.292 100.056 87.292C99.7217 87.292 99.4346 87.3652 99.1943 87.5117C98.9541 87.6582 98.7578 87.8633 98.6055 88.127C98.459 88.3906 98.3477 88.7012 98.2715 89.0586C98.2012 89.4102 98.166 89.7969 98.166 90.2188V90.5703C98.166 90.9512 98.2188 91.3027 98.3242 91.625C98.4355 91.9473 98.5908 92.2256 98.79 92.46C98.9951 92.6943 99.2412 92.876 99.5283 93.0049C99.8213 93.1338 100.152 93.1982 100.521 93.1982C100.979 93.1982 101.403 93.1104 101.796 92.9346C102.194 92.7529 102.537 92.4805 102.824 92.1172L104.055 93.4531C103.855 93.7402 103.583 94.0156 103.237 94.2793C102.897 94.543 102.487 94.7598 102.007 94.9297C101.526 95.0938 100.979 95.1758 100.363 95.1758ZM108.379 85.4902V95H105.839V85.4902H108.379ZM105.681 83.0117C105.681 82.6426 105.81 82.3379 106.067 82.0977C106.325 81.8574 106.671 81.7373 107.104 81.7373C107.532 81.7373 107.875 81.8574 108.133 82.0977C108.396 82.3379 108.528 82.6426 108.528 83.0117C108.528 83.3809 108.396 83.6855 108.133 83.9258C107.875 84.166 107.532 84.2861 107.104 84.2861C106.671 84.2861 106.325 84.166 106.067 83.9258C105.81 83.6855 105.681 83.3809 105.681 83.0117ZM113.705 93.1543L115.814 85.4902H118.46L115.252 95H113.652L113.705 93.1543ZM112.255 85.4902L114.373 93.1631L114.417 95H112.809L109.601 85.4902H112.255ZM123.848 95.1758C123.109 95.1758 122.447 95.0586 121.861 94.8242C121.275 94.584 120.777 94.2529 120.367 93.8311C119.963 93.4092 119.652 92.9199 119.436 92.3633C119.219 91.8008 119.11 91.2031 119.11 90.5703V90.2188C119.11 89.498 119.213 88.8389 119.418 88.2412C119.623 87.6436 119.916 87.125 120.297 86.6855C120.684 86.2461 121.152 85.9092 121.703 85.6748C122.254 85.4346 122.875 85.3145 123.566 85.3145C124.24 85.3145 124.838 85.4258 125.359 85.6484C125.881 85.8711 126.317 86.1875 126.669 86.5977C127.026 87.0078 127.296 87.5 127.478 88.0742C127.659 88.6426 127.75 89.2754 127.75 89.9727V91.0273H120.191V89.3398H125.263V89.1465C125.263 88.7949 125.198 88.4814 125.069 88.2061C124.946 87.9248 124.759 87.7021 124.507 87.5381C124.255 87.374 123.933 87.292 123.54 87.292C123.206 87.292 122.919 87.3652 122.679 87.5117C122.438 87.6582 122.242 87.8633 122.09 88.127C121.943 88.3906 121.832 88.7012 121.756 89.0586C121.686 89.4102 121.65 89.7969 121.65 90.2188V90.5703C121.65 90.9512 121.703 91.3027 121.809 91.625C121.92 91.9473 122.075 92.2256 122.274 92.46C122.479 92.6943 122.726 92.876 123.013 93.0049C123.306 93.1338 123.637 93.1982 124.006 93.1982C124.463 93.1982 124.888 93.1104 125.28 92.9346C125.679 92.7529 126.021 92.4805 126.309 92.1172L127.539 93.4531C127.34 93.7402 127.067 94.0156 126.722 94.2793C126.382 94.543 125.972 94.7598 125.491 94.9297C125.011 95.0938 124.463 95.1758 123.848 95.1758Z" fill="black"/>
<path d="M160.805 13.6514C160.805 13.4229 160.77 13.2178 160.699 13.0361C160.635 12.8486 160.512 12.6787 160.33 12.5264C160.148 12.3682 159.894 12.2129 159.565 12.0605C159.237 11.9082 158.812 11.75 158.291 11.5859C157.711 11.3984 157.16 11.1875 156.639 10.9531C156.123 10.7188 155.666 10.4463 155.268 10.1357C154.875 9.81934 154.564 9.45312 154.336 9.03711C154.113 8.62109 154.002 8.1377 154.002 7.58691C154.002 7.05371 154.119 6.57031 154.354 6.13672C154.588 5.69727 154.916 5.32227 155.338 5.01172C155.76 4.69531 156.258 4.45215 156.832 4.28223C157.412 4.1123 158.048 4.02734 158.739 4.02734C159.683 4.02734 160.506 4.19727 161.209 4.53711C161.912 4.87695 162.457 5.34277 162.844 5.93457C163.236 6.52637 163.433 7.20312 163.433 7.96484H160.813C160.813 7.58984 160.734 7.26172 160.576 6.98047C160.424 6.69336 160.189 6.46777 159.873 6.30371C159.562 6.13965 159.17 6.05762 158.695 6.05762C158.238 6.05762 157.857 6.12793 157.553 6.26855C157.248 6.40332 157.02 6.58789 156.867 6.82227C156.715 7.05078 156.639 7.30859 156.639 7.5957C156.639 7.8125 156.691 8.00879 156.797 8.18457C156.908 8.36035 157.072 8.52441 157.289 8.67676C157.506 8.8291 157.772 8.97266 158.089 9.10742C158.405 9.24219 158.771 9.37402 159.188 9.50293C159.885 9.71387 160.497 9.95117 161.024 10.2148C161.558 10.4785 162.003 10.7744 162.36 11.1025C162.718 11.4307 162.987 11.8027 163.169 12.2188C163.351 12.6348 163.441 13.1064 163.441 13.6338C163.441 14.1904 163.333 14.6885 163.116 15.1279C162.899 15.5674 162.586 15.9395 162.176 16.2441C161.766 16.5488 161.276 16.7803 160.708 16.9385C160.14 17.0967 159.504 17.1758 158.801 17.1758C158.168 17.1758 157.544 17.0938 156.929 16.9297C156.313 16.7598 155.754 16.5049 155.25 16.165C154.752 15.8252 154.354 15.3916 154.055 14.8643C153.756 14.3369 153.606 13.7129 153.606 12.9922H156.252C156.252 13.3906 156.313 13.7275 156.437 14.0029C156.56 14.2783 156.732 14.501 156.955 14.6709C157.184 14.8408 157.453 14.9639 157.764 15.04C158.08 15.1162 158.426 15.1543 158.801 15.1543C159.258 15.1543 159.633 15.0898 159.926 14.9609C160.225 14.832 160.444 14.6533 160.585 14.4248C160.731 14.1963 160.805 13.9385 160.805 13.6514ZM169.453 17.1758C168.715 17.1758 168.053 17.0586 167.467 16.8242C166.881 16.584 166.383 16.2529 165.973 15.8311C165.568 15.4092 165.258 14.9199 165.041 14.3633C164.824 13.8008 164.716 13.2031 164.716 12.5703V12.2188C164.716 11.498 164.818 10.8389 165.023 10.2412C165.229 9.64355 165.521 9.125 165.902 8.68555C166.289 8.24609 166.758 7.90918 167.309 7.6748C167.859 7.43457 168.48 7.31445 169.172 7.31445C169.846 7.31445 170.443 7.42578 170.965 7.64844C171.486 7.87109 171.923 8.1875 172.274 8.59766C172.632 9.00781 172.901 9.5 173.083 10.0742C173.265 10.6426 173.355 11.2754 173.355 11.9727V13.0273H165.797V11.3398H170.868V11.1465C170.868 10.7949 170.804 10.4814 170.675 10.2061C170.552 9.9248 170.364 9.70215 170.112 9.53809C169.86 9.37402 169.538 9.29199 169.146 9.29199C168.812 9.29199 168.524 9.36523 168.284 9.51172C168.044 9.6582 167.848 9.86328 167.695 10.127C167.549 10.3906 167.438 10.7012 167.361 11.0586C167.291 11.4102 167.256 11.7969 167.256 12.2188V12.5703C167.256 12.9512 167.309 13.3027 167.414 13.625C167.525 13.9473 167.681 14.2256 167.88 14.46C168.085 14.6943 168.331 14.876 168.618 15.0049C168.911 15.1338 169.242 15.1982 169.611 15.1982C170.068 15.1982 170.493 15.1104 170.886 14.9346C171.284 14.7529 171.627 14.4805 171.914 14.1172L173.145 15.4531C172.945 15.7402 172.673 16.0156 172.327 16.2793C171.987 16.543 171.577 16.7598 171.097 16.9297C170.616 17.0938 170.068 17.1758 169.453 17.1758ZM177.275 9.52051V17H174.744V7.49023H177.117L177.275 9.52051ZM176.906 11.9111H176.221C176.221 11.208 176.312 10.5752 176.493 10.0127C176.675 9.44434 176.93 8.96094 177.258 8.5625C177.586 8.1582 177.976 7.85059 178.427 7.63965C178.884 7.42285 179.394 7.31445 179.956 7.31445C180.401 7.31445 180.809 7.37891 181.178 7.50781C181.547 7.63672 181.863 7.8418 182.127 8.12305C182.396 8.4043 182.602 8.77637 182.742 9.23926C182.889 9.70215 182.962 10.2676 182.962 10.9355V17H180.413V10.9268C180.413 10.5049 180.354 10.1768 180.237 9.94238C180.12 9.70801 179.947 9.54395 179.719 9.4502C179.496 9.35059 179.221 9.30078 178.893 9.30078C178.553 9.30078 178.257 9.36816 178.005 9.50293C177.759 9.6377 177.554 9.8252 177.39 10.0654C177.231 10.2998 177.111 10.5752 177.029 10.8916C176.947 11.208 176.906 11.5479 176.906 11.9111ZM190.028 14.3721C190.028 14.1904 189.976 14.0264 189.87 13.8799C189.765 13.7334 189.568 13.5986 189.281 13.4756C189 13.3467 188.593 13.2295 188.06 13.124C187.579 13.0186 187.131 12.8867 186.715 12.7285C186.305 12.5645 185.947 12.3682 185.643 12.1396C185.344 11.9111 185.109 11.6416 184.939 11.3311C184.77 11.0146 184.685 10.6543 184.685 10.25C184.685 9.85156 184.77 9.47656 184.939 9.125C185.115 8.77344 185.364 8.46289 185.687 8.19336C186.015 7.91797 186.413 7.7041 186.882 7.55176C187.356 7.39355 187.89 7.31445 188.481 7.31445C189.308 7.31445 190.017 7.44629 190.608 7.70996C191.206 7.97363 191.663 8.33691 191.979 8.7998C192.302 9.25684 192.463 9.77832 192.463 10.3643H189.932C189.932 10.1182 189.879 9.89844 189.773 9.70508C189.674 9.50586 189.516 9.35059 189.299 9.23926C189.088 9.12207 188.812 9.06348 188.473 9.06348C188.191 9.06348 187.948 9.11328 187.743 9.21289C187.538 9.30664 187.38 9.43555 187.269 9.59961C187.163 9.75781 187.11 9.93359 187.11 10.127C187.11 10.2734 187.14 10.4053 187.198 10.5225C187.263 10.6338 187.365 10.7363 187.506 10.8301C187.646 10.9238 187.828 11.0117 188.051 11.0938C188.279 11.1699 188.561 11.2402 188.895 11.3047C189.58 11.4453 190.192 11.6299 190.731 11.8584C191.271 12.0811 191.698 12.3857 192.015 12.7725C192.331 13.1533 192.489 13.6543 192.489 14.2754C192.489 14.6973 192.396 15.084 192.208 15.4355C192.021 15.7871 191.751 16.0947 191.399 16.3584C191.048 16.6162 190.626 16.8184 190.134 16.9648C189.647 17.1055 189.1 17.1758 188.49 17.1758C187.605 17.1758 186.855 17.0176 186.24 16.7012C185.631 16.3848 185.168 15.9834 184.852 15.4971C184.541 15.0049 184.386 14.501 184.386 13.9854H186.785C186.797 14.3311 186.885 14.6094 187.049 14.8203C187.219 15.0312 187.433 15.1836 187.69 15.2773C187.954 15.3711 188.238 15.418 188.543 15.418C188.871 15.418 189.144 15.374 189.36 15.2861C189.577 15.1924 189.741 15.0693 189.853 14.917C189.97 14.7588 190.028 14.5771 190.028 14.3721ZM198.51 17.1758C197.771 17.1758 197.109 17.0586 196.523 16.8242C195.938 16.584 195.439 16.2529 195.029 15.8311C194.625 15.4092 194.314 14.9199 194.098 14.3633C193.881 13.8008 193.772 13.2031 193.772 12.5703V12.2188C193.772 11.498 193.875 10.8389 194.08 10.2412C194.285 9.64355 194.578 9.125 194.959 8.68555C195.346 8.24609 195.814 7.90918 196.365 7.6748C196.916 7.43457 197.537 7.31445 198.229 7.31445C198.902 7.31445 199.5 7.42578 200.021 7.64844C200.543 7.87109 200.979 8.1875 201.331 8.59766C201.688 9.00781 201.958 9.5 202.14 10.0742C202.321 10.6426 202.412 11.2754 202.412 11.9727V13.0273H194.854V11.3398H199.925V11.1465C199.925 10.7949 199.86 10.4814 199.731 10.2061C199.608 9.9248 199.421 9.70215 199.169 9.53809C198.917 9.37402 198.595 9.29199 198.202 9.29199C197.868 9.29199 197.581 9.36523 197.341 9.51172C197.101 9.6582 196.904 9.86328 196.752 10.127C196.605 10.3906 196.494 10.7012 196.418 11.0586C196.348 11.4102 196.312 11.7969 196.312 12.2188V12.5703C196.312 12.9512 196.365 13.3027 196.471 13.625C196.582 13.9473 196.737 14.2256 196.937 14.46C197.142 14.6943 197.388 14.876 197.675 15.0049C197.968 15.1338 198.299 15.1982 198.668 15.1982C199.125 15.1982 199.55 15.1104 199.942 14.9346C200.341 14.7529 200.684 14.4805 200.971 14.1172L202.201 15.4531C202.002 15.7402 201.729 16.0156 201.384 16.2793C201.044 16.543 200.634 16.7598 200.153 16.9297C199.673 17.0938 199.125 17.1758 198.51 17.1758Z" fill="black"/>
<path d="M240.347 82.2031H242.579L245.866 91.5986L249.153 82.2031H251.386L246.763 95H244.97L240.347 82.2031ZM239.143 82.2031H241.366L241.771 91.3613V95H239.143V82.2031ZM250.366 82.2031H252.599V95H249.962V91.3613L250.366 82.2031ZM254.348 90.3418V90.1572C254.348 89.46 254.447 88.8184 254.646 88.2324C254.846 87.6406 255.136 87.1279 255.517 86.6943C255.897 86.2607 256.366 85.9238 256.923 85.6836C257.479 85.4375 258.118 85.3145 258.839 85.3145C259.56 85.3145 260.201 85.4375 260.764 85.6836C261.326 85.9238 261.798 86.2607 262.179 86.6943C262.565 87.1279 262.858 87.6406 263.058 88.2324C263.257 88.8184 263.356 89.46 263.356 90.1572V90.3418C263.356 91.0332 263.257 91.6748 263.058 92.2666C262.858 92.8525 262.565 93.3652 262.179 93.8047C261.798 94.2383 261.329 94.5752 260.772 94.8154C260.216 95.0557 259.577 95.1758 258.856 95.1758C258.136 95.1758 257.494 95.0557 256.932 94.8154C256.375 94.5752 255.903 94.2383 255.517 93.8047C255.136 93.3652 254.846 92.8525 254.646 92.2666C254.447 91.6748 254.348 91.0332 254.348 90.3418ZM256.879 90.1572V90.3418C256.879 90.7402 256.914 91.1123 256.984 91.458C257.055 91.8037 257.166 92.1084 257.318 92.3721C257.477 92.6299 257.682 92.832 257.934 92.9785C258.186 93.125 258.493 93.1982 258.856 93.1982C259.208 93.1982 259.51 93.125 259.762 92.9785C260.014 92.832 260.216 92.6299 260.368 92.3721C260.521 92.1084 260.632 91.8037 260.702 91.458C260.778 91.1123 260.816 90.7402 260.816 90.3418V90.1572C260.816 89.7705 260.778 89.4072 260.702 89.0674C260.632 88.7217 260.518 88.417 260.359 88.1533C260.207 87.8838 260.005 87.6729 259.753 87.5205C259.501 87.3682 259.196 87.292 258.839 87.292C258.481 87.292 258.177 87.3682 257.925 87.5205C257.679 87.6729 257.477 87.8838 257.318 88.1533C257.166 88.417 257.055 88.7217 256.984 89.0674C256.914 89.4072 256.879 89.7705 256.879 90.1572ZM270.528 92.9258V81.5H273.077V95H270.783L270.528 92.9258ZM264.517 90.3594V90.1748C264.517 89.4482 264.599 88.7891 264.763 88.1973C264.927 87.5996 265.167 87.0869 265.483 86.6592C265.8 86.2314 266.189 85.9004 266.652 85.666C267.115 85.4316 267.643 85.3145 268.234 85.3145C268.791 85.3145 269.277 85.4316 269.693 85.666C270.115 85.9004 270.473 86.2344 270.766 86.668C271.064 87.0957 271.305 87.6025 271.486 88.1885C271.668 88.7686 271.8 89.4043 271.882 90.0957V90.5C271.8 91.1621 271.668 91.7773 271.486 92.3457C271.305 92.9141 271.064 93.4121 270.766 93.8398C270.473 94.2617 270.115 94.5898 269.693 94.8242C269.271 95.0586 268.779 95.1758 268.217 95.1758C267.625 95.1758 267.098 95.0557 266.635 94.8154C266.178 94.5752 265.791 94.2383 265.475 93.8047C265.164 93.3711 264.927 92.8613 264.763 92.2754C264.599 91.6895 264.517 91.0508 264.517 90.3594ZM267.048 90.1748V90.3594C267.048 90.752 267.077 91.1182 267.136 91.458C267.2 91.7979 267.303 92.0996 267.443 92.3633C267.59 92.6211 267.777 92.8232 268.006 92.9697C268.24 93.1104 268.524 93.1807 268.858 93.1807C269.292 93.1807 269.649 93.084 269.931 92.8906C270.212 92.6914 270.426 92.4189 270.572 92.0732C270.725 91.7275 270.812 91.3291 270.836 90.8779V89.7266C270.818 89.3574 270.766 89.0264 270.678 88.7334C270.596 88.4346 270.473 88.1797 270.309 87.9688C270.15 87.7578 269.951 87.5938 269.711 87.4766C269.477 87.3594 269.198 87.3008 268.876 87.3008C268.548 87.3008 268.267 87.377 268.032 87.5293C267.798 87.6758 267.607 87.8779 267.461 88.1357C267.32 88.3936 267.215 88.6982 267.145 89.0498C267.08 89.3955 267.048 89.7705 267.048 90.1748ZM279.432 95.1758C278.693 95.1758 278.031 95.0586 277.445 94.8242C276.859 94.584 276.361 94.2529 275.951 93.8311C275.547 93.4092 275.236 92.9199 275.02 92.3633C274.803 91.8008 274.694 91.2031 274.694 90.5703V90.2188C274.694 89.498 274.797 88.8389 275.002 88.2412C275.207 87.6436 275.5 87.125 275.881 86.6855C276.268 86.2461 276.736 85.9092 277.287 85.6748C277.838 85.4346 278.459 85.3145 279.15 85.3145C279.824 85.3145 280.422 85.4258 280.943 85.6484C281.465 85.8711 281.901 86.1875 282.253 86.5977C282.61 87.0078 282.88 87.5 283.062 88.0742C283.243 88.6426 283.334 89.2754 283.334 89.9727V91.0273H275.775V89.3398H280.847V89.1465C280.847 88.7949 280.782 88.4814 280.653 88.2061C280.53 87.9248 280.343 87.7021 280.091 87.5381C279.839 87.374 279.517 87.292 279.124 87.292C278.79 87.292 278.503 87.3652 278.263 87.5117C278.022 87.6582 277.826 87.8633 277.674 88.127C277.527 88.3906 277.416 88.7012 277.34 89.0586C277.27 89.4102 277.234 89.7969 277.234 90.2188V90.5703C277.234 90.9512 277.287 91.3027 277.393 91.625C277.504 91.9473 277.659 92.2256 277.858 92.46C278.063 92.6943 278.31 92.876 278.597 93.0049C278.89 93.1338 279.221 93.1982 279.59 93.1982C280.047 93.1982 280.472 93.1104 280.864 92.9346C281.263 92.7529 281.605 92.4805 281.893 92.1172L283.123 93.4531C282.924 93.7402 282.651 94.0156 282.306 94.2793C281.966 94.543 281.556 94.7598 281.075 94.9297C280.595 95.0938 280.047 95.1758 279.432 95.1758ZM287.447 81.5V95H284.907V81.5H287.447Z" fill="black"/>
<path d="M421.126 12.4385H417.865V10.3818H421.126C421.63 10.3818 422.04 10.2998 422.356 10.1357C422.673 9.96582 422.904 9.73145 423.051 9.43262C423.197 9.13379 423.271 8.79688 423.271 8.42188C423.271 8.04102 423.197 7.68652 423.051 7.3584C422.904 7.03027 422.673 6.7666 422.356 6.56738C422.04 6.36816 421.63 6.26855 421.126 6.26855H418.779V17H416.143V4.20312H421.126C422.128 4.20312 422.986 4.38477 423.701 4.74805C424.422 5.10547 424.973 5.60059 425.354 6.2334C425.734 6.86621 425.925 7.58984 425.925 8.4043C425.925 9.23047 425.734 9.94531 425.354 10.5488C424.973 11.1523 424.422 11.6182 423.701 11.9463C422.986 12.2744 422.128 12.4385 421.126 12.4385ZM430.258 3.5V17H427.718V3.5H430.258ZM437.482 14.8555V10.6191C437.482 10.3145 437.433 10.0537 437.333 9.83691C437.233 9.61426 437.078 9.44141 436.867 9.31836C436.662 9.19531 436.396 9.13379 436.067 9.13379C435.786 9.13379 435.543 9.18359 435.338 9.2832C435.133 9.37695 434.975 9.51465 434.863 9.69629C434.752 9.87207 434.696 10.0801 434.696 10.3203H432.165C432.165 9.91602 432.259 9.53223 432.446 9.16895C432.634 8.80566 432.906 8.48633 433.264 8.21094C433.621 7.92969 434.046 7.70996 434.538 7.55176C435.036 7.39355 435.593 7.31445 436.208 7.31445C436.946 7.31445 437.603 7.4375 438.177 7.68359C438.751 7.92969 439.202 8.29883 439.53 8.79102C439.864 9.2832 440.031 9.89844 440.031 10.6367V14.7061C440.031 15.2275 440.063 15.6553 440.128 15.9893C440.192 16.3174 440.286 16.6045 440.409 16.8506V17H437.852C437.729 16.7422 437.635 16.4199 437.57 16.0332C437.512 15.6406 437.482 15.248 437.482 14.8555ZM437.816 11.208L437.834 12.6406H436.419C436.085 12.6406 435.795 12.6787 435.549 12.7549C435.303 12.8311 435.101 12.9395 434.942 13.0801C434.784 13.2148 434.667 13.373 434.591 13.5547C434.521 13.7363 434.485 13.9355 434.485 14.1523C434.485 14.3691 434.535 14.5654 434.635 14.7412C434.734 14.9111 434.878 15.0459 435.065 15.1455C435.253 15.2393 435.473 15.2861 435.725 15.2861C436.105 15.2861 436.437 15.21 436.718 15.0576C436.999 14.9053 437.216 14.7178 437.368 14.4951C437.526 14.2725 437.608 14.0615 437.614 13.8623L438.282 14.9346C438.188 15.1748 438.06 15.4238 437.896 15.6816C437.737 15.9395 437.535 16.1826 437.289 16.4111C437.043 16.6338 436.747 16.8184 436.401 16.9648C436.056 17.1055 435.646 17.1758 435.171 17.1758C434.567 17.1758 434.02 17.0557 433.527 16.8154C433.041 16.5693 432.654 16.2324 432.367 15.8047C432.086 15.3711 431.945 14.8789 431.945 14.3281C431.945 13.8301 432.039 13.3877 432.227 13.001C432.414 12.6143 432.689 12.2891 433.053 12.0254C433.422 11.7559 433.882 11.5537 434.433 11.4189C434.983 11.2783 435.622 11.208 436.349 11.208H437.816ZM444.461 9.52051V17H441.93V7.49023H444.303L444.461 9.52051ZM444.092 11.9111H443.406C443.406 11.208 443.497 10.5752 443.679 10.0127C443.86 9.44434 444.115 8.96094 444.443 8.5625C444.771 8.1582 445.161 7.85059 445.612 7.63965C446.069 7.42285 446.579 7.31445 447.142 7.31445C447.587 7.31445 447.994 7.37891 448.363 7.50781C448.732 7.63672 449.049 7.8418 449.312 8.12305C449.582 8.4043 449.787 8.77637 449.928 9.23926C450.074 9.70215 450.147 10.2676 450.147 10.9355V17H447.599V10.9268C447.599 10.5049 447.54 10.1768 447.423 9.94238C447.306 9.70801 447.133 9.54395 446.904 9.4502C446.682 9.35059 446.406 9.30078 446.078 9.30078C445.738 9.30078 445.442 9.36816 445.19 9.50293C444.944 9.6377 444.739 9.8252 444.575 10.0654C444.417 10.2998 444.297 10.5752 444.215 10.8916C444.133 11.208 444.092 11.5479 444.092 11.9111Z" fill="black"/>
<path d="M595.346 6.3916L591.865 17H589.062L593.816 4.20312H595.601L595.346 6.3916ZM598.237 17L594.748 6.3916L594.467 4.20312H596.269L601.05 17H598.237ZM598.079 12.2363V14.3018H591.32V12.2363H598.079ZM606.007 15.1982C606.317 15.1982 606.593 15.1396 606.833 15.0225C607.073 14.8994 607.261 14.7295 607.396 14.5127C607.536 14.29 607.609 14.0293 607.615 13.7305H609.997C609.991 14.3984 609.812 14.9932 609.461 15.5146C609.109 16.0303 608.638 16.4375 608.046 16.7363C607.454 17.0293 606.792 17.1758 606.06 17.1758C605.321 17.1758 604.677 17.0527 604.126 16.8066C603.581 16.5605 603.127 16.2207 602.764 15.7871C602.4 15.3477 602.128 14.8379 601.946 14.2578C601.765 13.6719 601.674 13.0449 601.674 12.377V12.1221C601.674 11.4482 601.765 10.8213 601.946 10.2412C602.128 9.65527 602.4 9.14551 602.764 8.71191C603.127 8.27246 603.581 7.92969 604.126 7.68359C604.671 7.4375 605.31 7.31445 606.042 7.31445C606.821 7.31445 607.504 7.46387 608.09 7.7627C608.682 8.06152 609.145 8.48926 609.479 9.0459C609.818 9.59668 609.991 10.25 609.997 11.0059H607.615C607.609 10.6895 607.542 10.4023 607.413 10.1445C607.29 9.88672 607.108 9.68164 606.868 9.5293C606.634 9.37109 606.344 9.29199 605.998 9.29199C605.629 9.29199 605.327 9.37109 605.093 9.5293C604.858 9.68164 604.677 9.89258 604.548 10.1621C604.419 10.4258 604.328 10.7275 604.275 11.0674C604.229 11.4014 604.205 11.7529 604.205 12.1221V12.377C604.205 12.7461 604.229 13.1006 604.275 13.4404C604.322 13.7803 604.41 14.082 604.539 14.3457C604.674 14.6094 604.858 14.8174 605.093 14.9697C605.327 15.1221 605.632 15.1982 606.007 15.1982ZM616.123 7.49023V9.2832H610.586V7.49023H616.123ZM611.957 5.14355H614.488V14.1348C614.488 14.4102 614.523 14.6211 614.594 14.7676C614.67 14.9141 614.781 15.0166 614.928 15.0752C615.074 15.1279 615.259 15.1543 615.481 15.1543C615.64 15.1543 615.78 15.1484 615.903 15.1367C616.032 15.1191 616.141 15.1016 616.229 15.084L616.237 16.9473C616.021 17.0176 615.786 17.0732 615.534 17.1143C615.282 17.1553 615.004 17.1758 614.699 17.1758C614.143 17.1758 613.656 17.085 613.24 16.9033C612.83 16.7158 612.514 16.417 612.291 16.0068C612.068 15.5967 611.957 15.0576 611.957 14.3896V5.14355Z" fill="black"/>
<rect x="44.5" y="104.5" width="97" height="101" rx="14.5" fill="white" stroke="black"/>
<path d="M79.3594 159.62V161H70.6934V159.62H79.3594ZM79.0781 149.434L71.0977 161H70.0518V159.734L78.0234 148.203H79.0781V149.434ZM78.3574 148.203V149.592H70.166V148.203H78.3574ZM89.6953 159.62V161H82.9189V159.62H89.6953ZM83.2617 148.203V161H81.5654V148.203H83.2617ZM88.7988 153.705V155.085H82.9189V153.705H88.7988ZM89.6074 148.203V149.592H82.9189V148.203H89.6074ZM95.2588 161H92.5869L92.6045 159.62H95.2588C96.1729 159.62 96.9346 159.43 97.5439 159.049C98.1533 158.662 98.6104 158.123 98.915 157.432C99.2256 156.734 99.3809 155.92 99.3809 154.988V154.206C99.3809 153.474 99.293 152.823 99.1172 152.255C98.9414 151.681 98.6836 151.197 98.3438 150.805C98.0039 150.406 97.5879 150.104 97.0957 149.899C96.6094 149.694 96.0498 149.592 95.417 149.592H92.5342V148.203H95.417C96.2549 148.203 97.0195 148.344 97.7109 148.625C98.4023 148.9 98.9971 149.302 99.4951 149.829C99.999 150.351 100.386 150.983 100.655 151.728C100.925 152.466 101.06 153.298 101.06 154.224V154.988C101.06 155.914 100.925 156.749 100.655 157.493C100.386 158.231 99.9961 158.861 99.4863 159.383C98.9824 159.904 98.373 160.306 97.6582 160.587C96.9492 160.862 96.1494 161 95.2588 161ZM93.4922 148.203V161H91.7959V148.203H93.4922ZM116.036 159.664V161H107.66V159.831L111.853 155.164C112.368 154.59 112.767 154.104 113.048 153.705C113.335 153.301 113.534 152.94 113.646 152.624C113.763 152.302 113.821 151.974 113.821 151.64C113.821 151.218 113.733 150.837 113.558 150.497C113.388 150.151 113.136 149.876 112.802 149.671C112.468 149.466 112.063 149.363 111.589 149.363C111.021 149.363 110.546 149.475 110.165 149.697C109.79 149.914 109.509 150.219 109.321 150.611C109.134 151.004 109.04 151.455 109.04 151.965H107.414C107.414 151.244 107.572 150.585 107.889 149.987C108.205 149.39 108.674 148.915 109.295 148.563C109.916 148.206 110.681 148.027 111.589 148.027C112.397 148.027 113.089 148.171 113.663 148.458C114.237 148.739 114.677 149.138 114.981 149.653C115.292 150.163 115.447 150.761 115.447 151.446C115.447 151.821 115.383 152.202 115.254 152.589C115.131 152.97 114.958 153.351 114.735 153.731C114.519 154.112 114.264 154.487 113.971 154.856C113.684 155.226 113.376 155.589 113.048 155.946L109.62 159.664H116.036Z" fill="black"/>
<path d="M329.552 313.133L332.092 304.203H333.322L332.61 307.675L329.877 317H328.655L329.552 313.133ZM326.924 304.203L328.945 312.957L329.552 317H328.339L325.236 304.203H326.924ZM336.609 312.948L338.587 304.203H340.283L337.189 317H335.977L336.609 312.948ZM333.507 304.203L335.977 313.133L336.873 317H335.651L333.015 307.675L332.294 304.203H333.507ZM341.206 312.351V312.148C341.206 311.463 341.306 310.827 341.505 310.241C341.704 309.649 341.991 309.137 342.366 308.703C342.741 308.264 343.195 307.924 343.729 307.684C344.262 307.438 344.859 307.314 345.521 307.314C346.189 307.314 346.79 307.438 347.323 307.684C347.862 307.924 348.319 308.264 348.694 308.703C349.075 309.137 349.365 309.649 349.564 310.241C349.764 310.827 349.863 311.463 349.863 312.148V312.351C349.863 313.036 349.764 313.672 349.564 314.258C349.365 314.844 349.075 315.356 348.694 315.796C348.319 316.229 347.865 316.569 347.332 316.815C346.805 317.056 346.207 317.176 345.539 317.176C344.871 317.176 344.271 317.056 343.737 316.815C343.204 316.569 342.747 316.229 342.366 315.796C341.991 315.356 341.704 314.844 341.505 314.258C341.306 313.672 341.206 313.036 341.206 312.351ZM342.832 312.148V312.351C342.832 312.825 342.888 313.273 342.999 313.695C343.11 314.111 343.277 314.48 343.5 314.803C343.729 315.125 344.013 315.38 344.353 315.567C344.692 315.749 345.088 315.84 345.539 315.84C345.984 315.84 346.374 315.749 346.708 315.567C347.048 315.38 347.329 315.125 347.552 314.803C347.774 314.48 347.941 314.111 348.053 313.695C348.17 313.273 348.229 312.825 348.229 312.351V312.148C348.229 311.68 348.17 311.237 348.053 310.821C347.941 310.399 347.771 310.027 347.543 309.705C347.32 309.377 347.039 309.119 346.699 308.932C346.365 308.744 345.973 308.65 345.521 308.65C345.076 308.65 344.684 308.744 344.344 308.932C344.01 309.119 343.729 309.377 343.5 309.705C343.277 310.027 343.11 310.399 342.999 310.821C342.888 311.237 342.832 311.68 342.832 312.148ZM353.528 308.984V317H351.902V307.49H353.484L353.528 308.984ZM356.499 307.438L356.49 308.949C356.355 308.92 356.227 308.902 356.104 308.896C355.986 308.885 355.852 308.879 355.699 308.879C355.324 308.879 354.993 308.938 354.706 309.055C354.419 309.172 354.176 309.336 353.977 309.547C353.777 309.758 353.619 310.01 353.502 310.303C353.391 310.59 353.317 310.906 353.282 311.252L352.825 311.516C352.825 310.941 352.881 310.402 352.992 309.898C353.109 309.395 353.288 308.949 353.528 308.562C353.769 308.17 354.073 307.865 354.442 307.648C354.817 307.426 355.263 307.314 355.778 307.314C355.896 307.314 356.03 307.329 356.183 307.358C356.335 307.382 356.44 307.408 356.499 307.438ZM359.769 303.5V317H358.134V303.5H359.769ZM368.373 315.154V303.5H370.008V317H368.514L368.373 315.154ZM361.975 312.351V312.166C361.975 311.439 362.062 310.78 362.238 310.188C362.42 309.591 362.675 309.078 363.003 308.65C363.337 308.223 363.732 307.895 364.189 307.666C364.652 307.432 365.168 307.314 365.736 307.314C366.334 307.314 366.855 307.42 367.301 307.631C367.752 307.836 368.133 308.138 368.443 308.536C368.76 308.929 369.009 309.403 369.19 309.96C369.372 310.517 369.498 311.146 369.568 311.85V312.658C369.504 313.355 369.378 313.982 369.19 314.539C369.009 315.096 368.76 315.57 368.443 315.963C368.133 316.355 367.752 316.657 367.301 316.868C366.85 317.073 366.322 317.176 365.719 317.176C365.162 317.176 364.652 317.056 364.189 316.815C363.732 316.575 363.337 316.238 363.003 315.805C362.675 315.371 362.42 314.861 362.238 314.275C362.062 313.684 361.975 313.042 361.975 312.351ZM363.609 312.166V312.351C363.609 312.825 363.656 313.271 363.75 313.687C363.85 314.103 364.002 314.469 364.207 314.785C364.412 315.102 364.673 315.351 364.989 315.532C365.306 315.708 365.684 315.796 366.123 315.796C366.662 315.796 367.104 315.682 367.45 315.453C367.802 315.225 368.083 314.923 368.294 314.548C368.505 314.173 368.669 313.766 368.786 313.326V311.208C368.716 310.886 368.613 310.575 368.479 310.276C368.35 309.972 368.18 309.702 367.969 309.468C367.764 309.228 367.509 309.037 367.204 308.896C366.905 308.756 366.551 308.686 366.141 308.686C365.695 308.686 365.312 308.779 364.989 308.967C364.673 309.148 364.412 309.4 364.207 309.723C364.002 310.039 363.85 310.408 363.75 310.83C363.656 311.246 363.609 311.691 363.609 312.166Z" fill="black"/>
<rect x="214.5" y="104.5" width="97" height="101" rx="14.5" fill="white" stroke="black"/>
<path d="M222.5 148.203H226.736C227.697 148.203 228.509 148.35 229.171 148.643C229.839 148.936 230.346 149.369 230.691 149.943C231.043 150.512 231.219 151.212 231.219 152.044C231.219 152.63 231.099 153.166 230.858 153.652C230.624 154.133 230.284 154.543 229.839 154.883C229.399 155.217 228.872 155.466 228.257 155.63L227.782 155.814H223.801L223.783 154.435H226.789C227.398 154.435 227.905 154.329 228.31 154.118C228.714 153.901 229.019 153.611 229.224 153.248C229.429 152.885 229.531 152.483 229.531 152.044C229.531 151.552 229.435 151.121 229.241 150.752C229.048 150.383 228.743 150.099 228.327 149.899C227.917 149.694 227.387 149.592 226.736 149.592H224.196V161H222.5V148.203ZM229.979 161L226.868 155.199L228.635 155.19L231.79 160.895V161H229.979ZM237.617 148.203V161H235.947V148.203H237.617ZM241.73 148.203V149.592H231.843V148.203H241.73ZM247.663 149.337L243.427 161H241.695L246.573 148.203H247.689L247.663 149.337ZM251.214 161L246.969 149.337L246.942 148.203H248.059L252.954 161H251.214ZM250.994 156.263V157.651H243.805V156.263H250.994ZM259.229 155.015H255.986L255.969 153.652H258.913C259.399 153.652 259.824 153.57 260.188 153.406C260.551 153.242 260.832 153.008 261.031 152.703C261.236 152.393 261.339 152.023 261.339 151.596C261.339 151.127 261.248 150.746 261.066 150.453C260.891 150.154 260.618 149.938 260.249 149.803C259.886 149.662 259.423 149.592 258.86 149.592H256.364V161H254.668V148.203H258.86C259.517 148.203 260.103 148.271 260.618 148.405C261.134 148.534 261.57 148.739 261.928 149.021C262.291 149.296 262.566 149.647 262.754 150.075C262.941 150.503 263.035 151.016 263.035 151.613C263.035 152.141 262.9 152.618 262.631 153.046C262.361 153.468 261.986 153.813 261.506 154.083C261.031 154.353 260.475 154.525 259.836 154.602L259.229 155.015ZM259.15 161H255.318L256.276 159.62H259.15C259.689 159.62 260.146 159.526 260.521 159.339C260.902 159.151 261.192 158.888 261.392 158.548C261.591 158.202 261.69 157.795 261.69 157.326C261.69 156.852 261.605 156.441 261.436 156.096C261.266 155.75 260.999 155.483 260.636 155.296C260.272 155.108 259.804 155.015 259.229 155.015H256.812L256.83 153.652H260.135L260.495 154.145C261.11 154.197 261.632 154.373 262.06 154.672C262.487 154.965 262.812 155.34 263.035 155.797C263.264 156.254 263.378 156.758 263.378 157.309C263.378 158.105 263.202 158.779 262.851 159.33C262.505 159.875 262.016 160.291 261.383 160.578C260.75 160.859 260.006 161 259.15 161ZM269.021 154.892V156.228H264.731V154.892H269.021ZM271.394 148.203H273.037L277.229 158.636L281.413 148.203H283.065L277.862 161H276.579L271.394 148.203ZM270.857 148.203H272.308L272.545 156.008V161H270.857V148.203ZM282.143 148.203H283.593V161H281.905V156.008L282.143 148.203ZM291.934 159.374V154.479C291.934 154.104 291.857 153.778 291.705 153.503C291.559 153.222 291.336 153.005 291.037 152.853C290.738 152.7 290.369 152.624 289.93 152.624C289.52 152.624 289.159 152.694 288.849 152.835C288.544 152.976 288.304 153.16 288.128 153.389C287.958 153.617 287.873 153.863 287.873 154.127H286.247C286.247 153.787 286.335 153.45 286.511 153.116C286.687 152.782 286.938 152.48 287.267 152.211C287.601 151.936 287.999 151.719 288.462 151.561C288.931 151.396 289.452 151.314 290.026 151.314C290.718 151.314 291.327 151.432 291.854 151.666C292.388 151.9 292.804 152.255 293.103 152.729C293.407 153.198 293.56 153.787 293.56 154.496V158.926C293.56 159.242 293.586 159.579 293.639 159.937C293.697 160.294 293.782 160.602 293.894 160.859V161H292.197C292.115 160.812 292.051 160.563 292.004 160.253C291.957 159.937 291.934 159.644 291.934 159.374ZM292.215 155.234L292.232 156.377H290.589C290.126 156.377 289.713 156.415 289.35 156.491C288.986 156.562 288.682 156.67 288.436 156.816C288.189 156.963 288.002 157.147 287.873 157.37C287.744 157.587 287.68 157.842 287.68 158.135C287.68 158.434 287.747 158.706 287.882 158.952C288.017 159.198 288.219 159.395 288.488 159.541C288.764 159.682 289.101 159.752 289.499 159.752C289.997 159.752 290.437 159.646 290.817 159.436C291.198 159.225 291.5 158.967 291.723 158.662C291.951 158.357 292.074 158.062 292.092 157.774L292.786 158.557C292.745 158.803 292.634 159.075 292.452 159.374C292.271 159.673 292.027 159.96 291.723 160.235C291.424 160.505 291.066 160.73 290.65 160.912C290.24 161.088 289.777 161.176 289.262 161.176C288.617 161.176 288.052 161.05 287.565 160.798C287.085 160.546 286.71 160.209 286.44 159.787C286.177 159.359 286.045 158.882 286.045 158.354C286.045 157.845 286.145 157.396 286.344 157.01C286.543 156.617 286.83 156.292 287.205 156.034C287.58 155.771 288.031 155.571 288.559 155.437C289.086 155.302 289.675 155.234 290.325 155.234H292.215ZM297.743 153.318V164.656H296.108V151.49H297.603L297.743 153.318ZM304.15 156.166V156.351C304.15 157.042 304.068 157.684 303.904 158.275C303.74 158.861 303.5 159.371 303.184 159.805C302.873 160.238 302.489 160.575 302.032 160.815C301.575 161.056 301.051 161.176 300.459 161.176C299.855 161.176 299.322 161.076 298.859 160.877C298.396 160.678 298.004 160.388 297.682 160.007C297.359 159.626 297.102 159.169 296.908 158.636C296.721 158.103 296.592 157.502 296.521 156.834V155.85C296.592 155.146 296.724 154.517 296.917 153.96C297.11 153.403 297.365 152.929 297.682 152.536C298.004 152.138 298.394 151.836 298.851 151.631C299.308 151.42 299.835 151.314 300.433 151.314C301.03 151.314 301.561 151.432 302.023 151.666C302.486 151.895 302.876 152.223 303.192 152.65C303.509 153.078 303.746 153.591 303.904 154.188C304.068 154.78 304.15 155.439 304.15 156.166ZM302.516 156.351V156.166C302.516 155.691 302.466 155.246 302.366 154.83C302.267 154.408 302.111 154.039 301.9 153.723C301.695 153.4 301.432 153.148 301.109 152.967C300.787 152.779 300.403 152.686 299.958 152.686C299.548 152.686 299.19 152.756 298.886 152.896C298.587 153.037 298.332 153.228 298.121 153.468C297.91 153.702 297.737 153.972 297.603 154.276C297.474 154.575 297.377 154.886 297.312 155.208V157.484C297.43 157.895 297.594 158.281 297.805 158.645C298.016 159.002 298.297 159.292 298.648 159.515C299 159.731 299.442 159.84 299.976 159.84C300.415 159.84 300.793 159.749 301.109 159.567C301.432 159.38 301.695 159.125 301.9 158.803C302.111 158.48 302.267 158.111 302.366 157.695C302.466 157.273 302.516 156.825 302.516 156.351Z" fill="black"/>
<rect x="384.5" y="161.5" width="97" height="101" rx="14.5" fill="white" stroke="black"/>
<rect x="384.5" y="46.5" width="97" height="102" rx="14.5" fill="white" stroke="black"/>
<path d="M407.705 203.931H409.393C409.305 204.739 409.073 205.463 408.698 206.102C408.323 206.74 407.793 207.247 407.107 207.622C406.422 207.991 405.566 208.176 404.541 208.176C403.791 208.176 403.108 208.035 402.493 207.754C401.884 207.473 401.359 207.074 400.92 206.559C400.48 206.037 400.141 205.413 399.9 204.687C399.666 203.954 399.549 203.14 399.549 202.243V200.969C399.549 200.072 399.666 199.261 399.9 198.534C400.141 197.802 400.483 197.175 400.929 196.653C401.38 196.132 401.922 195.73 402.555 195.449C403.188 195.168 403.899 195.027 404.69 195.027C405.657 195.027 406.475 195.209 407.143 195.572C407.811 195.936 408.329 196.439 408.698 197.084C409.073 197.723 409.305 198.464 409.393 199.308H407.705C407.623 198.71 407.471 198.197 407.248 197.77C407.025 197.336 406.709 197.002 406.299 196.768C405.889 196.533 405.353 196.416 404.69 196.416C404.122 196.416 403.621 196.524 403.188 196.741C402.76 196.958 402.399 197.266 402.106 197.664C401.819 198.062 401.603 198.54 401.456 199.097C401.31 199.653 401.236 200.271 401.236 200.951V202.243C401.236 202.87 401.301 203.459 401.43 204.01C401.564 204.561 401.767 205.044 402.036 205.46C402.306 205.876 402.648 206.204 403.064 206.444C403.48 206.679 403.973 206.796 404.541 206.796C405.262 206.796 405.836 206.682 406.264 206.453C406.691 206.225 407.014 205.896 407.23 205.469C407.453 205.041 407.611 204.528 407.705 203.931ZM411.027 203.351V203.148C411.027 202.463 411.127 201.827 411.326 201.241C411.525 200.649 411.812 200.137 412.188 199.703C412.562 199.264 413.017 198.924 413.55 198.684C414.083 198.438 414.681 198.314 415.343 198.314C416.011 198.314 416.611 198.438 417.145 198.684C417.684 198.924 418.141 199.264 418.516 199.703C418.896 200.137 419.187 200.649 419.386 201.241C419.585 201.827 419.685 202.463 419.685 203.148V203.351C419.685 204.036 419.585 204.672 419.386 205.258C419.187 205.844 418.896 206.356 418.516 206.796C418.141 207.229 417.687 207.569 417.153 207.815C416.626 208.056 416.028 208.176 415.36 208.176C414.692 208.176 414.092 208.056 413.559 207.815C413.025 207.569 412.568 207.229 412.188 206.796C411.812 206.356 411.525 205.844 411.326 205.258C411.127 204.672 411.027 204.036 411.027 203.351ZM412.653 203.148V203.351C412.653 203.825 412.709 204.273 412.82 204.695C412.932 205.111 413.099 205.48 413.321 205.803C413.55 206.125 413.834 206.38 414.174 206.567C414.514 206.749 414.909 206.84 415.36 206.84C415.806 206.84 416.195 206.749 416.529 206.567C416.869 206.38 417.15 206.125 417.373 205.803C417.596 205.48 417.763 205.111 417.874 204.695C417.991 204.273 418.05 203.825 418.05 203.351V203.148C418.05 202.68 417.991 202.237 417.874 201.821C417.763 201.399 417.593 201.027 417.364 200.705C417.142 200.377 416.86 200.119 416.521 199.932C416.187 199.744 415.794 199.65 415.343 199.65C414.897 199.65 414.505 199.744 414.165 199.932C413.831 200.119 413.55 200.377 413.321 200.705C413.099 201.027 412.932 201.399 412.82 201.821C412.709 202.237 412.653 202.68 412.653 203.148ZM423.49 194.5V208H421.855V194.5H423.49ZM427.867 194.5V208H426.232V194.5H427.867ZM432.244 198.49V208H430.609V198.49H432.244ZM430.486 195.968C430.486 195.704 430.565 195.481 430.724 195.3C430.888 195.118 431.128 195.027 431.444 195.027C431.755 195.027 431.992 195.118 432.156 195.3C432.326 195.481 432.411 195.704 432.411 195.968C432.411 196.22 432.326 196.437 432.156 196.618C431.992 196.794 431.755 196.882 431.444 196.882C431.128 196.882 430.888 196.794 430.724 196.618C430.565 196.437 430.486 196.22 430.486 195.968ZM440.392 205.478C440.392 205.243 440.339 205.026 440.233 204.827C440.134 204.622 439.926 204.438 439.609 204.273C439.299 204.104 438.83 203.957 438.203 203.834C437.676 203.723 437.198 203.591 436.771 203.438C436.349 203.286 435.988 203.102 435.689 202.885C435.396 202.668 435.171 202.413 435.013 202.12C434.854 201.827 434.775 201.484 434.775 201.092C434.775 200.717 434.857 200.362 435.021 200.028C435.191 199.694 435.429 199.398 435.733 199.141C436.044 198.883 436.416 198.681 436.85 198.534C437.283 198.388 437.767 198.314 438.3 198.314C439.062 198.314 439.712 198.449 440.251 198.719C440.79 198.988 441.203 199.349 441.49 199.8C441.777 200.245 441.921 200.74 441.921 201.285H440.295C440.295 201.021 440.216 200.767 440.058 200.521C439.905 200.269 439.68 200.061 439.381 199.896C439.088 199.732 438.728 199.65 438.3 199.65C437.849 199.65 437.482 199.721 437.201 199.861C436.926 199.996 436.724 200.169 436.595 200.38C436.472 200.591 436.41 200.813 436.41 201.048C436.41 201.224 436.439 201.382 436.498 201.522C436.562 201.657 436.674 201.783 436.832 201.9C436.99 202.012 437.213 202.117 437.5 202.217C437.787 202.316 438.153 202.416 438.599 202.516C439.378 202.691 440.02 202.902 440.523 203.148C441.027 203.395 441.402 203.696 441.648 204.054C441.895 204.411 442.018 204.845 442.018 205.354C442.018 205.771 441.93 206.151 441.754 206.497C441.584 206.843 441.335 207.142 441.007 207.394C440.685 207.64 440.298 207.833 439.847 207.974C439.401 208.108 438.9 208.176 438.344 208.176C437.506 208.176 436.797 208.026 436.217 207.728C435.637 207.429 435.197 207.042 434.898 206.567C434.6 206.093 434.45 205.592 434.45 205.064H436.085C436.108 205.51 436.237 205.864 436.472 206.128C436.706 206.386 436.993 206.57 437.333 206.682C437.673 206.787 438.01 206.84 438.344 206.84C438.789 206.84 439.161 206.781 439.46 206.664C439.765 206.547 439.996 206.386 440.154 206.181C440.312 205.976 440.392 205.741 440.392 205.478ZM445.92 198.49V208H444.285V198.49H445.92ZM444.162 195.968C444.162 195.704 444.241 195.481 444.399 195.3C444.563 195.118 444.804 195.027 445.12 195.027C445.431 195.027 445.668 195.118 445.832 195.3C446.002 195.481 446.087 195.704 446.087 195.968C446.087 196.22 446.002 196.437 445.832 196.618C445.668 196.794 445.431 196.882 445.12 196.882C444.804 196.882 444.563 196.794 444.399 196.618C444.241 196.437 444.162 196.22 444.162 195.968ZM448.1 203.351V203.148C448.1 202.463 448.199 201.827 448.398 201.241C448.598 200.649 448.885 200.137 449.26 199.703C449.635 199.264 450.089 198.924 450.622 198.684C451.155 198.438 451.753 198.314 452.415 198.314C453.083 198.314 453.684 198.438 454.217 198.684C454.756 198.924 455.213 199.264 455.588 199.703C455.969 200.137 456.259 200.649 456.458 201.241C456.657 201.827 456.757 202.463 456.757 203.148V203.351C456.757 204.036 456.657 204.672 456.458 205.258C456.259 205.844 455.969 206.356 455.588 206.796C455.213 207.229 454.759 207.569 454.226 207.815C453.698 208.056 453.101 208.176 452.433 208.176C451.765 208.176 451.164 208.056 450.631 207.815C450.098 207.569 449.641 207.229 449.26 206.796C448.885 206.356 448.598 205.844 448.398 205.258C448.199 204.672 448.1 204.036 448.1 203.351ZM449.726 203.148V203.351C449.726 203.825 449.781 204.273 449.893 204.695C450.004 205.111 450.171 205.48 450.394 205.803C450.622 206.125 450.906 206.38 451.246 206.567C451.586 206.749 451.981 206.84 452.433 206.84C452.878 206.84 453.268 206.749 453.602 206.567C453.941 206.38 454.223 206.125 454.445 205.803C454.668 205.48 454.835 205.111 454.946 204.695C455.063 204.273 455.122 203.825 455.122 203.351V203.148C455.122 202.68 455.063 202.237 454.946 201.821C454.835 201.399 454.665 201.027 454.437 200.705C454.214 200.377 453.933 200.119 453.593 199.932C453.259 199.744 452.866 199.65 452.415 199.65C451.97 199.65 451.577 199.744 451.237 199.932C450.903 200.119 450.622 200.377 450.394 200.705C450.171 201.027 450.004 201.399 449.893 201.821C449.781 202.237 449.726 202.68 449.726 203.148ZM460.422 200.521V208H458.796V198.49H460.334L460.422 200.521ZM460.035 202.885L459.358 202.858C459.364 202.208 459.461 201.607 459.648 201.057C459.836 200.5 460.1 200.017 460.439 199.606C460.779 199.196 461.184 198.88 461.652 198.657C462.127 198.429 462.651 198.314 463.226 198.314C463.694 198.314 464.116 198.379 464.491 198.508C464.866 198.631 465.186 198.83 465.449 199.105C465.719 199.381 465.924 199.738 466.064 200.178C466.205 200.611 466.275 201.142 466.275 201.769V208H464.641V201.751C464.641 201.253 464.567 200.854 464.421 200.556C464.274 200.251 464.061 200.031 463.779 199.896C463.498 199.756 463.152 199.686 462.742 199.686C462.338 199.686 461.969 199.771 461.635 199.94C461.307 200.11 461.022 200.345 460.782 200.644C460.548 200.942 460.363 201.285 460.229 201.672C460.1 202.053 460.035 202.457 460.035 202.885ZM397.527 217.337L393.291 229H391.56L396.438 216.203H397.554L397.527 217.337ZM401.078 229L396.833 217.337L396.807 216.203H397.923L402.818 229H401.078ZM400.858 224.263V225.651H393.669V224.263H400.858ZM406.738 227.532L409.34 219.49H411.001L407.582 229H406.492L406.738 227.532ZM404.567 219.49L407.248 227.576L407.433 229H406.343L402.897 219.49H404.567ZM411.994 224.351V224.148C411.994 223.463 412.094 222.827 412.293 222.241C412.492 221.649 412.779 221.137 413.154 220.703C413.529 220.264 413.983 219.924 414.517 219.684C415.05 219.438 415.647 219.314 416.31 219.314C416.978 219.314 417.578 219.438 418.111 219.684C418.65 219.924 419.107 220.264 419.482 220.703C419.863 221.137 420.153 221.649 420.353 222.241C420.552 222.827 420.651 223.463 420.651 224.148V224.351C420.651 225.036 420.552 225.672 420.353 226.258C420.153 226.844 419.863 227.356 419.482 227.796C419.107 228.229 418.653 228.569 418.12 228.815C417.593 229.056 416.995 229.176 416.327 229.176C415.659 229.176 415.059 229.056 414.525 228.815C413.992 228.569 413.535 228.229 413.154 227.796C412.779 227.356 412.492 226.844 412.293 226.258C412.094 225.672 411.994 225.036 411.994 224.351ZM413.62 224.148V224.351C413.62 224.825 413.676 225.273 413.787 225.695C413.898 226.111 414.065 226.48 414.288 226.803C414.517 227.125 414.801 227.38 415.141 227.567C415.48 227.749 415.876 227.84 416.327 227.84C416.772 227.84 417.162 227.749 417.496 227.567C417.836 227.38 418.117 227.125 418.34 226.803C418.562 226.48 418.729 226.111 418.841 225.695C418.958 225.273 419.017 224.825 419.017 224.351V224.148C419.017 223.68 418.958 223.237 418.841 222.821C418.729 222.399 418.56 222.027 418.331 221.705C418.108 221.377 417.827 221.119 417.487 220.932C417.153 220.744 416.761 220.65 416.31 220.65C415.864 220.65 415.472 220.744 415.132 220.932C414.798 221.119 414.517 221.377 414.288 221.705C414.065 222.027 413.898 222.399 413.787 222.821C413.676 223.237 413.62 223.68 413.62 224.148ZM424.457 219.49V229H422.822V219.49H424.457ZM422.699 216.968C422.699 216.704 422.778 216.481 422.937 216.3C423.101 216.118 423.341 216.027 423.657 216.027C423.968 216.027 424.205 216.118 424.369 216.3C424.539 216.481 424.624 216.704 424.624 216.968C424.624 217.22 424.539 217.437 424.369 217.618C424.205 217.794 423.968 217.882 423.657 217.882C423.341 217.882 423.101 217.794 422.937 217.618C422.778 217.437 422.699 217.22 422.699 216.968ZM433.062 227.154V215.5H434.696V229H433.202L433.062 227.154ZM426.663 224.351V224.166C426.663 223.439 426.751 222.78 426.927 222.188C427.108 221.591 427.363 221.078 427.691 220.65C428.025 220.223 428.421 219.895 428.878 219.666C429.341 219.432 429.856 219.314 430.425 219.314C431.022 219.314 431.544 219.42 431.989 219.631C432.44 219.836 432.821 220.138 433.132 220.536C433.448 220.929 433.697 221.403 433.879 221.96C434.061 222.517 434.187 223.146 434.257 223.85V224.658C434.192 225.355 434.066 225.982 433.879 226.539C433.697 227.096 433.448 227.57 433.132 227.963C432.821 228.355 432.44 228.657 431.989 228.868C431.538 229.073 431.011 229.176 430.407 229.176C429.851 229.176 429.341 229.056 428.878 228.815C428.421 228.575 428.025 228.238 427.691 227.805C427.363 227.371 427.108 226.861 426.927 226.275C426.751 225.684 426.663 225.042 426.663 224.351ZM428.298 224.166V224.351C428.298 224.825 428.345 225.271 428.438 225.687C428.538 226.103 428.69 226.469 428.896 226.785C429.101 227.102 429.361 227.351 429.678 227.532C429.994 227.708 430.372 227.796 430.812 227.796C431.351 227.796 431.793 227.682 432.139 227.453C432.49 227.225 432.771 226.923 432.982 226.548C433.193 226.173 433.357 225.766 433.475 225.326V223.208C433.404 222.886 433.302 222.575 433.167 222.276C433.038 221.972 432.868 221.702 432.657 221.468C432.452 221.228 432.197 221.037 431.893 220.896C431.594 220.756 431.239 220.686 430.829 220.686C430.384 220.686 430 220.779 429.678 220.967C429.361 221.148 429.101 221.4 428.896 221.723C428.69 222.039 428.538 222.408 428.438 222.83C428.345 223.246 428.298 223.691 428.298 224.166ZM442.835 227.374V222.479C442.835 222.104 442.759 221.778 442.606 221.503C442.46 221.222 442.237 221.005 441.938 220.853C441.64 220.7 441.271 220.624 440.831 220.624C440.421 220.624 440.061 220.694 439.75 220.835C439.445 220.976 439.205 221.16 439.029 221.389C438.859 221.617 438.774 221.863 438.774 222.127H437.148C437.148 221.787 437.236 221.45 437.412 221.116C437.588 220.782 437.84 220.48 438.168 220.211C438.502 219.936 438.9 219.719 439.363 219.561C439.832 219.396 440.354 219.314 440.928 219.314C441.619 219.314 442.229 219.432 442.756 219.666C443.289 219.9 443.705 220.255 444.004 220.729C444.309 221.198 444.461 221.787 444.461 222.496V226.926C444.461 227.242 444.487 227.579 444.54 227.937C444.599 228.294 444.684 228.602 444.795 228.859V229H443.099C443.017 228.812 442.952 228.563 442.905 228.253C442.858 227.937 442.835 227.644 442.835 227.374ZM443.116 223.234L443.134 224.377H441.49C441.027 224.377 440.614 224.415 440.251 224.491C439.888 224.562 439.583 224.67 439.337 224.816C439.091 224.963 438.903 225.147 438.774 225.37C438.646 225.587 438.581 225.842 438.581 226.135C438.581 226.434 438.648 226.706 438.783 226.952C438.918 227.198 439.12 227.395 439.39 227.541C439.665 227.682 440.002 227.752 440.4 227.752C440.898 227.752 441.338 227.646 441.719 227.436C442.1 227.225 442.401 226.967 442.624 226.662C442.853 226.357 442.976 226.062 442.993 225.774L443.688 226.557C443.646 226.803 443.535 227.075 443.354 227.374C443.172 227.673 442.929 227.96 442.624 228.235C442.325 228.505 441.968 228.73 441.552 228.912C441.142 229.088 440.679 229.176 440.163 229.176C439.519 229.176 438.953 229.05 438.467 228.798C437.986 228.546 437.611 228.209 437.342 227.787C437.078 227.359 436.946 226.882 436.946 226.354C436.946 225.845 437.046 225.396 437.245 225.01C437.444 224.617 437.731 224.292 438.106 224.034C438.481 223.771 438.933 223.571 439.46 223.437C439.987 223.302 440.576 223.234 441.227 223.234H443.116ZM448.645 221.521V229H447.019V219.49H448.557L448.645 221.521ZM448.258 223.885L447.581 223.858C447.587 223.208 447.684 222.607 447.871 222.057C448.059 221.5 448.322 221.017 448.662 220.606C449.002 220.196 449.406 219.88 449.875 219.657C450.35 219.429 450.874 219.314 451.448 219.314C451.917 219.314 452.339 219.379 452.714 219.508C453.089 219.631 453.408 219.83 453.672 220.105C453.941 220.381 454.146 220.738 454.287 221.178C454.428 221.611 454.498 222.142 454.498 222.769V229H452.863V222.751C452.863 222.253 452.79 221.854 452.644 221.556C452.497 221.251 452.283 221.031 452.002 220.896C451.721 220.756 451.375 220.686 450.965 220.686C450.561 220.686 450.191 220.771 449.857 220.94C449.529 221.11 449.245 221.345 449.005 221.644C448.771 221.942 448.586 222.285 448.451 222.672C448.322 223.053 448.258 223.457 448.258 223.885ZM460.773 227.84C461.16 227.84 461.518 227.761 461.846 227.603C462.174 227.444 462.443 227.228 462.654 226.952C462.865 226.671 462.985 226.352 463.015 225.994H464.562C464.532 226.557 464.342 227.081 463.99 227.567C463.645 228.048 463.19 228.438 462.628 228.736C462.065 229.029 461.447 229.176 460.773 229.176C460.059 229.176 459.435 229.05 458.901 228.798C458.374 228.546 457.935 228.2 457.583 227.761C457.237 227.321 456.977 226.817 456.801 226.249C456.631 225.675 456.546 225.068 456.546 224.43V224.061C456.546 223.422 456.631 222.818 456.801 222.25C456.977 221.676 457.237 221.169 457.583 220.729C457.935 220.29 458.374 219.944 458.901 219.692C459.435 219.44 460.059 219.314 460.773 219.314C461.518 219.314 462.168 219.467 462.725 219.771C463.281 220.07 463.718 220.48 464.034 221.002C464.356 221.518 464.532 222.104 464.562 222.76H463.015C462.985 222.367 462.874 222.013 462.681 221.696C462.493 221.38 462.235 221.128 461.907 220.94C461.585 220.747 461.207 220.65 460.773 220.65C460.275 220.65 459.856 220.75 459.517 220.949C459.183 221.143 458.916 221.406 458.717 221.74C458.523 222.068 458.383 222.435 458.295 222.839C458.213 223.237 458.172 223.645 458.172 224.061V224.43C458.172 224.846 458.213 225.256 458.295 225.66C458.377 226.064 458.515 226.431 458.708 226.759C458.907 227.087 459.174 227.351 459.508 227.55C459.848 227.743 460.27 227.84 460.773 227.84ZM470.336 229.176C469.674 229.176 469.073 229.064 468.534 228.842C468.001 228.613 467.541 228.294 467.154 227.884C466.773 227.474 466.48 226.987 466.275 226.425C466.07 225.862 465.968 225.247 465.968 224.579V224.21C465.968 223.437 466.082 222.748 466.311 222.145C466.539 221.535 466.85 221.02 467.242 220.598C467.635 220.176 468.08 219.856 468.578 219.64C469.076 219.423 469.592 219.314 470.125 219.314C470.805 219.314 471.391 219.432 471.883 219.666C472.381 219.9 472.788 220.229 473.104 220.65C473.421 221.066 473.655 221.559 473.808 222.127C473.96 222.689 474.036 223.305 474.036 223.973V224.702H466.935V223.375H472.41V223.252C472.387 222.83 472.299 222.42 472.146 222.021C472 221.623 471.766 221.295 471.443 221.037C471.121 220.779 470.682 220.65 470.125 220.65C469.756 220.65 469.416 220.729 469.105 220.888C468.795 221.04 468.528 221.269 468.306 221.573C468.083 221.878 467.91 222.25 467.787 222.689C467.664 223.129 467.603 223.636 467.603 224.21V224.579C467.603 225.03 467.664 225.455 467.787 225.854C467.916 226.246 468.101 226.592 468.341 226.891C468.587 227.189 468.883 227.424 469.229 227.594C469.58 227.764 469.979 227.849 470.424 227.849C470.998 227.849 471.484 227.731 471.883 227.497C472.281 227.263 472.63 226.949 472.929 226.557L473.913 227.339C473.708 227.649 473.447 227.945 473.131 228.227C472.814 228.508 472.425 228.736 471.962 228.912C471.505 229.088 470.963 229.176 470.336 229.176Z" fill="black"/>
<path d="M407.547 70.2031H411.783C412.744 70.2031 413.556 70.3496 414.218 70.6426C414.886 70.9355 415.393 71.3691 415.738 71.9434C416.09 72.5117 416.266 73.2119 416.266 74.0439C416.266 74.6299 416.146 75.166 415.905 75.6523C415.671 76.1328 415.331 76.543 414.886 76.8828C414.446 77.2168 413.919 77.4658 413.304 77.6299L412.829 77.8145H408.848L408.83 76.4346H411.836C412.445 76.4346 412.952 76.3291 413.356 76.1182C413.761 75.9014 414.065 75.6113 414.271 75.248C414.476 74.8848 414.578 74.4834 414.578 74.0439C414.578 73.5518 414.481 73.1211 414.288 72.752C414.095 72.3828 413.79 72.0986 413.374 71.8994C412.964 71.6943 412.434 71.5918 411.783 71.5918H409.243V83H407.547V70.2031ZM415.026 83L411.915 77.1992L413.682 77.1904L416.837 82.8945V83H415.026ZM418.639 70.2031H422.875C423.836 70.2031 424.647 70.3496 425.31 70.6426C425.978 70.9355 426.484 71.3691 426.83 71.9434C427.182 72.5117 427.357 73.2119 427.357 74.0439C427.357 74.6299 427.237 75.166 426.997 75.6523C426.763 76.1328 426.423 76.543 425.978 76.8828C425.538 77.2168 425.011 77.4658 424.396 77.6299L423.921 77.8145H419.939L419.922 76.4346H422.928C423.537 76.4346 424.044 76.3291 424.448 76.1182C424.853 75.9014 425.157 75.6113 425.362 75.248C425.567 74.8848 425.67 74.4834 425.67 74.0439C425.67 73.5518 425.573 73.1211 425.38 72.752C425.187 72.3828 424.882 72.0986 424.466 71.8994C424.056 71.6943 423.525 71.5918 422.875 71.5918H420.335V83H418.639V70.2031ZM426.118 83L423.007 77.1992L424.773 77.1904L427.929 82.8945V83H426.118ZM433.756 70.2031V83H432.086V70.2031H433.756ZM437.869 70.2031V71.5918H427.981V70.2031H437.869ZM439.416 76.7773L441.183 74.3516L438.528 73.5605L438.941 72.2422L441.596 73.2178L441.517 70.1943H442.853L442.765 73.2705L445.384 72.2949L445.788 73.6396L443.09 74.4395L444.821 76.8213L443.731 77.6387L442.105 75.1074L440.515 77.5771L439.416 76.7773ZM455.122 76.8916V78.2275H450.833V76.8916H455.122ZM420.783 98.9814H417.364V97.6016H420.783C421.445 97.6016 421.981 97.4961 422.392 97.2852C422.802 97.0742 423.101 96.7812 423.288 96.4062C423.481 96.0312 423.578 95.6035 423.578 95.123C423.578 94.6836 423.481 94.2705 423.288 93.8838C423.101 93.4971 422.802 93.1865 422.392 92.9521C421.981 92.7119 421.445 92.5918 420.783 92.5918H417.76V104H416.063V91.2031H420.783C421.75 91.2031 422.567 91.3701 423.235 91.7041C423.903 92.0381 424.41 92.501 424.756 93.0928C425.102 93.6787 425.274 94.3496 425.274 95.1055C425.274 95.9258 425.102 96.626 424.756 97.2061C424.41 97.7861 423.903 98.2285 423.235 98.5332C422.567 98.832 421.75 98.9814 420.783 98.9814ZM432.675 102.374V97.4785C432.675 97.1035 432.599 96.7783 432.446 96.5029C432.3 96.2217 432.077 96.0049 431.778 95.8525C431.479 95.7002 431.11 95.624 430.671 95.624C430.261 95.624 429.9 95.6943 429.59 95.835C429.285 95.9756 429.045 96.1602 428.869 96.3887C428.699 96.6172 428.614 96.8633 428.614 97.127H426.988C426.988 96.7871 427.076 96.4502 427.252 96.1162C427.428 95.7822 427.68 95.4805 428.008 95.2109C428.342 94.9355 428.74 94.7188 429.203 94.5605C429.672 94.3965 430.193 94.3145 430.768 94.3145C431.459 94.3145 432.068 94.4316 432.596 94.666C433.129 94.9004 433.545 95.2549 433.844 95.7295C434.148 96.1982 434.301 96.7871 434.301 97.4961V101.926C434.301 102.242 434.327 102.579 434.38 102.937C434.438 103.294 434.523 103.602 434.635 103.859V104H432.938C432.856 103.812 432.792 103.563 432.745 103.253C432.698 102.937 432.675 102.644 432.675 102.374ZM432.956 98.2344L432.974 99.377H431.33C430.867 99.377 430.454 99.415 430.091 99.4912C429.728 99.5615 429.423 99.6699 429.177 99.8164C428.931 99.9629 428.743 100.147 428.614 100.37C428.485 100.587 428.421 100.842 428.421 101.135C428.421 101.434 428.488 101.706 428.623 101.952C428.758 102.198 428.96 102.395 429.229 102.541C429.505 102.682 429.842 102.752 430.24 102.752C430.738 102.752 431.178 102.646 431.559 102.436C431.939 102.225 432.241 101.967 432.464 101.662C432.692 101.357 432.815 101.062 432.833 100.774L433.527 101.557C433.486 101.803 433.375 102.075 433.193 102.374C433.012 102.673 432.769 102.96 432.464 103.235C432.165 103.505 431.808 103.73 431.392 103.912C430.981 104.088 430.519 104.176 430.003 104.176C429.358 104.176 428.793 104.05 428.307 103.798C427.826 103.546 427.451 103.209 427.182 102.787C426.918 102.359 426.786 101.882 426.786 101.354C426.786 100.845 426.886 100.396 427.085 100.01C427.284 99.6172 427.571 99.292 427.946 99.0342C428.321 98.7705 428.772 98.5713 429.3 98.4365C429.827 98.3018 430.416 98.2344 431.066 98.2344H432.956ZM440.84 94.4902V95.7383H435.698V94.4902H440.84ZM437.438 92.1787H439.064V101.645C439.064 101.967 439.114 102.21 439.214 102.374C439.313 102.538 439.442 102.646 439.601 102.699C439.759 102.752 439.929 102.778 440.11 102.778C440.245 102.778 440.386 102.767 440.532 102.743C440.685 102.714 440.799 102.69 440.875 102.673L440.884 104C440.755 104.041 440.585 104.079 440.374 104.114C440.169 104.155 439.92 104.176 439.627 104.176C439.229 104.176 438.862 104.097 438.528 103.938C438.194 103.78 437.928 103.517 437.729 103.147C437.535 102.772 437.438 102.269 437.438 101.636V92.1787ZM444.373 90.5V104H442.747V90.5H444.373ZM443.986 98.8848L443.31 98.8584C443.315 98.208 443.412 97.6074 443.6 97.0566C443.787 96.5 444.051 96.0166 444.391 95.6064C444.73 95.1963 445.135 94.8799 445.604 94.6572C446.078 94.4287 446.603 94.3145 447.177 94.3145C447.646 94.3145 448.067 94.3789 448.442 94.5078C448.817 94.6309 449.137 94.8301 449.4 95.1055C449.67 95.3809 449.875 95.7383 450.016 96.1777C450.156 96.6113 450.227 97.1416 450.227 97.7686V104H448.592V97.751C448.592 97.2529 448.519 96.8545 448.372 96.5557C448.226 96.251 448.012 96.0312 447.73 95.8965C447.449 95.7559 447.104 95.6855 446.693 95.6855C446.289 95.6855 445.92 95.7705 445.586 95.9404C445.258 96.1104 444.974 96.3447 444.733 96.6436C444.499 96.9424 444.314 97.2852 444.18 97.6719C444.051 98.0527 443.986 98.457 443.986 98.8848ZM401.562 117.318V128.656H399.927V115.49H401.421L401.562 117.318ZM407.969 120.166V120.351C407.969 121.042 407.887 121.684 407.723 122.275C407.559 122.861 407.318 123.371 407.002 123.805C406.691 124.238 406.308 124.575 405.851 124.815C405.394 125.056 404.869 125.176 404.277 125.176C403.674 125.176 403.141 125.076 402.678 124.877C402.215 124.678 401.822 124.388 401.5 124.007C401.178 123.626 400.92 123.169 400.727 122.636C400.539 122.103 400.41 121.502 400.34 120.834V119.85C400.41 119.146 400.542 118.517 400.735 117.96C400.929 117.403 401.184 116.929 401.5 116.536C401.822 116.138 402.212 115.836 402.669 115.631C403.126 115.42 403.653 115.314 404.251 115.314C404.849 115.314 405.379 115.432 405.842 115.666C406.305 115.895 406.694 116.223 407.011 116.65C407.327 117.078 407.564 117.591 407.723 118.188C407.887 118.78 407.969 119.439 407.969 120.166ZM406.334 120.351V120.166C406.334 119.691 406.284 119.246 406.185 118.83C406.085 118.408 405.93 118.039 405.719 117.723C405.514 117.4 405.25 117.148 404.928 116.967C404.605 116.779 404.222 116.686 403.776 116.686C403.366 116.686 403.009 116.756 402.704 116.896C402.405 117.037 402.15 117.228 401.939 117.468C401.729 117.702 401.556 117.972 401.421 118.276C401.292 118.575 401.195 118.886 401.131 119.208V121.484C401.248 121.895 401.412 122.281 401.623 122.645C401.834 123.002 402.115 123.292 402.467 123.515C402.818 123.731 403.261 123.84 403.794 123.84C404.233 123.84 404.611 123.749 404.928 123.567C405.25 123.38 405.514 123.125 405.719 122.803C405.93 122.48 406.085 122.111 406.185 121.695C406.284 121.273 406.334 120.825 406.334 120.351ZM411.81 111.5V125H410.175V111.5H411.81ZM420.027 123.374V118.479C420.027 118.104 419.951 117.778 419.799 117.503C419.652 117.222 419.43 117.005 419.131 116.853C418.832 116.7 418.463 116.624 418.023 116.624C417.613 116.624 417.253 116.694 416.942 116.835C416.638 116.976 416.397 117.16 416.222 117.389C416.052 117.617 415.967 117.863 415.967 118.127H414.341C414.341 117.787 414.429 117.45 414.604 117.116C414.78 116.782 415.032 116.48 415.36 116.211C415.694 115.936 416.093 115.719 416.556 115.561C417.024 115.396 417.546 115.314 418.12 115.314C418.812 115.314 419.421 115.432 419.948 115.666C420.481 115.9 420.897 116.255 421.196 116.729C421.501 117.198 421.653 117.787 421.653 118.496V122.926C421.653 123.242 421.68 123.579 421.732 123.937C421.791 124.294 421.876 124.602 421.987 124.859V125H420.291C420.209 124.812 420.145 124.563 420.098 124.253C420.051 123.937 420.027 123.644 420.027 123.374ZM420.309 119.234L420.326 120.377H418.683C418.22 120.377 417.807 120.415 417.443 120.491C417.08 120.562 416.775 120.67 416.529 120.816C416.283 120.963 416.096 121.147 415.967 121.37C415.838 121.587 415.773 121.842 415.773 122.135C415.773 122.434 415.841 122.706 415.976 122.952C416.11 123.198 416.312 123.395 416.582 123.541C416.857 123.682 417.194 123.752 417.593 123.752C418.091 123.752 418.53 123.646 418.911 123.436C419.292 123.225 419.594 122.967 419.816 122.662C420.045 122.357 420.168 122.062 420.186 121.774L420.88 122.557C420.839 122.803 420.728 123.075 420.546 123.374C420.364 123.673 420.121 123.96 419.816 124.235C419.518 124.505 419.16 124.73 418.744 124.912C418.334 125.088 417.871 125.176 417.355 125.176C416.711 125.176 416.146 125.05 415.659 124.798C415.179 124.546 414.804 124.209 414.534 123.787C414.271 123.359 414.139 122.882 414.139 122.354C414.139 121.845 414.238 121.396 414.438 121.01C414.637 120.617 414.924 120.292 415.299 120.034C415.674 119.771 416.125 119.571 416.652 119.437C417.18 119.302 417.769 119.234 418.419 119.234H420.309ZM425.837 117.521V125H424.211V115.49H425.749L425.837 117.521ZM425.45 119.885L424.773 119.858C424.779 119.208 424.876 118.607 425.063 118.057C425.251 117.5 425.515 117.017 425.854 116.606C426.194 116.196 426.599 115.88 427.067 115.657C427.542 115.429 428.066 115.314 428.641 115.314C429.109 115.314 429.531 115.379 429.906 115.508C430.281 115.631 430.601 115.83 430.864 116.105C431.134 116.381 431.339 116.738 431.479 117.178C431.62 117.611 431.69 118.142 431.69 118.769V125H430.056V118.751C430.056 118.253 429.982 117.854 429.836 117.556C429.689 117.251 429.476 117.031 429.194 116.896C428.913 116.756 428.567 116.686 428.157 116.686C427.753 116.686 427.384 116.771 427.05 116.94C426.722 117.11 426.438 117.345 426.197 117.644C425.963 117.942 425.778 118.285 425.644 118.672C425.515 119.053 425.45 119.457 425.45 119.885ZM435.786 117.521V125H434.16V115.49H435.698L435.786 117.521ZM435.399 119.885L434.723 119.858C434.729 119.208 434.825 118.607 435.013 118.057C435.2 117.5 435.464 117.017 435.804 116.606C436.144 116.196 436.548 115.88 437.017 115.657C437.491 115.429 438.016 115.314 438.59 115.314C439.059 115.314 439.48 115.379 439.855 115.508C440.23 115.631 440.55 115.83 440.813 116.105C441.083 116.381 441.288 116.738 441.429 117.178C441.569 117.611 441.64 118.142 441.64 118.769V125H440.005V118.751C440.005 118.253 439.932 117.854 439.785 117.556C439.639 117.251 439.425 117.031 439.144 116.896C438.862 116.756 438.517 116.686 438.106 116.686C437.702 116.686 437.333 116.771 436.999 116.94C436.671 117.11 436.387 117.345 436.146 117.644C435.912 117.942 435.728 118.285 435.593 118.672C435.464 119.053 435.399 119.457 435.399 119.885ZM445.876 115.49V125H444.241V115.49H445.876ZM444.118 112.968C444.118 112.704 444.197 112.481 444.355 112.3C444.52 112.118 444.76 112.027 445.076 112.027C445.387 112.027 445.624 112.118 445.788 112.3C445.958 112.481 446.043 112.704 446.043 112.968C446.043 113.22 445.958 113.437 445.788 113.618C445.624 113.794 445.387 113.882 445.076 113.882C444.76 113.882 444.52 113.794 444.355 113.618C444.197 113.437 444.118 113.22 444.118 112.968ZM450.112 117.521V125H448.486V115.49H450.024L450.112 117.521ZM449.726 119.885L449.049 119.858C449.055 119.208 449.151 118.607 449.339 118.057C449.526 117.5 449.79 117.017 450.13 116.606C450.47 116.196 450.874 115.88 451.343 115.657C451.817 115.429 452.342 115.314 452.916 115.314C453.385 115.314 453.807 115.379 454.182 115.508C454.557 115.631 454.876 115.83 455.14 116.105C455.409 116.381 455.614 116.738 455.755 117.178C455.896 117.611 455.966 118.142 455.966 118.769V125H454.331V118.751C454.331 118.253 454.258 117.854 454.111 117.556C453.965 117.251 453.751 117.031 453.47 116.896C453.188 116.756 452.843 116.686 452.433 116.686C452.028 116.686 451.659 116.771 451.325 116.94C450.997 117.11 450.713 117.345 450.473 117.644C450.238 117.942 450.054 118.285 449.919 118.672C449.79 119.053 449.726 119.457 449.726 119.885ZM464.597 115.49H466.073V124.798C466.073 125.636 465.903 126.351 465.563 126.942C465.224 127.534 464.749 127.982 464.14 128.287C463.536 128.598 462.839 128.753 462.048 128.753C461.72 128.753 461.333 128.7 460.888 128.595C460.448 128.495 460.015 128.322 459.587 128.076C459.165 127.836 458.811 127.511 458.523 127.101L459.376 126.134C459.774 126.614 460.19 126.948 460.624 127.136C461.063 127.323 461.497 127.417 461.925 127.417C462.44 127.417 462.886 127.32 463.261 127.127C463.636 126.934 463.926 126.646 464.131 126.266C464.342 125.891 464.447 125.428 464.447 124.877V117.582L464.597 115.49ZM458.049 120.351V120.166C458.049 119.439 458.134 118.78 458.304 118.188C458.479 117.591 458.729 117.078 459.051 116.65C459.379 116.223 459.774 115.895 460.237 115.666C460.7 115.432 461.222 115.314 461.802 115.314C462.399 115.314 462.921 115.42 463.366 115.631C463.817 115.836 464.198 116.138 464.509 116.536C464.825 116.929 465.074 117.403 465.256 117.96C465.438 118.517 465.563 119.146 465.634 119.85V120.658C465.569 121.355 465.443 121.982 465.256 122.539C465.074 123.096 464.825 123.57 464.509 123.963C464.198 124.355 463.817 124.657 463.366 124.868C462.915 125.073 462.388 125.176 461.784 125.176C461.216 125.176 460.7 125.056 460.237 124.815C459.78 124.575 459.388 124.238 459.06 123.805C458.731 123.371 458.479 122.861 458.304 122.275C458.134 121.684 458.049 121.042 458.049 120.351ZM459.675 120.166V120.351C459.675 120.825 459.722 121.271 459.815 121.687C459.915 122.103 460.064 122.469 460.264 122.785C460.469 123.102 460.729 123.351 461.046 123.532C461.362 123.708 461.74 123.796 462.18 123.796C462.719 123.796 463.164 123.682 463.516 123.453C463.867 123.225 464.146 122.923 464.351 122.548C464.562 122.173 464.726 121.766 464.843 121.326V119.208C464.778 118.886 464.679 118.575 464.544 118.276C464.415 117.972 464.245 117.702 464.034 117.468C463.829 117.228 463.574 117.037 463.27 116.896C462.965 116.756 462.607 116.686 462.197 116.686C461.752 116.686 461.368 116.779 461.046 116.967C460.729 117.148 460.469 117.4 460.264 117.723C460.064 118.039 459.915 118.408 459.815 118.83C459.722 119.246 459.675 119.691 459.675 120.166Z" fill="black"/>
<rect x="554.5" y="104.5" width="97" height="101" rx="14.5" fill="white" stroke="black"/>
<path d="M590.062 138.203V151H588.393V138.203H590.062ZM594.176 138.203V139.592H584.288V138.203H594.176ZM598.896 151.176C598.233 151.176 597.633 151.064 597.094 150.842C596.561 150.613 596.101 150.294 595.714 149.884C595.333 149.474 595.04 148.987 594.835 148.425C594.63 147.862 594.527 147.247 594.527 146.579V146.21C594.527 145.437 594.642 144.748 594.87 144.145C595.099 143.535 595.409 143.02 595.802 142.598C596.194 142.176 596.64 141.856 597.138 141.64C597.636 141.423 598.151 141.314 598.685 141.314C599.364 141.314 599.95 141.432 600.442 141.666C600.94 141.9 601.348 142.229 601.664 142.65C601.98 143.066 602.215 143.559 602.367 144.127C602.52 144.689 602.596 145.305 602.596 145.973V146.702H595.494V145.375H600.97V145.252C600.946 144.83 600.858 144.42 600.706 144.021C600.56 143.623 600.325 143.295 600.003 143.037C599.681 142.779 599.241 142.65 598.685 142.65C598.315 142.65 597.976 142.729 597.665 142.888C597.354 143.04 597.088 143.269 596.865 143.573C596.643 143.878 596.47 144.25 596.347 144.689C596.224 145.129 596.162 145.636 596.162 146.21V146.579C596.162 147.03 596.224 147.455 596.347 147.854C596.476 148.246 596.66 148.592 596.9 148.891C597.146 149.189 597.442 149.424 597.788 149.594C598.14 149.764 598.538 149.849 598.983 149.849C599.558 149.849 600.044 149.731 600.442 149.497C600.841 149.263 601.189 148.949 601.488 148.557L602.473 149.339C602.268 149.649 602.007 149.945 601.69 150.227C601.374 150.508 600.984 150.736 600.521 150.912C600.064 151.088 599.522 151.176 598.896 151.176ZM606.261 137.5V151H604.626V137.5H606.261ZM612.817 151.176C612.155 151.176 611.555 151.064 611.016 150.842C610.482 150.613 610.022 150.294 609.636 149.884C609.255 149.474 608.962 148.987 608.757 148.425C608.552 147.862 608.449 147.247 608.449 146.579V146.21C608.449 145.437 608.563 144.748 608.792 144.145C609.021 143.535 609.331 143.02 609.724 142.598C610.116 142.176 610.562 141.856 611.06 141.64C611.558 141.423 612.073 141.314 612.606 141.314C613.286 141.314 613.872 141.432 614.364 141.666C614.862 141.9 615.27 142.229 615.586 142.65C615.902 143.066 616.137 143.559 616.289 144.127C616.441 144.689 616.518 145.305 616.518 145.973V146.702H609.416V145.375H614.892V145.252C614.868 144.83 614.78 144.42 614.628 144.021C614.481 143.623 614.247 143.295 613.925 143.037C613.603 142.779 613.163 142.65 612.606 142.65C612.237 142.65 611.897 142.729 611.587 142.888C611.276 143.04 611.01 143.269 610.787 143.573C610.564 143.878 610.392 144.25 610.269 144.689C610.146 145.129 610.084 145.636 610.084 146.21V146.579C610.084 147.03 610.146 147.455 610.269 147.854C610.397 148.246 610.582 148.592 610.822 148.891C611.068 149.189 611.364 149.424 611.71 149.594C612.062 149.764 612.46 149.849 612.905 149.849C613.479 149.849 613.966 149.731 614.364 149.497C614.763 149.263 615.111 148.949 615.41 148.557L616.395 149.339C616.189 149.649 615.929 149.945 615.612 150.227C615.296 150.508 614.906 150.736 614.443 150.912C613.986 151.088 613.444 151.176 612.817 151.176ZM621.8 144.892V146.228H617.511V144.892H621.8ZM565.84 167.351V167.148C565.84 166.463 565.939 165.827 566.139 165.241C566.338 164.649 566.625 164.137 567 163.703C567.375 163.264 567.829 162.924 568.362 162.684C568.896 162.438 569.493 162.314 570.155 162.314C570.823 162.314 571.424 162.438 571.957 162.684C572.496 162.924 572.953 163.264 573.328 163.703C573.709 164.137 573.999 164.649 574.198 165.241C574.397 165.827 574.497 166.463 574.497 167.148V167.351C574.497 168.036 574.397 168.672 574.198 169.258C573.999 169.844 573.709 170.356 573.328 170.796C572.953 171.229 572.499 171.569 571.966 171.815C571.438 172.056 570.841 172.176 570.173 172.176C569.505 172.176 568.904 172.056 568.371 171.815C567.838 171.569 567.381 171.229 567 170.796C566.625 170.356 566.338 169.844 566.139 169.258C565.939 168.672 565.84 168.036 565.84 167.351ZM567.466 167.148V167.351C567.466 167.825 567.521 168.273 567.633 168.695C567.744 169.111 567.911 169.48 568.134 169.803C568.362 170.125 568.646 170.38 568.986 170.567C569.326 170.749 569.722 170.84 570.173 170.84C570.618 170.84 571.008 170.749 571.342 170.567C571.682 170.38 571.963 170.125 572.186 169.803C572.408 169.48 572.575 169.111 572.687 168.695C572.804 168.273 572.862 167.825 572.862 167.351V167.148C572.862 166.68 572.804 166.237 572.687 165.821C572.575 165.399 572.405 165.027 572.177 164.705C571.954 164.377 571.673 164.119 571.333 163.932C570.999 163.744 570.606 163.65 570.155 163.65C569.71 163.65 569.317 163.744 568.978 163.932C568.644 164.119 568.362 164.377 568.134 164.705C567.911 165.027 567.744 165.399 567.633 165.821C567.521 166.237 567.466 166.68 567.466 167.148ZM578.162 164.318V175.656H576.527V162.49H578.021L578.162 164.318ZM584.569 167.166V167.351C584.569 168.042 584.487 168.684 584.323 169.275C584.159 169.861 583.919 170.371 583.603 170.805C583.292 171.238 582.908 171.575 582.451 171.815C581.994 172.056 581.47 172.176 580.878 172.176C580.274 172.176 579.741 172.076 579.278 171.877C578.815 171.678 578.423 171.388 578.101 171.007C577.778 170.626 577.521 170.169 577.327 169.636C577.14 169.103 577.011 168.502 576.94 167.834V166.85C577.011 166.146 577.143 165.517 577.336 164.96C577.529 164.403 577.784 163.929 578.101 163.536C578.423 163.138 578.812 162.836 579.27 162.631C579.727 162.42 580.254 162.314 580.852 162.314C581.449 162.314 581.979 162.432 582.442 162.666C582.905 162.895 583.295 163.223 583.611 163.65C583.928 164.078 584.165 164.591 584.323 165.188C584.487 165.78 584.569 166.439 584.569 167.166ZM582.935 167.351V167.166C582.935 166.691 582.885 166.246 582.785 165.83C582.686 165.408 582.53 165.039 582.319 164.723C582.114 164.4 581.851 164.148 581.528 163.967C581.206 163.779 580.822 163.686 580.377 163.686C579.967 163.686 579.609 163.756 579.305 163.896C579.006 164.037 578.751 164.228 578.54 164.468C578.329 164.702 578.156 164.972 578.021 165.276C577.893 165.575 577.796 165.886 577.731 166.208V168.484C577.849 168.895 578.013 169.281 578.224 169.645C578.435 170.002 578.716 170.292 579.067 170.515C579.419 170.731 579.861 170.84 580.395 170.84C580.834 170.84 581.212 170.749 581.528 170.567C581.851 170.38 582.114 170.125 582.319 169.803C582.53 169.48 582.686 169.111 582.785 168.695C582.885 168.273 582.935 167.825 582.935 167.351ZM590.59 172.176C589.928 172.176 589.327 172.064 588.788 171.842C588.255 171.613 587.795 171.294 587.408 170.884C587.027 170.474 586.734 169.987 586.529 169.425C586.324 168.862 586.222 168.247 586.222 167.579V167.21C586.222 166.437 586.336 165.748 586.564 165.145C586.793 164.535 587.104 164.02 587.496 163.598C587.889 163.176 588.334 162.856 588.832 162.64C589.33 162.423 589.846 162.314 590.379 162.314C591.059 162.314 591.645 162.432 592.137 162.666C592.635 162.9 593.042 163.229 593.358 163.65C593.675 164.066 593.909 164.559 594.062 165.127C594.214 165.689 594.29 166.305 594.29 166.973V167.702H587.188V166.375H592.664V166.252C592.641 165.83 592.553 165.42 592.4 165.021C592.254 164.623 592.02 164.295 591.697 164.037C591.375 163.779 590.936 163.65 590.379 163.65C590.01 163.65 589.67 163.729 589.359 163.888C589.049 164.04 588.782 164.269 588.56 164.573C588.337 164.878 588.164 165.25 588.041 165.689C587.918 166.129 587.856 166.636 587.856 167.21V167.579C587.856 168.03 587.918 168.455 588.041 168.854C588.17 169.246 588.354 169.592 588.595 169.891C588.841 170.189 589.137 170.424 589.482 170.594C589.834 170.764 590.232 170.849 590.678 170.849C591.252 170.849 591.738 170.731 592.137 170.497C592.535 170.263 592.884 169.949 593.183 169.557L594.167 170.339C593.962 170.649 593.701 170.945 593.385 171.227C593.068 171.508 592.679 171.736 592.216 171.912C591.759 172.088 591.217 172.176 590.59 172.176ZM597.814 163.984V172H596.188V162.49H597.771L597.814 163.984ZM600.785 162.438L600.776 163.949C600.642 163.92 600.513 163.902 600.39 163.896C600.272 163.885 600.138 163.879 599.985 163.879C599.61 163.879 599.279 163.938 598.992 164.055C598.705 164.172 598.462 164.336 598.263 164.547C598.063 164.758 597.905 165.01 597.788 165.303C597.677 165.59 597.604 165.906 597.568 166.252L597.111 166.516C597.111 165.941 597.167 165.402 597.278 164.898C597.396 164.395 597.574 163.949 597.814 163.562C598.055 163.17 598.359 162.865 598.729 162.648C599.104 162.426 599.549 162.314 600.064 162.314C600.182 162.314 600.316 162.329 600.469 162.358C600.621 162.382 600.727 162.408 600.785 162.438ZM607.544 170.374V165.479C607.544 165.104 607.468 164.778 607.315 164.503C607.169 164.222 606.946 164.005 606.647 163.853C606.349 163.7 605.979 163.624 605.54 163.624C605.13 163.624 604.77 163.694 604.459 163.835C604.154 163.976 603.914 164.16 603.738 164.389C603.568 164.617 603.483 164.863 603.483 165.127H601.857C601.857 164.787 601.945 164.45 602.121 164.116C602.297 163.782 602.549 163.48 602.877 163.211C603.211 162.936 603.609 162.719 604.072 162.561C604.541 162.396 605.062 162.314 605.637 162.314C606.328 162.314 606.938 162.432 607.465 162.666C607.998 162.9 608.414 163.255 608.713 163.729C609.018 164.198 609.17 164.787 609.17 165.496V169.926C609.17 170.242 609.196 170.579 609.249 170.937C609.308 171.294 609.393 171.602 609.504 171.859V172H607.808C607.726 171.812 607.661 171.563 607.614 171.253C607.567 170.937 607.544 170.644 607.544 170.374ZM607.825 166.234L607.843 167.377H606.199C605.736 167.377 605.323 167.415 604.96 167.491C604.597 167.562 604.292 167.67 604.046 167.816C603.8 167.963 603.612 168.147 603.483 168.37C603.354 168.587 603.29 168.842 603.29 169.135C603.29 169.434 603.357 169.706 603.492 169.952C603.627 170.198 603.829 170.395 604.099 170.541C604.374 170.682 604.711 170.752 605.109 170.752C605.607 170.752 606.047 170.646 606.428 170.436C606.809 170.225 607.11 169.967 607.333 169.662C607.562 169.357 607.685 169.062 607.702 168.774L608.396 169.557C608.355 169.803 608.244 170.075 608.062 170.374C607.881 170.673 607.638 170.96 607.333 171.235C607.034 171.505 606.677 171.73 606.261 171.912C605.851 172.088 605.388 172.176 604.872 172.176C604.228 172.176 603.662 172.05 603.176 171.798C602.695 171.546 602.32 171.209 602.051 170.787C601.787 170.359 601.655 169.882 601.655 169.354C601.655 168.845 601.755 168.396 601.954 168.01C602.153 167.617 602.44 167.292 602.815 167.034C603.19 166.771 603.642 166.571 604.169 166.437C604.696 166.302 605.285 166.234 605.936 166.234H607.825ZM615.709 162.49V163.738H610.567V162.49H615.709ZM612.308 160.179H613.934V169.645C613.934 169.967 613.983 170.21 614.083 170.374C614.183 170.538 614.312 170.646 614.47 170.699C614.628 170.752 614.798 170.778 614.979 170.778C615.114 170.778 615.255 170.767 615.401 170.743C615.554 170.714 615.668 170.69 615.744 170.673L615.753 172C615.624 172.041 615.454 172.079 615.243 172.114C615.038 172.155 614.789 172.176 614.496 172.176C614.098 172.176 613.731 172.097 613.397 171.938C613.063 171.78 612.797 171.517 612.598 171.147C612.404 170.772 612.308 170.269 612.308 169.636V160.179ZM619.383 162.49V172H617.748V162.49H619.383ZM617.625 159.968C617.625 159.704 617.704 159.481 617.862 159.3C618.026 159.118 618.267 159.027 618.583 159.027C618.894 159.027 619.131 159.118 619.295 159.3C619.465 159.481 619.55 159.704 619.55 159.968C619.55 160.22 619.465 160.437 619.295 160.618C619.131 160.794 618.894 160.882 618.583 160.882C618.267 160.882 618.026 160.794 617.862 160.618C617.704 160.437 617.625 160.22 617.625 159.968ZM621.562 167.351V167.148C621.562 166.463 621.662 165.827 621.861 165.241C622.061 164.649 622.348 164.137 622.723 163.703C623.098 163.264 623.552 162.924 624.085 162.684C624.618 162.438 625.216 162.314 625.878 162.314C626.546 162.314 627.146 162.438 627.68 162.684C628.219 162.924 628.676 163.264 629.051 163.703C629.432 164.137 629.722 164.649 629.921 165.241C630.12 165.827 630.22 166.463 630.22 167.148V167.351C630.22 168.036 630.12 168.672 629.921 169.258C629.722 169.844 629.432 170.356 629.051 170.796C628.676 171.229 628.222 171.569 627.688 171.815C627.161 172.056 626.563 172.176 625.896 172.176C625.228 172.176 624.627 172.056 624.094 171.815C623.561 171.569 623.104 171.229 622.723 170.796C622.348 170.356 622.061 169.844 621.861 169.258C621.662 168.672 621.562 168.036 621.562 167.351ZM623.188 167.148V167.351C623.188 167.825 623.244 168.273 623.355 168.695C623.467 169.111 623.634 169.48 623.856 169.803C624.085 170.125 624.369 170.38 624.709 170.567C625.049 170.749 625.444 170.84 625.896 170.84C626.341 170.84 626.73 170.749 627.064 170.567C627.404 170.38 627.686 170.125 627.908 169.803C628.131 169.48 628.298 169.111 628.409 168.695C628.526 168.273 628.585 167.825 628.585 167.351V167.148C628.585 166.68 628.526 166.237 628.409 165.821C628.298 165.399 628.128 165.027 627.899 164.705C627.677 164.377 627.396 164.119 627.056 163.932C626.722 163.744 626.329 163.65 625.878 163.65C625.433 163.65 625.04 163.744 624.7 163.932C624.366 164.119 624.085 164.377 623.856 164.705C623.634 165.027 623.467 165.399 623.355 165.821C623.244 166.237 623.188 166.68 623.188 167.148ZM633.885 164.521V172H632.259V162.49H633.797L633.885 164.521ZM633.498 166.885L632.821 166.858C632.827 166.208 632.924 165.607 633.111 165.057C633.299 164.5 633.562 164.017 633.902 163.606C634.242 163.196 634.646 162.88 635.115 162.657C635.59 162.429 636.114 162.314 636.688 162.314C637.157 162.314 637.579 162.379 637.954 162.508C638.329 162.631 638.648 162.83 638.912 163.105C639.182 163.381 639.387 163.738 639.527 164.178C639.668 164.611 639.738 165.142 639.738 165.769V172H638.104V165.751C638.104 165.253 638.03 164.854 637.884 164.556C637.737 164.251 637.523 164.031 637.242 163.896C636.961 163.756 636.615 163.686 636.205 163.686C635.801 163.686 635.432 163.771 635.098 163.94C634.77 164.11 634.485 164.345 634.245 164.644C634.011 164.942 633.826 165.285 633.691 165.672C633.562 166.053 633.498 166.457 633.498 166.885Z" fill="black"/>
<path d="M214.707 155.707C215.098 155.317 215.098 154.683 214.707 154.293L208.343 147.929C207.953 147.538 207.319 147.538 206.929 147.929C206.538 148.319 206.538 148.953 206.929 149.343L212.586 155L206.929 160.657C206.538 161.047 206.538 161.681 206.929 162.071C207.319 162.462 207.953 162.462 208.343 162.071L214.707 155.707ZM142 156H214V154H142V156Z" fill="black"/>
<path d="M348.5 155V156H349.5V155H348.5ZM348.5 97V96H347.5V97H348.5ZM384.707 97.7071C385.098 97.3166 385.098 96.6834 384.707 96.2929L378.343 89.9289C377.953 89.5384 377.319 89.5384 376.929 89.9289C376.538 90.3195 376.538 90.9526 376.929 91.3431L382.586 97L376.929 102.657C376.538 103.047 376.538 103.681 376.929 104.071C377.319 104.462 377.953 104.462 378.343 104.071L384.707 97.7071ZM312 156H348.5V154H312V156ZM349.5 155V97H347.5V155H349.5ZM348.5 98H384V96H348.5V98Z" fill="black"/>
<path d="M518.5 213V214H519.5V213H518.5ZM518.5 155V154H517.5V155H518.5ZM554.707 155.707C555.098 155.317 555.098 154.683 554.707 154.293L548.343 147.929C547.953 147.538 547.319 147.538 546.929 147.929C546.538 148.319 546.538 148.953 546.929 149.343L552.586 155L546.929 160.657C546.538 161.047 546.538 161.681 546.929 162.071C547.319 162.462 547.953 162.462 548.343 162.071L554.707 155.707ZM482 214H518.5V212H482V214ZM519.5 213V155H517.5V213H519.5ZM518.5 156H554V154H518.5V156Z" fill="black"/>
<path d="M348.5 155V154H349.5V155H348.5ZM348.5 213V214H347.5V213H348.5ZM384.707 212.293C385.098 212.683 385.098 213.317 384.707 213.707L378.343 220.071C377.953 220.462 377.319 220.462 376.929 220.071C376.538 219.681 376.538 219.047 376.929 218.657L382.586 213L376.929 207.343C376.538 206.953 376.538 206.319 376.929 205.929C377.319 205.538 377.953 205.538 378.343 205.929L384.707 212.293ZM312 154H348.5V156H312V154ZM349.5 155V213H347.5V155H349.5ZM348.5 212H384V214H348.5V212Z" fill="black"/>
<path d="M518.5 97V96H519.5V97H518.5ZM518.5 155V156H517.5V155H518.5ZM554.707 154.293C555.098 154.683 555.098 155.317 554.707 155.707L548.343 162.071C547.953 162.462 547.319 162.462 546.929 162.071C546.538 161.681 546.538 161.047 546.929 160.657L552.586 155L546.929 149.343C546.538 148.953 546.538 148.319 546.929 147.929C547.319 147.538 547.953 147.538 548.343 147.929L554.707 154.293ZM482 96H518.5V98H482V96ZM519.5 97V155H517.5V97H519.5ZM518.5 154H554V156H518.5V154Z" fill="black"/>
<path d="M0.999996 311H-3.8147e-06V312H0.999996V311ZM0.999996 154V153H-3.8147e-06V154H0.999996ZM44.7071 154.707C45.0976 154.317 45.0976 153.683 44.7071 153.293L38.3431 146.929C37.9526 146.538 37.3195 146.538 36.9289 146.929C36.5384 147.319 36.5384 147.953 36.9289 148.343L42.5858 154L36.9289 159.657C36.5384 160.047 36.5384 160.681 36.9289 161.071C37.3195 161.462 37.9526 161.462 38.3431 161.071L44.7071 154.707ZM44 310H0.999996V312H44V310ZM2 311L2 154H-3.8147e-06L-3.8147e-06 311H2ZM0.999996 155H44V153H0.999996V155Z" fill="black"/>
<path d="M695 154H696V153H695V154ZM695 311V312H696V311H695ZM651.293 310.293C650.902 310.683 650.902 311.317 651.293 311.707L657.657 318.071C658.047 318.462 658.681 318.462 659.071 318.071C659.462 317.681 659.462 317.047 659.071 316.657L653.414 311L659.071 305.343C659.462 304.953 659.462 304.319 659.071 303.929C658.681 303.538 658.047 303.538 657.657 303.929L651.293 310.293ZM652 155H695V153H652V155ZM694 154V311H696V154H694ZM695 310H652V312H695V310Z" fill="black"/>
</svg>
