<svg width="558" height="128" viewBox="0 0 558 128" fill="none" xmlns="http://www.w3.org/2000/svg">
<rect width="558" height="128" fill="white"/>
<path d="M359.061 86.0607C359.646 85.4749 359.646 84.5251 359.061 83.9393L349.515 74.3934C348.929 73.8076 347.979 73.8076 347.393 74.3934C346.808 74.9792 346.808 75.9289 347.393 76.5147L355.879 85L347.393 93.4853C346.808 94.0711 346.808 95.0208 347.393 95.6066C347.979 96.1924 348.929 96.1924 349.515 95.6066L359.061 86.0607ZM198 86.5L358 86.5V83.5L198 83.5V86.5Z" fill="#5F5F5F"/>
<path d="M233.646 33.9463V38H232.806V28.0469H236.196C237.231 28.0469 238.046 28.3112 238.643 28.8398C239.245 29.3685 239.546 30.0954 239.546 31.0205C239.546 31.9548 239.256 32.6771 238.678 33.1875C238.103 33.6934 237.269 33.9463 236.176 33.9463H233.646ZM233.646 33.2354H236.196C237.012 33.2354 237.634 33.0417 238.062 32.6543C238.491 32.2669 238.705 31.7269 238.705 31.0342C238.705 30.346 238.491 29.7992 238.062 29.3936C237.639 28.9834 237.035 28.7738 236.251 28.7646H233.646V33.2354ZM240.694 34.1924C240.694 33.4814 240.831 32.8411 241.104 32.2715C241.382 31.7018 241.772 31.2598 242.273 30.9453C242.779 30.6263 243.351 30.4668 243.989 30.4668C244.974 30.4668 245.771 30.8132 246.382 31.5059C246.992 32.194 247.298 33.1077 247.298 34.2471V34.418C247.298 35.1335 247.159 35.7783 246.881 36.3525C246.607 36.9222 246.22 37.362 245.719 37.6719C245.217 37.9818 244.645 38.1367 244.003 38.1367C243.023 38.1367 242.225 37.7926 241.61 37.1045C241 36.4118 240.694 35.4958 240.694 34.3564V34.1924ZM241.515 34.418C241.515 35.3021 241.742 36.029 242.198 36.5986C242.658 37.1637 243.26 37.4463 244.003 37.4463C244.741 37.4463 245.338 37.1637 245.794 36.5986C246.254 36.029 246.484 35.2793 246.484 34.3496V34.1924C246.484 33.6273 246.379 33.11 246.17 32.6406C245.96 32.1712 245.666 31.8089 245.288 31.5537C244.91 31.2939 244.477 31.1641 243.989 31.1641C243.26 31.1641 242.665 31.4512 242.205 32.0254C241.745 32.5951 241.515 33.3424 241.515 34.2676V34.418ZM253.423 36.1201C253.423 35.7145 253.259 35.3887 252.931 35.1426C252.607 34.8965 252.117 34.7051 251.461 34.5684C250.805 34.4271 250.294 34.2676 249.93 34.0898C249.57 33.9076 249.301 33.6865 249.123 33.4268C248.95 33.167 248.863 32.8525 248.863 32.4834C248.863 31.9001 249.107 31.4193 249.595 31.041C250.082 30.6582 250.707 30.4668 251.468 30.4668C252.293 30.4668 252.953 30.6719 253.45 31.082C253.951 31.4876 254.202 32.0186 254.202 32.6748H253.382C253.382 32.2419 253.199 31.8818 252.835 31.5947C252.475 31.3076 252.019 31.1641 251.468 31.1641C250.93 31.1641 250.497 31.2848 250.169 31.5264C249.845 31.7633 249.683 32.0732 249.683 32.4561C249.683 32.8252 249.818 33.1123 250.087 33.3174C250.36 33.5179 250.855 33.7025 251.57 33.8711C252.29 34.0397 252.828 34.2197 253.183 34.4111C253.544 34.6025 253.81 34.8327 253.983 35.1016C254.156 35.3704 254.243 35.6963 254.243 36.0791C254.243 36.7035 253.99 37.2025 253.484 37.5762C252.983 37.9499 252.327 38.1367 251.516 38.1367C250.654 38.1367 249.955 37.9294 249.417 37.5146C248.884 37.0954 248.617 36.5667 248.617 35.9287H249.437C249.469 36.4072 249.67 36.7809 250.039 37.0498C250.413 37.3141 250.905 37.4463 251.516 37.4463C252.085 37.4463 252.545 37.321 252.896 37.0703C253.247 36.8197 253.423 36.5029 253.423 36.1201ZM257.005 38H256.184V30.6035H257.005V38ZM256.041 28.4639C256.041 28.3089 256.091 28.179 256.191 28.0742C256.292 27.9648 256.428 27.9102 256.601 27.9102C256.775 27.9102 256.911 27.9648 257.012 28.0742C257.116 28.179 257.169 28.3089 257.169 28.4639C257.169 28.6188 257.116 28.7487 257.012 28.8535C256.911 28.9583 256.775 29.0107 256.601 29.0107C256.428 29.0107 256.292 28.9583 256.191 28.8535C256.091 28.7487 256.041 28.6188 256.041 28.4639ZM260.505 28.71V30.6035H262.036V31.2734H260.505V36.2021C260.505 36.6123 260.578 36.9176 260.724 37.1182C260.874 37.3187 261.122 37.4189 261.469 37.4189C261.605 37.4189 261.826 37.3962 262.132 37.3506L262.166 38.0205C261.952 38.098 261.66 38.1367 261.291 38.1367C260.73 38.1367 260.322 37.9749 260.067 37.6514C259.812 37.3232 259.684 36.8424 259.684 36.209V31.2734H258.324V30.6035H259.684V28.71H260.505ZM264.647 38H263.827V30.6035H264.647V38ZM263.683 28.4639C263.683 28.3089 263.734 28.179 263.834 28.0742C263.934 27.9648 264.071 27.9102 264.244 27.9102C264.417 27.9102 264.554 27.9648 264.654 28.0742C264.759 28.179 264.811 28.3089 264.811 28.4639C264.811 28.6188 264.759 28.7487 264.654 28.8535C264.554 28.9583 264.417 29.0107 264.244 29.0107C264.071 29.0107 263.934 28.9583 263.834 28.8535C263.734 28.7487 263.683 28.6188 263.683 28.4639ZM266.425 34.1924C266.425 33.4814 266.561 32.8411 266.835 32.2715C267.113 31.7018 267.503 31.2598 268.004 30.9453C268.51 30.6263 269.082 30.4668 269.72 30.4668C270.704 30.4668 271.502 30.8132 272.112 31.5059C272.723 32.194 273.028 33.1077 273.028 34.2471V34.418C273.028 35.1335 272.889 35.7783 272.611 36.3525C272.338 36.9222 271.95 37.362 271.449 37.6719C270.948 37.9818 270.376 38.1367 269.733 38.1367C268.753 38.1367 267.956 37.7926 267.341 37.1045C266.73 36.4118 266.425 35.4958 266.425 34.3564V34.1924ZM267.245 34.418C267.245 35.3021 267.473 36.029 267.929 36.5986C268.389 37.1637 268.99 37.4463 269.733 37.4463C270.472 37.4463 271.069 37.1637 271.524 36.5986C271.985 36.029 272.215 35.2793 272.215 34.3496V34.1924C272.215 33.6273 272.11 33.11 271.9 32.6406C271.691 32.1712 271.397 31.8089 271.018 31.5537C270.64 31.2939 270.207 31.1641 269.72 31.1641C268.99 31.1641 268.396 31.4512 267.935 32.0254C267.475 32.5951 267.245 33.3424 267.245 34.2676V34.418ZM275.503 30.6035L275.53 31.8682C275.808 31.4124 276.155 31.0661 276.569 30.8291C276.984 30.5876 277.442 30.4668 277.943 30.4668C278.736 30.4668 279.326 30.6901 279.714 31.1367C280.101 31.5833 280.297 32.2533 280.302 33.1465V38H279.488V33.1396C279.484 32.4788 279.342 31.9867 279.064 31.6631C278.791 31.3395 278.351 31.1777 277.745 31.1777C277.239 31.1777 276.79 31.3372 276.398 31.6562C276.011 31.9707 275.724 32.3968 275.537 32.9346V38H274.724V30.6035H275.503ZM287.09 38C287.008 37.7676 286.955 37.4235 286.933 36.9678C286.645 37.3415 286.279 37.6309 285.832 37.8359C285.39 38.0365 284.92 38.1367 284.424 38.1367C283.713 38.1367 283.136 37.9385 282.694 37.542C282.257 37.1455 282.038 36.6442 282.038 36.0381C282.038 35.318 282.336 34.7484 282.933 34.3291C283.535 33.9098 284.371 33.7002 285.442 33.7002H286.926V32.8594C286.926 32.3307 286.762 31.916 286.433 31.6152C286.11 31.3099 285.636 31.1572 285.012 31.1572C284.442 31.1572 283.97 31.3031 283.597 31.5947C283.223 31.8864 283.036 32.2373 283.036 32.6475L282.216 32.6406C282.216 32.0527 282.489 31.5446 283.036 31.1162C283.583 30.6833 284.255 30.4668 285.053 30.4668C285.878 30.4668 286.527 30.6742 287.001 31.0889C287.479 31.499 287.725 32.0732 287.739 32.8115V36.3115C287.739 37.027 287.814 37.5625 287.965 37.918V38H287.09ZM284.519 37.4121C285.066 37.4121 285.554 37.2799 285.982 37.0156C286.415 36.7513 286.73 36.3981 286.926 35.9561V34.3291H285.463C284.647 34.3382 284.009 34.4886 283.549 34.7803C283.088 35.0674 282.858 35.4639 282.858 35.9697C282.858 36.3844 283.011 36.7285 283.316 37.002C283.626 37.2754 284.027 37.4121 284.519 37.4121ZM290.843 38H290.022V27.5H290.843V38ZM296.667 38V28.0469H299.449C300.265 28.0469 300.996 28.2337 301.643 28.6074C302.291 28.9766 302.794 29.5075 303.154 30.2002C303.519 30.8929 303.701 31.6813 303.701 32.5654V33.4814C303.701 34.3701 303.521 35.1585 303.161 35.8467C302.801 36.5348 302.293 37.0658 301.637 37.4395C300.985 37.8132 300.235 38 299.388 38H296.667ZM297.508 28.7646V37.2891H299.394C300.443 37.2891 301.283 36.9427 301.917 36.25C302.55 35.5527 302.867 34.6117 302.867 33.4268V32.5518C302.867 31.4079 302.555 30.4919 301.931 29.8037C301.306 29.1156 300.484 28.7692 299.463 28.7646H297.508ZM310.318 38C310.236 37.7676 310.184 37.4235 310.161 36.9678C309.874 37.3415 309.507 37.6309 309.06 37.8359C308.618 38.0365 308.149 38.1367 307.652 38.1367C306.941 38.1367 306.365 37.9385 305.923 37.542C305.485 37.1455 305.267 36.6442 305.267 36.0381C305.267 35.318 305.565 34.7484 306.162 34.3291C306.764 33.9098 307.6 33.7002 308.671 33.7002H310.154V32.8594C310.154 32.3307 309.99 31.916 309.662 31.6152C309.338 31.3099 308.864 31.1572 308.24 31.1572C307.67 31.1572 307.199 31.3031 306.825 31.5947C306.451 31.8864 306.265 32.2373 306.265 32.6475L305.444 32.6406C305.444 32.0527 305.718 31.5446 306.265 31.1162C306.811 30.6833 307.484 30.4668 308.281 30.4668C309.106 30.4668 309.755 30.6742 310.229 31.0889C310.708 31.499 310.954 32.0732 310.968 32.8115V36.3115C310.968 37.027 311.043 37.5625 311.193 37.918V38H310.318ZM307.748 37.4121C308.295 37.4121 308.782 37.2799 309.211 37.0156C309.644 36.7513 309.958 36.3981 310.154 35.9561V34.3291H308.691C307.876 34.3382 307.238 34.4886 306.777 34.7803C306.317 35.0674 306.087 35.4639 306.087 35.9697C306.087 36.3844 306.239 36.7285 306.545 37.002C306.855 37.2754 307.256 37.4121 307.748 37.4121ZM314.427 28.71V30.6035H315.958V31.2734H314.427V36.2021C314.427 36.6123 314.5 36.9176 314.645 37.1182C314.796 37.3187 315.044 37.4189 315.391 37.4189C315.527 37.4189 315.748 37.3962 316.054 37.3506L316.088 38.0205C315.874 38.098 315.582 38.1367 315.213 38.1367C314.652 38.1367 314.244 37.9749 313.989 37.6514C313.734 37.3232 313.606 36.8424 313.606 36.209V31.2734H312.246V30.6035H313.606V28.71H314.427ZM322.322 38C322.24 37.7676 322.188 37.4235 322.165 36.9678C321.878 37.3415 321.511 37.6309 321.064 37.8359C320.622 38.0365 320.153 38.1367 319.656 38.1367C318.945 38.1367 318.369 37.9385 317.927 37.542C317.489 37.1455 317.27 36.6442 317.27 36.0381C317.27 35.318 317.569 34.7484 318.166 34.3291C318.767 33.9098 319.604 33.7002 320.675 33.7002H322.158V32.8594C322.158 32.3307 321.994 31.916 321.666 31.6152C321.342 31.3099 320.868 31.1572 320.244 31.1572C319.674 31.1572 319.203 31.3031 318.829 31.5947C318.455 31.8864 318.268 32.2373 318.268 32.6475L317.448 32.6406C317.448 32.0527 317.722 31.5446 318.268 31.1162C318.815 30.6833 319.488 30.4668 320.285 30.4668C321.11 30.4668 321.759 30.6742 322.233 31.0889C322.712 31.499 322.958 32.0732 322.972 32.8115V36.3115C322.972 37.027 323.047 37.5625 323.197 37.918V38H322.322ZM319.752 37.4121C320.299 37.4121 320.786 37.2799 321.215 37.0156C321.648 36.7513 321.962 36.3981 322.158 35.9561V34.3291H320.695C319.879 34.3382 319.241 34.4886 318.781 34.7803C318.321 35.0674 318.091 35.4639 318.091 35.9697C318.091 36.3844 318.243 36.7285 318.549 37.002C318.859 37.2754 319.26 37.4121 319.752 37.4121ZM244.577 49.9463V54H243.736V44.0469H247.127C248.161 44.0469 248.977 44.3112 249.574 44.8398C250.176 45.3685 250.476 46.0954 250.476 47.0205C250.476 47.9548 250.187 48.6771 249.608 49.1875C249.034 49.6934 248.2 49.9463 247.106 49.9463H244.577ZM244.577 49.2354H247.127C247.943 49.2354 248.565 49.0417 248.993 48.6543C249.421 48.2669 249.636 47.7269 249.636 47.0342C249.636 46.346 249.421 45.7992 248.993 45.3936C248.569 44.9834 247.965 44.7738 247.182 44.7646H244.577V49.2354ZM251.625 50.1924C251.625 49.4814 251.762 48.8411 252.035 48.2715C252.313 47.7018 252.703 47.2598 253.204 46.9453C253.71 46.6263 254.282 46.4668 254.92 46.4668C255.904 46.4668 256.702 46.8132 257.312 47.5059C257.923 48.194 258.228 49.1077 258.228 50.2471V50.418C258.228 51.1335 258.089 51.7783 257.811 52.3525C257.538 52.9222 257.151 53.362 256.649 53.6719C256.148 53.9818 255.576 54.1367 254.933 54.1367C253.954 54.1367 253.156 53.7926 252.541 53.1045C251.93 52.4118 251.625 51.4958 251.625 50.3564V50.1924ZM252.445 50.418C252.445 51.3021 252.673 52.029 253.129 52.5986C253.589 53.1637 254.191 53.4463 254.933 53.4463C255.672 53.4463 256.269 53.1637 256.725 52.5986C257.185 52.029 257.415 51.2793 257.415 50.3496V50.1924C257.415 49.6273 257.31 49.11 257.1 48.6406C256.891 48.1712 256.597 47.8089 256.219 47.5537C255.84 47.2939 255.407 47.1641 254.92 47.1641C254.191 47.1641 253.596 47.4512 253.136 48.0254C252.675 48.5951 252.445 49.3424 252.445 50.2676V50.418ZM260.84 54H260.019V46.6035H260.84V54ZM259.876 44.4639C259.876 44.3089 259.926 44.179 260.026 44.0742C260.127 43.9648 260.263 43.9102 260.436 43.9102C260.61 43.9102 260.746 43.9648 260.847 44.0742C260.951 44.179 261.004 44.3089 261.004 44.4639C261.004 44.6188 260.951 44.7487 260.847 44.8535C260.746 44.9583 260.61 45.0107 260.436 45.0107C260.263 45.0107 260.127 44.9583 260.026 44.8535C259.926 44.7487 259.876 44.6188 259.876 44.4639ZM263.848 46.6035L263.875 47.8682C264.153 47.4124 264.499 47.0661 264.914 46.8291C265.329 46.5876 265.787 46.4668 266.288 46.4668C267.081 46.4668 267.671 46.6901 268.058 47.1367C268.446 47.5833 268.642 48.2533 268.646 49.1465V54H267.833V49.1396C267.828 48.4788 267.687 47.9867 267.409 47.6631C267.136 47.3395 266.696 47.1777 266.09 47.1777C265.584 47.1777 265.135 47.3372 264.743 47.6562C264.356 47.9707 264.069 48.3968 263.882 48.9346V54H263.068V46.6035H263.848ZM272.037 44.71V46.6035H273.568V47.2734H272.037V52.2021C272.037 52.6123 272.11 52.9176 272.256 53.1182C272.406 53.3187 272.655 53.4189 273.001 53.4189C273.138 53.4189 273.359 53.3962 273.664 53.3506L273.698 54.0205C273.484 54.098 273.192 54.1367 272.823 54.1367C272.263 54.1367 271.855 53.9749 271.6 53.6514C271.344 53.3232 271.217 52.8424 271.217 52.209V47.2734H269.856V46.6035H271.217V44.71H272.037ZM285.907 50.8965C285.793 51.9447 285.417 52.7467 284.779 53.3027C284.146 53.8587 283.3 54.1367 282.243 54.1367C281.505 54.1367 280.851 53.9521 280.281 53.583C279.716 53.2139 279.279 52.6921 278.969 52.0176C278.659 51.3385 278.502 50.5638 278.497 49.6934V48.4014C278.497 47.5173 278.652 46.7334 278.962 46.0498C279.272 45.3662 279.716 44.8398 280.295 44.4707C280.878 44.097 281.548 43.9102 282.305 43.9102C283.371 43.9102 284.212 44.1995 284.827 44.7783C285.447 45.3525 285.807 46.1478 285.907 47.1641H285.059C284.85 45.4733 283.932 44.6279 282.305 44.6279C281.402 44.6279 280.682 44.9652 280.144 45.6396C279.611 46.3141 279.345 47.2461 279.345 48.4355V49.6523C279.345 50.8008 279.604 51.7168 280.124 52.4004C280.648 53.084 281.354 53.4258 282.243 53.4258C283.123 53.4258 283.786 53.2161 284.232 52.7969C284.679 52.373 284.955 51.7396 285.059 50.8965H285.907ZM288.676 54H287.855V43.5H288.676V54ZM290.453 50.1924C290.453 49.4814 290.59 48.8411 290.863 48.2715C291.141 47.7018 291.531 47.2598 292.032 46.9453C292.538 46.6263 293.11 46.4668 293.748 46.4668C294.732 46.4668 295.53 46.8132 296.141 47.5059C296.751 48.194 297.057 49.1077 297.057 50.2471V50.418C297.057 51.1335 296.918 51.7783 296.64 52.3525C296.366 52.9222 295.979 53.362 295.477 53.6719C294.976 53.9818 294.404 54.1367 293.762 54.1367C292.782 54.1367 291.984 53.7926 291.369 53.1045C290.758 52.4118 290.453 51.4958 290.453 50.3564V50.1924ZM291.273 50.418C291.273 51.3021 291.501 52.029 291.957 52.5986C292.417 53.1637 293.019 53.4463 293.762 53.4463C294.5 53.4463 295.097 53.1637 295.553 52.5986C296.013 52.029 296.243 51.2793 296.243 50.3496V50.1924C296.243 49.6273 296.138 49.11 295.929 48.6406C295.719 48.1712 295.425 47.8089 295.047 47.5537C294.669 47.2939 294.236 47.1641 293.748 47.1641C293.019 47.1641 292.424 47.4512 291.964 48.0254C291.503 48.5951 291.273 49.3424 291.273 50.2676V50.418ZM303.51 53.0635C303.017 53.779 302.231 54.1367 301.151 54.1367C300.363 54.1367 299.764 53.9089 299.353 53.4531C298.943 52.9928 298.734 52.3138 298.725 51.416V46.6035H299.538V51.3135C299.538 52.7217 300.108 53.4258 301.247 53.4258C302.432 53.4258 303.182 52.9359 303.496 51.9561V46.6035H304.316V54H303.523L303.51 53.0635ZM306.121 50.2334C306.121 49.085 306.376 48.1712 306.887 47.4922C307.402 46.8086 308.099 46.4668 308.978 46.4668C309.976 46.4668 310.738 46.861 311.262 47.6494V43.5H312.075V54H311.309L311.275 53.0156C310.751 53.763 309.981 54.1367 308.965 54.1367C308.113 54.1367 307.424 53.7949 306.9 53.1113C306.381 52.4232 306.121 51.4958 306.121 50.3291V50.2334ZM306.948 50.377C306.948 51.3203 307.137 52.0654 307.516 52.6123C307.894 53.1546 308.427 53.4258 309.115 53.4258C310.122 53.4258 310.838 52.9814 311.262 52.0928V48.6201C310.838 47.6585 310.127 47.1777 309.129 47.1777C308.441 47.1777 307.905 47.4489 307.522 47.9912C307.14 48.529 306.948 49.3242 306.948 50.377ZM237.898 65.5635C237.898 66.4795 237.739 67.2839 237.42 67.9766C237.105 68.6693 236.654 69.2025 236.066 69.5762C235.478 69.9499 234.799 70.1367 234.029 70.1367C232.867 70.1367 231.928 69.722 231.213 68.8926C230.497 68.0586 230.14 66.9352 230.14 65.5225V64.4971C230.14 63.5902 230.299 62.7881 230.618 62.0908C230.942 61.389 231.397 60.8512 231.985 60.4775C232.573 60.0993 233.25 59.9102 234.016 59.9102C234.781 59.9102 235.456 60.0947 236.039 60.4639C236.627 60.833 237.08 61.3548 237.399 62.0293C237.718 62.7038 237.885 63.4854 237.898 64.374V65.5635ZM237.058 64.4834C237.058 63.2848 236.786 62.346 236.244 61.667C235.702 60.988 234.959 60.6484 234.016 60.6484C233.09 60.6484 232.352 60.9902 231.801 61.6738C231.254 62.3529 230.98 63.3031 230.98 64.5244V65.5635C230.98 66.7438 231.254 67.6803 231.801 68.373C232.348 69.0612 233.09 69.4053 234.029 69.4053C234.982 69.4053 235.725 69.0658 236.258 68.3867C236.791 67.7031 237.058 66.7529 237.058 65.5361V64.4834ZM242.56 69.4463C243.13 69.4463 243.606 69.2868 243.989 68.9678C244.377 68.6442 244.586 68.2272 244.618 67.7168H245.404C245.381 68.168 245.24 68.5804 244.98 68.9541C244.721 69.3232 244.374 69.6126 243.941 69.8223C243.513 70.0319 243.053 70.1367 242.56 70.1367C241.59 70.1367 240.82 69.7995 240.25 69.125C239.685 68.4505 239.402 67.5436 239.402 66.4043V66.1582C239.402 65.429 239.53 64.7842 239.785 64.2236C240.04 63.6631 240.405 63.2301 240.879 62.9248C241.357 62.6195 241.916 62.4668 242.554 62.4668C243.365 62.4668 244.032 62.7083 244.557 63.1914C245.085 63.6745 245.368 64.3102 245.404 65.0986H244.618C244.582 64.5199 244.372 64.0527 243.989 63.6973C243.611 63.3418 243.132 63.1641 242.554 63.1641C241.815 63.1641 241.241 63.4307 240.831 63.9639C240.425 64.4971 240.223 65.2445 240.223 66.2061V66.4453C240.223 67.3887 240.425 68.1247 240.831 68.6533C241.241 69.182 241.818 69.4463 242.56 69.4463ZM249.779 69.4463C250.349 69.4463 250.825 69.2868 251.208 68.9678C251.595 68.6442 251.805 68.2272 251.837 67.7168H252.623C252.6 68.168 252.459 68.5804 252.199 68.9541C251.939 69.3232 251.593 69.6126 251.16 69.8223C250.732 70.0319 250.271 70.1367 249.779 70.1367C248.808 70.1367 248.038 69.7995 247.469 69.125C246.904 68.4505 246.621 67.5436 246.621 66.4043V66.1582C246.621 65.429 246.749 64.7842 247.004 64.2236C247.259 63.6631 247.624 63.2301 248.098 62.9248C248.576 62.6195 249.134 62.4668 249.772 62.4668C250.584 62.4668 251.251 62.7083 251.775 63.1914C252.304 63.6745 252.586 64.3102 252.623 65.0986H251.837C251.8 64.5199 251.591 64.0527 251.208 63.6973C250.83 63.3418 250.351 63.1641 249.772 63.1641C249.034 63.1641 248.46 63.4307 248.05 63.9639C247.644 64.4971 247.441 65.2445 247.441 66.2061V66.4453C247.441 67.3887 247.644 68.1247 248.05 68.6533C248.46 69.182 249.036 69.4463 249.779 69.4463ZM259.021 69.0635C258.529 69.779 257.743 70.1367 256.663 70.1367C255.875 70.1367 255.275 69.9089 254.865 69.4531C254.455 68.9928 254.245 68.3138 254.236 67.416V62.6035H255.05V67.3135C255.05 68.7217 255.619 69.4258 256.759 69.4258C257.944 69.4258 258.693 68.9359 259.008 67.9561V62.6035H259.828V70H259.035L259.021 69.0635ZM267.908 66.377C267.908 67.5299 267.653 68.446 267.142 69.125C266.632 69.7995 265.948 70.1367 265.092 70.1367C264.08 70.1367 263.305 69.7812 262.767 69.0703V72.8438H261.954V62.6035H262.713L262.754 63.6494C263.287 62.861 264.059 62.4668 265.071 62.4668C265.955 62.4668 266.648 62.8018 267.149 63.4717C267.655 64.1416 267.908 65.0713 267.908 66.2607V66.377ZM267.088 66.2334C267.088 65.29 266.894 64.5449 266.507 63.998C266.119 63.4512 265.579 63.1777 264.887 63.1777C264.385 63.1777 263.955 63.2985 263.595 63.54C263.235 63.7816 262.959 64.1325 262.767 64.5928V68.1406C262.963 68.5645 263.244 68.888 263.608 69.1113C263.973 69.3346 264.404 69.4463 264.9 69.4463C265.588 69.4463 266.124 69.1729 266.507 68.626C266.894 68.0745 267.088 67.277 267.088 66.2334ZM274.395 70C274.313 69.7676 274.261 69.4235 274.238 68.9678C273.951 69.3415 273.584 69.6309 273.138 69.8359C272.696 70.0365 272.226 70.1367 271.729 70.1367C271.018 70.1367 270.442 69.9385 270 69.542C269.562 69.1455 269.344 68.6442 269.344 68.0381C269.344 67.318 269.642 66.7484 270.239 66.3291C270.841 65.9098 271.677 65.7002 272.748 65.7002H274.231V64.8594C274.231 64.3307 274.067 63.916 273.739 63.6152C273.416 63.3099 272.942 63.1572 272.317 63.1572C271.748 63.1572 271.276 63.3031 270.902 63.5947C270.529 63.8864 270.342 64.2373 270.342 64.6475L269.521 64.6406C269.521 64.0527 269.795 63.5446 270.342 63.1162C270.889 62.6833 271.561 62.4668 272.358 62.4668C273.183 62.4668 273.833 62.6742 274.307 63.0889C274.785 63.499 275.031 64.0732 275.045 64.8115V68.3115C275.045 69.027 275.12 69.5625 275.27 69.918V70H274.395ZM271.825 69.4121C272.372 69.4121 272.86 69.2799 273.288 69.0156C273.721 68.7513 274.035 68.3981 274.231 67.9561V66.3291H272.768C271.953 66.3382 271.315 66.4886 270.854 66.7803C270.394 67.0674 270.164 67.4639 270.164 67.9697C270.164 68.3844 270.317 68.7285 270.622 69.002C270.932 69.2754 271.333 69.4121 271.825 69.4121ZM278.012 62.6035L278.039 63.8682C278.317 63.4124 278.663 63.0661 279.078 62.8291C279.493 62.5876 279.951 62.4668 280.452 62.4668C281.245 62.4668 281.835 62.6901 282.223 63.1367C282.61 63.5833 282.806 64.2533 282.81 65.1465V70H281.997V65.1396C281.992 64.4788 281.851 63.9867 281.573 63.6631C281.3 63.3395 280.86 63.1777 280.254 63.1777C279.748 63.1777 279.299 63.3372 278.907 63.6562C278.52 63.9707 278.233 64.3968 278.046 64.9346V70H277.232V62.6035H278.012ZM287.664 69.4463C288.234 69.4463 288.71 69.2868 289.093 68.9678C289.48 68.6442 289.69 68.2272 289.722 67.7168H290.508C290.485 68.168 290.344 68.5804 290.084 68.9541C289.824 69.3232 289.478 69.6126 289.045 69.8223C288.616 70.0319 288.156 70.1367 287.664 70.1367C286.693 70.1367 285.923 69.7995 285.353 69.125C284.788 68.4505 284.506 67.5436 284.506 66.4043V66.1582C284.506 65.429 284.633 64.7842 284.889 64.2236C285.144 63.6631 285.508 63.2301 285.982 62.9248C286.461 62.6195 287.019 62.4668 287.657 62.4668C288.468 62.4668 289.136 62.7083 289.66 63.1914C290.189 63.6745 290.471 64.3102 290.508 65.0986H289.722C289.685 64.5199 289.475 64.0527 289.093 63.6973C288.714 63.3418 288.236 63.1641 287.657 63.1641C286.919 63.1641 286.345 63.4307 285.934 63.9639C285.529 64.4971 285.326 65.2445 285.326 66.2061V66.4453C285.326 67.3887 285.529 68.1247 285.934 68.6533C286.345 69.182 286.921 69.4463 287.664 69.4463ZM294.493 68.8242L296.653 62.6035H297.535L294.377 71.2578L294.213 71.6406C293.807 72.5384 293.181 72.9873 292.333 72.9873C292.137 72.9873 291.927 72.9554 291.704 72.8916L291.697 72.2148L292.121 72.2559C292.522 72.2559 292.846 72.1556 293.092 71.9551C293.342 71.7591 293.554 71.4196 293.727 70.9365L294.09 69.9385L291.301 62.6035H292.196L294.493 68.8242ZM309.587 68.8174C309.295 69.2321 308.837 69.5557 308.213 69.7881C307.593 70.0205 306.898 70.1367 306.128 70.1367C305.349 70.1367 304.656 69.9499 304.05 69.5762C303.444 69.2025 302.974 68.6738 302.642 67.9902C302.309 67.3066 302.14 66.5228 302.136 65.6387V64.3809C302.136 63 302.484 61.9108 303.182 61.1133C303.879 60.3112 304.815 59.9102 305.991 59.9102C307.017 59.9102 307.841 60.1722 308.466 60.6963C309.09 61.2158 309.461 61.9336 309.58 62.8496H308.739C308.616 62.1204 308.318 61.569 307.844 61.1953C307.374 60.8171 306.759 60.6279 305.998 60.6279C305.068 60.6279 304.332 60.9583 303.79 61.6191C303.248 62.2799 302.976 63.2119 302.976 64.415V65.5908C302.976 66.3473 303.104 67.0173 303.359 67.6006C303.619 68.1794 303.988 68.6283 304.467 68.9473C304.95 69.2663 305.503 69.4258 306.128 69.4258C306.852 69.4258 307.475 69.3118 307.994 69.084C308.331 68.9336 308.582 68.7581 308.746 68.5576V65.9873H306.073V65.2764H309.587V68.8174ZM315.199 63.3008C315.026 63.2689 314.841 63.2529 314.645 63.2529C314.135 63.2529 313.702 63.3965 313.347 63.6836C312.996 63.9661 312.745 64.3786 312.595 64.9209V70H311.781V62.6035H312.581L312.595 63.7793C313.028 62.9043 313.723 62.4668 314.68 62.4668C314.907 62.4668 315.087 62.4964 315.22 62.5557L315.199 63.3008ZM317.414 70H316.594V62.6035H317.414V70ZM316.45 60.4639C316.45 60.3089 316.5 60.179 316.6 60.0742C316.701 59.9648 316.837 59.9102 317.011 59.9102C317.184 59.9102 317.321 59.9648 317.421 60.0742C317.526 60.179 317.578 60.3089 317.578 60.4639C317.578 60.6188 317.526 60.7487 317.421 60.8535C317.321 60.9583 317.184 61.0107 317.011 61.0107C316.837 61.0107 316.701 60.9583 316.6 60.8535C316.5 60.7487 316.45 60.6188 316.45 60.4639ZM319.314 66.2334C319.314 65.085 319.57 64.1712 320.08 63.4922C320.595 62.8086 321.292 62.4668 322.172 62.4668C323.17 62.4668 323.931 62.861 324.455 63.6494V59.5H325.268V70H324.503L324.469 69.0156C323.945 69.763 323.174 70.1367 322.158 70.1367C321.306 70.1367 320.618 69.7949 320.094 69.1113C319.574 68.4232 319.314 67.4958 319.314 66.3291V66.2334ZM320.142 66.377C320.142 67.3203 320.331 68.0654 320.709 68.6123C321.087 69.1546 321.62 69.4258 322.308 69.4258C323.316 69.4258 324.031 68.9814 324.455 68.0928V64.6201C324.031 63.6585 323.32 63.1777 322.322 63.1777C321.634 63.1777 321.099 63.4489 320.716 63.9912C320.333 64.529 320.142 65.3242 320.142 66.377Z" fill="black"/>
<rect x="11.5" y="16.5" width="186" height="99" rx="9.5" fill="#F0F0F0" stroke="black"/>
<path d="M84.8711 69.8047C84.8711 68.8594 84.5391 68.1133 83.875 67.5664C83.2109 67.0117 81.9961 66.4883 80.2305 65.9961C78.4648 65.4961 77.1758 64.9531 76.3633 64.3672C75.207 63.5391 74.6289 62.4531 74.6289 61.1094C74.6289 59.8047 75.1641 58.7461 76.2344 57.9336C77.3125 57.1133 78.6875 56.7031 80.3594 56.7031C81.4922 56.7031 82.5039 56.9219 83.3945 57.3594C84.293 57.7969 84.9883 58.4062 85.4805 59.1875C85.9727 59.9688 86.2188 60.8398 86.2188 61.8008H84.7656C84.7656 60.6367 84.3672 59.7031 83.5703 59C82.7734 58.2891 81.7031 57.9336 80.3594 57.9336C79.0547 57.9336 78.0156 58.2266 77.2422 58.8125C76.4688 59.3906 76.082 60.1484 76.082 61.0859C76.082 61.9531 76.4297 62.6602 77.125 63.207C77.8203 63.7539 78.9336 64.2383 80.4648 64.6602C81.9961 65.0742 83.1562 65.5078 83.9453 65.9609C84.7344 66.4062 85.3281 66.9414 85.7266 67.5664C86.125 68.1914 86.3242 68.9297 86.3242 69.7812C86.3242 71.125 85.7852 72.2031 84.707 73.0156C83.6367 73.8281 82.2227 74.2344 80.4648 74.2344C79.2617 74.2344 78.1562 74.0195 77.1484 73.5898C76.1484 73.1602 75.3867 72.5586 74.8633 71.7852C74.3477 71.0117 74.0898 70.125 74.0898 69.125H75.5312C75.5312 70.3281 75.9805 71.2773 76.8789 71.9727C77.7773 72.668 78.9727 73.0156 80.4648 73.0156C81.793 73.0156 82.8594 72.7227 83.6641 72.1367C84.4688 71.5508 84.8711 70.7734 84.8711 69.8047ZM90.8945 72.7812H99.3203V74H89.4414V56.9375H90.8945V72.7812ZM111.543 69.2188H103.797L102.039 74H100.527L106.984 56.9375H108.355L114.812 74H113.312L111.543 69.2188ZM104.242 67.9883H111.086L107.664 58.6953L104.242 67.9883ZM119.242 56.9375L125.535 71.9961L131.852 56.9375H133.773V74H132.332V66.5703L132.449 58.9531L126.098 74H124.984L118.656 59.0117L118.773 66.5234V74H117.332V56.9375H119.242Z" fill="black"/>
<rect x="358.5" y="16.5" width="186" height="99" rx="9.5" fill="#F0F0F0" stroke="black"/>
<path d="M410.062 42H408.621L398.812 27.3984V42H397.359V24.9375H398.812L408.633 39.5508V24.9375H410.062V42ZM422.074 42C421.934 41.6016 421.844 41.0117 421.805 40.2305C421.312 40.8711 420.684 41.3672 419.918 41.7188C419.16 42.0625 418.355 42.2344 417.504 42.2344C416.285 42.2344 415.297 41.8945 414.539 41.2148C413.789 40.5352 413.414 39.6758 413.414 38.6367C413.414 37.4023 413.926 36.4258 414.949 35.707C415.98 34.9883 417.414 34.6289 419.25 34.6289H421.793V33.1875C421.793 32.2812 421.512 31.5703 420.949 31.0547C420.395 30.5312 419.582 30.2695 418.512 30.2695C417.535 30.2695 416.727 30.5195 416.086 31.0195C415.445 31.5195 415.125 32.1211 415.125 32.8242L413.719 32.8125C413.719 31.8047 414.188 30.9336 415.125 30.1992C416.062 29.457 417.215 29.0859 418.582 29.0859C419.996 29.0859 421.109 29.4414 421.922 30.1523C422.742 30.8555 423.164 31.8398 423.188 33.1055V39.1055C423.188 40.332 423.316 41.25 423.574 41.8594V42H422.074ZM417.668 40.9922C418.605 40.9922 419.441 40.7656 420.176 40.3125C420.918 39.8594 421.457 39.2539 421.793 38.4961V35.707H419.285C417.887 35.7227 416.793 35.9805 416.004 36.4805C415.215 36.9727 414.82 37.6523 414.82 38.5195C414.82 39.2305 415.082 39.8203 415.605 40.2891C416.137 40.7578 416.824 40.9922 417.668 40.9922ZM430.699 40.0664L434.555 29.3203H435.996L431.262 42H430.125L425.367 29.3203H426.809L430.699 40.0664ZM439.875 42H438.469V29.3203H439.875V42ZM438.223 25.6523C438.223 25.3867 438.309 25.1641 438.48 24.9844C438.652 24.7969 438.887 24.7031 439.184 24.7031C439.48 24.7031 439.715 24.7969 439.887 24.9844C440.066 25.1641 440.156 25.3867 440.156 25.6523C440.156 25.918 440.066 26.1406 439.887 26.3203C439.715 26.5 439.48 26.5898 439.184 26.5898C438.887 26.5898 438.652 26.5 438.48 26.3203C438.309 26.1406 438.223 25.918 438.223 25.6523ZM443.133 35.543C443.133 33.5586 443.57 31.9883 444.445 30.832C445.328 29.668 446.523 29.0859 448.031 29.0859C449.758 29.0859 451.07 29.7734 451.969 31.1484L452.039 29.3203H453.352V41.7422C453.352 43.375 452.895 44.668 451.98 45.6211C451.066 46.5742 449.828 47.0508 448.266 47.0508C447.383 47.0508 446.539 46.8516 445.734 46.4531C444.938 46.0625 444.309 45.5391 443.848 44.8828L444.633 44.0391C445.625 45.2578 446.805 45.8672 448.172 45.8672C449.344 45.8672 450.258 45.5195 450.914 44.8242C451.57 44.1367 451.91 43.1797 451.934 41.9531V40.3594C451.035 41.6094 449.727 42.2344 448.008 42.2344C446.539 42.2344 445.359 41.6484 444.469 40.4766C443.578 39.3047 443.133 37.7227 443.133 35.7305V35.543ZM444.551 35.7891C444.551 37.4062 444.875 38.6836 445.523 39.6211C446.172 40.5508 447.086 41.0156 448.266 41.0156C449.992 41.0156 451.215 40.2422 451.934 38.6953V32.8008C451.605 31.9883 451.133 31.3711 450.516 30.9492C449.898 30.5195 449.156 30.3047 448.289 30.3047C447.109 30.3047 446.191 30.7695 445.535 31.6992C444.879 32.6211 444.551 33.9844 444.551 35.7891ZM465.012 42C464.871 41.6016 464.781 41.0117 464.742 40.2305C464.25 40.8711 463.621 41.3672 462.855 41.7188C462.098 42.0625 461.293 42.2344 460.441 42.2344C459.223 42.2344 458.234 41.8945 457.477 41.2148C456.727 40.5352 456.352 39.6758 456.352 38.6367C456.352 37.4023 456.863 36.4258 457.887 35.707C458.918 34.9883 460.352 34.6289 462.188 34.6289H464.73V33.1875C464.73 32.2812 464.449 31.5703 463.887 31.0547C463.332 30.5312 462.52 30.2695 461.449 30.2695C460.473 30.2695 459.664 30.5195 459.023 31.0195C458.383 31.5195 458.062 32.1211 458.062 32.8242L456.656 32.8125C456.656 31.8047 457.125 30.9336 458.062 30.1992C459 29.457 460.152 29.0859 461.52 29.0859C462.934 29.0859 464.047 29.4414 464.859 30.1523C465.68 30.8555 466.102 31.8398 466.125 33.1055V39.1055C466.125 40.332 466.254 41.25 466.512 41.8594V42H465.012ZM460.605 40.9922C461.543 40.9922 462.379 40.7656 463.113 40.3125C463.855 39.8594 464.395 39.2539 464.73 38.4961V35.707H462.223C460.824 35.7227 459.73 35.9805 458.941 36.4805C458.152 36.9727 457.758 37.6523 457.758 38.5195C457.758 39.2305 458.02 39.8203 458.543 40.2891C459.074 40.7578 459.762 40.9922 460.605 40.9922ZM472.055 26.0742V29.3203H474.68V30.4688H472.055V38.918C472.055 39.6211 472.18 40.1445 472.43 40.4883C472.688 40.832 473.113 41.0039 473.707 41.0039C473.941 41.0039 474.32 40.9648 474.844 40.8867L474.902 42.0352C474.535 42.168 474.035 42.2344 473.402 42.2344C472.441 42.2344 471.742 41.957 471.305 41.4023C470.867 40.8398 470.648 40.0156 470.648 38.9297V30.4688H468.316V29.3203H470.648V26.0742H472.055ZM479.156 42H477.75V29.3203H479.156V42ZM477.504 25.6523C477.504 25.3867 477.59 25.1641 477.762 24.9844C477.934 24.7969 478.168 24.7031 478.465 24.7031C478.762 24.7031 478.996 24.7969 479.168 24.9844C479.348 25.1641 479.438 25.3867 479.438 25.6523C479.438 25.918 479.348 26.1406 479.168 26.3203C478.996 26.5 478.762 26.5898 478.465 26.5898C478.168 26.5898 477.934 26.5 477.762 26.3203C477.59 26.1406 477.504 25.918 477.504 25.6523ZM482.203 35.4727C482.203 34.2539 482.438 33.1562 482.906 32.1797C483.383 31.2031 484.051 30.4453 484.91 29.9062C485.777 29.3594 486.758 29.0859 487.852 29.0859C489.539 29.0859 490.906 29.6797 491.953 30.8672C493 32.0469 493.523 33.6133 493.523 35.5664V35.8594C493.523 37.0859 493.285 38.1914 492.809 39.1758C492.34 40.1523 491.676 40.9062 490.816 41.4375C489.957 41.9688 488.977 42.2344 487.875 42.2344C486.195 42.2344 484.828 41.6445 483.773 40.4648C482.727 39.2773 482.203 37.707 482.203 35.7539V35.4727ZM483.609 35.8594C483.609 37.375 484 38.6211 484.781 39.5977C485.57 40.5664 486.602 41.0508 487.875 41.0508C489.141 41.0508 490.164 40.5664 490.945 39.5977C491.734 38.6211 492.129 37.3359 492.129 35.7422V35.4727C492.129 34.5039 491.949 33.6172 491.59 32.8125C491.23 32.0078 490.727 31.3867 490.078 30.9492C489.43 30.5039 488.688 30.2812 487.852 30.2812C486.602 30.2812 485.582 30.7734 484.793 31.7578C484.004 32.7344 483.609 34.0156 483.609 35.6016V35.8594ZM497.766 29.3203L497.812 31.4883C498.289 30.707 498.883 30.1133 499.594 29.707C500.305 29.293 501.09 29.0859 501.949 29.0859C503.309 29.0859 504.32 29.4688 504.984 30.2344C505.648 31 505.984 32.1484 505.992 33.6797V42H504.598V33.668C504.59 32.5352 504.348 31.6914 503.871 31.1367C503.402 30.582 502.648 30.3047 501.609 30.3047C500.742 30.3047 499.973 30.5781 499.301 31.125C498.637 31.6641 498.145 32.3945 497.824 33.3164V42H496.43V29.3203H497.766Z" fill="black"/>
<rect x="384.5" y="48.5" width="131" height="31" rx="9.5" fill="#F0F0F0" stroke="black"/>
<path d="M431.721 64.2285H427.065V68.2891H432.418V69H426.225V59.0469H432.384V59.7646H427.065V63.5176H431.721V64.2285ZM436.328 64.6045L438.324 61.6035H439.295L436.786 65.2334L439.404 69H438.44L436.335 65.8691L434.229 69H433.266L435.877 65.2334L433.368 61.6035H434.332L436.328 64.6045ZM446.76 65.377C446.76 66.5299 446.505 67.446 445.994 68.125C445.484 68.7995 444.8 69.1367 443.943 69.1367C442.932 69.1367 442.157 68.7812 441.619 68.0703V71.8438H440.806V61.6035H441.564L441.605 62.6494C442.139 61.861 442.911 61.4668 443.923 61.4668C444.807 61.4668 445.5 61.8018 446.001 62.4717C446.507 63.1416 446.76 64.0713 446.76 65.2607V65.377ZM445.939 65.2334C445.939 64.29 445.746 63.5449 445.358 62.998C444.971 62.4512 444.431 62.1777 443.738 62.1777C443.237 62.1777 442.806 62.2985 442.446 62.54C442.086 62.7816 441.811 63.1325 441.619 63.5928V67.1406C441.815 67.5645 442.095 67.888 442.46 68.1113C442.825 68.3346 443.255 68.4463 443.752 68.4463C444.44 68.4463 444.976 68.1729 445.358 67.626C445.746 67.0745 445.939 66.277 445.939 65.2334ZM449.494 69H448.674V58.5H449.494V69ZM451.271 65.1924C451.271 64.4814 451.408 63.8411 451.682 63.2715C451.96 62.7018 452.349 62.2598 452.851 61.9453C453.356 61.6263 453.928 61.4668 454.566 61.4668C455.551 61.4668 456.348 61.8132 456.959 62.5059C457.57 63.194 457.875 64.1077 457.875 65.2471V65.418C457.875 66.1335 457.736 66.7783 457.458 67.3525C457.185 67.9222 456.797 68.362 456.296 68.6719C455.795 68.9818 455.223 69.1367 454.58 69.1367C453.6 69.1367 452.803 68.7926 452.188 68.1045C451.577 67.4118 451.271 66.4958 451.271 65.3564V65.1924ZM452.092 65.418C452.092 66.3021 452.32 67.029 452.775 67.5986C453.236 68.1637 453.837 68.4463 454.58 68.4463C455.318 68.4463 455.915 68.1637 456.371 67.5986C456.831 67.029 457.062 66.2793 457.062 65.3496V65.1924C457.062 64.6273 456.957 64.11 456.747 63.6406C456.537 63.1712 456.243 62.8089 455.865 62.5537C455.487 62.2939 455.054 62.1641 454.566 62.1641C453.837 62.1641 453.243 62.4512 452.782 63.0254C452.322 63.5951 452.092 64.3424 452.092 65.2676V65.418ZM462.988 62.3008C462.815 62.2689 462.631 62.2529 462.435 62.2529C461.924 62.2529 461.491 62.3965 461.136 62.6836C460.785 62.9661 460.534 63.3786 460.384 63.9209V69H459.57V61.6035H460.37L460.384 62.7793C460.817 61.9043 461.512 61.4668 462.469 61.4668C462.697 61.4668 462.877 61.4964 463.009 61.5557L462.988 62.3008ZM467.015 69.1367C466.386 69.1367 465.816 68.9818 465.306 68.6719C464.8 68.362 464.406 67.9313 464.123 67.3799C463.84 66.8239 463.699 66.2018 463.699 65.5137V65.2197C463.699 64.5088 463.836 63.8685 464.109 63.2988C464.387 62.7292 464.772 62.2826 465.265 61.959C465.757 61.6309 466.29 61.4668 466.864 61.4668C467.762 61.4668 468.473 61.7744 468.997 62.3896C469.526 63.0003 469.79 63.8366 469.79 64.8984V65.3564H464.513V65.5137C464.513 66.3522 464.752 67.0518 465.23 67.6123C465.714 68.1683 466.32 68.4463 467.049 68.4463C467.486 68.4463 467.871 68.3665 468.204 68.207C468.541 68.0475 468.847 67.7923 469.12 67.4414L469.633 67.8311C469.031 68.7015 468.159 69.1367 467.015 69.1367ZM466.864 62.1641C466.249 62.1641 465.729 62.3896 465.306 62.8408C464.886 63.292 464.631 63.8981 464.54 64.6592H468.977V64.5703C468.954 63.8594 468.751 63.2806 468.368 62.834C467.985 62.3874 467.484 62.1641 466.864 62.1641ZM474.801 62.3008C474.628 62.2689 474.443 62.2529 474.247 62.2529C473.737 62.2529 473.304 62.3965 472.948 62.6836C472.597 62.9661 472.347 63.3786 472.196 63.9209V69H471.383V61.6035H472.183L472.196 62.7793C472.629 61.9043 473.324 61.4668 474.281 61.4668C474.509 61.4668 474.689 61.4964 474.821 61.5557L474.801 62.3008Z" fill="black"/>
<rect x="384.5" y="82.5" width="131" height="31" rx="9.5" fill="#F0F0F0" stroke="black"/>
<path d="M409.641 98.9463V103H408.8V93.0469H412.19C413.225 93.0469 414.041 93.3112 414.638 93.8398C415.239 94.3685 415.54 95.0954 415.54 96.0205C415.54 96.9548 415.251 97.6771 414.672 98.1875C414.098 98.6934 413.264 98.9463 412.17 98.9463H409.641ZM409.641 98.2354H412.19C413.006 98.2354 413.628 98.0417 414.057 97.6543C414.485 97.2669 414.699 96.7269 414.699 96.0342C414.699 95.346 414.485 94.7992 414.057 94.3936C413.633 93.9834 413.029 93.7738 412.245 93.7646H409.641V98.2354ZM421.822 103C421.74 102.768 421.688 102.424 421.665 101.968C421.378 102.341 421.011 102.631 420.564 102.836C420.122 103.036 419.653 103.137 419.156 103.137C418.445 103.137 417.869 102.938 417.427 102.542C416.989 102.146 416.771 101.644 416.771 101.038C416.771 100.318 417.069 99.7484 417.666 99.3291C418.268 98.9098 419.104 98.7002 420.175 98.7002H421.658V97.8594C421.658 97.3307 421.494 96.916 421.166 96.6152C420.842 96.3099 420.368 96.1572 419.744 96.1572C419.174 96.1572 418.703 96.3031 418.329 96.5947C417.955 96.8864 417.769 97.2373 417.769 97.6475L416.948 97.6406C416.948 97.0527 417.222 96.5446 417.769 96.1162C418.315 95.6833 418.988 95.4668 419.785 95.4668C420.61 95.4668 421.259 95.6742 421.733 96.0889C422.212 96.499 422.458 97.0732 422.472 97.8115V101.312C422.472 102.027 422.547 102.562 422.697 102.918V103H421.822ZM419.252 102.412C419.799 102.412 420.286 102.28 420.715 102.016C421.148 101.751 421.462 101.398 421.658 100.956V99.3291H420.195C419.38 99.3382 418.742 99.4886 418.281 99.7803C417.821 100.067 417.591 100.464 417.591 100.97C417.591 101.384 417.743 101.729 418.049 102.002C418.359 102.275 418.76 102.412 419.252 102.412ZM425.931 93.71V95.6035H427.462V96.2734H425.931V101.202C425.931 101.612 426.004 101.918 426.149 102.118C426.3 102.319 426.548 102.419 426.895 102.419C427.031 102.419 427.252 102.396 427.558 102.351L427.592 103.021C427.378 103.098 427.086 103.137 426.717 103.137C426.156 103.137 425.748 102.975 425.493 102.651C425.238 102.323 425.11 101.842 425.11 101.209V96.2734H423.75V95.6035H425.11V93.71H425.931ZM429.971 96.8545C430.24 96.4124 430.584 96.0706 431.003 95.8291C431.422 95.5876 431.88 95.4668 432.377 95.4668C433.17 95.4668 433.76 95.6901 434.147 96.1367C434.535 96.5833 434.731 97.2533 434.735 98.1465V103H433.922V98.1396C433.917 97.4788 433.776 96.9867 433.498 96.6631C433.225 96.3395 432.785 96.1777 432.179 96.1777C431.673 96.1777 431.224 96.3372 430.832 96.6562C430.445 96.9707 430.158 97.3968 429.971 97.9346V103H429.157V92.5H429.971V96.8545ZM441.277 98.9463V103H440.437V93.0469H443.827C444.862 93.0469 445.677 93.3112 446.274 93.8398C446.876 94.3685 447.177 95.0954 447.177 96.0205C447.177 96.9548 446.887 97.6771 446.309 98.1875C445.734 98.6934 444.9 98.9463 443.807 98.9463H441.277ZM441.277 98.2354H443.827C444.643 98.2354 445.265 98.0417 445.693 97.6543C446.122 97.2669 446.336 96.7269 446.336 96.0342C446.336 95.346 446.122 94.7992 445.693 94.3936C445.27 93.9834 444.666 93.7738 443.882 93.7646H441.277V98.2354ZM449.788 103H448.968V92.5H449.788V103ZM456.686 103C456.604 102.768 456.551 102.424 456.528 101.968C456.241 102.341 455.874 102.631 455.428 102.836C454.986 103.036 454.516 103.137 454.02 103.137C453.309 103.137 452.732 102.938 452.29 102.542C451.853 102.146 451.634 101.644 451.634 101.038C451.634 100.318 451.932 99.7484 452.529 99.3291C453.131 98.9098 453.967 98.7002 455.038 98.7002H456.521V97.8594C456.521 97.3307 456.357 96.916 456.029 96.6152C455.706 96.3099 455.232 96.1572 454.607 96.1572C454.038 96.1572 453.566 96.3031 453.192 96.5947C452.819 96.8864 452.632 97.2373 452.632 97.6475L451.812 97.6406C451.812 97.0527 452.085 96.5446 452.632 96.1162C453.179 95.6833 453.851 95.4668 454.648 95.4668C455.473 95.4668 456.123 95.6742 456.597 96.0889C457.075 96.499 457.321 97.0732 457.335 97.8115V101.312C457.335 102.027 457.41 102.562 457.561 102.918V103H456.686ZM454.115 102.412C454.662 102.412 455.15 102.28 455.578 102.016C456.011 101.751 456.326 101.398 456.521 100.956V99.3291H455.059C454.243 99.3382 453.605 99.4886 453.145 99.7803C452.684 100.067 452.454 100.464 452.454 100.97C452.454 101.384 452.607 101.729 452.912 102.002C453.222 102.275 453.623 102.412 454.115 102.412ZM460.302 95.6035L460.329 96.8682C460.607 96.4124 460.953 96.0661 461.368 95.8291C461.783 95.5876 462.241 95.4668 462.742 95.4668C463.535 95.4668 464.125 95.6901 464.513 96.1367C464.9 96.5833 465.096 97.2533 465.101 98.1465V103H464.287V98.1396C464.283 97.4788 464.141 96.9867 463.863 96.6631C463.59 96.3395 463.15 96.1777 462.544 96.1777C462.038 96.1777 461.589 96.3372 461.197 96.6562C460.81 96.9707 460.523 97.3968 460.336 97.9346V103H459.522V95.6035H460.302ZM467.999 95.6035L468.026 96.8682C468.304 96.4124 468.651 96.0661 469.065 95.8291C469.48 95.5876 469.938 95.4668 470.439 95.4668C471.232 95.4668 471.823 95.6901 472.21 96.1367C472.597 96.5833 472.793 97.2533 472.798 98.1465V103H471.984V98.1396C471.98 97.4788 471.839 96.9867 471.561 96.6631C471.287 96.3395 470.847 96.1777 470.241 96.1777C469.735 96.1777 469.286 96.3372 468.895 96.6562C468.507 96.9707 468.22 97.3968 468.033 97.9346V103H467.22V95.6035H467.999ZM475.833 103H475.013V95.6035H475.833V103ZM474.869 93.4639C474.869 93.3089 474.919 93.179 475.02 93.0742C475.12 92.9648 475.257 92.9102 475.43 92.9102C475.603 92.9102 475.74 92.9648 475.84 93.0742C475.945 93.179 475.997 93.3089 475.997 93.4639C475.997 93.6188 475.945 93.7487 475.84 93.8535C475.74 93.9583 475.603 94.0107 475.43 94.0107C475.257 94.0107 475.12 93.9583 475.02 93.8535C474.919 93.7487 474.869 93.6188 474.869 93.4639ZM478.841 95.6035L478.868 96.8682C479.146 96.4124 479.493 96.0661 479.907 95.8291C480.322 95.5876 480.78 95.4668 481.281 95.4668C482.074 95.4668 482.664 95.6901 483.052 96.1367C483.439 96.5833 483.635 97.2533 483.64 98.1465V103H482.826V98.1396C482.822 97.4788 482.68 96.9867 482.402 96.6631C482.129 96.3395 481.689 96.1777 481.083 96.1777C480.577 96.1777 480.128 96.3372 479.736 96.6562C479.349 96.9707 479.062 97.3968 478.875 97.9346V103H478.062V95.6035H478.841ZM485.431 99.2334C485.431 98.0758 485.686 97.1598 486.196 96.4854C486.711 95.8063 487.409 95.4668 488.288 95.4668C489.295 95.4668 490.061 95.8678 490.585 96.6699L490.626 95.6035H491.392V102.85C491.392 103.802 491.125 104.556 490.592 105.112C490.059 105.668 489.336 105.946 488.425 105.946C487.91 105.946 487.418 105.83 486.948 105.598C486.483 105.37 486.117 105.064 485.848 104.682L486.306 104.189C486.884 104.9 487.573 105.256 488.37 105.256C489.054 105.256 489.587 105.053 489.97 104.647C490.353 104.246 490.551 103.688 490.564 102.973V102.043C490.04 102.772 489.277 103.137 488.274 103.137C487.418 103.137 486.729 102.795 486.21 102.111C485.69 101.428 485.431 100.505 485.431 99.3428V99.2334ZM486.258 99.377C486.258 100.32 486.447 101.065 486.825 101.612C487.203 102.155 487.737 102.426 488.425 102.426C489.432 102.426 490.145 101.975 490.564 101.072V97.6338C490.373 97.1598 490.097 96.7998 489.737 96.5537C489.377 96.3031 488.944 96.1777 488.438 96.1777C487.75 96.1777 487.215 96.4489 486.832 96.9912C486.449 97.529 486.258 98.3242 486.258 99.377Z" fill="black"/>
</svg>
