<svg width="723" height="650" viewBox="0 0 723 650" fill="none" xmlns="http://www.w3.org/2000/svg">
<g clip-path="url(#clip0_2_149)">
<rect width="723" height="650" fill="white"/>
<g clip-path="url(#clip1_2_149)">
<rect width="723" height="325" fill="white"/>
<rect width="547" height="325" fill="#7FB3E2" fill-opacity="0.17"/>
<rect x="-24" y="304" width="61" height="36" fill="white"/>
<path d="M90.835 226.341L179.924 189.495L183.103 254.291L90.835 226.341Z" fill="white"/>
<path d="M-57.7884 287.735L101.096 223.036L97.2652 361.141L-57.7884 287.735Z" fill="white"/>
<rect x="184" y="212" width="478" height="186" fill="white"/>
<path d="M195.248 216.062L552.713 65.303L565.247 332.724L195.248 216.062Z" fill="white"/>
<path d="M243.69 -1.42024L564.828 -67.2665L566.023 58.3015L243.69 -1.42024Z" fill="white"/>
<line x1="548.291" y1="66.6914" x2="178.15" y2="222.344" stroke="#77AEE0" stroke-width="1.5"/>
<line x1="547.867" y1="54.7381" x2="8.86718" y2="-42.2618" stroke="#77AEE0" stroke-width="1.5"/>
<rect x="559" y="41" width="50" height="11" fill="#1F1F1F"/>
<rect x="549" y="46" width="70" height="20" fill="#1F1F1F"/>
<line x1="612.929" y1="62.3492" x2="618.929" y2="89.3492" stroke="#1F1F1F" stroke-width="6"/>
<line y1="-2.5" x2="23.5372" y2="-2.5" transform="matrix(0.21243 0.977176 0.977176 -0.21243 609 60)" stroke="#1F1F1F" stroke-width="5"/>
<path d="M618.96 45.75L621.082 66H616.838L618.96 45.75Z" fill="white"/>
<path d="M559 41L560.732 47H557.268L559 41Z" fill="#1F1F1F"/>
<path d="M609 41L607.268 47H610.732L609 41Z" fill="#1F1F1F"/>
<path d="M618.96 45.75L621.082 66H616.838L618.96 45.75Z" fill="white"/>
<path d="M618.96 45.75L621.082 66H616.838L618.96 45.75Z" fill="white"/>
<line y1="-3" x2="27.6586" y2="-3" transform="matrix(-0.21693 0.976187 0.976187 0.21693 558 63.25)" stroke="#1F1F1F" stroke-width="6"/>
<line x1="561.443" y1="60.7811" x2="556.443" y2="83.7811" stroke="#1F1F1F" stroke-width="5"/>
<path d="M549.04 46L546.918 66.25H551.162L549.04 46Z" fill="white"/>
<path d="M549.867 84.2394L552.87 90.873L544.131 88.7262L549.867 84.2394Z" fill="#1F1F1F"/>
<path d="M556.867 78.2394L559.87 84.873L551.131 82.7262L556.867 78.2394Z" fill="#1F1F1F"/>
<path d="M617.998 84.4168L623.888 88.6983L615.231 91.1522L617.998 84.4168Z" fill="#1F1F1F"/>
<path d="M610.998 78.4168L616.888 82.6983L608.231 85.1522L610.998 78.4168Z" fill="#1F1F1F"/>
<path d="M616 46H639C639.552 46 640 46.4477 640 47V49H619C617.343 49 616 47.6569 616 46Z" fill="#1F1F1F"/>
<path d="M637.933 54.5753C637.604 55.4297 636.396 55.4297 636.067 54.5753L634.059 49.3592C633.807 48.7042 634.29 48 634.992 48H639.008C639.71 48 640.193 48.7042 639.941 49.3592L637.933 54.5753Z" fill="#1F1F1F"/>
<rect x="636" y="39" width="2" height="8" fill="#1F1F1F"/>
<path d="M637.1 38V37.9H637H622C621.392 37.9 620.9 38.3925 620.9 39V40V40.1H621H637H637.1V40V38Z" fill="#1F1F1F" stroke="#1F1F1F" stroke-width="0.2"/>
<path d="M636.9 38V37.9H637H652C652.608 37.9 653.1 38.3925 653.1 39V40V40.1H653H637H636.9V40V38Z" fill="#1F1F1F" stroke="#1F1F1F" stroke-width="0.2"/>
<path d="M552 46H529C528.448 46 528 46.4477 528 47V49H549C550.657 49 552 47.6569 552 46Z" fill="#1F1F1F"/>
<path d="M530.067 54.5753C530.396 55.4297 531.604 55.4297 531.933 54.5753L533.941 49.3592C534.193 48.7042 533.71 48 533.008 48H528.992C528.29 48 527.807 48.7042 528.059 49.3592L530.067 54.5753Z" fill="#1F1F1F"/>
<rect width="2" height="8" transform="matrix(-1 0 0 1 532 39)" fill="#1F1F1F"/>
<path d="M530.9 38V37.9H531H546C546.608 37.9 547.1 38.3925 547.1 39V40V40.1H547H531H530.9V40V38Z" fill="#1F1F1F" stroke="#1F1F1F" stroke-width="0.2"/>
<path d="M531.1 38V37.9H531H516C515.392 37.9 514.9 38.3925 514.9 39V40V40.1H515H531H531.1V40V38Z" fill="#1F1F1F" stroke="#1F1F1F" stroke-width="0.2"/>
<rect x="91" y="224" width="143" height="101" fill="#1F1F1F"/>
<rect x="269" y="284" width="58" height="41" fill="#1F1F1F"/>
<path d="M327 284L342.588 327.5H311.412L327 284Z" fill="#1F1F1F"/>
<ellipse cx="189" cy="208" rx="22" ry="21" fill="#1F1F1F"/>
<path d="M703.928 30.041H694.014L691.939 36H687.316L696.984 10.4062H700.975L710.66 36H706.02L703.928 30.041ZM695.262 26.4551H702.68L698.971 15.8379L695.262 26.4551Z" fill="black"/>
</g>
<line x1="-37" y1="324" x2="760" y2="324" stroke="black" stroke-width="2"/>
<g clip-path="url(#clip2_2_149)">
<rect width="723" height="325" transform="translate(0 328)" fill="white"/>
<rect x="-74" y="327" width="618.559" height="392.049" fill="#7FB3E2" fill-opacity="0.17"/>
<path d="M269 612L411.028 702H126.972L269 612Z" fill="white"/>
<path d="M61.466 556.935L177.158 518.363L181.43 578.873L61.466 556.935Z" fill="white"/>
<path d="M-67.527 599.917L92.3841 546.49L93.2033 650.826L-67.527 599.917Z" fill="white"/>
<path d="M-70.527 638.917L89.3841 585.49L90.2033 689.826L-70.527 638.917Z" fill="white"/>
<path d="M545.5 401L827.391 655.25H263.609L545.5 401Z" fill="white"/>
<rect x="-109" y="328" width="681" height="57" fill="white"/>
<path d="M562 386L-25.25 411.981V360.019L562 386Z" fill="white"/>
<line x1="545.503" y1="400.556" x2="271.503" y2="648.556" stroke="#77AEE0" stroke-width="1.5"/>
<line x1="545.244" y1="387.481" x2="-32.9649" y2="411.833" stroke="#77AEE0" stroke-width="1.5"/>
<rect x="559" y="369" width="50" height="11" fill="#1F1F1F"/>
<rect x="549" y="374" width="70" height="20" fill="#1F1F1F"/>
<line x1="612.929" y1="390.349" x2="618.929" y2="417.349" stroke="#1F1F1F" stroke-width="6"/>
<line y1="-2.5" x2="23.5372" y2="-2.5" transform="matrix(0.21243 0.977176 0.977176 -0.21243 609 388)" stroke="#1F1F1F" stroke-width="5"/>
<path d="M618.96 373.75L621.082 394H616.838L618.96 373.75Z" fill="white"/>
<path d="M559 369L560.732 375H557.268L559 369Z" fill="#1F1F1F"/>
<path d="M609 369L607.268 375H610.732L609 369Z" fill="#1F1F1F"/>
<path d="M618.96 373.75L621.082 394H616.838L618.96 373.75Z" fill="white"/>
<path d="M618.96 373.75L621.082 394H616.838L618.96 373.75Z" fill="white"/>
<line y1="-3" x2="27.6586" y2="-3" transform="matrix(-0.21693 0.976187 0.976187 0.21693 558 391.25)" stroke="#1F1F1F" stroke-width="6"/>
<line x1="561.443" y1="388.781" x2="556.443" y2="411.781" stroke="#1F1F1F" stroke-width="5"/>
<path d="M549.04 374L546.918 394.25H551.162L549.04 374Z" fill="white"/>
<path d="M549.867 412.239L552.87 418.873L544.131 416.726L549.867 412.239Z" fill="#1F1F1F"/>
<path d="M556.867 406.239L559.87 412.873L551.131 410.726L556.867 406.239Z" fill="#1F1F1F"/>
<path d="M617.998 412.417L623.888 416.698L615.231 419.152L617.998 412.417Z" fill="#1F1F1F"/>
<path d="M610.998 406.417L616.888 410.698L608.231 413.152L610.998 406.417Z" fill="#1F1F1F"/>
<path d="M616 374H639C639.552 374 640 374.448 640 375V377H619C617.343 377 616 375.657 616 374Z" fill="#1F1F1F"/>
<path d="M637.933 382.575C637.604 383.43 636.396 383.43 636.067 382.575L634.059 377.359C633.807 376.704 634.29 376 634.992 376H639.008C639.71 376 640.193 376.704 639.941 377.359L637.933 382.575Z" fill="#1F1F1F"/>
<rect x="636" y="367" width="2" height="8" fill="#1F1F1F"/>
<path d="M637.1 366V365.9H637H622C621.392 365.9 620.9 366.392 620.9 367V368V368.1H621H637H637.1V368V366Z" fill="#1F1F1F" stroke="#1F1F1F" stroke-width="0.2"/>
<path d="M636.9 366V365.9H637H652C652.608 365.9 653.1 366.392 653.1 367V368V368.1H653H637H636.9V368V366Z" fill="#1F1F1F" stroke="#1F1F1F" stroke-width="0.2"/>
<path d="M552 374H529C528.448 374 528 374.448 528 375V377H549C550.657 377 552 375.657 552 374Z" fill="#1F1F1F"/>
<path d="M530.067 382.575C530.396 383.43 531.604 383.43 531.933 382.575L533.941 377.359C534.193 376.704 533.71 376 533.008 376H528.992C528.29 376 527.807 376.704 528.059 377.359L530.067 382.575Z" fill="#1F1F1F"/>
<rect width="2" height="8" transform="matrix(-1 0 0 1 532 367)" fill="#1F1F1F"/>
<path d="M530.9 366V365.9H531H546C546.608 365.9 547.1 366.392 547.1 367V368V368.1H547H531H530.9V368V366Z" fill="#1F1F1F" stroke="#1F1F1F" stroke-width="0.2"/>
<path d="M531.1 366V365.9H531H516C515.392 365.9 514.9 366.392 514.9 367V368V368.1H515H531H531.1V368V366Z" fill="#1F1F1F" stroke="#1F1F1F" stroke-width="0.2"/>
<rect x="91" y="552" width="143" height="101" fill="#1F1F1F"/>
<rect x="269" y="612" width="58" height="41" fill="#1F1F1F"/>
<path d="M327 612L342.588 654H311.412L327 612Z" fill="#1F1F1F"/>
<ellipse cx="189" cy="536" rx="22" ry="21" fill="#1F1F1F"/>
<path d="M689.602 364V338.406H698.373C701.268 338.406 703.471 338.986 704.982 340.146C706.494 341.307 707.25 343.035 707.25 345.332C707.25 346.504 706.934 347.559 706.301 348.496C705.668 349.434 704.742 350.16 703.523 350.676C704.906 351.051 705.973 351.76 706.723 352.803C707.484 353.834 707.865 355.076 707.865 356.529C707.865 358.932 707.092 360.777 705.545 362.066C704.01 363.355 701.807 364 698.936 364H689.602ZM694.049 352.451V360.449H698.988C700.383 360.449 701.473 360.104 702.258 359.412C703.043 358.721 703.436 357.76 703.436 356.529C703.436 353.869 702.076 352.51 699.357 352.451H694.049ZM694.049 349.182H698.408C699.791 349.182 700.869 348.871 701.643 348.25C702.428 347.617 702.82 346.727 702.82 345.578C702.82 344.312 702.457 343.398 701.73 342.836C701.016 342.273 699.896 341.992 698.373 341.992H694.049V349.182Z" fill="black"/>
</g>
</g>
<rect x="0.5" y="0.5" width="722" height="649" stroke="black"/>
<defs>
<clipPath id="clip0_2_149">
<rect width="723" height="650" fill="white"/>
</clipPath>
<clipPath id="clip1_2_149">
<rect width="723" height="325" fill="white"/>
</clipPath>
<clipPath id="clip2_2_149">
<rect width="723" height="325" fill="white" transform="translate(0 328)"/>
</clipPath>
</defs>
</svg>
