<svg width="683" height="131" viewBox="0 0 683 131" fill="none" xmlns="http://www.w3.org/2000/svg">
<rect x="29" width="167" height="58" rx="15" fill="#FF0000" fill-opacity="0.3"/>
<path d="M94.8047 32.6514C94.8047 32.4229 94.7695 32.2178 94.6992 32.0361C94.6348 31.8486 94.5117 31.6787 94.3301 31.5264C94.1484 31.3682 93.8936 31.2129 93.5654 31.0605C93.2373 30.9082 92.8125 30.75 92.291 30.5859C91.7109 30.3984 91.1602 30.1875 90.6387 29.9531C90.123 29.7188 89.666 29.4463 89.2676 29.1357C88.875 28.8193 88.5645 28.4531 88.3359 28.0371C88.1133 27.6211 88.002 27.1377 88.002 26.5869C88.002 26.0537 88.1191 25.5703 88.3535 25.1367C88.5879 24.6973 88.916 24.3223 89.3379 24.0117C89.7598 23.6953 90.2578 23.4521 90.832 23.2822C91.4121 23.1123 92.0479 23.0273 92.7393 23.0273C93.6826 23.0273 94.5059 23.1973 95.209 23.5371C95.9121 23.877 96.457 24.3428 96.8438 24.9346C97.2363 25.5264 97.4326 26.2031 97.4326 26.9648H94.8135C94.8135 26.5898 94.7344 26.2617 94.5762 25.9805C94.4238 25.6934 94.1895 25.4678 93.873 25.3037C93.5625 25.1396 93.1699 25.0576 92.6953 25.0576C92.2383 25.0576 91.8574 25.1279 91.5527 25.2686C91.248 25.4033 91.0195 25.5879 90.8672 25.8223C90.7148 26.0508 90.6387 26.3086 90.6387 26.5957C90.6387 26.8125 90.6914 27.0088 90.7969 27.1846C90.9082 27.3604 91.0723 27.5244 91.2891 27.6768C91.5059 27.8291 91.7725 27.9727 92.0889 28.1074C92.4053 28.2422 92.7715 28.374 93.1875 28.5029C93.8848 28.7139 94.4971 28.9512 95.0244 29.2148C95.5576 29.4785 96.0029 29.7744 96.3604 30.1025C96.7178 30.4307 96.9873 30.8027 97.1689 31.2188C97.3506 31.6348 97.4414 32.1064 97.4414 32.6338C97.4414 33.1904 97.333 33.6885 97.1162 34.1279C96.8994 34.5674 96.5859 34.9395 96.1758 35.2441C95.7656 35.5488 95.2764 35.7803 94.708 35.9385C94.1396 36.0967 93.5039 36.1758 92.8008 36.1758C92.168 36.1758 91.5439 36.0938 90.9287 35.9297C90.3135 35.7598 89.7539 35.5049 89.25 35.165C88.752 34.8252 88.3535 34.3916 88.0547 33.8643C87.7559 33.3369 87.6064 32.7129 87.6064 31.9922H90.252C90.252 32.3906 90.3135 32.7275 90.4365 33.0029C90.5596 33.2783 90.7324 33.501 90.9551 33.6709C91.1836 33.8408 91.4531 33.9639 91.7637 34.04C92.0801 34.1162 92.4258 34.1543 92.8008 34.1543C93.2578 34.1543 93.6328 34.0898 93.9258 33.9609C94.2246 33.832 94.4443 33.6533 94.585 33.4248C94.7314 33.1963 94.8047 32.9385 94.8047 32.6514ZM103.453 36.1758C102.715 36.1758 102.053 36.0586 101.467 35.8242C100.881 35.584 100.383 35.2529 99.9727 34.8311C99.5684 34.4092 99.2578 33.9199 99.041 33.3633C98.8242 32.8008 98.7158 32.2031 98.7158 31.5703V31.2188C98.7158 30.498 98.8184 29.8389 99.0234 29.2412C99.2285 28.6436 99.5215 28.125 99.9023 27.6855C100.289 27.2461 100.758 26.9092 101.309 26.6748C101.859 26.4346 102.48 26.3145 103.172 26.3145C103.846 26.3145 104.443 26.4258 104.965 26.6484C105.486 26.8711 105.923 27.1875 106.274 27.5977C106.632 28.0078 106.901 28.5 107.083 29.0742C107.265 29.6426 107.355 30.2754 107.355 30.9727V32.0273H99.7969V30.3398H104.868V30.1465C104.868 29.7949 104.804 29.4814 104.675 29.2061C104.552 28.9248 104.364 28.7021 104.112 28.5381C103.86 28.374 103.538 28.292 103.146 28.292C102.812 28.292 102.524 28.3652 102.284 28.5117C102.044 28.6582 101.848 28.8633 101.695 29.127C101.549 29.3906 101.438 29.7012 101.361 30.0586C101.291 30.4102 101.256 30.7969 101.256 31.2188V31.5703C101.256 31.9512 101.309 32.3027 101.414 32.625C101.525 32.9473 101.681 33.2256 101.88 33.46C102.085 33.6943 102.331 33.876 102.618 34.0049C102.911 34.1338 103.242 34.1982 103.611 34.1982C104.068 34.1982 104.493 34.1104 104.886 33.9346C105.284 33.7529 105.627 33.4805 105.914 33.1172L107.145 34.4531C106.945 34.7402 106.673 35.0156 106.327 35.2793C105.987 35.543 105.577 35.7598 105.097 35.9297C104.616 36.0938 104.068 36.1758 103.453 36.1758ZM111.275 28.5205V36H108.744V26.4902H111.117L111.275 28.5205ZM110.906 30.9111H110.221C110.221 30.208 110.312 29.5752 110.493 29.0127C110.675 28.4443 110.93 27.9609 111.258 27.5625C111.586 27.1582 111.976 26.8506 112.427 26.6396C112.884 26.4229 113.394 26.3145 113.956 26.3145C114.401 26.3145 114.809 26.3789 115.178 26.5078C115.547 26.6367 115.863 26.8418 116.127 27.123C116.396 27.4043 116.602 27.7764 116.742 28.2393C116.889 28.7021 116.962 29.2676 116.962 29.9355V36H114.413V29.9268C114.413 29.5049 114.354 29.1768 114.237 28.9424C114.12 28.708 113.947 28.5439 113.719 28.4502C113.496 28.3506 113.221 28.3008 112.893 28.3008C112.553 28.3008 112.257 28.3682 112.005 28.5029C111.759 28.6377 111.554 28.8252 111.39 29.0654C111.231 29.2998 111.111 29.5752 111.029 29.8916C110.947 30.208 110.906 30.5479 110.906 30.9111ZM124.028 33.3721C124.028 33.1904 123.976 33.0264 123.87 32.8799C123.765 32.7334 123.568 32.5986 123.281 32.4756C123 32.3467 122.593 32.2295 122.06 32.124C121.579 32.0186 121.131 31.8867 120.715 31.7285C120.305 31.5645 119.947 31.3682 119.643 31.1396C119.344 30.9111 119.109 30.6416 118.939 30.3311C118.77 30.0146 118.685 29.6543 118.685 29.25C118.685 28.8516 118.77 28.4766 118.939 28.125C119.115 27.7734 119.364 27.4629 119.687 27.1934C120.015 26.918 120.413 26.7041 120.882 26.5518C121.356 26.3936 121.89 26.3145 122.481 26.3145C123.308 26.3145 124.017 26.4463 124.608 26.71C125.206 26.9736 125.663 27.3369 125.979 27.7998C126.302 28.2568 126.463 28.7783 126.463 29.3643H123.932C123.932 29.1182 123.879 28.8984 123.773 28.7051C123.674 28.5059 123.516 28.3506 123.299 28.2393C123.088 28.1221 122.812 28.0635 122.473 28.0635C122.191 28.0635 121.948 28.1133 121.743 28.2129C121.538 28.3066 121.38 28.4355 121.269 28.5996C121.163 28.7578 121.11 28.9336 121.11 29.127C121.11 29.2734 121.14 29.4053 121.198 29.5225C121.263 29.6338 121.365 29.7363 121.506 29.8301C121.646 29.9238 121.828 30.0117 122.051 30.0938C122.279 30.1699 122.561 30.2402 122.895 30.3047C123.58 30.4453 124.192 30.6299 124.731 30.8584C125.271 31.0811 125.698 31.3857 126.015 31.7725C126.331 32.1533 126.489 32.6543 126.489 33.2754C126.489 33.6973 126.396 34.084 126.208 34.4355C126.021 34.7871 125.751 35.0947 125.399 35.3584C125.048 35.6162 124.626 35.8184 124.134 35.9648C123.647 36.1055 123.1 36.1758 122.49 36.1758C121.605 36.1758 120.855 36.0176 120.24 35.7012C119.631 35.3848 119.168 34.9834 118.852 34.4971C118.541 34.0049 118.386 33.501 118.386 32.9854H120.785C120.797 33.3311 120.885 33.6094 121.049 33.8203C121.219 34.0312 121.433 34.1836 121.69 34.2773C121.954 34.3711 122.238 34.418 122.543 34.418C122.871 34.418 123.144 34.374 123.36 34.2861C123.577 34.1924 123.741 34.0693 123.853 33.917C123.97 33.7588 124.028 33.5771 124.028 33.3721ZM132.51 36.1758C131.771 36.1758 131.109 36.0586 130.523 35.8242C129.938 35.584 129.439 35.2529 129.029 34.8311C128.625 34.4092 128.314 33.9199 128.098 33.3633C127.881 32.8008 127.772 32.2031 127.772 31.5703V31.2188C127.772 30.498 127.875 29.8389 128.08 29.2412C128.285 28.6436 128.578 28.125 128.959 27.6855C129.346 27.2461 129.814 26.9092 130.365 26.6748C130.916 26.4346 131.537 26.3145 132.229 26.3145C132.902 26.3145 133.5 26.4258 134.021 26.6484C134.543 26.8711 134.979 27.1875 135.331 27.5977C135.688 28.0078 135.958 28.5 136.14 29.0742C136.321 29.6426 136.412 30.2754 136.412 30.9727V32.0273H128.854V30.3398H133.925V30.1465C133.925 29.7949 133.86 29.4814 133.731 29.2061C133.608 28.9248 133.421 28.7021 133.169 28.5381C132.917 28.374 132.595 28.292 132.202 28.292C131.868 28.292 131.581 28.3652 131.341 28.5117C131.101 28.6582 130.904 28.8633 130.752 29.127C130.605 29.3906 130.494 29.7012 130.418 30.0586C130.348 30.4102 130.312 30.7969 130.312 31.2188V31.5703C130.312 31.9512 130.365 32.3027 130.471 32.625C130.582 32.9473 130.737 33.2256 130.937 33.46C131.142 33.6943 131.388 33.876 131.675 34.0049C131.968 34.1338 132.299 34.1982 132.668 34.1982C133.125 34.1982 133.55 34.1104 133.942 33.9346C134.341 33.7529 134.684 33.4805 134.971 33.1172L136.201 34.4531C136.002 34.7402 135.729 35.0156 135.384 35.2793C135.044 35.543 134.634 35.7598 134.153 35.9297C133.673 36.0938 133.125 36.1758 132.51 36.1758Z" fill="black"/>
<rect x="260" width="167" height="58" rx="15" fill="#FF9900" fill-opacity="0.3"/>
<path d="M331.126 31.4385H327.865V29.3818H331.126C331.63 29.3818 332.04 29.2998 332.356 29.1357C332.673 28.9658 332.904 28.7314 333.051 28.4326C333.197 28.1338 333.271 27.7969 333.271 27.4219C333.271 27.041 333.197 26.6865 333.051 26.3584C332.904 26.0303 332.673 25.7666 332.356 25.5674C332.04 25.3682 331.63 25.2686 331.126 25.2686H328.779V36H326.143V23.2031H331.126C332.128 23.2031 332.986 23.3848 333.701 23.748C334.422 24.1055 334.973 24.6006 335.354 25.2334C335.734 25.8662 335.925 26.5898 335.925 27.4043C335.925 28.2305 335.734 28.9453 335.354 29.5488C334.973 30.1523 334.422 30.6182 333.701 30.9463C332.986 31.2744 332.128 31.4385 331.126 31.4385ZM340.258 22.5V36H337.718V22.5H340.258ZM347.482 33.8555V29.6191C347.482 29.3145 347.433 29.0537 347.333 28.8369C347.233 28.6143 347.078 28.4414 346.867 28.3184C346.662 28.1953 346.396 28.1338 346.067 28.1338C345.786 28.1338 345.543 28.1836 345.338 28.2832C345.133 28.377 344.975 28.5146 344.863 28.6963C344.752 28.8721 344.696 29.0801 344.696 29.3203H342.165C342.165 28.916 342.259 28.5322 342.446 28.1689C342.634 27.8057 342.906 27.4863 343.264 27.2109C343.621 26.9297 344.046 26.71 344.538 26.5518C345.036 26.3936 345.593 26.3145 346.208 26.3145C346.946 26.3145 347.603 26.4375 348.177 26.6836C348.751 26.9297 349.202 27.2988 349.53 27.791C349.864 28.2832 350.031 28.8984 350.031 29.6367V33.7061C350.031 34.2275 350.063 34.6553 350.128 34.9893C350.192 35.3174 350.286 35.6045 350.409 35.8506V36H347.852C347.729 35.7422 347.635 35.4199 347.57 35.0332C347.512 34.6406 347.482 34.248 347.482 33.8555ZM347.816 30.208L347.834 31.6406H346.419C346.085 31.6406 345.795 31.6787 345.549 31.7549C345.303 31.8311 345.101 31.9395 344.942 32.0801C344.784 32.2148 344.667 32.373 344.591 32.5547C344.521 32.7363 344.485 32.9355 344.485 33.1523C344.485 33.3691 344.535 33.5654 344.635 33.7412C344.734 33.9111 344.878 34.0459 345.065 34.1455C345.253 34.2393 345.473 34.2861 345.725 34.2861C346.105 34.2861 346.437 34.21 346.718 34.0576C346.999 33.9053 347.216 33.7178 347.368 33.4951C347.526 33.2725 347.608 33.0615 347.614 32.8623L348.282 33.9346C348.188 34.1748 348.06 34.4238 347.896 34.6816C347.737 34.9395 347.535 35.1826 347.289 35.4111C347.043 35.6338 346.747 35.8184 346.401 35.9648C346.056 36.1055 345.646 36.1758 345.171 36.1758C344.567 36.1758 344.02 36.0557 343.527 35.8154C343.041 35.5693 342.654 35.2324 342.367 34.8047C342.086 34.3711 341.945 33.8789 341.945 33.3281C341.945 32.8301 342.039 32.3877 342.227 32.001C342.414 31.6143 342.689 31.2891 343.053 31.0254C343.422 30.7559 343.882 30.5537 344.433 30.4189C344.983 30.2783 345.622 30.208 346.349 30.208H347.816ZM354.461 28.5205V36H351.93V26.4902H354.303L354.461 28.5205ZM354.092 30.9111H353.406C353.406 30.208 353.497 29.5752 353.679 29.0127C353.86 28.4443 354.115 27.9609 354.443 27.5625C354.771 27.1582 355.161 26.8506 355.612 26.6396C356.069 26.4229 356.579 26.3145 357.142 26.3145C357.587 26.3145 357.994 26.3789 358.363 26.5078C358.732 26.6367 359.049 26.8418 359.312 27.123C359.582 27.4043 359.787 27.7764 359.928 28.2393C360.074 28.7021 360.147 29.2676 360.147 29.9355V36H357.599V29.9268C357.599 29.5049 357.54 29.1768 357.423 28.9424C357.306 28.708 357.133 28.5439 356.904 28.4502C356.682 28.3506 356.406 28.3008 356.078 28.3008C355.738 28.3008 355.442 28.3682 355.19 28.5029C354.944 28.6377 354.739 28.8252 354.575 29.0654C354.417 29.2998 354.297 29.5752 354.215 29.8916C354.133 30.208 354.092 30.5479 354.092 30.9111Z" fill="black"/>
<rect x="491" width="167" height="58" rx="15" fill="#0029FF" fill-opacity="0.3"/>
<path d="M567.346 25.3916L563.865 36H561.062L565.816 23.2031H567.601L567.346 25.3916ZM570.237 36L566.748 25.3916L566.467 23.2031H568.269L573.05 36H570.237ZM570.079 31.2363V33.3018H563.32V31.2363H570.079ZM578.007 34.1982C578.317 34.1982 578.593 34.1396 578.833 34.0225C579.073 33.8994 579.261 33.7295 579.396 33.5127C579.536 33.29 579.609 33.0293 579.615 32.7305H581.997C581.991 33.3984 581.812 33.9932 581.461 34.5146C581.109 35.0303 580.638 35.4375 580.046 35.7363C579.454 36.0293 578.792 36.1758 578.06 36.1758C577.321 36.1758 576.677 36.0527 576.126 35.8066C575.581 35.5605 575.127 35.2207 574.764 34.7871C574.4 34.3477 574.128 33.8379 573.946 33.2578C573.765 32.6719 573.674 32.0449 573.674 31.377V31.1221C573.674 30.4482 573.765 29.8213 573.946 29.2412C574.128 28.6553 574.4 28.1455 574.764 27.7119C575.127 27.2725 575.581 26.9297 576.126 26.6836C576.671 26.4375 577.31 26.3145 578.042 26.3145C578.821 26.3145 579.504 26.4639 580.09 26.7627C580.682 27.0615 581.145 27.4893 581.479 28.0459C581.818 28.5967 581.991 29.25 581.997 30.0059H579.615C579.609 29.6895 579.542 29.4023 579.413 29.1445C579.29 28.8867 579.108 28.6816 578.868 28.5293C578.634 28.3711 578.344 28.292 577.998 28.292C577.629 28.292 577.327 28.3711 577.093 28.5293C576.858 28.6816 576.677 28.8926 576.548 29.1621C576.419 29.4258 576.328 29.7275 576.275 30.0674C576.229 30.4014 576.205 30.7529 576.205 31.1221V31.377C576.205 31.7461 576.229 32.1006 576.275 32.4404C576.322 32.7803 576.41 33.082 576.539 33.3457C576.674 33.6094 576.858 33.8174 577.093 33.9697C577.327 34.1221 577.632 34.1982 578.007 34.1982ZM588.123 26.4902V28.2832H582.586V26.4902H588.123ZM583.957 24.1436H586.488V33.1348C586.488 33.4102 586.523 33.6211 586.594 33.7676C586.67 33.9141 586.781 34.0166 586.928 34.0752C587.074 34.1279 587.259 34.1543 587.481 34.1543C587.64 34.1543 587.78 34.1484 587.903 34.1367C588.032 34.1191 588.141 34.1016 588.229 34.084L588.237 35.9473C588.021 36.0176 587.786 36.0732 587.534 36.1143C587.282 36.1553 587.004 36.1758 586.699 36.1758C586.143 36.1758 585.656 36.085 585.24 35.9033C584.83 35.7158 584.514 35.417 584.291 35.0068C584.068 34.5967 583.957 34.0576 583.957 33.3896V24.1436Z" fill="black"/>
<path d="M681.5 29H682.5V28H681.5V29ZM681.5 110V111H682.5V110H681.5ZM624.793 109.293C624.402 109.683 624.402 110.317 624.793 110.707L631.157 117.071C631.547 117.462 632.181 117.462 632.571 117.071C632.962 116.681 632.962 116.047 632.571 115.657L626.914 110L632.571 104.343C632.962 103.953 632.962 103.319 632.571 102.929C632.181 102.538 631.547 102.538 631.157 102.929L624.793 109.293ZM658 30L681.5 30V28L658 28V30ZM680.5 29V110H682.5V29H680.5ZM681.5 109H625.5V111H681.5V109Z" fill="black"/>
<path d="M1.5 110H0.5V111H1.5V110ZM1.5 29V28H0.5V29H1.5ZM29.7071 29.7071C30.0976 29.3166 30.0976 28.6834 29.7071 28.2929L23.3431 21.9289C22.9526 21.5384 22.3195 21.5384 21.9289 21.9289C21.5384 22.3195 21.5384 22.9526 21.9289 23.3431L27.5858 29L21.9289 34.6569C21.5384 35.0474 21.5384 35.6805 21.9289 36.0711C22.3195 36.4616 22.9526 36.4616 23.3431 36.0711L29.7071 29.7071ZM67.5 109L1.5 109V111L67.5 111V109ZM2.5 110L2.5 29H0.5L0.5 110H2.5ZM1.5 30L29 30V28L1.5 28V30Z" fill="black"/>
<path d="M541.346 105.392L537.865 116H535.062L539.816 103.203H541.601L541.346 105.392ZM544.237 116L540.748 105.392L540.467 103.203H542.269L547.05 116H544.237ZM544.079 111.236V113.302H537.32V111.236H544.079ZM552.007 114.198C552.317 114.198 552.593 114.14 552.833 114.022C553.073 113.899 553.261 113.729 553.396 113.513C553.536 113.29 553.609 113.029 553.615 112.73H555.997C555.991 113.398 555.812 113.993 555.461 114.515C555.109 115.03 554.638 115.438 554.046 115.736C553.454 116.029 552.792 116.176 552.06 116.176C551.321 116.176 550.677 116.053 550.126 115.807C549.581 115.561 549.127 115.221 548.764 114.787C548.4 114.348 548.128 113.838 547.946 113.258C547.765 112.672 547.674 112.045 547.674 111.377V111.122C547.674 110.448 547.765 109.821 547.946 109.241C548.128 108.655 548.4 108.146 548.764 107.712C549.127 107.272 549.581 106.93 550.126 106.684C550.671 106.438 551.31 106.314 552.042 106.314C552.821 106.314 553.504 106.464 554.09 106.763C554.682 107.062 555.145 107.489 555.479 108.046C555.818 108.597 555.991 109.25 555.997 110.006H553.615C553.609 109.689 553.542 109.402 553.413 109.145C553.29 108.887 553.108 108.682 552.868 108.529C552.634 108.371 552.344 108.292 551.998 108.292C551.629 108.292 551.327 108.371 551.093 108.529C550.858 108.682 550.677 108.893 550.548 109.162C550.419 109.426 550.328 109.728 550.275 110.067C550.229 110.401 550.205 110.753 550.205 111.122V111.377C550.205 111.746 550.229 112.101 550.275 112.44C550.322 112.78 550.41 113.082 550.539 113.346C550.674 113.609 550.858 113.817 551.093 113.97C551.327 114.122 551.632 114.198 552.007 114.198ZM562.123 106.49V108.283H556.586V106.49H562.123ZM557.957 104.144H560.488V113.135C560.488 113.41 560.523 113.621 560.594 113.768C560.67 113.914 560.781 114.017 560.928 114.075C561.074 114.128 561.259 114.154 561.481 114.154C561.64 114.154 561.78 114.148 561.903 114.137C562.032 114.119 562.141 114.102 562.229 114.084L562.237 115.947C562.021 116.018 561.786 116.073 561.534 116.114C561.282 116.155 561.004 116.176 560.699 116.176C560.143 116.176 559.656 116.085 559.24 115.903C558.83 115.716 558.514 115.417 558.291 115.007C558.068 114.597 557.957 114.058 557.957 113.39V104.144ZM569.189 113.724V106.49H571.721V116H569.339L569.189 113.724ZM569.471 111.772L570.218 111.755C570.218 112.388 570.145 112.977 569.998 113.521C569.852 114.061 569.632 114.529 569.339 114.928C569.046 115.32 568.677 115.628 568.231 115.851C567.786 116.067 567.262 116.176 566.658 116.176C566.195 116.176 565.768 116.111 565.375 115.982C564.988 115.848 564.654 115.64 564.373 115.358C564.098 115.071 563.881 114.705 563.723 114.26C563.57 113.809 563.494 113.267 563.494 112.634V106.49H566.025V112.651C566.025 112.933 566.058 113.17 566.122 113.363C566.192 113.557 566.289 113.715 566.412 113.838C566.535 113.961 566.679 114.049 566.843 114.102C567.013 114.154 567.2 114.181 567.405 114.181C567.927 114.181 568.337 114.075 568.636 113.864C568.94 113.653 569.154 113.366 569.277 113.003C569.406 112.634 569.471 112.224 569.471 111.772ZM578.787 113.855V109.619C578.787 109.314 578.737 109.054 578.638 108.837C578.538 108.614 578.383 108.441 578.172 108.318C577.967 108.195 577.7 108.134 577.372 108.134C577.091 108.134 576.848 108.184 576.643 108.283C576.438 108.377 576.279 108.515 576.168 108.696C576.057 108.872 576.001 109.08 576.001 109.32H573.47C573.47 108.916 573.563 108.532 573.751 108.169C573.938 107.806 574.211 107.486 574.568 107.211C574.926 106.93 575.351 106.71 575.843 106.552C576.341 106.394 576.897 106.314 577.513 106.314C578.251 106.314 578.907 106.438 579.481 106.684C580.056 106.93 580.507 107.299 580.835 107.791C581.169 108.283 581.336 108.898 581.336 109.637V113.706C581.336 114.228 581.368 114.655 581.433 114.989C581.497 115.317 581.591 115.604 581.714 115.851V116H579.156C579.033 115.742 578.939 115.42 578.875 115.033C578.816 114.641 578.787 114.248 578.787 113.855ZM579.121 110.208L579.139 111.641H577.724C577.39 111.641 577.1 111.679 576.854 111.755C576.607 111.831 576.405 111.939 576.247 112.08C576.089 112.215 575.972 112.373 575.896 112.555C575.825 112.736 575.79 112.936 575.79 113.152C575.79 113.369 575.84 113.565 575.939 113.741C576.039 113.911 576.183 114.046 576.37 114.146C576.558 114.239 576.777 114.286 577.029 114.286C577.41 114.286 577.741 114.21 578.022 114.058C578.304 113.905 578.521 113.718 578.673 113.495C578.831 113.272 578.913 113.062 578.919 112.862L579.587 113.935C579.493 114.175 579.364 114.424 579.2 114.682C579.042 114.939 578.84 115.183 578.594 115.411C578.348 115.634 578.052 115.818 577.706 115.965C577.36 116.105 576.95 116.176 576.476 116.176C575.872 116.176 575.324 116.056 574.832 115.815C574.346 115.569 573.959 115.232 573.672 114.805C573.391 114.371 573.25 113.879 573.25 113.328C573.25 112.83 573.344 112.388 573.531 112.001C573.719 111.614 573.994 111.289 574.357 111.025C574.727 110.756 575.187 110.554 575.737 110.419C576.288 110.278 576.927 110.208 577.653 110.208H579.121ZM587.945 106.49V108.283H582.408V106.49H587.945ZM583.779 104.144H586.311V113.135C586.311 113.41 586.346 113.621 586.416 113.768C586.492 113.914 586.604 114.017 586.75 114.075C586.896 114.128 587.081 114.154 587.304 114.154C587.462 114.154 587.603 114.148 587.726 114.137C587.854 114.119 587.963 114.102 588.051 114.084L588.06 115.947C587.843 116.018 587.608 116.073 587.356 116.114C587.104 116.155 586.826 116.176 586.521 116.176C585.965 116.176 585.479 116.085 585.062 115.903C584.652 115.716 584.336 115.417 584.113 115.007C583.891 114.597 583.779 114.058 583.779 113.39V104.144ZM588.754 111.342V111.157C588.754 110.46 588.854 109.818 589.053 109.232C589.252 108.641 589.542 108.128 589.923 107.694C590.304 107.261 590.772 106.924 591.329 106.684C591.886 106.438 592.524 106.314 593.245 106.314C593.966 106.314 594.607 106.438 595.17 106.684C595.732 106.924 596.204 107.261 596.585 107.694C596.972 108.128 597.265 108.641 597.464 109.232C597.663 109.818 597.763 110.46 597.763 111.157V111.342C597.763 112.033 597.663 112.675 597.464 113.267C597.265 113.853 596.972 114.365 596.585 114.805C596.204 115.238 595.735 115.575 595.179 115.815C594.622 116.056 593.983 116.176 593.263 116.176C592.542 116.176 591.9 116.056 591.338 115.815C590.781 115.575 590.31 115.238 589.923 114.805C589.542 114.365 589.252 113.853 589.053 113.267C588.854 112.675 588.754 112.033 588.754 111.342ZM591.285 111.157V111.342C591.285 111.74 591.32 112.112 591.391 112.458C591.461 112.804 591.572 113.108 591.725 113.372C591.883 113.63 592.088 113.832 592.34 113.979C592.592 114.125 592.899 114.198 593.263 114.198C593.614 114.198 593.916 114.125 594.168 113.979C594.42 113.832 594.622 113.63 594.774 113.372C594.927 113.108 595.038 112.804 595.108 112.458C595.185 112.112 595.223 111.74 595.223 111.342V111.157C595.223 110.771 595.185 110.407 595.108 110.067C595.038 109.722 594.924 109.417 594.766 109.153C594.613 108.884 594.411 108.673 594.159 108.521C593.907 108.368 593.603 108.292 593.245 108.292C592.888 108.292 592.583 108.368 592.331 108.521C592.085 108.673 591.883 108.884 591.725 109.153C591.572 109.417 591.461 109.722 591.391 110.067C591.32 110.407 591.285 110.771 591.285 111.157ZM601.85 108.564V116H599.318V106.49H601.7L601.85 108.564ZM604.715 106.429L604.671 108.775C604.548 108.758 604.398 108.743 604.223 108.731C604.053 108.714 603.897 108.705 603.757 108.705C603.399 108.705 603.089 108.752 602.825 108.846C602.567 108.934 602.351 109.065 602.175 109.241C602.005 109.417 601.876 109.631 601.788 109.883C601.706 110.135 601.659 110.422 601.647 110.744L601.138 110.586C601.138 109.971 601.199 109.405 601.322 108.89C601.445 108.368 601.624 107.914 601.858 107.527C602.099 107.141 602.392 106.842 602.737 106.631C603.083 106.42 603.479 106.314 603.924 106.314C604.064 106.314 604.208 106.326 604.354 106.35C604.501 106.367 604.621 106.394 604.715 106.429ZM611.052 113.372C611.052 113.19 610.999 113.026 610.894 112.88C610.788 112.733 610.592 112.599 610.305 112.476C610.023 112.347 609.616 112.229 609.083 112.124C608.603 112.019 608.154 111.887 607.738 111.729C607.328 111.564 606.971 111.368 606.666 111.14C606.367 110.911 606.133 110.642 605.963 110.331C605.793 110.015 605.708 109.654 605.708 109.25C605.708 108.852 605.793 108.477 605.963 108.125C606.139 107.773 606.388 107.463 606.71 107.193C607.038 106.918 607.437 106.704 607.905 106.552C608.38 106.394 608.913 106.314 609.505 106.314C610.331 106.314 611.04 106.446 611.632 106.71C612.229 106.974 612.687 107.337 613.003 107.8C613.325 108.257 613.486 108.778 613.486 109.364H610.955C610.955 109.118 610.902 108.898 610.797 108.705C610.697 108.506 610.539 108.351 610.322 108.239C610.111 108.122 609.836 108.063 609.496 108.063C609.215 108.063 608.972 108.113 608.767 108.213C608.562 108.307 608.403 108.436 608.292 108.6C608.187 108.758 608.134 108.934 608.134 109.127C608.134 109.273 608.163 109.405 608.222 109.522C608.286 109.634 608.389 109.736 608.529 109.83C608.67 109.924 608.852 110.012 609.074 110.094C609.303 110.17 609.584 110.24 609.918 110.305C610.604 110.445 611.216 110.63 611.755 110.858C612.294 111.081 612.722 111.386 613.038 111.772C613.354 112.153 613.513 112.654 613.513 113.275C613.513 113.697 613.419 114.084 613.231 114.436C613.044 114.787 612.774 115.095 612.423 115.358C612.071 115.616 611.649 115.818 611.157 115.965C610.671 116.105 610.123 116.176 609.514 116.176C608.629 116.176 607.879 116.018 607.264 115.701C606.654 115.385 606.191 114.983 605.875 114.497C605.564 114.005 605.409 113.501 605.409 112.985H607.809C607.82 113.331 607.908 113.609 608.072 113.82C608.242 114.031 608.456 114.184 608.714 114.277C608.978 114.371 609.262 114.418 609.566 114.418C609.895 114.418 610.167 114.374 610.384 114.286C610.601 114.192 610.765 114.069 610.876 113.917C610.993 113.759 611.052 113.577 611.052 113.372Z" fill="black"/>
<rect x="260" y="89" width="167" height="42" rx="15" fill="#C4C4C4"/>
<path d="M85.8047 112.651C85.8047 112.423 85.7695 112.218 85.6992 112.036C85.6348 111.849 85.5117 111.679 85.3301 111.526C85.1484 111.368 84.8936 111.213 84.5654 111.061C84.2373 110.908 83.8125 110.75 83.291 110.586C82.7109 110.398 82.1602 110.188 81.6387 109.953C81.123 109.719 80.666 109.446 80.2676 109.136C79.875 108.819 79.5645 108.453 79.3359 108.037C79.1133 107.621 79.002 107.138 79.002 106.587C79.002 106.054 79.1191 105.57 79.3535 105.137C79.5879 104.697 79.916 104.322 80.3379 104.012C80.7598 103.695 81.2578 103.452 81.832 103.282C82.4121 103.112 83.0479 103.027 83.7393 103.027C84.6826 103.027 85.5059 103.197 86.209 103.537C86.9121 103.877 87.457 104.343 87.8438 104.935C88.2363 105.526 88.4326 106.203 88.4326 106.965H85.8135C85.8135 106.59 85.7344 106.262 85.5762 105.98C85.4238 105.693 85.1895 105.468 84.873 105.304C84.5625 105.14 84.1699 105.058 83.6953 105.058C83.2383 105.058 82.8574 105.128 82.5527 105.269C82.248 105.403 82.0195 105.588 81.8672 105.822C81.7148 106.051 81.6387 106.309 81.6387 106.596C81.6387 106.812 81.6914 107.009 81.7969 107.185C81.9082 107.36 82.0723 107.524 82.2891 107.677C82.5059 107.829 82.7725 107.973 83.0889 108.107C83.4053 108.242 83.7715 108.374 84.1875 108.503C84.8848 108.714 85.4971 108.951 86.0244 109.215C86.5576 109.479 87.0029 109.774 87.3604 110.103C87.7178 110.431 87.9873 110.803 88.1689 111.219C88.3506 111.635 88.4414 112.106 88.4414 112.634C88.4414 113.19 88.333 113.688 88.1162 114.128C87.8994 114.567 87.5859 114.939 87.1758 115.244C86.7656 115.549 86.2764 115.78 85.708 115.938C85.1396 116.097 84.5039 116.176 83.8008 116.176C83.168 116.176 82.5439 116.094 81.9287 115.93C81.3135 115.76 80.7539 115.505 80.25 115.165C79.752 114.825 79.3535 114.392 79.0547 113.864C78.7559 113.337 78.6064 112.713 78.6064 111.992H81.252C81.252 112.391 81.3135 112.728 81.4365 113.003C81.5596 113.278 81.7324 113.501 81.9551 113.671C82.1836 113.841 82.4531 113.964 82.7637 114.04C83.0801 114.116 83.4258 114.154 83.8008 114.154C84.2578 114.154 84.6328 114.09 84.9258 113.961C85.2246 113.832 85.4443 113.653 85.585 113.425C85.7314 113.196 85.8047 112.938 85.8047 112.651ZM94.4531 116.176C93.7148 116.176 93.0527 116.059 92.4668 115.824C91.8809 115.584 91.3828 115.253 90.9727 114.831C90.5684 114.409 90.2578 113.92 90.041 113.363C89.8242 112.801 89.7158 112.203 89.7158 111.57V111.219C89.7158 110.498 89.8184 109.839 90.0234 109.241C90.2285 108.644 90.5215 108.125 90.9023 107.686C91.2891 107.246 91.7578 106.909 92.3086 106.675C92.8594 106.435 93.4805 106.314 94.1719 106.314C94.8457 106.314 95.4434 106.426 95.9648 106.648C96.4863 106.871 96.9229 107.188 97.2744 107.598C97.6318 108.008 97.9014 108.5 98.083 109.074C98.2646 109.643 98.3555 110.275 98.3555 110.973V112.027H90.7969V110.34H95.8682V110.146C95.8682 109.795 95.8037 109.481 95.6748 109.206C95.5518 108.925 95.3643 108.702 95.1123 108.538C94.8604 108.374 94.5381 108.292 94.1455 108.292C93.8115 108.292 93.5244 108.365 93.2842 108.512C93.0439 108.658 92.8477 108.863 92.6953 109.127C92.5488 109.391 92.4375 109.701 92.3613 110.059C92.291 110.41 92.2559 110.797 92.2559 111.219V111.57C92.2559 111.951 92.3086 112.303 92.4141 112.625C92.5254 112.947 92.6807 113.226 92.8799 113.46C93.085 113.694 93.3311 113.876 93.6182 114.005C93.9111 114.134 94.2422 114.198 94.6113 114.198C95.0684 114.198 95.4932 114.11 95.8857 113.935C96.2842 113.753 96.627 113.48 96.9141 113.117L98.1445 114.453C97.9453 114.74 97.6729 115.016 97.3271 115.279C96.9873 115.543 96.5771 115.76 96.0967 115.93C95.6162 116.094 95.0684 116.176 94.4531 116.176ZM102.275 108.521V116H99.7441V106.49H102.117L102.275 108.521ZM101.906 110.911H101.221C101.221 110.208 101.312 109.575 101.493 109.013C101.675 108.444 101.93 107.961 102.258 107.562C102.586 107.158 102.976 106.851 103.427 106.64C103.884 106.423 104.394 106.314 104.956 106.314C105.401 106.314 105.809 106.379 106.178 106.508C106.547 106.637 106.863 106.842 107.127 107.123C107.396 107.404 107.602 107.776 107.742 108.239C107.889 108.702 107.962 109.268 107.962 109.936V116H105.413V109.927C105.413 109.505 105.354 109.177 105.237 108.942C105.12 108.708 104.947 108.544 104.719 108.45C104.496 108.351 104.221 108.301 103.893 108.301C103.553 108.301 103.257 108.368 103.005 108.503C102.759 108.638 102.554 108.825 102.39 109.065C102.231 109.3 102.111 109.575 102.029 109.892C101.947 110.208 101.906 110.548 101.906 110.911ZM115.028 113.372C115.028 113.19 114.976 113.026 114.87 112.88C114.765 112.733 114.568 112.599 114.281 112.476C114 112.347 113.593 112.229 113.06 112.124C112.579 112.019 112.131 111.887 111.715 111.729C111.305 111.564 110.947 111.368 110.643 111.14C110.344 110.911 110.109 110.642 109.939 110.331C109.77 110.015 109.685 109.654 109.685 109.25C109.685 108.852 109.77 108.477 109.939 108.125C110.115 107.773 110.364 107.463 110.687 107.193C111.015 106.918 111.413 106.704 111.882 106.552C112.356 106.394 112.89 106.314 113.481 106.314C114.308 106.314 115.017 106.446 115.608 106.71C116.206 106.974 116.663 107.337 116.979 107.8C117.302 108.257 117.463 108.778 117.463 109.364H114.932C114.932 109.118 114.879 108.898 114.773 108.705C114.674 108.506 114.516 108.351 114.299 108.239C114.088 108.122 113.812 108.063 113.473 108.063C113.191 108.063 112.948 108.113 112.743 108.213C112.538 108.307 112.38 108.436 112.269 108.6C112.163 108.758 112.11 108.934 112.11 109.127C112.11 109.273 112.14 109.405 112.198 109.522C112.263 109.634 112.365 109.736 112.506 109.83C112.646 109.924 112.828 110.012 113.051 110.094C113.279 110.17 113.561 110.24 113.895 110.305C114.58 110.445 115.192 110.63 115.731 110.858C116.271 111.081 116.698 111.386 117.015 111.772C117.331 112.153 117.489 112.654 117.489 113.275C117.489 113.697 117.396 114.084 117.208 114.436C117.021 114.787 116.751 115.095 116.399 115.358C116.048 115.616 115.626 115.818 115.134 115.965C114.647 116.105 114.1 116.176 113.49 116.176C112.605 116.176 111.855 116.018 111.24 115.701C110.631 115.385 110.168 114.983 109.852 114.497C109.541 114.005 109.386 113.501 109.386 112.985H111.785C111.797 113.331 111.885 113.609 112.049 113.82C112.219 114.031 112.433 114.184 112.69 114.277C112.954 114.371 113.238 114.418 113.543 114.418C113.871 114.418 114.144 114.374 114.36 114.286C114.577 114.192 114.741 114.069 114.853 113.917C114.97 113.759 115.028 113.577 115.028 113.372ZM118.729 111.342V111.157C118.729 110.46 118.828 109.818 119.027 109.232C119.227 108.641 119.517 108.128 119.897 107.694C120.278 107.261 120.747 106.924 121.304 106.684C121.86 106.438 122.499 106.314 123.22 106.314C123.94 106.314 124.582 106.438 125.145 106.684C125.707 106.924 126.179 107.261 126.56 107.694C126.946 108.128 127.239 108.641 127.438 109.232C127.638 109.818 127.737 110.46 127.737 111.157V111.342C127.737 112.033 127.638 112.675 127.438 113.267C127.239 113.853 126.946 114.365 126.56 114.805C126.179 115.238 125.71 115.575 125.153 115.815C124.597 116.056 123.958 116.176 123.237 116.176C122.517 116.176 121.875 116.056 121.312 115.815C120.756 115.575 120.284 115.238 119.897 114.805C119.517 114.365 119.227 113.853 119.027 113.267C118.828 112.675 118.729 112.033 118.729 111.342ZM121.26 111.157V111.342C121.26 111.74 121.295 112.112 121.365 112.458C121.436 112.804 121.547 113.108 121.699 113.372C121.857 113.63 122.062 113.832 122.314 113.979C122.566 114.125 122.874 114.198 123.237 114.198C123.589 114.198 123.891 114.125 124.143 113.979C124.395 113.832 124.597 113.63 124.749 113.372C124.901 113.108 125.013 112.804 125.083 112.458C125.159 112.112 125.197 111.74 125.197 111.342V111.157C125.197 110.771 125.159 110.407 125.083 110.067C125.013 109.722 124.898 109.417 124.74 109.153C124.588 108.884 124.386 108.673 124.134 108.521C123.882 108.368 123.577 108.292 123.22 108.292C122.862 108.292 122.558 108.368 122.306 108.521C122.06 108.673 121.857 108.884 121.699 109.153C121.547 109.417 121.436 109.722 121.365 110.067C121.295 110.407 121.26 110.771 121.26 111.157ZM131.824 108.564V116H129.293V106.49H131.675L131.824 108.564ZM134.689 106.429L134.646 108.775C134.522 108.758 134.373 108.743 134.197 108.731C134.027 108.714 133.872 108.705 133.731 108.705C133.374 108.705 133.063 108.752 132.8 108.846C132.542 108.934 132.325 109.065 132.149 109.241C131.979 109.417 131.851 109.631 131.763 109.883C131.681 110.135 131.634 110.422 131.622 110.744L131.112 110.586C131.112 109.971 131.174 109.405 131.297 108.89C131.42 108.368 131.599 107.914 131.833 107.527C132.073 107.141 132.366 106.842 132.712 106.631C133.058 106.42 133.453 106.314 133.898 106.314C134.039 106.314 134.183 106.326 134.329 106.35C134.476 106.367 134.596 106.394 134.689 106.429ZM141.026 113.372C141.026 113.19 140.974 113.026 140.868 112.88C140.763 112.733 140.566 112.599 140.279 112.476C139.998 112.347 139.591 112.229 139.058 112.124C138.577 112.019 138.129 111.887 137.713 111.729C137.303 111.564 136.945 111.368 136.641 111.14C136.342 110.911 136.107 110.642 135.938 110.331C135.768 110.015 135.683 109.654 135.683 109.25C135.683 108.852 135.768 108.477 135.938 108.125C136.113 107.773 136.362 107.463 136.685 107.193C137.013 106.918 137.411 106.704 137.88 106.552C138.354 106.394 138.888 106.314 139.479 106.314C140.306 106.314 141.015 106.446 141.606 106.71C142.204 106.974 142.661 107.337 142.978 107.8C143.3 108.257 143.461 108.778 143.461 109.364H140.93C140.93 109.118 140.877 108.898 140.771 108.705C140.672 108.506 140.514 108.351 140.297 108.239C140.086 108.122 139.811 108.063 139.471 108.063C139.189 108.063 138.946 108.113 138.741 108.213C138.536 108.307 138.378 108.436 138.267 108.6C138.161 108.758 138.108 108.934 138.108 109.127C138.108 109.273 138.138 109.405 138.196 109.522C138.261 109.634 138.363 109.736 138.504 109.83C138.645 109.924 138.826 110.012 139.049 110.094C139.277 110.17 139.559 110.24 139.893 110.305C140.578 110.445 141.19 110.63 141.729 110.858C142.269 111.081 142.696 111.386 143.013 111.772C143.329 112.153 143.487 112.654 143.487 113.275C143.487 113.697 143.394 114.084 143.206 114.436C143.019 114.787 142.749 115.095 142.397 115.358C142.046 115.616 141.624 115.818 141.132 115.965C140.646 116.105 140.098 116.176 139.488 116.176C138.604 116.176 137.854 116.018 137.238 115.701C136.629 115.385 136.166 114.983 135.85 114.497C135.539 114.005 135.384 113.501 135.384 112.985H137.783C137.795 113.331 137.883 113.609 138.047 113.82C138.217 114.031 138.431 114.184 138.688 114.277C138.952 114.371 139.236 114.418 139.541 114.418C139.869 114.418 140.142 114.374 140.358 114.286C140.575 114.192 140.739 114.069 140.851 113.917C140.968 113.759 141.026 113.577 141.026 113.372Z" fill="black"/>
<path d="M323.664 113.97L326.213 103.203H327.637L327.962 104.996L325.246 116H323.717L323.664 113.97ZM322.354 103.203L324.464 113.97L324.288 116H322.583L319.744 103.203H322.354ZM330.203 113.926L332.286 103.203H334.896L332.066 116H330.361L330.203 113.926ZM328.437 103.203L331.003 114.014L330.933 116H329.403L326.67 104.987L327.021 103.203H328.437ZM335.485 111.342V111.157C335.485 110.46 335.585 109.818 335.784 109.232C335.983 108.641 336.273 108.128 336.654 107.694C337.035 107.261 337.504 106.924 338.061 106.684C338.617 106.438 339.256 106.314 339.977 106.314C340.697 106.314 341.339 106.438 341.901 106.684C342.464 106.924 342.936 107.261 343.316 107.694C343.703 108.128 343.996 108.641 344.195 109.232C344.395 109.818 344.494 110.46 344.494 111.157V111.342C344.494 112.033 344.395 112.675 344.195 113.267C343.996 113.853 343.703 114.365 343.316 114.805C342.936 115.238 342.467 115.575 341.91 115.815C341.354 116.056 340.715 116.176 339.994 116.176C339.273 116.176 338.632 116.056 338.069 115.815C337.513 115.575 337.041 115.238 336.654 114.805C336.273 114.365 335.983 113.853 335.784 113.267C335.585 112.675 335.485 112.033 335.485 111.342ZM338.017 111.157V111.342C338.017 111.74 338.052 112.112 338.122 112.458C338.192 112.804 338.304 113.108 338.456 113.372C338.614 113.63 338.819 113.832 339.071 113.979C339.323 114.125 339.631 114.198 339.994 114.198C340.346 114.198 340.647 114.125 340.899 113.979C341.151 113.832 341.354 113.63 341.506 113.372C341.658 113.108 341.77 112.804 341.84 112.458C341.916 112.112 341.954 111.74 341.954 111.342V111.157C341.954 110.771 341.916 110.407 341.84 110.067C341.77 109.722 341.655 109.417 341.497 109.153C341.345 108.884 341.143 108.673 340.891 108.521C340.639 108.368 340.334 108.292 339.977 108.292C339.619 108.292 339.314 108.368 339.062 108.521C338.816 108.673 338.614 108.884 338.456 109.153C338.304 109.417 338.192 109.722 338.122 110.067C338.052 110.407 338.017 110.771 338.017 111.157ZM348.581 108.564V116H346.05V106.49H348.432L348.581 108.564ZM351.446 106.429L351.402 108.775C351.279 108.758 351.13 108.743 350.954 108.731C350.784 108.714 350.629 108.705 350.488 108.705C350.131 108.705 349.82 108.752 349.557 108.846C349.299 108.934 349.082 109.065 348.906 109.241C348.736 109.417 348.607 109.631 348.52 109.883C348.438 110.135 348.391 110.422 348.379 110.744L347.869 110.586C347.869 109.971 347.931 109.405 348.054 108.89C348.177 108.368 348.355 107.914 348.59 107.527C348.83 107.141 349.123 106.842 349.469 106.631C349.814 106.42 350.21 106.314 350.655 106.314C350.796 106.314 350.939 106.326 351.086 106.35C351.232 106.367 351.353 106.394 351.446 106.429ZM355.313 102.5V116H352.773V102.5H355.313ZM363.021 113.926V102.5H365.57V116H363.276L363.021 113.926ZM357.01 111.359V111.175C357.01 110.448 357.092 109.789 357.256 109.197C357.42 108.6 357.66 108.087 357.977 107.659C358.293 107.231 358.683 106.9 359.146 106.666C359.608 106.432 360.136 106.314 360.728 106.314C361.284 106.314 361.771 106.432 362.187 106.666C362.608 106.9 362.966 107.234 363.259 107.668C363.558 108.096 363.798 108.603 363.979 109.188C364.161 109.769 364.293 110.404 364.375 111.096V111.5C364.293 112.162 364.161 112.777 363.979 113.346C363.798 113.914 363.558 114.412 363.259 114.84C362.966 115.262 362.608 115.59 362.187 115.824C361.765 116.059 361.272 116.176 360.71 116.176C360.118 116.176 359.591 116.056 359.128 115.815C358.671 115.575 358.284 115.238 357.968 114.805C357.657 114.371 357.42 113.861 357.256 113.275C357.092 112.689 357.01 112.051 357.01 111.359ZM359.541 111.175V111.359C359.541 111.752 359.57 112.118 359.629 112.458C359.693 112.798 359.796 113.1 359.937 113.363C360.083 113.621 360.271 113.823 360.499 113.97C360.733 114.11 361.018 114.181 361.352 114.181C361.785 114.181 362.143 114.084 362.424 113.891C362.705 113.691 362.919 113.419 363.065 113.073C363.218 112.728 363.306 112.329 363.329 111.878V110.727C363.312 110.357 363.259 110.026 363.171 109.733C363.089 109.435 362.966 109.18 362.802 108.969C362.644 108.758 362.444 108.594 362.204 108.477C361.97 108.359 361.691 108.301 361.369 108.301C361.041 108.301 360.76 108.377 360.525 108.529C360.291 108.676 360.101 108.878 359.954 109.136C359.813 109.394 359.708 109.698 359.638 110.05C359.573 110.396 359.541 110.771 359.541 111.175Z" fill="black"/>
<path d="M260.707 29.7071C261.098 29.3166 261.098 28.6834 260.707 28.2929L254.343 21.9289C253.953 21.5384 253.319 21.5384 252.929 21.9289C252.538 22.3195 252.538 22.9526 252.929 23.3431L258.586 29L252.929 34.6569C252.538 35.0474 252.538 35.6805 252.929 36.0711C253.319 36.4616 253.953 36.4616 254.343 36.0711L260.707 29.7071ZM196 30H260V28H196V30Z" fill="black"/>
<path d="M154.293 109.293C153.902 109.683 153.902 110.317 154.293 110.707L160.657 117.071C161.047 117.462 161.681 117.462 162.071 117.071C162.462 116.681 162.462 116.047 162.071 115.657L156.414 110L162.071 104.343C162.462 103.953 162.462 103.319 162.071 102.929C161.681 102.538 161.047 102.538 160.657 102.929L154.293 109.293ZM260 109L155 109V111L260 111V109Z" fill="black"/>
<path d="M426.293 109.293C425.902 109.683 425.902 110.317 426.293 110.707L432.657 117.071C433.047 117.462 433.681 117.462 434.071 117.071C434.462 116.681 434.462 116.047 434.071 115.657L428.414 110L434.071 104.343C434.462 103.953 434.462 103.319 434.071 102.929C433.681 102.538 433.047 102.538 432.657 102.929L426.293 109.293ZM524 109L427 109V111L524 111V109Z" fill="black"/>
<path d="M491.707 29.7071C492.098 29.3166 492.098 28.6834 491.707 28.2929L485.343 21.9289C484.953 21.5384 484.319 21.5384 483.929 21.9289C483.538 22.3195 483.538 22.9526 483.929 23.3431L489.586 29L483.929 34.6569C483.538 35.0474 483.538 35.6805 483.929 36.0711C484.319 36.4616 484.953 36.4616 485.343 36.0711L491.707 29.7071ZM427 30H491V28H427V30Z" fill="black"/>
</svg>
