<svg width="682" height="241" viewBox="0 0 682 241" fill="none" xmlns="http://www.w3.org/2000/svg">
<rect x="258" width="167" height="58" rx="15" fill="#FF9900" fill-opacity="0.3"/>
<path d="M329.126 31.4385H325.865V29.3818H329.126C329.63 29.3818 330.04 29.2998 330.356 29.1357C330.673 28.9658 330.904 28.7314 331.051 28.4326C331.197 28.1338 331.271 27.7969 331.271 27.4219C331.271 27.041 331.197 26.6865 331.051 26.3584C330.904 26.0303 330.673 25.7666 330.356 25.5674C330.04 25.3682 329.63 25.2686 329.126 25.2686H326.779V36H324.143V23.2031H329.126C330.128 23.2031 330.986 23.3848 331.701 23.748C332.422 24.1055 332.973 24.6006 333.354 25.2334C333.734 25.8662 333.925 26.5898 333.925 27.4043C333.925 28.2305 333.734 28.9453 333.354 29.5488C332.973 30.1523 332.422 30.6182 331.701 30.9463C330.986 31.2744 330.128 31.4385 329.126 31.4385ZM338.258 22.5V36H335.718V22.5H338.258ZM345.482 33.8555V29.6191C345.482 29.3145 345.433 29.0537 345.333 28.8369C345.233 28.6143 345.078 28.4414 344.867 28.3184C344.662 28.1953 344.396 28.1338 344.067 28.1338C343.786 28.1338 343.543 28.1836 343.338 28.2832C343.133 28.377 342.975 28.5146 342.863 28.6963C342.752 28.8721 342.696 29.0801 342.696 29.3203H340.165C340.165 28.916 340.259 28.5322 340.446 28.1689C340.634 27.8057 340.906 27.4863 341.264 27.2109C341.621 26.9297 342.046 26.71 342.538 26.5518C343.036 26.3936 343.593 26.3145 344.208 26.3145C344.946 26.3145 345.603 26.4375 346.177 26.6836C346.751 26.9297 347.202 27.2988 347.53 27.791C347.864 28.2832 348.031 28.8984 348.031 29.6367V33.7061C348.031 34.2275 348.063 34.6553 348.128 34.9893C348.192 35.3174 348.286 35.6045 348.409 35.8506V36H345.852C345.729 35.7422 345.635 35.4199 345.57 35.0332C345.512 34.6406 345.482 34.248 345.482 33.8555ZM345.816 30.208L345.834 31.6406H344.419C344.085 31.6406 343.795 31.6787 343.549 31.7549C343.303 31.8311 343.101 31.9395 342.942 32.0801C342.784 32.2148 342.667 32.373 342.591 32.5547C342.521 32.7363 342.485 32.9355 342.485 33.1523C342.485 33.3691 342.535 33.5654 342.635 33.7412C342.734 33.9111 342.878 34.0459 343.065 34.1455C343.253 34.2393 343.473 34.2861 343.725 34.2861C344.105 34.2861 344.437 34.21 344.718 34.0576C344.999 33.9053 345.216 33.7178 345.368 33.4951C345.526 33.2725 345.608 33.0615 345.614 32.8623L346.282 33.9346C346.188 34.1748 346.06 34.4238 345.896 34.6816C345.737 34.9395 345.535 35.1826 345.289 35.4111C345.043 35.6338 344.747 35.8184 344.401 35.9648C344.056 36.1055 343.646 36.1758 343.171 36.1758C342.567 36.1758 342.02 36.0557 341.527 35.8154C341.041 35.5693 340.654 35.2324 340.367 34.8047C340.086 34.3711 339.945 33.8789 339.945 33.3281C339.945 32.8301 340.039 32.3877 340.227 32.001C340.414 31.6143 340.689 31.2891 341.053 31.0254C341.422 30.7559 341.882 30.5537 342.433 30.4189C342.983 30.2783 343.622 30.208 344.349 30.208H345.816ZM352.461 28.5205V36H349.93V26.4902H352.303L352.461 28.5205ZM352.092 30.9111H351.406C351.406 30.208 351.497 29.5752 351.679 29.0127C351.86 28.4443 352.115 27.9609 352.443 27.5625C352.771 27.1582 353.161 26.8506 353.612 26.6396C354.069 26.4229 354.579 26.3145 355.142 26.3145C355.587 26.3145 355.994 26.3789 356.363 26.5078C356.732 26.6367 357.049 26.8418 357.312 27.123C357.582 27.4043 357.787 27.7764 357.928 28.2393C358.074 28.7021 358.147 29.2676 358.147 29.9355V36H355.599V29.9268C355.599 29.5049 355.54 29.1768 355.423 28.9424C355.306 28.708 355.133 28.5439 354.904 28.4502C354.682 28.3506 354.406 28.3008 354.078 28.3008C353.738 28.3008 353.442 28.3682 353.19 28.5029C352.944 28.6377 352.739 28.8252 352.575 29.0654C352.417 29.2998 352.297 29.5752 352.215 29.8916C352.133 30.208 352.092 30.5479 352.092 30.9111Z" fill="black"/>
<rect x="28.5" y="110" width="167" height="58" rx="15" fill="#FF0000" fill-opacity="0.3"/>
<path d="M94.3047 142.651C94.3047 142.423 94.2695 142.218 94.1992 142.036C94.1348 141.849 94.0117 141.679 93.8301 141.526C93.6484 141.368 93.3936 141.213 93.0654 141.061C92.7373 140.908 92.3125 140.75 91.791 140.586C91.2109 140.398 90.6602 140.188 90.1387 139.953C89.623 139.719 89.166 139.446 88.7676 139.136C88.375 138.819 88.0645 138.453 87.8359 138.037C87.6133 137.621 87.502 137.138 87.502 136.587C87.502 136.054 87.6191 135.57 87.8535 135.137C88.0879 134.697 88.416 134.322 88.8379 134.012C89.2598 133.695 89.7578 133.452 90.332 133.282C90.9121 133.112 91.5479 133.027 92.2393 133.027C93.1826 133.027 94.0059 133.197 94.709 133.537C95.4121 133.877 95.957 134.343 96.3438 134.935C96.7363 135.526 96.9326 136.203 96.9326 136.965H94.3135C94.3135 136.59 94.2344 136.262 94.0762 135.98C93.9238 135.693 93.6895 135.468 93.373 135.304C93.0625 135.14 92.6699 135.058 92.1953 135.058C91.7383 135.058 91.3574 135.128 91.0527 135.269C90.748 135.403 90.5195 135.588 90.3672 135.822C90.2148 136.051 90.1387 136.309 90.1387 136.596C90.1387 136.812 90.1914 137.009 90.2969 137.185C90.4082 137.36 90.5723 137.524 90.7891 137.677C91.0059 137.829 91.2725 137.973 91.5889 138.107C91.9053 138.242 92.2715 138.374 92.6875 138.503C93.3848 138.714 93.9971 138.951 94.5244 139.215C95.0576 139.479 95.5029 139.774 95.8604 140.103C96.2178 140.431 96.4873 140.803 96.6689 141.219C96.8506 141.635 96.9414 142.106 96.9414 142.634C96.9414 143.19 96.833 143.688 96.6162 144.128C96.3994 144.567 96.0859 144.939 95.6758 145.244C95.2656 145.549 94.7764 145.78 94.208 145.938C93.6396 146.097 93.0039 146.176 92.3008 146.176C91.668 146.176 91.0439 146.094 90.4287 145.93C89.8135 145.76 89.2539 145.505 88.75 145.165C88.252 144.825 87.8535 144.392 87.5547 143.864C87.2559 143.337 87.1064 142.713 87.1064 141.992H89.752C89.752 142.391 89.8135 142.728 89.9365 143.003C90.0596 143.278 90.2324 143.501 90.4551 143.671C90.6836 143.841 90.9531 143.964 91.2637 144.04C91.5801 144.116 91.9258 144.154 92.3008 144.154C92.7578 144.154 93.1328 144.09 93.4258 143.961C93.7246 143.832 93.9443 143.653 94.085 143.425C94.2314 143.196 94.3047 142.938 94.3047 142.651ZM102.953 146.176C102.215 146.176 101.553 146.059 100.967 145.824C100.381 145.584 99.8828 145.253 99.4727 144.831C99.0684 144.409 98.7578 143.92 98.541 143.363C98.3242 142.801 98.2158 142.203 98.2158 141.57V141.219C98.2158 140.498 98.3184 139.839 98.5234 139.241C98.7285 138.644 99.0215 138.125 99.4023 137.686C99.7891 137.246 100.258 136.909 100.809 136.675C101.359 136.435 101.98 136.314 102.672 136.314C103.346 136.314 103.943 136.426 104.465 136.648C104.986 136.871 105.423 137.188 105.774 137.598C106.132 138.008 106.401 138.5 106.583 139.074C106.765 139.643 106.855 140.275 106.855 140.973V142.027H99.2969V140.34H104.368V140.146C104.368 139.795 104.304 139.481 104.175 139.206C104.052 138.925 103.864 138.702 103.612 138.538C103.36 138.374 103.038 138.292 102.646 138.292C102.312 138.292 102.024 138.365 101.784 138.512C101.544 138.658 101.348 138.863 101.195 139.127C101.049 139.391 100.938 139.701 100.861 140.059C100.791 140.41 100.756 140.797 100.756 141.219V141.57C100.756 141.951 100.809 142.303 100.914 142.625C101.025 142.947 101.181 143.226 101.38 143.46C101.585 143.694 101.831 143.876 102.118 144.005C102.411 144.134 102.742 144.198 103.111 144.198C103.568 144.198 103.993 144.11 104.386 143.935C104.784 143.753 105.127 143.48 105.414 143.117L106.645 144.453C106.445 144.74 106.173 145.016 105.827 145.279C105.487 145.543 105.077 145.76 104.597 145.93C104.116 146.094 103.568 146.176 102.953 146.176ZM110.775 138.521V146H108.244V136.49H110.617L110.775 138.521ZM110.406 140.911H109.721C109.721 140.208 109.812 139.575 109.993 139.013C110.175 138.444 110.43 137.961 110.758 137.562C111.086 137.158 111.476 136.851 111.927 136.64C112.384 136.423 112.894 136.314 113.456 136.314C113.901 136.314 114.309 136.379 114.678 136.508C115.047 136.637 115.363 136.842 115.627 137.123C115.896 137.404 116.102 137.776 116.242 138.239C116.389 138.702 116.462 139.268 116.462 139.936V146H113.913V139.927C113.913 139.505 113.854 139.177 113.737 138.942C113.62 138.708 113.447 138.544 113.219 138.45C112.996 138.351 112.721 138.301 112.393 138.301C112.053 138.301 111.757 138.368 111.505 138.503C111.259 138.638 111.054 138.825 110.89 139.065C110.731 139.3 110.611 139.575 110.529 139.892C110.447 140.208 110.406 140.548 110.406 140.911ZM123.528 143.372C123.528 143.19 123.476 143.026 123.37 142.88C123.265 142.733 123.068 142.599 122.781 142.476C122.5 142.347 122.093 142.229 121.56 142.124C121.079 142.019 120.631 141.887 120.215 141.729C119.805 141.564 119.447 141.368 119.143 141.14C118.844 140.911 118.609 140.642 118.439 140.331C118.27 140.015 118.185 139.654 118.185 139.25C118.185 138.852 118.27 138.477 118.439 138.125C118.615 137.773 118.864 137.463 119.187 137.193C119.515 136.918 119.913 136.704 120.382 136.552C120.856 136.394 121.39 136.314 121.981 136.314C122.808 136.314 123.517 136.446 124.108 136.71C124.706 136.974 125.163 137.337 125.479 137.8C125.802 138.257 125.963 138.778 125.963 139.364H123.432C123.432 139.118 123.379 138.898 123.273 138.705C123.174 138.506 123.016 138.351 122.799 138.239C122.588 138.122 122.312 138.063 121.973 138.063C121.691 138.063 121.448 138.113 121.243 138.213C121.038 138.307 120.88 138.436 120.769 138.6C120.663 138.758 120.61 138.934 120.61 139.127C120.61 139.273 120.64 139.405 120.698 139.522C120.763 139.634 120.865 139.736 121.006 139.83C121.146 139.924 121.328 140.012 121.551 140.094C121.779 140.17 122.061 140.24 122.395 140.305C123.08 140.445 123.692 140.63 124.231 140.858C124.771 141.081 125.198 141.386 125.515 141.772C125.831 142.153 125.989 142.654 125.989 143.275C125.989 143.697 125.896 144.084 125.708 144.436C125.521 144.787 125.251 145.095 124.899 145.358C124.548 145.616 124.126 145.818 123.634 145.965C123.147 146.105 122.6 146.176 121.99 146.176C121.105 146.176 120.355 146.018 119.74 145.701C119.131 145.385 118.668 144.983 118.352 144.497C118.041 144.005 117.886 143.501 117.886 142.985H120.285C120.297 143.331 120.385 143.609 120.549 143.82C120.719 144.031 120.933 144.184 121.19 144.277C121.454 144.371 121.738 144.418 122.043 144.418C122.371 144.418 122.644 144.374 122.86 144.286C123.077 144.192 123.241 144.069 123.353 143.917C123.47 143.759 123.528 143.577 123.528 143.372ZM132.01 146.176C131.271 146.176 130.609 146.059 130.023 145.824C129.438 145.584 128.939 145.253 128.529 144.831C128.125 144.409 127.814 143.92 127.598 143.363C127.381 142.801 127.272 142.203 127.272 141.57V141.219C127.272 140.498 127.375 139.839 127.58 139.241C127.785 138.644 128.078 138.125 128.459 137.686C128.846 137.246 129.314 136.909 129.865 136.675C130.416 136.435 131.037 136.314 131.729 136.314C132.402 136.314 133 136.426 133.521 136.648C134.043 136.871 134.479 137.188 134.831 137.598C135.188 138.008 135.458 138.5 135.64 139.074C135.821 139.643 135.912 140.275 135.912 140.973V142.027H128.354V140.34H133.425V140.146C133.425 139.795 133.36 139.481 133.231 139.206C133.108 138.925 132.921 138.702 132.669 138.538C132.417 138.374 132.095 138.292 131.702 138.292C131.368 138.292 131.081 138.365 130.841 138.512C130.601 138.658 130.404 138.863 130.252 139.127C130.105 139.391 129.994 139.701 129.918 140.059C129.848 140.41 129.812 140.797 129.812 141.219V141.57C129.812 141.951 129.865 142.303 129.971 142.625C130.082 142.947 130.237 143.226 130.437 143.46C130.642 143.694 130.888 143.876 131.175 144.005C131.468 144.134 131.799 144.198 132.168 144.198C132.625 144.198 133.05 144.11 133.442 143.935C133.841 143.753 134.184 143.48 134.471 143.117L135.701 144.453C135.502 144.74 135.229 145.016 134.884 145.279C134.544 145.543 134.134 145.76 133.653 145.93C133.173 146.094 132.625 146.176 132.01 146.176Z" fill="black"/>
<rect x="490.5" y="110" width="167" height="58" rx="15" fill="#0029FF" fill-opacity="0.3"/>
<path d="M566.846 135.392L563.365 146H560.562L565.316 133.203H567.101L566.846 135.392ZM569.737 146L566.248 135.392L565.967 133.203H567.769L572.55 146H569.737ZM569.579 141.236V143.302H562.82V141.236H569.579ZM577.507 144.198C577.817 144.198 578.093 144.14 578.333 144.022C578.573 143.899 578.761 143.729 578.896 143.513C579.036 143.29 579.109 143.029 579.115 142.73H581.497C581.491 143.398 581.312 143.993 580.961 144.515C580.609 145.03 580.138 145.438 579.546 145.736C578.954 146.029 578.292 146.176 577.56 146.176C576.821 146.176 576.177 146.053 575.626 145.807C575.081 145.561 574.627 145.221 574.264 144.787C573.9 144.348 573.628 143.838 573.446 143.258C573.265 142.672 573.174 142.045 573.174 141.377V141.122C573.174 140.448 573.265 139.821 573.446 139.241C573.628 138.655 573.9 138.146 574.264 137.712C574.627 137.272 575.081 136.93 575.626 136.684C576.171 136.438 576.81 136.314 577.542 136.314C578.321 136.314 579.004 136.464 579.59 136.763C580.182 137.062 580.645 137.489 580.979 138.046C581.318 138.597 581.491 139.25 581.497 140.006H579.115C579.109 139.689 579.042 139.402 578.913 139.145C578.79 138.887 578.608 138.682 578.368 138.529C578.134 138.371 577.844 138.292 577.498 138.292C577.129 138.292 576.827 138.371 576.593 138.529C576.358 138.682 576.177 138.893 576.048 139.162C575.919 139.426 575.828 139.728 575.775 140.067C575.729 140.401 575.705 140.753 575.705 141.122V141.377C575.705 141.746 575.729 142.101 575.775 142.44C575.822 142.78 575.91 143.082 576.039 143.346C576.174 143.609 576.358 143.817 576.593 143.97C576.827 144.122 577.132 144.198 577.507 144.198ZM587.623 136.49V138.283H582.086V136.49H587.623ZM583.457 134.144H585.988V143.135C585.988 143.41 586.023 143.621 586.094 143.768C586.17 143.914 586.281 144.017 586.428 144.075C586.574 144.128 586.759 144.154 586.981 144.154C587.14 144.154 587.28 144.148 587.403 144.137C587.532 144.119 587.641 144.102 587.729 144.084L587.737 145.947C587.521 146.018 587.286 146.073 587.034 146.114C586.782 146.155 586.504 146.176 586.199 146.176C585.643 146.176 585.156 146.085 584.74 145.903C584.33 145.716 584.014 145.417 583.791 145.007C583.568 144.597 583.457 144.058 583.457 143.39V134.144Z" fill="black"/>
<path d="M681 139H682V138H681V139ZM681 220V221H682V220H681ZM624.293 219.293C623.902 219.683 623.902 220.317 624.293 220.707L630.657 227.071C631.047 227.462 631.681 227.462 632.071 227.071C632.462 226.681 632.462 226.047 632.071 225.657L626.414 220L632.071 214.343C632.462 213.953 632.462 213.319 632.071 212.929C631.681 212.538 631.047 212.538 630.657 212.929L624.293 219.293ZM657.5 140H681V138H657.5V140ZM680 139V220H682V139H680ZM681 219H625V221H681V219Z" fill="black"/>
<path d="M1 220H0V221H1V220ZM1 139V138H0V139H1ZM29.2071 139.707C29.5976 139.317 29.5976 138.683 29.2071 138.293L22.8431 131.929C22.4526 131.538 21.8195 131.538 21.4289 131.929C21.0384 132.319 21.0384 132.953 21.4289 133.343L27.0858 139L21.4289 144.657C21.0384 145.047 21.0384 145.681 21.4289 146.071C21.8195 146.462 22.4526 146.462 22.8431 146.071L29.2071 139.707ZM67 219H1V221H67V219ZM2 220L2 139H0L0 220H2ZM1 140H28.5V138H1V140Z" fill="black"/>
<path d="M540.846 215.392L537.365 226H534.562L539.316 213.203H541.101L540.846 215.392ZM543.737 226L540.248 215.392L539.967 213.203H541.769L546.55 226H543.737ZM543.579 221.236V223.302H536.82V221.236H543.579ZM551.507 224.198C551.817 224.198 552.093 224.14 552.333 224.022C552.573 223.899 552.761 223.729 552.896 223.513C553.036 223.29 553.109 223.029 553.115 222.73H555.497C555.491 223.398 555.312 223.993 554.961 224.515C554.609 225.03 554.138 225.438 553.546 225.736C552.954 226.029 552.292 226.176 551.56 226.176C550.821 226.176 550.177 226.053 549.626 225.807C549.081 225.561 548.627 225.221 548.264 224.787C547.9 224.348 547.628 223.838 547.446 223.258C547.265 222.672 547.174 222.045 547.174 221.377V221.122C547.174 220.448 547.265 219.821 547.446 219.241C547.628 218.655 547.9 218.146 548.264 217.712C548.627 217.272 549.081 216.93 549.626 216.684C550.171 216.438 550.81 216.314 551.542 216.314C552.321 216.314 553.004 216.464 553.59 216.763C554.182 217.062 554.645 217.489 554.979 218.046C555.318 218.597 555.491 219.25 555.497 220.006H553.115C553.109 219.689 553.042 219.402 552.913 219.145C552.79 218.887 552.608 218.682 552.368 218.529C552.134 218.371 551.844 218.292 551.498 218.292C551.129 218.292 550.827 218.371 550.593 218.529C550.358 218.682 550.177 218.893 550.048 219.162C549.919 219.426 549.828 219.728 549.775 220.067C549.729 220.401 549.705 220.753 549.705 221.122V221.377C549.705 221.746 549.729 222.101 549.775 222.44C549.822 222.78 549.91 223.082 550.039 223.346C550.174 223.609 550.358 223.817 550.593 223.97C550.827 224.122 551.132 224.198 551.507 224.198ZM561.623 216.49V218.283H556.086V216.49H561.623ZM557.457 214.144H559.988V223.135C559.988 223.41 560.023 223.621 560.094 223.768C560.17 223.914 560.281 224.017 560.428 224.075C560.574 224.128 560.759 224.154 560.981 224.154C561.14 224.154 561.28 224.148 561.403 224.137C561.532 224.119 561.641 224.102 561.729 224.084L561.737 225.947C561.521 226.018 561.286 226.073 561.034 226.114C560.782 226.155 560.504 226.176 560.199 226.176C559.643 226.176 559.156 226.085 558.74 225.903C558.33 225.716 558.014 225.417 557.791 225.007C557.568 224.597 557.457 224.058 557.457 223.39V214.144ZM568.689 223.724V216.49H571.221V226H568.839L568.689 223.724ZM568.971 221.772L569.718 221.755C569.718 222.388 569.645 222.977 569.498 223.521C569.352 224.061 569.132 224.529 568.839 224.928C568.546 225.32 568.177 225.628 567.731 225.851C567.286 226.067 566.762 226.176 566.158 226.176C565.695 226.176 565.268 226.111 564.875 225.982C564.488 225.848 564.154 225.64 563.873 225.358C563.598 225.071 563.381 224.705 563.223 224.26C563.07 223.809 562.994 223.267 562.994 222.634V216.49H565.525V222.651C565.525 222.933 565.558 223.17 565.622 223.363C565.692 223.557 565.789 223.715 565.912 223.838C566.035 223.961 566.179 224.049 566.343 224.102C566.513 224.154 566.7 224.181 566.905 224.181C567.427 224.181 567.837 224.075 568.136 223.864C568.44 223.653 568.654 223.366 568.777 223.003C568.906 222.634 568.971 222.224 568.971 221.772ZM578.287 223.855V219.619C578.287 219.314 578.237 219.054 578.138 218.837C578.038 218.614 577.883 218.441 577.672 218.318C577.467 218.195 577.2 218.134 576.872 218.134C576.591 218.134 576.348 218.184 576.143 218.283C575.938 218.377 575.779 218.515 575.668 218.696C575.557 218.872 575.501 219.08 575.501 219.32H572.97C572.97 218.916 573.063 218.532 573.251 218.169C573.438 217.806 573.711 217.486 574.068 217.211C574.426 216.93 574.851 216.71 575.343 216.552C575.841 216.394 576.397 216.314 577.013 216.314C577.751 216.314 578.407 216.438 578.981 216.684C579.556 216.93 580.007 217.299 580.335 217.791C580.669 218.283 580.836 218.898 580.836 219.637V223.706C580.836 224.228 580.868 224.655 580.933 224.989C580.997 225.317 581.091 225.604 581.214 225.851V226H578.656C578.533 225.742 578.439 225.42 578.375 225.033C578.316 224.641 578.287 224.248 578.287 223.855ZM578.621 220.208L578.639 221.641H577.224C576.89 221.641 576.6 221.679 576.354 221.755C576.107 221.831 575.905 221.939 575.747 222.08C575.589 222.215 575.472 222.373 575.396 222.555C575.325 222.736 575.29 222.936 575.29 223.152C575.29 223.369 575.34 223.565 575.439 223.741C575.539 223.911 575.683 224.046 575.87 224.146C576.058 224.239 576.277 224.286 576.529 224.286C576.91 224.286 577.241 224.21 577.522 224.058C577.804 223.905 578.021 223.718 578.173 223.495C578.331 223.272 578.413 223.062 578.419 222.862L579.087 223.935C578.993 224.175 578.864 224.424 578.7 224.682C578.542 224.939 578.34 225.183 578.094 225.411C577.848 225.634 577.552 225.818 577.206 225.965C576.86 226.105 576.45 226.176 575.976 226.176C575.372 226.176 574.824 226.056 574.332 225.815C573.846 225.569 573.459 225.232 573.172 224.805C572.891 224.371 572.75 223.879 572.75 223.328C572.75 222.83 572.844 222.388 573.031 222.001C573.219 221.614 573.494 221.289 573.857 221.025C574.227 220.756 574.687 220.554 575.237 220.419C575.788 220.278 576.427 220.208 577.153 220.208H578.621ZM587.445 216.49V218.283H581.908V216.49H587.445ZM583.279 214.144H585.811V223.135C585.811 223.41 585.846 223.621 585.916 223.768C585.992 223.914 586.104 224.017 586.25 224.075C586.396 224.128 586.581 224.154 586.804 224.154C586.962 224.154 587.103 224.148 587.226 224.137C587.354 224.119 587.463 224.102 587.551 224.084L587.56 225.947C587.343 226.018 587.108 226.073 586.856 226.114C586.604 226.155 586.326 226.176 586.021 226.176C585.465 226.176 584.979 226.085 584.562 225.903C584.152 225.716 583.836 225.417 583.613 225.007C583.391 224.597 583.279 224.058 583.279 223.39V214.144ZM588.254 221.342V221.157C588.254 220.46 588.354 219.818 588.553 219.232C588.752 218.641 589.042 218.128 589.423 217.694C589.804 217.261 590.272 216.924 590.829 216.684C591.386 216.438 592.024 216.314 592.745 216.314C593.466 216.314 594.107 216.438 594.67 216.684C595.232 216.924 595.704 217.261 596.085 217.694C596.472 218.128 596.765 218.641 596.964 219.232C597.163 219.818 597.263 220.46 597.263 221.157V221.342C597.263 222.033 597.163 222.675 596.964 223.267C596.765 223.853 596.472 224.365 596.085 224.805C595.704 225.238 595.235 225.575 594.679 225.815C594.122 226.056 593.483 226.176 592.763 226.176C592.042 226.176 591.4 226.056 590.838 225.815C590.281 225.575 589.81 225.238 589.423 224.805C589.042 224.365 588.752 223.853 588.553 223.267C588.354 222.675 588.254 222.033 588.254 221.342ZM590.785 221.157V221.342C590.785 221.74 590.82 222.112 590.891 222.458C590.961 222.804 591.072 223.108 591.225 223.372C591.383 223.63 591.588 223.832 591.84 223.979C592.092 224.125 592.399 224.198 592.763 224.198C593.114 224.198 593.416 224.125 593.668 223.979C593.92 223.832 594.122 223.63 594.274 223.372C594.427 223.108 594.538 222.804 594.608 222.458C594.685 222.112 594.723 221.74 594.723 221.342V221.157C594.723 220.771 594.685 220.407 594.608 220.067C594.538 219.722 594.424 219.417 594.266 219.153C594.113 218.884 593.911 218.673 593.659 218.521C593.407 218.368 593.103 218.292 592.745 218.292C592.388 218.292 592.083 218.368 591.831 218.521C591.585 218.673 591.383 218.884 591.225 219.153C591.072 219.417 590.961 219.722 590.891 220.067C590.82 220.407 590.785 220.771 590.785 221.157ZM601.35 218.564V226H598.818V216.49H601.2L601.35 218.564ZM604.215 216.429L604.171 218.775C604.048 218.758 603.898 218.743 603.723 218.731C603.553 218.714 603.397 218.705 603.257 218.705C602.899 218.705 602.589 218.752 602.325 218.846C602.067 218.934 601.851 219.065 601.675 219.241C601.505 219.417 601.376 219.631 601.288 219.883C601.206 220.135 601.159 220.422 601.147 220.744L600.638 220.586C600.638 219.971 600.699 219.405 600.822 218.89C600.945 218.368 601.124 217.914 601.358 217.527C601.599 217.141 601.892 216.842 602.237 216.631C602.583 216.42 602.979 216.314 603.424 216.314C603.564 216.314 603.708 216.326 603.854 216.35C604.001 216.367 604.121 216.394 604.215 216.429ZM610.552 223.372C610.552 223.19 610.499 223.026 610.394 222.88C610.288 222.733 610.092 222.599 609.805 222.476C609.523 222.347 609.116 222.229 608.583 222.124C608.103 222.019 607.654 221.887 607.238 221.729C606.828 221.564 606.471 221.368 606.166 221.14C605.867 220.911 605.633 220.642 605.463 220.331C605.293 220.015 605.208 219.654 605.208 219.25C605.208 218.852 605.293 218.477 605.463 218.125C605.639 217.773 605.888 217.463 606.21 217.193C606.538 216.918 606.937 216.704 607.405 216.552C607.88 216.394 608.413 216.314 609.005 216.314C609.831 216.314 610.54 216.446 611.132 216.71C611.729 216.974 612.187 217.337 612.503 217.8C612.825 218.257 612.986 218.778 612.986 219.364H610.455C610.455 219.118 610.402 218.898 610.297 218.705C610.197 218.506 610.039 218.351 609.822 218.239C609.611 218.122 609.336 218.063 608.996 218.063C608.715 218.063 608.472 218.113 608.267 218.213C608.062 218.307 607.903 218.436 607.792 218.6C607.687 218.758 607.634 218.934 607.634 219.127C607.634 219.273 607.663 219.405 607.722 219.522C607.786 219.634 607.889 219.736 608.029 219.83C608.17 219.924 608.352 220.012 608.574 220.094C608.803 220.17 609.084 220.24 609.418 220.305C610.104 220.445 610.716 220.63 611.255 220.858C611.794 221.081 612.222 221.386 612.538 221.772C612.854 222.153 613.013 222.654 613.013 223.275C613.013 223.697 612.919 224.084 612.731 224.436C612.544 224.787 612.274 225.095 611.923 225.358C611.571 225.616 611.149 225.818 610.657 225.965C610.171 226.105 609.623 226.176 609.014 226.176C608.129 226.176 607.379 226.018 606.764 225.701C606.154 225.385 605.691 224.983 605.375 224.497C605.064 224.005 604.909 223.501 604.909 222.985H607.309C607.32 223.331 607.408 223.609 607.572 223.82C607.742 224.031 607.956 224.184 608.214 224.277C608.478 224.371 608.762 224.418 609.066 224.418C609.395 224.418 609.667 224.374 609.884 224.286C610.101 224.192 610.265 224.069 610.376 223.917C610.493 223.759 610.552 223.577 610.552 223.372Z" fill="black"/>
<rect x="259.5" y="199" width="167" height="42" rx="15" fill="#C4C4C4"/>
<path d="M85.3047 222.651C85.3047 222.423 85.2695 222.218 85.1992 222.036C85.1348 221.849 85.0117 221.679 84.8301 221.526C84.6484 221.368 84.3936 221.213 84.0654 221.061C83.7373 220.908 83.3125 220.75 82.791 220.586C82.2109 220.398 81.6602 220.188 81.1387 219.953C80.623 219.719 80.166 219.446 79.7676 219.136C79.375 218.819 79.0645 218.453 78.8359 218.037C78.6133 217.621 78.502 217.138 78.502 216.587C78.502 216.054 78.6191 215.57 78.8535 215.137C79.0879 214.697 79.416 214.322 79.8379 214.012C80.2598 213.695 80.7578 213.452 81.332 213.282C81.9121 213.112 82.5479 213.027 83.2393 213.027C84.1826 213.027 85.0059 213.197 85.709 213.537C86.4121 213.877 86.957 214.343 87.3438 214.935C87.7363 215.526 87.9326 216.203 87.9326 216.965H85.3135C85.3135 216.59 85.2344 216.262 85.0762 215.98C84.9238 215.693 84.6895 215.468 84.373 215.304C84.0625 215.14 83.6699 215.058 83.1953 215.058C82.7383 215.058 82.3574 215.128 82.0527 215.269C81.748 215.403 81.5195 215.588 81.3672 215.822C81.2148 216.051 81.1387 216.309 81.1387 216.596C81.1387 216.812 81.1914 217.009 81.2969 217.185C81.4082 217.36 81.5723 217.524 81.7891 217.677C82.0059 217.829 82.2725 217.973 82.5889 218.107C82.9053 218.242 83.2715 218.374 83.6875 218.503C84.3848 218.714 84.9971 218.951 85.5244 219.215C86.0576 219.479 86.5029 219.774 86.8604 220.103C87.2178 220.431 87.4873 220.803 87.6689 221.219C87.8506 221.635 87.9414 222.106 87.9414 222.634C87.9414 223.19 87.833 223.688 87.6162 224.128C87.3994 224.567 87.0859 224.939 86.6758 225.244C86.2656 225.549 85.7764 225.78 85.208 225.938C84.6396 226.097 84.0039 226.176 83.3008 226.176C82.668 226.176 82.0439 226.094 81.4287 225.93C80.8135 225.76 80.2539 225.505 79.75 225.165C79.252 224.825 78.8535 224.392 78.5547 223.864C78.2559 223.337 78.1064 222.713 78.1064 221.992H80.752C80.752 222.391 80.8135 222.728 80.9365 223.003C81.0596 223.278 81.2324 223.501 81.4551 223.671C81.6836 223.841 81.9531 223.964 82.2637 224.04C82.5801 224.116 82.9258 224.154 83.3008 224.154C83.7578 224.154 84.1328 224.09 84.4258 223.961C84.7246 223.832 84.9443 223.653 85.085 223.425C85.2314 223.196 85.3047 222.938 85.3047 222.651ZM93.9531 226.176C93.2148 226.176 92.5527 226.059 91.9668 225.824C91.3809 225.584 90.8828 225.253 90.4727 224.831C90.0684 224.409 89.7578 223.92 89.541 223.363C89.3242 222.801 89.2158 222.203 89.2158 221.57V221.219C89.2158 220.498 89.3184 219.839 89.5234 219.241C89.7285 218.644 90.0215 218.125 90.4023 217.686C90.7891 217.246 91.2578 216.909 91.8086 216.675C92.3594 216.435 92.9805 216.314 93.6719 216.314C94.3457 216.314 94.9434 216.426 95.4648 216.648C95.9863 216.871 96.4229 217.188 96.7744 217.598C97.1318 218.008 97.4014 218.5 97.583 219.074C97.7646 219.643 97.8555 220.275 97.8555 220.973V222.027H90.2969V220.34H95.3682V220.146C95.3682 219.795 95.3037 219.481 95.1748 219.206C95.0518 218.925 94.8643 218.702 94.6123 218.538C94.3604 218.374 94.0381 218.292 93.6455 218.292C93.3115 218.292 93.0244 218.365 92.7842 218.512C92.5439 218.658 92.3477 218.863 92.1953 219.127C92.0488 219.391 91.9375 219.701 91.8613 220.059C91.791 220.41 91.7559 220.797 91.7559 221.219V221.57C91.7559 221.951 91.8086 222.303 91.9141 222.625C92.0254 222.947 92.1807 223.226 92.3799 223.46C92.585 223.694 92.8311 223.876 93.1182 224.005C93.4111 224.134 93.7422 224.198 94.1113 224.198C94.5684 224.198 94.9932 224.11 95.3857 223.935C95.7842 223.753 96.127 223.48 96.4141 223.117L97.6445 224.453C97.4453 224.74 97.1729 225.016 96.8271 225.279C96.4873 225.543 96.0771 225.76 95.5967 225.93C95.1162 226.094 94.5684 226.176 93.9531 226.176ZM101.775 218.521V226H99.2441V216.49H101.617L101.775 218.521ZM101.406 220.911H100.721C100.721 220.208 100.812 219.575 100.993 219.013C101.175 218.444 101.43 217.961 101.758 217.562C102.086 217.158 102.476 216.851 102.927 216.64C103.384 216.423 103.894 216.314 104.456 216.314C104.901 216.314 105.309 216.379 105.678 216.508C106.047 216.637 106.363 216.842 106.627 217.123C106.896 217.404 107.102 217.776 107.242 218.239C107.389 218.702 107.462 219.268 107.462 219.936V226H104.913V219.927C104.913 219.505 104.854 219.177 104.737 218.942C104.62 218.708 104.447 218.544 104.219 218.45C103.996 218.351 103.721 218.301 103.393 218.301C103.053 218.301 102.757 218.368 102.505 218.503C102.259 218.638 102.054 218.825 101.89 219.065C101.731 219.3 101.611 219.575 101.529 219.892C101.447 220.208 101.406 220.548 101.406 220.911ZM114.528 223.372C114.528 223.19 114.476 223.026 114.37 222.88C114.265 222.733 114.068 222.599 113.781 222.476C113.5 222.347 113.093 222.229 112.56 222.124C112.079 222.019 111.631 221.887 111.215 221.729C110.805 221.564 110.447 221.368 110.143 221.14C109.844 220.911 109.609 220.642 109.439 220.331C109.27 220.015 109.185 219.654 109.185 219.25C109.185 218.852 109.27 218.477 109.439 218.125C109.615 217.773 109.864 217.463 110.187 217.193C110.515 216.918 110.913 216.704 111.382 216.552C111.856 216.394 112.39 216.314 112.981 216.314C113.808 216.314 114.517 216.446 115.108 216.71C115.706 216.974 116.163 217.337 116.479 217.8C116.802 218.257 116.963 218.778 116.963 219.364H114.432C114.432 219.118 114.379 218.898 114.273 218.705C114.174 218.506 114.016 218.351 113.799 218.239C113.588 218.122 113.312 218.063 112.973 218.063C112.691 218.063 112.448 218.113 112.243 218.213C112.038 218.307 111.88 218.436 111.769 218.6C111.663 218.758 111.61 218.934 111.61 219.127C111.61 219.273 111.64 219.405 111.698 219.522C111.763 219.634 111.865 219.736 112.006 219.83C112.146 219.924 112.328 220.012 112.551 220.094C112.779 220.17 113.061 220.24 113.395 220.305C114.08 220.445 114.692 220.63 115.231 220.858C115.771 221.081 116.198 221.386 116.515 221.772C116.831 222.153 116.989 222.654 116.989 223.275C116.989 223.697 116.896 224.084 116.708 224.436C116.521 224.787 116.251 225.095 115.899 225.358C115.548 225.616 115.126 225.818 114.634 225.965C114.147 226.105 113.6 226.176 112.99 226.176C112.105 226.176 111.355 226.018 110.74 225.701C110.131 225.385 109.668 224.983 109.352 224.497C109.041 224.005 108.886 223.501 108.886 222.985H111.285C111.297 223.331 111.385 223.609 111.549 223.82C111.719 224.031 111.933 224.184 112.19 224.277C112.454 224.371 112.738 224.418 113.043 224.418C113.371 224.418 113.644 224.374 113.86 224.286C114.077 224.192 114.241 224.069 114.353 223.917C114.47 223.759 114.528 223.577 114.528 223.372ZM118.229 221.342V221.157C118.229 220.46 118.328 219.818 118.527 219.232C118.727 218.641 119.017 218.128 119.397 217.694C119.778 217.261 120.247 216.924 120.804 216.684C121.36 216.438 121.999 216.314 122.72 216.314C123.44 216.314 124.082 216.438 124.645 216.684C125.207 216.924 125.679 217.261 126.06 217.694C126.446 218.128 126.739 218.641 126.938 219.232C127.138 219.818 127.237 220.46 127.237 221.157V221.342C127.237 222.033 127.138 222.675 126.938 223.267C126.739 223.853 126.446 224.365 126.06 224.805C125.679 225.238 125.21 225.575 124.653 225.815C124.097 226.056 123.458 226.176 122.737 226.176C122.017 226.176 121.375 226.056 120.812 225.815C120.256 225.575 119.784 225.238 119.397 224.805C119.017 224.365 118.727 223.853 118.527 223.267C118.328 222.675 118.229 222.033 118.229 221.342ZM120.76 221.157V221.342C120.76 221.74 120.795 222.112 120.865 222.458C120.936 222.804 121.047 223.108 121.199 223.372C121.357 223.63 121.562 223.832 121.814 223.979C122.066 224.125 122.374 224.198 122.737 224.198C123.089 224.198 123.391 224.125 123.643 223.979C123.895 223.832 124.097 223.63 124.249 223.372C124.401 223.108 124.513 222.804 124.583 222.458C124.659 222.112 124.697 221.74 124.697 221.342V221.157C124.697 220.771 124.659 220.407 124.583 220.067C124.513 219.722 124.398 219.417 124.24 219.153C124.088 218.884 123.886 218.673 123.634 218.521C123.382 218.368 123.077 218.292 122.72 218.292C122.362 218.292 122.058 218.368 121.806 218.521C121.56 218.673 121.357 218.884 121.199 219.153C121.047 219.417 120.936 219.722 120.865 220.067C120.795 220.407 120.76 220.771 120.76 221.157ZM131.324 218.564V226H128.793V216.49H131.175L131.324 218.564ZM134.189 216.429L134.146 218.775C134.022 218.758 133.873 218.743 133.697 218.731C133.527 218.714 133.372 218.705 133.231 218.705C132.874 218.705 132.563 218.752 132.3 218.846C132.042 218.934 131.825 219.065 131.649 219.241C131.479 219.417 131.351 219.631 131.263 219.883C131.181 220.135 131.134 220.422 131.122 220.744L130.612 220.586C130.612 219.971 130.674 219.405 130.797 218.89C130.92 218.368 131.099 217.914 131.333 217.527C131.573 217.141 131.866 216.842 132.212 216.631C132.558 216.42 132.953 216.314 133.398 216.314C133.539 216.314 133.683 216.326 133.829 216.35C133.976 216.367 134.096 216.394 134.189 216.429ZM140.526 223.372C140.526 223.19 140.474 223.026 140.368 222.88C140.263 222.733 140.066 222.599 139.779 222.476C139.498 222.347 139.091 222.229 138.558 222.124C138.077 222.019 137.629 221.887 137.213 221.729C136.803 221.564 136.445 221.368 136.141 221.14C135.842 220.911 135.607 220.642 135.438 220.331C135.268 220.015 135.183 219.654 135.183 219.25C135.183 218.852 135.268 218.477 135.438 218.125C135.613 217.773 135.862 217.463 136.185 217.193C136.513 216.918 136.911 216.704 137.38 216.552C137.854 216.394 138.388 216.314 138.979 216.314C139.806 216.314 140.515 216.446 141.106 216.71C141.704 216.974 142.161 217.337 142.478 217.8C142.8 218.257 142.961 218.778 142.961 219.364H140.43C140.43 219.118 140.377 218.898 140.271 218.705C140.172 218.506 140.014 218.351 139.797 218.239C139.586 218.122 139.311 218.063 138.971 218.063C138.689 218.063 138.446 218.113 138.241 218.213C138.036 218.307 137.878 218.436 137.767 218.6C137.661 218.758 137.608 218.934 137.608 219.127C137.608 219.273 137.638 219.405 137.696 219.522C137.761 219.634 137.863 219.736 138.004 219.83C138.145 219.924 138.326 220.012 138.549 220.094C138.777 220.17 139.059 220.24 139.393 220.305C140.078 220.445 140.69 220.63 141.229 220.858C141.769 221.081 142.196 221.386 142.513 221.772C142.829 222.153 142.987 222.654 142.987 223.275C142.987 223.697 142.894 224.084 142.706 224.436C142.519 224.787 142.249 225.095 141.897 225.358C141.546 225.616 141.124 225.818 140.632 225.965C140.146 226.105 139.598 226.176 138.988 226.176C138.104 226.176 137.354 226.018 136.738 225.701C136.129 225.385 135.666 224.983 135.35 224.497C135.039 224.005 134.884 223.501 134.884 222.985H137.283C137.295 223.331 137.383 223.609 137.547 223.82C137.717 224.031 137.931 224.184 138.188 224.277C138.452 224.371 138.736 224.418 139.041 224.418C139.369 224.418 139.642 224.374 139.858 224.286C140.075 224.192 140.239 224.069 140.351 223.917C140.468 223.759 140.526 223.577 140.526 223.372Z" fill="black"/>
<path d="M323.164 223.97L325.713 213.203H327.137L327.462 214.996L324.746 226H323.217L323.164 223.97ZM321.854 213.203L323.964 223.97L323.788 226H322.083L319.244 213.203H321.854ZM329.703 223.926L331.786 213.203H334.396L331.566 226H329.861L329.703 223.926ZM327.937 213.203L330.503 224.014L330.433 226H328.903L326.17 214.987L326.521 213.203H327.937ZM334.985 221.342V221.157C334.985 220.46 335.085 219.818 335.284 219.232C335.483 218.641 335.773 218.128 336.154 217.694C336.535 217.261 337.004 216.924 337.561 216.684C338.117 216.438 338.756 216.314 339.477 216.314C340.197 216.314 340.839 216.438 341.401 216.684C341.964 216.924 342.436 217.261 342.816 217.694C343.203 218.128 343.496 218.641 343.695 219.232C343.895 219.818 343.994 220.46 343.994 221.157V221.342C343.994 222.033 343.895 222.675 343.695 223.267C343.496 223.853 343.203 224.365 342.816 224.805C342.436 225.238 341.967 225.575 341.41 225.815C340.854 226.056 340.215 226.176 339.494 226.176C338.773 226.176 338.132 226.056 337.569 225.815C337.013 225.575 336.541 225.238 336.154 224.805C335.773 224.365 335.483 223.853 335.284 223.267C335.085 222.675 334.985 222.033 334.985 221.342ZM337.517 221.157V221.342C337.517 221.74 337.552 222.112 337.622 222.458C337.692 222.804 337.804 223.108 337.956 223.372C338.114 223.63 338.319 223.832 338.571 223.979C338.823 224.125 339.131 224.198 339.494 224.198C339.846 224.198 340.147 224.125 340.399 223.979C340.651 223.832 340.854 223.63 341.006 223.372C341.158 223.108 341.27 222.804 341.34 222.458C341.416 222.112 341.454 221.74 341.454 221.342V221.157C341.454 220.771 341.416 220.407 341.34 220.067C341.27 219.722 341.155 219.417 340.997 219.153C340.845 218.884 340.643 218.673 340.391 218.521C340.139 218.368 339.834 218.292 339.477 218.292C339.119 218.292 338.814 218.368 338.562 218.521C338.316 218.673 338.114 218.884 337.956 219.153C337.804 219.417 337.692 219.722 337.622 220.067C337.552 220.407 337.517 220.771 337.517 221.157ZM348.081 218.564V226H345.55V216.49H347.932L348.081 218.564ZM350.946 216.429L350.902 218.775C350.779 218.758 350.63 218.743 350.454 218.731C350.284 218.714 350.129 218.705 349.988 218.705C349.631 218.705 349.32 218.752 349.057 218.846C348.799 218.934 348.582 219.065 348.406 219.241C348.236 219.417 348.107 219.631 348.02 219.883C347.938 220.135 347.891 220.422 347.879 220.744L347.369 220.586C347.369 219.971 347.431 219.405 347.554 218.89C347.677 218.368 347.855 217.914 348.09 217.527C348.33 217.141 348.623 216.842 348.969 216.631C349.314 216.42 349.71 216.314 350.155 216.314C350.296 216.314 350.439 216.326 350.586 216.35C350.732 216.367 350.853 216.394 350.946 216.429ZM354.813 212.5V226H352.273V212.5H354.813ZM362.521 223.926V212.5H365.07V226H362.776L362.521 223.926ZM356.51 221.359V221.175C356.51 220.448 356.592 219.789 356.756 219.197C356.92 218.6 357.16 218.087 357.477 217.659C357.793 217.231 358.183 216.9 358.646 216.666C359.108 216.432 359.636 216.314 360.228 216.314C360.784 216.314 361.271 216.432 361.687 216.666C362.108 216.9 362.466 217.234 362.759 217.668C363.058 218.096 363.298 218.603 363.479 219.188C363.661 219.769 363.793 220.404 363.875 221.096V221.5C363.793 222.162 363.661 222.777 363.479 223.346C363.298 223.914 363.058 224.412 362.759 224.84C362.466 225.262 362.108 225.59 361.687 225.824C361.265 226.059 360.772 226.176 360.21 226.176C359.618 226.176 359.091 226.056 358.628 225.815C358.171 225.575 357.784 225.238 357.468 224.805C357.157 224.371 356.92 223.861 356.756 223.275C356.592 222.689 356.51 222.051 356.51 221.359ZM359.041 221.175V221.359C359.041 221.752 359.07 222.118 359.129 222.458C359.193 222.798 359.296 223.1 359.437 223.363C359.583 223.621 359.771 223.823 359.999 223.97C360.233 224.11 360.518 224.181 360.852 224.181C361.285 224.181 361.643 224.084 361.924 223.891C362.205 223.691 362.419 223.419 362.565 223.073C362.718 222.728 362.806 222.329 362.829 221.878V220.727C362.812 220.357 362.759 220.026 362.671 219.733C362.589 219.435 362.466 219.18 362.302 218.969C362.144 218.758 361.944 218.594 361.704 218.477C361.47 218.359 361.191 218.301 360.869 218.301C360.541 218.301 360.26 218.377 360.025 218.529C359.791 218.676 359.601 218.878 359.454 219.136C359.313 219.394 359.208 219.698 359.138 220.05C359.073 220.396 359.041 220.771 359.041 221.175Z" fill="black"/>
<path d="M153.793 219.293C153.402 219.683 153.402 220.317 153.793 220.707L160.157 227.071C160.547 227.462 161.181 227.462 161.571 227.071C161.962 226.681 161.962 226.047 161.571 225.657L155.914 220L161.571 214.343C161.962 213.953 161.962 213.319 161.571 212.929C161.181 212.538 160.547 212.538 160.157 212.929L153.793 219.293ZM259.5 219H154.5V221H259.5V219Z" fill="black"/>
<path d="M425.793 219.293C425.402 219.683 425.402 220.317 425.793 220.707L432.157 227.071C432.547 227.462 433.181 227.462 433.571 227.071C433.962 226.681 433.962 226.047 433.571 225.657L427.914 220L433.571 214.343C433.962 213.953 433.962 213.319 433.571 212.929C433.181 212.538 432.547 212.538 432.157 212.929L425.793 219.293ZM523.5 219H426.5V221H523.5V219Z" fill="black"/>
<path d="M490.707 139.707C491.098 139.317 491.098 138.683 490.707 138.293L484.343 131.929C483.953 131.538 483.319 131.538 482.929 131.929C482.538 132.319 482.538 132.953 482.929 133.343L488.586 139L482.929 144.657C482.538 145.047 482.538 145.681 482.929 146.071C483.319 146.462 483.953 146.462 484.343 146.071L490.707 139.707ZM195 140H490V138H195V140Z" fill="black"/>
<rect x="12.5" y="92.5" width="656" height="89" stroke="black"/>
<path d="M341.707 57.2929C341.317 56.9024 340.683 56.9024 340.293 57.2929L333.929 63.6569C333.538 64.0474 333.538 64.6805 333.929 65.0711C334.319 65.4616 334.953 65.4616 335.343 65.0711L341 59.4142L346.657 65.0711C347.047 65.4616 347.681 65.4616 348.071 65.0711C348.462 64.6805 348.462 64.0474 348.071 63.6569L341.707 57.2929ZM340.293 92.7071C340.683 93.0976 341.317 93.0976 341.707 92.7071L348.071 86.3431C348.462 85.9526 348.462 85.3195 348.071 84.9289C347.681 84.5384 347.047 84.5384 346.657 84.9289L341 90.5858L335.343 84.9289C334.953 84.5384 334.319 84.5384 333.929 84.9289C333.538 85.3195 333.538 85.9526 333.929 86.3431L340.293 92.7071ZM340 58V92H342V58H340Z" fill="black"/>
</svg>
