<svg width="204" height="211" viewBox="0 0 204 211" fill="none" xmlns="http://www.w3.org/2000/svg">
<path d="M116.805 108.598L121.084 110.327V111.667L115.492 109.076V108.078L121.084 105.494V106.834L116.805 108.598ZM125.562 108.304L127.202 105.604H128.679L126.259 109.261L128.754 113H127.291L125.582 110.231L123.873 113H122.403L124.898 109.261L122.479 105.604H123.941L125.562 108.304ZM129.984 114.982L129.267 114.49C129.695 113.893 129.918 113.278 129.937 112.645V111.503H131.174V112.494C131.174 112.954 131.06 113.415 130.832 113.875C130.609 114.335 130.326 114.704 129.984 114.982ZM138.666 111.147L140.389 105.604H141.742L138.769 114.142C138.308 115.372 137.577 115.987 136.574 115.987L136.335 115.967L135.863 115.878V114.853L136.205 114.88C136.633 114.88 136.966 114.793 137.203 114.62C137.445 114.447 137.643 114.13 137.798 113.67L138.078 112.918L135.439 105.604H136.82L138.666 111.147ZM142.098 114.982L141.38 114.49C141.808 113.893 142.032 113.278 142.05 112.645V111.503H143.287V112.494C143.287 112.954 143.173 113.415 142.945 113.875C142.722 114.335 142.439 114.704 142.098 114.982ZM154.525 108.625C154.525 110.088 154.257 111.207 153.719 111.981C153.181 112.752 152.404 113.137 151.388 113.137C150.39 113.137 149.619 112.758 149.077 112.002C148.535 111.245 148.255 110.165 148.236 108.762V107.36C148.236 105.916 148.505 104.813 149.043 104.052C149.581 103.291 150.358 102.91 151.374 102.91C152.386 102.91 153.158 103.279 153.691 104.018C154.229 104.756 154.507 105.825 154.525 107.224V108.625ZM149.501 107.524H153.254V107.148C153.254 106.114 153.094 105.323 152.775 104.776C152.461 104.225 151.994 103.949 151.374 103.949C150.763 103.949 150.299 104.225 149.979 104.776C149.66 105.323 149.501 106.114 149.501 107.148V107.524ZM153.254 108.563H149.501V108.83C149.501 109.874 149.667 110.68 150 111.25C150.333 111.82 150.795 112.104 151.388 112.104C151.98 112.104 152.436 111.831 152.755 111.284C153.078 110.737 153.245 109.947 153.254 108.912V108.563ZM160.808 108.557L156.289 106.786V105.487L162.127 108.071V109.069L156.289 111.66V110.348L160.808 108.557Z" fill="black"/>
<circle cx="110" cy="130" r="1" fill="black"/>
<path d="M34.0898 59.6035C33.4609 60.8932 33.1305 62.0827 33.0986 63.1719C33.0986 64.097 33.2285 64.8193 33.4883 65.3389C33.748 65.8538 34.1195 66.1113 34.6025 66.1113C35.0947 66.1113 35.4684 65.9154 35.7236 65.5234C35.9834 65.127 36.1133 64.5505 36.1133 63.7939V61.7363H37.3916V63.8281C37.3962 64.5755 37.526 65.1429 37.7812 65.5303C38.041 65.9176 38.4147 66.1113 38.9023 66.1113C39.3854 66.1113 39.7568 65.8538 40.0166 65.3389C40.2764 64.8239 40.4062 64.1016 40.4062 63.1719C40.3743 62.0827 40.0439 60.8932 39.415 59.6035H40.748C41.3633 60.7155 41.6709 61.9049 41.6709 63.1719C41.6709 64.4251 41.4339 65.4004 40.96 66.0977C40.4906 66.7904 39.8275 67.1367 38.9707 67.1367C37.877 67.1367 37.1364 66.5944 36.749 65.5098C36.5622 66.043 36.2819 66.4486 35.9082 66.7266C35.5345 67 35.0765 67.1367 34.5342 67.1367C33.6774 67.1367 33.012 66.7904 32.5381 66.0977C32.0687 65.4004 31.834 64.4251 31.834 63.1719C31.834 61.8639 32.1416 60.6745 32.7568 59.6035H34.0898Z" fill="#FF0000"/>
<path d="M52.5322 148.738C52.3408 148.706 52.1335 148.69 51.9102 148.69C51.0807 148.69 50.5179 149.044 50.2217 149.75V155H48.957V147.604H50.1875L50.208 148.458C50.6227 147.797 51.2106 147.467 51.9717 147.467C52.2178 147.467 52.4046 147.499 52.5322 147.562V148.738Z" fill="black"/>
<path d="M82.3975 73.2842L84.2295 67.6035H85.5215L82.8691 75H81.9053L79.2256 67.6035H80.5176L82.3975 73.2842Z" fill="#0029FF"/>
<path d="M2.46777 190.104V194H1.15527V184.047H4.82617C5.91536 184.047 6.76758 184.325 7.38281 184.881C8.0026 185.437 8.3125 186.173 8.3125 187.089C8.3125 188.055 8.00944 188.8 7.40332 189.324C6.80176 189.844 5.93815 190.104 4.8125 190.104H2.46777ZM2.46777 189.03H4.82617C5.52799 189.03 6.06576 188.866 6.43945 188.538C6.81315 188.205 7 187.727 7 187.103C7 186.51 6.81315 186.036 6.43945 185.681C6.06576 185.325 5.55306 185.141 4.90137 185.127H2.46777V189.03Z" fill="black"/>
<line x1="12" y1="190.5" x2="204" y2="190.5" stroke="black"/>
<path fill-rule="evenodd" clip-rule="evenodd" d="M10.0942 67.5284C9.46372 67.5357 8.83304 67.5479 8.20218 67.5649L8.22916 68.5645C8.63035 68.5537 9.0316 68.5449 9.43289 68.538C16.5279 68.4166 23.597 68.9147 30.5621 70.0153C42.6245 71.9214 54.3747 75.6346 65.4069 81.0659C68.7632 82.7183 72.034 84.5204 75.2103 86.4645C75.2515 86.4898 75.2927 86.515 75.3339 86.5403C88.9159 94.8757 100.766 105.812 110.183 118.758L110.991 118.17C101.469 105.078 89.4778 94.0249 75.7323 85.6116C75.7077 85.5965 75.6831 85.5814 75.6584 85.5664C72.4792 83.6236 69.2064 81.8219 65.8486 80.1688C60.2523 77.4136 54.4728 75.097 48.5621 73.2303C42.7187 71.3849 36.7471 69.9792 30.6977 69.0244C30.6977 69.0244 30.6977 69.0244 30.6977 69.0244C23.8678 67.9463 16.9756 67.4486 10.0942 67.5284Z" fill="#FF0000"/>
<path d="M5 68L10 70.8868L10 65.1133L5 68ZM12 67.5L9.5 67.5L9.5 68.5L12 68.5L12 67.5Z" fill="#FF0000"/>
<path d="M38 20.5094L38.6582 26.2452L43.2965 22.8072L38 20.5094ZM164.402 190.202L41.0813 23.8268L40.278 24.4223L163.598 190.798L164.402 190.202Z" fill="#0029FF"/>
<path d="M11.7086 190.594L111.577 118.945" stroke="black"/>
<path d="M164 190.5L111 119" stroke="black"/>
<path d="M171.123 181.625C171.123 183.088 170.854 184.207 170.316 184.981C169.779 185.752 169.002 186.137 167.985 186.137C166.987 186.137 166.217 185.758 165.675 185.002C165.132 184.245 164.852 183.165 164.834 181.762V180.36C164.834 178.916 165.103 177.813 165.641 177.052C166.178 176.291 166.955 175.91 167.972 175.91C168.983 175.91 169.756 176.279 170.289 177.018C170.827 177.756 171.105 178.825 171.123 180.224V181.625ZM166.099 180.524H169.852V180.148C169.852 179.114 169.692 178.323 169.373 177.776C169.059 177.225 168.591 176.949 167.972 176.949C167.361 176.949 166.896 177.225 166.577 177.776C166.258 178.323 166.099 179.114 166.099 180.148V180.524ZM169.852 181.563H166.099V181.83C166.099 182.874 166.265 183.68 166.598 184.25C166.93 184.82 167.393 185.104 167.985 185.104C168.578 185.104 169.034 184.831 169.353 184.284C169.676 183.737 169.842 182.947 169.852 181.912V181.563Z" fill="black"/>
<path d="M151.593 174.431C154.569 172.225 158.099 170.89 161.79 170.573C165.481 170.257 169.187 170.971 172.496 172.637C175.804 174.304 178.585 176.856 180.528 180.01C182.471 183.164 183.5 186.796 183.5 190.5" stroke="black"/>
<path d="M122.616 135.127C118.398 137.947 113.265 139.058 108.259 138.236C103.252 137.413 98.745 134.719 95.6505 130.698" stroke="black"/>
<circle cx="111.5" cy="118.5" r="5.5" fill="black"/>
</svg>
