<svg width="504" height="229" viewBox="0 0 504 229" fill="none" xmlns="http://www.w3.org/2000/svg">
<line x1="258.5" y1="111.5" x2="500.5" y2="111.5" stroke="black" stroke-linecap="round" stroke-dasharray="2 4 6 8"/>
<line x1="257.692" y1="111.105" x2="290.248" y2="200.553" stroke="#FF0000" stroke-dasharray="2 2"/>
<path d="M433.037 47.1126C433.577 48.5964 434.404 49.9594 435.471 51.1236C436.538 52.2878 437.824 53.2305 439.255 53.8979C440.686 54.5652 442.235 54.9441 443.812 55.013C445.39 55.0819 446.965 54.8394 448.449 54.2993" stroke="black"/>
<line x1="11" y1="200.5" x2="502" y2="200.5" stroke="black"/>
<path d="M290 210.5L295 213.387V207.613L290 210.5ZM501 210.5L496 207.613V213.387L501 210.5ZM294.5 211H496.5V210H294.5V211Z" fill="black"/>
<line x1="444.246" y1="42.9102" x2="501.694" y2="200.748" stroke="#0029FF" stroke-dasharray="2 2"/>
<line x1="351.194" y1="76.9288" x2="396.194" y2="200.567" stroke="black" stroke-dasharray="2 2"/>
<path d="M10.8297 194.667L16.514 195.678L14.5471 190.249L10.8297 194.667ZM256.83 105.53L251.145 104.519L253.112 109.947L256.83 105.53ZM15.2308 193.604L117.957 156.382L117.616 155.442L14.8901 192.664L15.2308 193.604ZM150.043 144.755L252.769 107.533L252.429 106.593L149.703 143.815L150.043 144.755Z" fill="#FF0000"/>
<path d="M11 178.137L16.6842 179.149L14.7182 173.72L11 178.137ZM351 55L345.316 53.9884L347.282 59.4168L351 55ZM15.4013 177.075L165.716 122.636L165.375 121.695L15.0608 176.134L15.4013 177.075ZM196.625 111.441L346.939 57.0025L346.599 56.0622L196.284 110.501L196.625 111.441Z" fill="black"/>
<path d="M11 159.137L16.6848 160.145L14.7153 154.718L11 159.137ZM444 1.99999L438.315 0.99207L440.285 6.41925L444 1.99999ZM15.4006 158.072L212.566 86.52L212.225 85.58L15.0595 157.132L15.4006 158.072ZM242.775 75.557L439.941 4.0051L439.599 3.06508L242.434 74.6169L242.775 75.557Z" fill="#0029FF"/>
<line x1="10.8499" y1="200.587" x2="500.829" y2="22.5301" stroke="black"/>
<circle cx="442" cy="49" r="1" fill="black"/>
<path d="M257.5 111L257.801 115.609L261.642 113.044L257.5 111ZM290 200.5L291.646 196.184L287.085 196.917L290 200.5ZM259.163 114.211C275.941 139.685 282.904 159.549 289.035 197.016L289.825 196.887C283.68 159.34 276.687 139.363 259.832 113.771L259.163 114.211Z" fill="#FF0000"/>
<path d="M351 77L351.307 81.6086L355.145 79.0381L351 77ZM396 201L397.65 196.686L393.089 197.414L396 201ZM352.669 80.2098C376.672 116.393 386.398 144.131 395.037 197.504L395.826 197.377C387.175 143.924 377.418 116.069 353.335 79.7676L352.669 80.2098Z" fill="black"/>
<path d="M444 43L444.3 47.6091L448.141 45.0449L444 43ZM501.5 201L503.155 196.688L498.593 197.411L501.5 201ZM445.668 46.2189C476.642 92.9611 489.48 128.453 500.543 197.513L501.332 197.387C490.256 128.242 477.385 92.6352 446.334 45.777L445.668 46.2189Z" fill="#0029FF"/>
<path d="M67.2383 193.116C66.0716 193.011 65.1715 192.61 64.5381 191.913C63.9092 191.211 63.5947 190.288 63.5947 189.145C63.5947 188.379 63.7406 187.698 64.0322 187.101C64.3285 186.499 64.766 186 65.3447 185.604L66.0352 186.513C65.3014 187.151 64.9118 188.028 64.8662 189.145C64.8662 189.933 65.0713 190.589 65.4814 191.113C65.8962 191.633 66.4818 191.952 67.2383 192.07V187.176C67.2383 186.697 67.3955 186.317 67.71 186.034C68.0244 185.747 68.4391 185.604 68.9541 185.604C69.5465 185.604 70.098 185.765 70.6084 186.089C71.1234 186.408 71.529 186.85 71.8252 187.415C72.1214 187.98 72.2695 188.602 72.2695 189.281C72.2695 190.389 71.9391 191.282 71.2783 191.961C70.6175 192.635 69.6924 193.021 68.5029 193.116V196.268H67.2383V193.116ZM68.5029 192.07C69.2777 191.97 69.8883 191.667 70.335 191.161C70.7816 190.655 71.0049 190.029 71.0049 189.281C70.9821 188.511 70.7816 187.88 70.4033 187.388C70.0296 186.896 69.5465 186.649 68.9541 186.649C68.6533 186.649 68.5029 186.836 68.5029 187.21V192.07Z" fill="black"/>
<path d="M2.46777 201.104V205H1.15527V195.047H4.82617C5.91536 195.047 6.76758 195.325 7.38281 195.881C8.0026 196.437 8.3125 197.173 8.3125 198.089C8.3125 199.055 8.00944 199.8 7.40332 200.324C6.80176 200.844 5.93815 201.104 4.8125 201.104H2.46777ZM2.46777 200.03H4.82617C5.52799 200.03 6.06576 199.866 6.43945 199.538C6.81315 199.205 7 198.727 7 198.103C7 197.51 6.81315 197.036 6.43945 196.681C6.06576 196.325 5.55306 196.141 4.90137 196.127H2.46777V200.03Z" fill="black"/>
<path d="M403.219 220.384C403.219 221.514 402.959 222.423 402.439 223.111C401.92 223.795 401.223 224.137 400.348 224.137C399.413 224.137 398.691 223.806 398.181 223.146L398.119 224H396.957V213.5H398.222V217.417C398.732 216.784 399.436 216.467 400.334 216.467C401.232 216.467 401.936 216.806 402.446 217.485C402.961 218.164 403.219 219.094 403.219 220.274V220.384ZM401.954 220.24C401.954 219.379 401.788 218.714 401.455 218.244C401.122 217.775 400.644 217.54 400.02 217.54C399.186 217.54 398.586 217.927 398.222 218.702V221.901C398.609 222.676 399.213 223.063 400.033 223.063C400.639 223.063 401.111 222.829 401.448 222.359C401.785 221.89 401.954 221.184 401.954 220.24Z" fill="black"/>
<path d="M227.532 76.7383C227.341 76.7064 227.133 76.6904 226.91 76.6904C226.081 76.6904 225.518 77.0436 225.222 77.75V83H223.957V75.6035H225.188L225.208 76.458C225.623 75.7972 226.211 75.4668 226.972 75.4668C227.218 75.4668 227.405 75.4987 227.532 75.5625V76.7383ZM230.334 79.4219C230.225 79.4036 230.106 79.3945 229.979 79.3945C229.505 79.3945 229.183 79.5963 229.014 80V83H228.291V78.7734H228.994L229.006 79.2617C229.243 78.8841 229.579 78.6953 230.014 78.6953C230.154 78.6953 230.261 78.7135 230.334 78.75V79.4219Z" fill="#0029FF"/>
<path d="M471.649 157.24C471.649 156.105 471.918 155.194 472.456 154.506C472.994 153.813 473.698 153.467 474.568 153.467C475.434 153.467 476.12 153.763 476.626 154.355V150.5H477.891V161H476.729L476.667 160.207C476.161 160.827 475.457 161.137 474.555 161.137C473.698 161.137 472.998 160.786 472.456 160.084C471.918 159.382 471.649 158.466 471.649 157.336V157.24ZM472.914 157.384C472.914 158.222 473.087 158.879 473.434 159.353C473.78 159.826 474.258 160.063 474.869 160.063C475.671 160.063 476.257 159.703 476.626 158.983V155.586C476.248 154.889 475.667 154.54 474.883 154.54C474.263 154.54 473.78 154.779 473.434 155.258C473.087 155.736 472.914 156.445 472.914 157.384ZM481.492 157.422C481.383 157.404 481.264 157.395 481.137 157.395C480.663 157.395 480.341 157.596 480.172 158V161H479.449V156.773H480.152L480.164 157.262C480.401 156.884 480.737 156.695 481.172 156.695C481.312 156.695 481.419 156.714 481.492 156.75V157.422Z" fill="#0029FF"/>
<path d="M181.532 112.738C181.341 112.706 181.133 112.69 180.91 112.69C180.081 112.69 179.518 113.044 179.222 113.75V119H177.957V111.604H179.188L179.208 112.458C179.623 111.797 180.211 111.467 180.972 111.467C181.218 111.467 181.405 111.499 181.532 111.562V112.738ZM183.986 118.488C184.244 118.488 184.469 118.41 184.662 118.254C184.855 118.098 184.962 117.902 184.982 117.668H185.666C185.653 117.91 185.57 118.141 185.416 118.359C185.262 118.578 185.057 118.753 184.799 118.883C184.544 119.013 184.273 119.078 183.986 119.078C183.411 119.078 182.952 118.887 182.611 118.504C182.273 118.118 182.104 117.592 182.104 116.926V116.805C182.104 116.393 182.179 116.027 182.33 115.707C182.481 115.387 182.697 115.138 182.979 114.961C183.262 114.784 183.597 114.695 183.982 114.695C184.456 114.695 184.85 114.837 185.162 115.121C185.477 115.405 185.645 115.773 185.666 116.227H184.982C184.962 115.953 184.857 115.729 184.67 115.555C184.485 115.378 184.256 115.289 183.982 115.289C183.615 115.289 183.33 115.422 183.127 115.687C182.926 115.951 182.826 116.332 182.826 116.832V116.969C182.826 117.456 182.926 117.831 183.127 118.094C183.327 118.357 183.614 118.488 183.986 118.488Z" fill="black"/>
<path d="M364.649 157.24C364.649 156.105 364.918 155.194 365.456 154.506C365.994 153.813 366.698 153.467 367.568 153.467C368.434 153.467 369.12 153.763 369.626 154.355V150.5H370.891V161H369.729L369.667 160.207C369.161 160.827 368.457 161.137 367.555 161.137C366.698 161.137 365.998 160.786 365.456 160.084C364.918 159.382 364.649 158.466 364.649 157.336V157.24ZM365.914 157.384C365.914 158.222 366.087 158.879 366.434 159.353C366.78 159.826 367.258 160.063 367.869 160.063C368.671 160.063 369.257 159.703 369.626 158.983V155.586C369.248 154.889 368.667 154.54 367.883 154.54C367.263 154.54 366.78 154.779 366.434 155.258C366.087 155.736 365.914 156.445 365.914 157.384ZM374.145 160.488C374.402 160.488 374.628 160.41 374.82 160.254C375.013 160.098 375.12 159.902 375.141 159.668H375.824C375.811 159.91 375.728 160.141 375.574 160.359C375.421 160.578 375.215 160.753 374.957 160.883C374.702 161.013 374.431 161.078 374.145 161.078C373.569 161.078 373.111 160.887 372.77 160.504C372.431 160.118 372.262 159.592 372.262 158.926V158.805C372.262 158.393 372.337 158.027 372.488 157.707C372.639 157.387 372.855 157.138 373.137 156.961C373.421 156.784 373.755 156.695 374.141 156.695C374.615 156.695 375.008 156.837 375.32 157.121C375.635 157.405 375.803 157.773 375.824 158.227H375.141C375.12 157.953 375.016 157.729 374.828 157.555C374.643 157.378 374.414 157.289 374.141 157.289C373.773 157.289 373.488 157.422 373.285 157.688C373.085 157.951 372.984 158.332 372.984 158.832V158.969C372.984 159.456 373.085 159.831 373.285 160.094C373.486 160.357 373.772 160.488 374.145 160.488Z" fill="black"/>
<path d="M135.532 146.738C135.341 146.706 135.133 146.69 134.91 146.69C134.081 146.69 133.518 147.044 133.222 147.75V153H131.957V145.604H133.188L133.208 146.458C133.623 145.797 134.211 145.467 134.972 145.467C135.218 145.467 135.405 145.499 135.532 145.562V146.738ZM137.076 153H136.354V147H137.076V153Z" fill="#FF0000"/>
<path d="M260.649 157.24C260.649 156.105 260.918 155.194 261.456 154.506C261.994 153.813 262.698 153.467 263.568 153.467C264.434 153.467 265.12 153.763 265.626 154.355V150.5H266.891V161H265.729L265.667 160.207C265.161 160.827 264.457 161.137 263.555 161.137C262.698 161.137 261.998 160.786 261.456 160.084C260.918 159.382 260.649 158.466 260.649 157.336V157.24ZM261.914 157.384C261.914 158.222 262.087 158.879 262.434 159.353C262.78 159.826 263.258 160.063 263.869 160.063C264.671 160.063 265.257 159.703 265.626 158.983V155.586C265.248 154.889 264.667 154.54 263.883 154.54C263.263 154.54 262.78 154.779 262.434 155.258C262.087 155.736 261.914 156.445 261.914 157.384ZM269.234 161H268.512V155H269.234V161Z" fill="#FF0000"/>
</svg>
