<svg width="536" height="196" viewBox="0 0 536 196" fill="none" xmlns="http://www.w3.org/2000/svg">
<path d="M442.5 51.5L369.5 125.5L53.5 73.5L442.5 51.5Z" fill="#FF9900" fill-opacity="0.12"/>
<path d="M0 14H55.5L48.285 85.5L55.5 124L42.18 149L48.285 190H0V14Z" fill="#C4C4C4"/>
<path d="M428 106.843V43.2307L461 15.0836V75.784L428 106.843Z" stroke="black"/>
<path d="M352.5 179.843V116.231L385.5 88.0836V148.784L352.5 179.843Z" stroke="black"/>
<line x1="51.0807" y1="73.5066" x2="369.081" y2="125.507" stroke="#FF0000"/>
<line x1="50.9719" y1="73.5008" x2="441.972" y2="51.5008" stroke="#0029FF"/>
<circle cx="442.5" cy="51.5" r="2.5" fill="#0029FF"/>
<circle cx="369.5" cy="125.5" r="2.5" fill="#FF0000"/>
<circle cx="51.5" cy="73.5" r="2.5" fill="black"/>
<circle cx="51.5" cy="73.5" r="2.5" fill="black"/>
<line x1="368.656" y1="133.637" x2="443.656" y2="62.6369" stroke="black" stroke-dasharray="2 2"/>
<line x1="255.074" y1="116.505" x2="369.074" y2="133.505" stroke="#FF0000" stroke-dasharray="2 2"/>
<line x1="369.06" y1="133.504" x2="394.06" y2="136.504" stroke="#FF0000" stroke-dasharray="2 2"/>
<line x1="444.06" y1="62.5036" x2="469.06" y2="65.5036" stroke="#0029FF" stroke-dasharray="2 2"/>
<line x1="327.047" y1="51.5022" x2="444.047" y2="62.5022" stroke="#0029FF" stroke-dasharray="2 2"/>
<path d="M369.164 180.08V181H364.898V180.08H369.164ZM365.121 172.469V181H363.99V172.469H365.121ZM372.926 181.117C372.484 181.117 372.084 181.043 371.725 180.895C371.369 180.742 371.062 180.529 370.805 180.256C370.551 179.982 370.355 179.658 370.219 179.283C370.082 178.908 370.014 178.498 370.014 178.053V177.807C370.014 177.291 370.09 176.832 370.242 176.43C370.395 176.023 370.602 175.68 370.863 175.398C371.125 175.117 371.422 174.904 371.754 174.76C372.086 174.615 372.43 174.543 372.785 174.543C373.238 174.543 373.629 174.621 373.957 174.777C374.289 174.934 374.561 175.152 374.771 175.434C374.982 175.711 375.139 176.039 375.24 176.418C375.342 176.793 375.393 177.203 375.393 177.648V178.135H370.658V177.25H374.309V177.168C374.293 176.887 374.234 176.613 374.133 176.348C374.035 176.082 373.879 175.863 373.664 175.691C373.449 175.52 373.156 175.434 372.785 175.434C372.539 175.434 372.312 175.486 372.105 175.592C371.898 175.693 371.721 175.846 371.572 176.049C371.424 176.252 371.309 176.5 371.227 176.793C371.145 177.086 371.104 177.424 371.104 177.807V178.053C371.104 178.354 371.145 178.637 371.227 178.902C371.312 179.164 371.436 179.395 371.596 179.594C371.76 179.793 371.957 179.949 372.188 180.062C372.422 180.176 372.688 180.232 372.984 180.232C373.367 180.232 373.691 180.154 373.957 179.998C374.223 179.842 374.455 179.633 374.654 179.371L375.311 179.893C375.174 180.1 375 180.297 374.789 180.484C374.578 180.672 374.318 180.824 374.01 180.941C373.705 181.059 373.344 181.117 372.926 181.117ZM378.275 181H377.191V173.992C377.191 173.535 377.273 173.15 377.438 172.838C377.605 172.521 377.846 172.283 378.158 172.123C378.471 171.959 378.842 171.877 379.271 171.877C379.396 171.877 379.521 171.885 379.646 171.9C379.775 171.916 379.9 171.939 380.021 171.971L379.963 172.855C379.881 172.836 379.787 172.822 379.682 172.814C379.58 172.807 379.479 172.803 379.377 172.803C379.146 172.803 378.947 172.85 378.779 172.943C378.615 173.033 378.49 173.166 378.404 173.342C378.318 173.518 378.275 173.734 378.275 173.992V181ZM379.623 174.66V175.492H376.189V174.66H379.623ZM383.484 174.66V175.492H380.057V174.66H383.484ZM381.217 173.119H382.301V179.43C382.301 179.645 382.334 179.807 382.4 179.916C382.467 180.025 382.553 180.098 382.658 180.133C382.764 180.168 382.877 180.186 382.998 180.186C383.088 180.186 383.182 180.178 383.279 180.162C383.381 180.143 383.457 180.127 383.508 180.115L383.514 181C383.428 181.027 383.314 181.053 383.174 181.076C383.037 181.104 382.871 181.117 382.676 181.117C382.41 181.117 382.166 181.064 381.943 180.959C381.721 180.854 381.543 180.678 381.41 180.432C381.281 180.182 381.217 179.846 381.217 179.424V173.119ZM389.109 172.469V181H387.979V172.469H389.109ZM392.08 175.92V181H390.99V174.66H392.021L392.08 175.92ZM391.857 177.59L391.354 177.572C391.357 177.139 391.414 176.738 391.523 176.371C391.633 176 391.795 175.678 392.01 175.404C392.225 175.131 392.492 174.92 392.812 174.771C393.133 174.619 393.504 174.543 393.926 174.543C394.223 174.543 394.496 174.586 394.746 174.672C394.996 174.754 395.213 174.885 395.396 175.064C395.58 175.244 395.723 175.475 395.824 175.756C395.926 176.037 395.977 176.377 395.977 176.775V181H394.893V176.828C394.893 176.496 394.836 176.23 394.723 176.031C394.613 175.832 394.457 175.688 394.254 175.598C394.051 175.504 393.812 175.457 393.539 175.457C393.219 175.457 392.951 175.514 392.736 175.627C392.521 175.74 392.35 175.896 392.221 176.096C392.092 176.295 391.998 176.523 391.939 176.781C391.885 177.035 391.857 177.305 391.857 177.59ZM395.965 176.992L395.238 177.215C395.242 176.867 395.299 176.533 395.408 176.213C395.521 175.893 395.684 175.607 395.895 175.357C396.109 175.107 396.373 174.91 396.686 174.766C396.998 174.617 397.355 174.543 397.758 174.543C398.098 174.543 398.398 174.588 398.66 174.678C398.926 174.768 399.148 174.906 399.328 175.094C399.512 175.277 399.65 175.514 399.744 175.803C399.838 176.092 399.885 176.436 399.885 176.834V181H398.795V176.822C398.795 176.467 398.738 176.191 398.625 175.996C398.516 175.797 398.359 175.658 398.156 175.58C397.957 175.498 397.719 175.457 397.441 175.457C397.203 175.457 396.992 175.498 396.809 175.58C396.625 175.662 396.471 175.775 396.346 175.92C396.221 176.061 396.125 176.223 396.059 176.406C395.996 176.59 395.965 176.785 395.965 176.992ZM405.264 179.916V176.652C405.264 176.402 405.213 176.186 405.111 176.002C405.014 175.814 404.865 175.67 404.666 175.568C404.467 175.467 404.221 175.416 403.928 175.416C403.654 175.416 403.414 175.463 403.207 175.557C403.004 175.65 402.844 175.773 402.727 175.926C402.613 176.078 402.557 176.242 402.557 176.418H401.473C401.473 176.191 401.531 175.967 401.648 175.744C401.766 175.521 401.934 175.32 402.152 175.141C402.375 174.957 402.641 174.812 402.949 174.707C403.262 174.598 403.609 174.543 403.992 174.543C404.453 174.543 404.859 174.621 405.211 174.777C405.566 174.934 405.844 175.17 406.043 175.486C406.246 175.799 406.348 176.191 406.348 176.664V179.617C406.348 179.828 406.365 180.053 406.4 180.291C406.439 180.529 406.496 180.734 406.57 180.906V181H405.439C405.385 180.875 405.342 180.709 405.311 180.502C405.279 180.291 405.264 180.096 405.264 179.916ZM405.451 177.156L405.463 177.918H404.367C404.059 177.918 403.783 177.943 403.541 177.994C403.299 178.041 403.096 178.113 402.932 178.211C402.768 178.309 402.643 178.432 402.557 178.58C402.471 178.725 402.428 178.895 402.428 179.09C402.428 179.289 402.473 179.471 402.562 179.635C402.652 179.799 402.787 179.93 402.967 180.027C403.15 180.121 403.375 180.168 403.641 180.168C403.973 180.168 404.266 180.098 404.52 179.957C404.773 179.816 404.975 179.645 405.123 179.441C405.275 179.238 405.357 179.041 405.369 178.85L405.832 179.371C405.805 179.535 405.73 179.717 405.609 179.916C405.488 180.115 405.326 180.307 405.123 180.49C404.924 180.67 404.686 180.82 404.408 180.941C404.135 181.059 403.826 181.117 403.482 181.117C403.053 181.117 402.676 181.033 402.352 180.865C402.031 180.697 401.781 180.473 401.602 180.191C401.426 179.906 401.338 179.588 401.338 179.236C401.338 178.896 401.404 178.598 401.537 178.34C401.67 178.078 401.861 177.861 402.111 177.689C402.361 177.514 402.662 177.381 403.014 177.291C403.365 177.201 403.758 177.156 404.191 177.156H405.451ZM412.16 174.66H413.145V180.865C413.145 181.424 413.031 181.9 412.805 182.295C412.578 182.689 412.262 182.988 411.855 183.191C411.453 183.398 410.988 183.502 410.461 183.502C410.242 183.502 409.984 183.467 409.688 183.396C409.395 183.33 409.105 183.215 408.82 183.051C408.539 182.891 408.303 182.674 408.111 182.4L408.68 181.756C408.945 182.076 409.223 182.299 409.512 182.424C409.805 182.549 410.094 182.611 410.379 182.611C410.723 182.611 411.02 182.547 411.27 182.418C411.52 182.289 411.713 182.098 411.85 181.844C411.99 181.594 412.061 181.285 412.061 180.918V176.055L412.16 174.66ZM407.795 177.9V177.777C407.795 177.293 407.852 176.854 407.965 176.459C408.082 176.061 408.248 175.719 408.463 175.434C408.682 175.148 408.945 174.93 409.254 174.777C409.562 174.621 409.91 174.543 410.297 174.543C410.695 174.543 411.043 174.613 411.34 174.754C411.641 174.891 411.895 175.092 412.102 175.357C412.312 175.619 412.479 175.936 412.6 176.307C412.721 176.678 412.805 177.098 412.852 177.566V178.105C412.809 178.57 412.725 178.988 412.6 179.359C412.479 179.73 412.312 180.047 412.102 180.309C411.895 180.57 411.641 180.771 411.34 180.912C411.039 181.049 410.688 181.117 410.285 181.117C409.906 181.117 409.562 181.037 409.254 180.877C408.949 180.717 408.688 180.492 408.469 180.203C408.25 179.914 408.082 179.574 407.965 179.184C407.852 178.789 407.795 178.361 407.795 177.9ZM408.879 177.777V177.9C408.879 178.217 408.91 178.514 408.973 178.791C409.039 179.068 409.139 179.312 409.271 179.523C409.408 179.734 409.582 179.9 409.793 180.021C410.004 180.139 410.256 180.197 410.549 180.197C410.908 180.197 411.205 180.121 411.439 179.969C411.674 179.816 411.859 179.615 411.996 179.365C412.137 179.115 412.246 178.844 412.324 178.551V177.139C412.281 176.924 412.215 176.717 412.125 176.518C412.039 176.314 411.926 176.135 411.785 175.979C411.648 175.818 411.479 175.691 411.275 175.598C411.072 175.504 410.834 175.457 410.561 175.457C410.264 175.457 410.008 175.52 409.793 175.645C409.582 175.766 409.408 175.934 409.271 176.148C409.139 176.359 409.039 176.605 408.973 176.887C408.91 177.164 408.879 177.461 408.879 177.777ZM417.422 181.117C416.98 181.117 416.58 181.043 416.221 180.895C415.865 180.742 415.559 180.529 415.301 180.256C415.047 179.982 414.852 179.658 414.715 179.283C414.578 178.908 414.51 178.498 414.51 178.053V177.807C414.51 177.291 414.586 176.832 414.738 176.43C414.891 176.023 415.098 175.68 415.359 175.398C415.621 175.117 415.918 174.904 416.25 174.76C416.582 174.615 416.926 174.543 417.281 174.543C417.734 174.543 418.125 174.621 418.453 174.777C418.785 174.934 419.057 175.152 419.268 175.434C419.479 175.711 419.635 176.039 419.736 176.418C419.838 176.793 419.889 177.203 419.889 177.648V178.135H415.154V177.25H418.805V177.168C418.789 176.887 418.73 176.613 418.629 176.348C418.531 176.082 418.375 175.863 418.16 175.691C417.945 175.52 417.652 175.434 417.281 175.434C417.035 175.434 416.809 175.486 416.602 175.592C416.395 175.693 416.217 175.846 416.068 176.049C415.92 176.252 415.805 176.5 415.723 176.793C415.641 177.086 415.6 177.424 415.6 177.807V178.053C415.6 178.354 415.641 178.637 415.723 178.902C415.809 179.164 415.932 179.395 416.092 179.594C416.256 179.793 416.453 179.949 416.684 180.062C416.918 180.176 417.184 180.232 417.48 180.232C417.863 180.232 418.188 180.154 418.453 179.998C418.719 179.842 418.951 179.633 419.15 179.371L419.807 179.893C419.67 180.1 419.496 180.297 419.285 180.484C419.074 180.672 418.814 180.824 418.506 180.941C418.201 181.059 417.84 181.117 417.422 181.117ZM367.137 191.654H364.857V190.734H367.137C367.578 190.734 367.936 190.664 368.209 190.523C368.482 190.383 368.682 190.188 368.807 189.938C368.936 189.688 369 189.402 369 189.082C369 188.789 368.936 188.514 368.807 188.256C368.682 187.998 368.482 187.791 368.209 187.635C367.936 187.475 367.578 187.395 367.137 187.395H365.121V195H363.99V186.469H367.137C367.781 186.469 368.326 186.58 368.771 186.803C369.217 187.025 369.555 187.334 369.785 187.729C370.016 188.119 370.131 188.566 370.131 189.07C370.131 189.617 370.016 190.084 369.785 190.471C369.555 190.857 369.217 191.152 368.771 191.355C368.326 191.555 367.781 191.654 367.137 191.654ZM372.574 186V195H371.484V186H372.574ZM378.053 193.916V190.652C378.053 190.402 378.002 190.186 377.9 190.002C377.803 189.814 377.654 189.67 377.455 189.568C377.256 189.467 377.01 189.416 376.717 189.416C376.443 189.416 376.203 189.463 375.996 189.557C375.793 189.65 375.633 189.773 375.516 189.926C375.402 190.078 375.346 190.242 375.346 190.418H374.262C374.262 190.191 374.32 189.967 374.438 189.744C374.555 189.521 374.723 189.32 374.941 189.141C375.164 188.957 375.43 188.812 375.738 188.707C376.051 188.598 376.398 188.543 376.781 188.543C377.242 188.543 377.648 188.621 378 188.777C378.355 188.934 378.633 189.17 378.832 189.486C379.035 189.799 379.137 190.191 379.137 190.664V193.617C379.137 193.828 379.154 194.053 379.189 194.291C379.229 194.529 379.285 194.734 379.359 194.906V195H378.229C378.174 194.875 378.131 194.709 378.1 194.502C378.068 194.291 378.053 194.096 378.053 193.916ZM378.24 191.156L378.252 191.918H377.156C376.848 191.918 376.572 191.943 376.33 191.994C376.088 192.041 375.885 192.113 375.721 192.211C375.557 192.309 375.432 192.432 375.346 192.58C375.26 192.725 375.217 192.895 375.217 193.09C375.217 193.289 375.262 193.471 375.352 193.635C375.441 193.799 375.576 193.93 375.756 194.027C375.939 194.121 376.164 194.168 376.43 194.168C376.762 194.168 377.055 194.098 377.309 193.957C377.562 193.816 377.764 193.645 377.912 193.441C378.064 193.238 378.146 193.041 378.158 192.85L378.621 193.371C378.594 193.535 378.52 193.717 378.398 193.916C378.277 194.115 378.115 194.307 377.912 194.49C377.713 194.67 377.475 194.82 377.197 194.941C376.924 195.059 376.615 195.117 376.271 195.117C375.842 195.117 375.465 195.033 375.141 194.865C374.82 194.697 374.57 194.473 374.391 194.191C374.215 193.906 374.127 193.588 374.127 193.236C374.127 192.896 374.193 192.598 374.326 192.34C374.459 192.078 374.65 191.861 374.9 191.689C375.15 191.514 375.451 191.381 375.803 191.291C376.154 191.201 376.547 191.156 376.98 191.156H378.24ZM381.926 190.014V195H380.842V188.66H381.867L381.926 190.014ZM381.668 191.59L381.217 191.572C381.221 191.139 381.285 190.738 381.41 190.371C381.535 190 381.711 189.678 381.938 189.404C382.164 189.131 382.434 188.92 382.746 188.771C383.062 188.619 383.412 188.543 383.795 188.543C384.107 188.543 384.389 188.586 384.639 188.672C384.889 188.754 385.102 188.887 385.277 189.07C385.457 189.254 385.594 189.492 385.688 189.785C385.781 190.074 385.828 190.428 385.828 190.846V195H384.738V190.834C384.738 190.502 384.689 190.236 384.592 190.037C384.494 189.834 384.352 189.688 384.164 189.598C383.977 189.504 383.746 189.457 383.473 189.457C383.203 189.457 382.957 189.514 382.734 189.627C382.516 189.74 382.326 189.896 382.166 190.096C382.01 190.295 381.887 190.523 381.797 190.781C381.711 191.035 381.668 191.305 381.668 191.59ZM390.105 195.117C389.664 195.117 389.264 195.043 388.904 194.895C388.549 194.742 388.242 194.529 387.984 194.256C387.73 193.982 387.535 193.658 387.398 193.283C387.262 192.908 387.193 192.498 387.193 192.053V191.807C387.193 191.291 387.27 190.832 387.422 190.43C387.574 190.023 387.781 189.68 388.043 189.398C388.305 189.117 388.602 188.904 388.934 188.76C389.266 188.615 389.609 188.543 389.965 188.543C390.418 188.543 390.809 188.621 391.137 188.777C391.469 188.934 391.74 189.152 391.951 189.434C392.162 189.711 392.318 190.039 392.42 190.418C392.521 190.793 392.572 191.203 392.572 191.648V192.135H387.838V191.25H391.488V191.168C391.473 190.887 391.414 190.613 391.312 190.348C391.215 190.082 391.059 189.863 390.844 189.691C390.629 189.52 390.336 189.434 389.965 189.434C389.719 189.434 389.492 189.486 389.285 189.592C389.078 189.693 388.9 189.846 388.752 190.049C388.604 190.252 388.488 190.5 388.406 190.793C388.324 191.086 388.283 191.424 388.283 191.807V192.053C388.283 192.354 388.324 192.637 388.406 192.902C388.492 193.164 388.615 193.395 388.775 193.594C388.939 193.793 389.137 193.949 389.367 194.062C389.602 194.176 389.867 194.232 390.164 194.232C390.547 194.232 390.871 194.154 391.137 193.998C391.402 193.842 391.635 193.633 391.834 193.371L392.49 193.893C392.354 194.1 392.18 194.297 391.969 194.484C391.758 194.672 391.498 194.824 391.189 194.941C390.885 195.059 390.523 195.117 390.105 195.117Z" fill="black"/>
<path d="M464.99 17.4688H467.814C468.455 17.4688 468.996 17.5664 469.438 17.7617C469.883 17.957 470.221 18.2461 470.451 18.6289C470.686 19.0078 470.803 19.4746 470.803 20.0293C470.803 20.4199 470.723 20.7773 470.562 21.1016C470.406 21.4219 470.18 21.6953 469.883 21.9219C469.59 22.1445 469.238 22.3105 468.828 22.4199L468.512 22.543H465.857L465.846 21.623H467.85C468.256 21.623 468.594 21.5527 468.863 21.4121C469.133 21.2676 469.336 21.0742 469.473 20.832C469.609 20.5898 469.678 20.3223 469.678 20.0293C469.678 19.7012 469.613 19.4141 469.484 19.168C469.355 18.9219 469.152 18.7324 468.875 18.5996C468.602 18.4629 468.248 18.3945 467.814 18.3945H466.121V26H464.99V17.4688ZM469.977 26L467.902 22.1328L469.08 22.127L471.184 25.9297V26H469.977ZM473.398 19.6602V26H472.309V19.6602H473.398ZM472.227 17.9785C472.227 17.8027 472.279 17.6543 472.385 17.5332C472.494 17.4121 472.654 17.3516 472.865 17.3516C473.072 17.3516 473.23 17.4121 473.34 17.5332C473.453 17.6543 473.51 17.8027 473.51 17.9785C473.51 18.1465 473.453 18.291 473.34 18.4121C473.23 18.5293 473.072 18.5879 472.865 18.5879C472.654 18.5879 472.494 18.5293 472.385 18.4121C472.279 18.291 472.227 18.1465 472.227 17.9785ZM479.246 19.6602H480.23V25.8652C480.23 26.4238 480.117 26.9004 479.891 27.2949C479.664 27.6895 479.348 27.9883 478.941 28.1914C478.539 28.3984 478.074 28.502 477.547 28.502C477.328 28.502 477.07 28.4668 476.773 28.3965C476.48 28.3301 476.191 28.2148 475.906 28.0508C475.625 27.8906 475.389 27.6738 475.197 27.4004L475.766 26.7559C476.031 27.0762 476.309 27.2988 476.598 27.4238C476.891 27.5488 477.18 27.6113 477.465 27.6113C477.809 27.6113 478.105 27.5469 478.355 27.418C478.605 27.2891 478.799 27.0977 478.936 26.8438C479.076 26.5938 479.146 26.2852 479.146 25.918V21.0547L479.246 19.6602ZM474.881 22.9004V22.7773C474.881 22.293 474.938 21.8535 475.051 21.459C475.168 21.0605 475.334 20.7188 475.549 20.4336C475.768 20.1484 476.031 19.9297 476.34 19.7773C476.648 19.6211 476.996 19.543 477.383 19.543C477.781 19.543 478.129 19.6133 478.426 19.7539C478.727 19.8906 478.98 20.0918 479.188 20.3574C479.398 20.6191 479.564 20.9355 479.686 21.3066C479.807 21.6777 479.891 22.0977 479.938 22.5664V23.1055C479.895 23.5703 479.811 23.9883 479.686 24.3594C479.564 24.7305 479.398 25.0469 479.188 25.3086C478.98 25.5703 478.727 25.7715 478.426 25.9121C478.125 26.0488 477.773 26.1172 477.371 26.1172C476.992 26.1172 476.648 26.0371 476.34 25.877C476.035 25.7168 475.773 25.4922 475.555 25.2031C475.336 24.9141 475.168 24.5742 475.051 24.1836C474.938 23.7891 474.881 23.3613 474.881 22.9004ZM475.965 22.7773V22.9004C475.965 23.2168 475.996 23.5137 476.059 23.791C476.125 24.0684 476.225 24.3125 476.357 24.5234C476.494 24.7344 476.668 24.9004 476.879 25.0215C477.09 25.1387 477.342 25.1973 477.635 25.1973C477.994 25.1973 478.291 25.1211 478.525 24.9688C478.76 24.8164 478.945 24.6152 479.082 24.3652C479.223 24.1152 479.332 23.8438 479.41 23.5508V22.1387C479.367 21.9238 479.301 21.7168 479.211 21.5176C479.125 21.3145 479.012 21.1348 478.871 20.9785C478.734 20.8184 478.564 20.6914 478.361 20.5977C478.158 20.5039 477.92 20.457 477.646 20.457C477.35 20.457 477.094 20.5195 476.879 20.6445C476.668 20.7656 476.494 20.9336 476.357 21.1484C476.225 21.3594 476.125 21.6055 476.059 21.8867C475.996 22.1641 475.965 22.4609 475.965 22.7773ZM482.961 17V26H481.877V17H482.961ZM482.703 22.5898L482.252 22.5723C482.256 22.1387 482.32 21.7383 482.445 21.3711C482.57 21 482.746 20.6777 482.973 20.4043C483.199 20.1309 483.469 19.9199 483.781 19.7715C484.098 19.6191 484.447 19.543 484.83 19.543C485.143 19.543 485.424 19.5859 485.674 19.6719C485.924 19.7539 486.137 19.8867 486.312 20.0703C486.492 20.2539 486.629 20.4922 486.723 20.7852C486.816 21.0742 486.863 21.4277 486.863 21.8457V26H485.773V21.834C485.773 21.502 485.725 21.2363 485.627 21.0371C485.529 20.834 485.387 20.6875 485.199 20.5977C485.012 20.5039 484.781 20.457 484.508 20.457C484.238 20.457 483.992 20.5137 483.77 20.627C483.551 20.7402 483.361 20.8965 483.201 21.0957C483.045 21.2949 482.922 21.5234 482.832 21.7812C482.746 22.0352 482.703 22.3047 482.703 22.5898ZM491.141 19.6602V20.4922H487.713V19.6602H491.141ZM488.873 18.1191H489.957V24.4297C489.957 24.6445 489.99 24.8066 490.057 24.916C490.123 25.0254 490.209 25.0977 490.314 25.1328C490.42 25.168 490.533 25.1855 490.654 25.1855C490.744 25.1855 490.838 25.1777 490.936 25.1621C491.037 25.1426 491.113 25.127 491.164 25.1152L491.17 26C491.084 26.0273 490.971 26.0527 490.83 26.0762C490.693 26.1035 490.527 26.1172 490.332 26.1172C490.066 26.1172 489.822 26.0645 489.6 25.959C489.377 25.8535 489.199 25.6777 489.066 25.4316C488.938 25.1816 488.873 24.8457 488.873 24.4238V18.1191ZM496.766 17.4688V26H495.635V17.4688H496.766ZM499.736 20.9199V26H498.646V19.6602H499.678L499.736 20.9199ZM499.514 22.5898L499.01 22.5723C499.014 22.1387 499.07 21.7383 499.18 21.3711C499.289 21 499.451 20.6777 499.666 20.4043C499.881 20.1309 500.148 19.9199 500.469 19.7715C500.789 19.6191 501.16 19.543 501.582 19.543C501.879 19.543 502.152 19.5859 502.402 19.6719C502.652 19.7539 502.869 19.8848 503.053 20.0645C503.236 20.2441 503.379 20.4746 503.48 20.7559C503.582 21.0371 503.633 21.377 503.633 21.7754V26H502.549V21.8281C502.549 21.4961 502.492 21.2305 502.379 21.0312C502.27 20.832 502.113 20.6875 501.91 20.5977C501.707 20.5039 501.469 20.457 501.195 20.457C500.875 20.457 500.607 20.5137 500.393 20.627C500.178 20.7402 500.006 20.8965 499.877 21.0957C499.748 21.2949 499.654 21.5234 499.596 21.7812C499.541 22.0352 499.514 22.3047 499.514 22.5898ZM503.621 21.9922L502.895 22.2148C502.898 21.8672 502.955 21.5332 503.064 21.2129C503.178 20.8926 503.34 20.6074 503.551 20.3574C503.766 20.1074 504.029 19.9102 504.342 19.7656C504.654 19.6172 505.012 19.543 505.414 19.543C505.754 19.543 506.055 19.5879 506.316 19.6777C506.582 19.7676 506.805 19.9062 506.984 20.0938C507.168 20.2773 507.307 20.5137 507.4 20.8027C507.494 21.0918 507.541 21.4355 507.541 21.834V26H506.451V21.8223C506.451 21.4668 506.395 21.1914 506.281 20.9961C506.172 20.7969 506.016 20.6582 505.812 20.5801C505.613 20.498 505.375 20.457 505.098 20.457C504.859 20.457 504.648 20.498 504.465 20.5801C504.281 20.6621 504.127 20.7754 504.002 20.9199C503.877 21.0605 503.781 21.2227 503.715 21.4062C503.652 21.5898 503.621 21.7852 503.621 21.9922ZM512.92 24.916V21.6523C512.92 21.4023 512.869 21.1855 512.768 21.002C512.67 20.8145 512.521 20.6699 512.322 20.5684C512.123 20.4668 511.877 20.416 511.584 20.416C511.311 20.416 511.07 20.4629 510.863 20.5566C510.66 20.6504 510.5 20.7734 510.383 20.9258C510.27 21.0781 510.213 21.2422 510.213 21.418H509.129C509.129 21.1914 509.188 20.9668 509.305 20.7441C509.422 20.5215 509.59 20.3203 509.809 20.1406C510.031 19.957 510.297 19.8125 510.605 19.707C510.918 19.5977 511.266 19.543 511.648 19.543C512.109 19.543 512.516 19.6211 512.867 19.7773C513.223 19.9336 513.5 20.1699 513.699 20.4863C513.902 20.7988 514.004 21.1914 514.004 21.6641V24.6172C514.004 24.8281 514.021 25.0527 514.057 25.291C514.096 25.5293 514.152 25.7344 514.227 25.9062V26H513.096C513.041 25.875 512.998 25.709 512.967 25.502C512.936 25.291 512.92 25.0957 512.92 24.916ZM513.107 22.1562L513.119 22.918H512.023C511.715 22.918 511.439 22.9434 511.197 22.9941C510.955 23.041 510.752 23.1133 510.588 23.2109C510.424 23.3086 510.299 23.4316 510.213 23.5801C510.127 23.7246 510.084 23.8945 510.084 24.0898C510.084 24.2891 510.129 24.4707 510.219 24.6348C510.309 24.7988 510.443 24.9297 510.623 25.0273C510.807 25.1211 511.031 25.168 511.297 25.168C511.629 25.168 511.922 25.0977 512.176 24.957C512.43 24.8164 512.631 24.6445 512.779 24.4414C512.932 24.2383 513.014 24.041 513.025 23.8496L513.488 24.3711C513.461 24.5352 513.387 24.7168 513.266 24.916C513.145 25.1152 512.982 25.3066 512.779 25.4902C512.58 25.6699 512.342 25.8203 512.064 25.9414C511.791 26.0586 511.482 26.1172 511.139 26.1172C510.709 26.1172 510.332 26.0332 510.008 25.8652C509.688 25.6973 509.438 25.4727 509.258 25.1914C509.082 24.9062 508.994 24.5879 508.994 24.2363C508.994 23.8965 509.061 23.5977 509.193 23.3398C509.326 23.0781 509.518 22.8613 509.768 22.6895C510.018 22.5137 510.318 22.3809 510.67 22.291C511.021 22.2012 511.414 22.1562 511.848 22.1562H513.107ZM519.816 19.6602H520.801V25.8652C520.801 26.4238 520.688 26.9004 520.461 27.2949C520.234 27.6895 519.918 27.9883 519.512 28.1914C519.109 28.3984 518.645 28.502 518.117 28.502C517.898 28.502 517.641 28.4668 517.344 28.3965C517.051 28.3301 516.762 28.2148 516.477 28.0508C516.195 27.8906 515.959 27.6738 515.768 27.4004L516.336 26.7559C516.602 27.0762 516.879 27.2988 517.168 27.4238C517.461 27.5488 517.75 27.6113 518.035 27.6113C518.379 27.6113 518.676 27.5469 518.926 27.418C519.176 27.2891 519.369 27.0977 519.506 26.8438C519.646 26.5938 519.717 26.2852 519.717 25.918V21.0547L519.816 19.6602ZM515.451 22.9004V22.7773C515.451 22.293 515.508 21.8535 515.621 21.459C515.738 21.0605 515.904 20.7188 516.119 20.4336C516.338 20.1484 516.602 19.9297 516.91 19.7773C517.219 19.6211 517.566 19.543 517.953 19.543C518.352 19.543 518.699 19.6133 518.996 19.7539C519.297 19.8906 519.551 20.0918 519.758 20.3574C519.969 20.6191 520.135 20.9355 520.256 21.3066C520.377 21.6777 520.461 22.0977 520.508 22.5664V23.1055C520.465 23.5703 520.381 23.9883 520.256 24.3594C520.135 24.7305 519.969 25.0469 519.758 25.3086C519.551 25.5703 519.297 25.7715 518.996 25.9121C518.695 26.0488 518.344 26.1172 517.941 26.1172C517.562 26.1172 517.219 26.0371 516.91 25.877C516.605 25.7168 516.344 25.4922 516.125 25.2031C515.906 24.9141 515.738 24.5742 515.621 24.1836C515.508 23.7891 515.451 23.3613 515.451 22.9004ZM516.535 22.7773V22.9004C516.535 23.2168 516.566 23.5137 516.629 23.791C516.695 24.0684 516.795 24.3125 516.928 24.5234C517.064 24.7344 517.238 24.9004 517.449 25.0215C517.66 25.1387 517.912 25.1973 518.205 25.1973C518.564 25.1973 518.861 25.1211 519.096 24.9688C519.33 24.8164 519.516 24.6152 519.652 24.3652C519.793 24.1152 519.902 23.8438 519.98 23.5508V22.1387C519.938 21.9238 519.871 21.7168 519.781 21.5176C519.695 21.3145 519.582 21.1348 519.441 20.9785C519.305 20.8184 519.135 20.6914 518.932 20.5977C518.729 20.5039 518.49 20.457 518.217 20.457C517.92 20.457 517.664 20.5195 517.449 20.6445C517.238 20.7656 517.064 20.9336 516.928 21.1484C516.795 21.3594 516.695 21.6055 516.629 21.8867C516.566 22.1641 516.535 22.4609 516.535 22.7773ZM525.078 26.1172C524.637 26.1172 524.236 26.043 523.877 25.8945C523.521 25.7422 523.215 25.5293 522.957 25.2559C522.703 24.9824 522.508 24.6582 522.371 24.2832C522.234 23.9082 522.166 23.498 522.166 23.0527V22.8066C522.166 22.291 522.242 21.832 522.395 21.4297C522.547 21.0234 522.754 20.6797 523.016 20.3984C523.277 20.1172 523.574 19.9043 523.906 19.7598C524.238 19.6152 524.582 19.543 524.938 19.543C525.391 19.543 525.781 19.6211 526.109 19.7773C526.441 19.9336 526.713 20.1523 526.924 20.4336C527.135 20.7109 527.291 21.0391 527.393 21.418C527.494 21.793 527.545 22.2031 527.545 22.6484V23.1348H522.811V22.25H526.461V22.168C526.445 21.8867 526.387 21.6133 526.285 21.3477C526.188 21.082 526.031 20.8633 525.816 20.6914C525.602 20.5195 525.309 20.4336 524.938 20.4336C524.691 20.4336 524.465 20.4863 524.258 20.5918C524.051 20.6934 523.873 20.8457 523.725 21.0488C523.576 21.252 523.461 21.5 523.379 21.793C523.297 22.0859 523.256 22.4238 523.256 22.8066V23.0527C523.256 23.3535 523.297 23.6367 523.379 23.9023C523.465 24.1641 523.588 24.3945 523.748 24.5938C523.912 24.793 524.109 24.9492 524.34 25.0625C524.574 25.1758 524.84 25.2324 525.137 25.2324C525.52 25.2324 525.844 25.1543 526.109 24.998C526.375 24.8418 526.607 24.6328 526.807 24.3711L527.463 24.8926C527.326 25.0996 527.152 25.2969 526.941 25.4844C526.73 25.6719 526.471 25.8242 526.162 25.9414C525.857 26.0586 525.496 26.1172 525.078 26.1172ZM468.137 36.6543H465.857V35.7344H468.137C468.578 35.7344 468.936 35.6641 469.209 35.5234C469.482 35.3828 469.682 35.1875 469.807 34.9375C469.936 34.6875 470 34.4023 470 34.082C470 33.7891 469.936 33.5137 469.807 33.2559C469.682 32.998 469.482 32.791 469.209 32.6348C468.936 32.4746 468.578 32.3945 468.137 32.3945H466.121V40H464.99V31.4688H468.137C468.781 31.4688 469.326 31.5801 469.771 31.8027C470.217 32.0254 470.555 32.334 470.785 32.7285C471.016 33.1191 471.131 33.5664 471.131 34.0703C471.131 34.6172 471.016 35.084 470.785 35.4707C470.555 35.8574 470.217 36.1523 469.771 36.3555C469.326 36.5547 468.781 36.6543 468.137 36.6543ZM473.574 31V40H472.484V31H473.574ZM479.053 38.916V35.6523C479.053 35.4023 479.002 35.1855 478.9 35.002C478.803 34.8145 478.654 34.6699 478.455 34.5684C478.256 34.4668 478.01 34.416 477.717 34.416C477.443 34.416 477.203 34.4629 476.996 34.5566C476.793 34.6504 476.633 34.7734 476.516 34.9258C476.402 35.0781 476.346 35.2422 476.346 35.418H475.262C475.262 35.1914 475.32 34.9668 475.438 34.7441C475.555 34.5215 475.723 34.3203 475.941 34.1406C476.164 33.957 476.43 33.8125 476.738 33.707C477.051 33.5977 477.398 33.543 477.781 33.543C478.242 33.543 478.648 33.6211 479 33.7773C479.355 33.9336 479.633 34.1699 479.832 34.4863C480.035 34.7988 480.137 35.1914 480.137 35.6641V38.6172C480.137 38.8281 480.154 39.0527 480.189 39.291C480.229 39.5293 480.285 39.7344 480.359 39.9062V40H479.229C479.174 39.875 479.131 39.709 479.1 39.502C479.068 39.291 479.053 39.0957 479.053 38.916ZM479.24 36.1562L479.252 36.918H478.156C477.848 36.918 477.572 36.9434 477.33 36.9941C477.088 37.041 476.885 37.1133 476.721 37.2109C476.557 37.3086 476.432 37.4316 476.346 37.5801C476.26 37.7246 476.217 37.8945 476.217 38.0898C476.217 38.2891 476.262 38.4707 476.352 38.6348C476.441 38.7988 476.576 38.9297 476.756 39.0273C476.939 39.1211 477.164 39.168 477.43 39.168C477.762 39.168 478.055 39.0977 478.309 38.957C478.562 38.8164 478.764 38.6445 478.912 38.4414C479.064 38.2383 479.146 38.041 479.158 37.8496L479.621 38.3711C479.594 38.5352 479.52 38.7168 479.398 38.916C479.277 39.1152 479.115 39.3066 478.912 39.4902C478.713 39.6699 478.475 39.8203 478.197 39.9414C477.924 40.0586 477.615 40.1172 477.271 40.1172C476.842 40.1172 476.465 40.0332 476.141 39.8652C475.82 39.6973 475.57 39.4727 475.391 39.1914C475.215 38.9062 475.127 38.5879 475.127 38.2363C475.127 37.8965 475.193 37.5977 475.326 37.3398C475.459 37.0781 475.65 36.8613 475.9 36.6895C476.15 36.5137 476.451 36.3809 476.803 36.291C477.154 36.2012 477.547 36.1562 477.98 36.1562H479.24ZM482.926 35.0137V40H481.842V33.6602H482.867L482.926 35.0137ZM482.668 36.5898L482.217 36.5723C482.221 36.1387 482.285 35.7383 482.41 35.3711C482.535 35 482.711 34.6777 482.938 34.4043C483.164 34.1309 483.434 33.9199 483.746 33.7715C484.062 33.6191 484.412 33.543 484.795 33.543C485.107 33.543 485.389 33.5859 485.639 33.6719C485.889 33.7539 486.102 33.8867 486.277 34.0703C486.457 34.2539 486.594 34.4922 486.688 34.7852C486.781 35.0742 486.828 35.4277 486.828 35.8457V40H485.738V35.834C485.738 35.502 485.689 35.2363 485.592 35.0371C485.494 34.834 485.352 34.6875 485.164 34.5977C484.977 34.5039 484.746 34.457 484.473 34.457C484.203 34.457 483.957 34.5137 483.734 34.627C483.516 34.7402 483.326 34.8965 483.166 35.0957C483.01 35.2949 482.887 35.5234 482.797 35.7812C482.711 36.0352 482.668 36.3047 482.668 36.5898ZM491.105 40.1172C490.664 40.1172 490.264 40.043 489.904 39.8945C489.549 39.7422 489.242 39.5293 488.984 39.2559C488.73 38.9824 488.535 38.6582 488.398 38.2832C488.262 37.9082 488.193 37.498 488.193 37.0527V36.8066C488.193 36.291 488.27 35.832 488.422 35.4297C488.574 35.0234 488.781 34.6797 489.043 34.3984C489.305 34.1172 489.602 33.9043 489.934 33.7598C490.266 33.6152 490.609 33.543 490.965 33.543C491.418 33.543 491.809 33.6211 492.137 33.7773C492.469 33.9336 492.74 34.1523 492.951 34.4336C493.162 34.7109 493.318 35.0391 493.42 35.418C493.521 35.793 493.572 36.2031 493.572 36.6484V37.1348H488.838V36.25H492.488V36.168C492.473 35.8867 492.414 35.6133 492.312 35.3477C492.215 35.082 492.059 34.8633 491.844 34.6914C491.629 34.5195 491.336 34.4336 490.965 34.4336C490.719 34.4336 490.492 34.4863 490.285 34.5918C490.078 34.6934 489.9 34.8457 489.752 35.0488C489.604 35.252 489.488 35.5 489.406 35.793C489.324 36.0859 489.283 36.4238 489.283 36.8066V37.0527C489.283 37.3535 489.324 37.6367 489.406 37.9023C489.492 38.1641 489.615 38.3945 489.775 38.5938C489.939 38.793 490.137 38.9492 490.367 39.0625C490.602 39.1758 490.867 39.2324 491.164 39.2324C491.547 39.2324 491.871 39.1543 492.137 38.998C492.402 38.8418 492.635 38.6328 492.834 38.3711L493.49 38.8926C493.354 39.0996 493.18 39.2969 492.969 39.4844C492.758 39.6719 492.498 39.8242 492.189 39.9414C491.885 40.0586 491.523 40.1172 491.105 40.1172Z" fill="black"/>
<path d="M294.164 138.08V139H289.898V138.08H294.164ZM290.121 130.469V139H288.99V130.469H290.121ZM297.926 139.117C297.484 139.117 297.084 139.043 296.725 138.895C296.369 138.742 296.062 138.529 295.805 138.256C295.551 137.982 295.355 137.658 295.219 137.283C295.082 136.908 295.014 136.498 295.014 136.053V135.807C295.014 135.291 295.09 134.832 295.242 134.43C295.395 134.023 295.602 133.68 295.863 133.398C296.125 133.117 296.422 132.904 296.754 132.76C297.086 132.615 297.43 132.543 297.785 132.543C298.238 132.543 298.629 132.621 298.957 132.777C299.289 132.934 299.561 133.152 299.771 133.434C299.982 133.711 300.139 134.039 300.24 134.418C300.342 134.793 300.393 135.203 300.393 135.648V136.135H295.658V135.25H299.309V135.168C299.293 134.887 299.234 134.613 299.133 134.348C299.035 134.082 298.879 133.863 298.664 133.691C298.449 133.52 298.156 133.434 297.785 133.434C297.539 133.434 297.312 133.486 297.105 133.592C296.898 133.693 296.721 133.846 296.572 134.049C296.424 134.252 296.309 134.5 296.227 134.793C296.145 135.086 296.104 135.424 296.104 135.807V136.053C296.104 136.354 296.145 136.637 296.227 136.902C296.312 137.164 296.436 137.395 296.596 137.594C296.76 137.793 296.957 137.949 297.188 138.062C297.422 138.176 297.688 138.232 297.984 138.232C298.367 138.232 298.691 138.154 298.957 137.998C299.223 137.842 299.455 137.633 299.654 137.371L300.311 137.893C300.174 138.1 300 138.297 299.789 138.484C299.578 138.672 299.318 138.824 299.01 138.941C298.705 139.059 298.344 139.117 297.926 139.117ZM303.275 139H302.191V131.992C302.191 131.535 302.273 131.15 302.438 130.838C302.605 130.521 302.846 130.283 303.158 130.123C303.471 129.959 303.842 129.877 304.271 129.877C304.396 129.877 304.521 129.885 304.646 129.9C304.775 129.916 304.9 129.939 305.021 129.971L304.963 130.855C304.881 130.836 304.787 130.822 304.682 130.814C304.58 130.807 304.479 130.803 304.377 130.803C304.146 130.803 303.947 130.85 303.779 130.943C303.615 131.033 303.49 131.166 303.404 131.342C303.318 131.518 303.275 131.734 303.275 131.992V139ZM304.623 132.66V133.492H301.189V132.66H304.623ZM308.484 132.66V133.492H305.057V132.66H308.484ZM306.217 131.119H307.301V137.43C307.301 137.645 307.334 137.807 307.4 137.916C307.467 138.025 307.553 138.098 307.658 138.133C307.764 138.168 307.877 138.186 307.998 138.186C308.088 138.186 308.182 138.178 308.279 138.162C308.381 138.143 308.457 138.127 308.508 138.115L308.514 139C308.428 139.027 308.314 139.053 308.174 139.076C308.037 139.104 307.871 139.117 307.676 139.117C307.41 139.117 307.166 139.064 306.943 138.959C306.721 138.854 306.543 138.678 306.41 138.432C306.281 138.182 306.217 137.846 306.217 137.424V131.119ZM294.141 150.287H295.266C295.207 150.826 295.053 151.309 294.803 151.734C294.553 152.16 294.199 152.498 293.742 152.748C293.285 152.994 292.715 153.117 292.031 153.117C291.531 153.117 291.076 153.023 290.666 152.836C290.26 152.648 289.91 152.383 289.617 152.039C289.324 151.691 289.098 151.275 288.938 150.791C288.781 150.303 288.703 149.76 288.703 149.162V148.312C288.703 147.715 288.781 147.174 288.938 146.689C289.098 146.201 289.326 145.783 289.623 145.436C289.924 145.088 290.285 144.82 290.707 144.633C291.129 144.445 291.604 144.352 292.131 144.352C292.775 144.352 293.32 144.473 293.766 144.715C294.211 144.957 294.557 145.293 294.803 145.723C295.053 146.148 295.207 146.643 295.266 147.205H294.141C294.086 146.807 293.984 146.465 293.836 146.18C293.688 145.891 293.477 145.668 293.203 145.512C292.93 145.355 292.572 145.277 292.131 145.277C291.752 145.277 291.418 145.35 291.129 145.494C290.844 145.639 290.604 145.844 290.408 146.109C290.217 146.375 290.072 146.693 289.975 147.064C289.877 147.436 289.828 147.848 289.828 148.301V149.162C289.828 149.58 289.871 149.973 289.957 150.34C290.047 150.707 290.182 151.029 290.361 151.307C290.541 151.584 290.77 151.803 291.047 151.963C291.324 152.119 291.652 152.197 292.031 152.197C292.512 152.197 292.895 152.121 293.18 151.969C293.465 151.816 293.68 151.598 293.824 151.312C293.973 151.027 294.078 150.686 294.141 150.287ZM299.273 153.117C298.832 153.117 298.432 153.043 298.072 152.895C297.717 152.742 297.41 152.529 297.152 152.256C296.898 151.982 296.703 151.658 296.566 151.283C296.43 150.908 296.361 150.498 296.361 150.053V149.807C296.361 149.291 296.438 148.832 296.59 148.43C296.742 148.023 296.949 147.68 297.211 147.398C297.473 147.117 297.77 146.904 298.102 146.76C298.434 146.615 298.777 146.543 299.133 146.543C299.586 146.543 299.977 146.621 300.305 146.777C300.637 146.934 300.908 147.152 301.119 147.434C301.33 147.711 301.486 148.039 301.588 148.418C301.689 148.793 301.74 149.203 301.74 149.648V150.135H297.006V149.25H300.656V149.168C300.641 148.887 300.582 148.613 300.48 148.348C300.383 148.082 300.227 147.863 300.012 147.691C299.797 147.52 299.504 147.434 299.133 147.434C298.887 147.434 298.66 147.486 298.453 147.592C298.246 147.693 298.068 147.846 297.92 148.049C297.771 148.252 297.656 148.5 297.574 148.793C297.492 149.086 297.451 149.424 297.451 149.807V150.053C297.451 150.354 297.492 150.637 297.574 150.902C297.66 151.164 297.783 151.395 297.943 151.594C298.107 151.793 298.305 151.949 298.535 152.062C298.77 152.176 299.035 152.232 299.332 152.232C299.715 152.232 300.039 152.154 300.305 151.998C300.57 151.842 300.803 151.633 301.002 151.371L301.658 151.893C301.521 152.1 301.348 152.297 301.137 152.484C300.926 152.672 300.666 152.824 300.357 152.941C300.053 153.059 299.691 153.117 299.273 153.117ZM304.09 148.014V153H303.006V146.66H304.031L304.09 148.014ZM303.832 149.59L303.381 149.572C303.385 149.139 303.449 148.738 303.574 148.371C303.699 148 303.875 147.678 304.102 147.404C304.328 147.131 304.598 146.92 304.91 146.771C305.227 146.619 305.576 146.543 305.959 146.543C306.271 146.543 306.553 146.586 306.803 146.672C307.053 146.754 307.266 146.887 307.441 147.07C307.621 147.254 307.758 147.492 307.852 147.785C307.945 148.074 307.992 148.428 307.992 148.846V153H306.902V148.834C306.902 148.502 306.854 148.236 306.756 148.037C306.658 147.834 306.516 147.688 306.328 147.598C306.141 147.504 305.91 147.457 305.637 147.457C305.367 147.457 305.121 147.514 304.898 147.627C304.68 147.74 304.49 147.896 304.33 148.096C304.174 148.295 304.051 148.523 303.961 148.781C303.875 149.035 303.832 149.305 303.832 149.59ZM312.293 146.66V147.492H308.865V146.66H312.293ZM310.025 145.119H311.109V151.43C311.109 151.645 311.143 151.807 311.209 151.916C311.275 152.025 311.361 152.098 311.467 152.133C311.572 152.168 311.686 152.186 311.807 152.186C311.896 152.186 311.99 152.178 312.088 152.162C312.189 152.143 312.266 152.127 312.316 152.115L312.322 153C312.236 153.027 312.123 153.053 311.982 153.076C311.846 153.104 311.68 153.117 311.484 153.117C311.219 153.117 310.975 153.064 310.752 152.959C310.529 152.854 310.352 152.678 310.219 152.432C310.09 152.182 310.025 151.846 310.025 151.424V145.119ZM316.195 153.117C315.754 153.117 315.354 153.043 314.994 152.895C314.639 152.742 314.332 152.529 314.074 152.256C313.82 151.982 313.625 151.658 313.488 151.283C313.352 150.908 313.283 150.498 313.283 150.053V149.807C313.283 149.291 313.359 148.832 313.512 148.43C313.664 148.023 313.871 147.68 314.133 147.398C314.395 147.117 314.691 146.904 315.023 146.76C315.355 146.615 315.699 146.543 316.055 146.543C316.508 146.543 316.898 146.621 317.227 146.777C317.559 146.934 317.83 147.152 318.041 147.434C318.252 147.711 318.408 148.039 318.51 148.418C318.611 148.793 318.662 149.203 318.662 149.648V150.135H313.928V149.25H317.578V149.168C317.562 148.887 317.504 148.613 317.402 148.348C317.305 148.082 317.148 147.863 316.934 147.691C316.719 147.52 316.426 147.434 316.055 147.434C315.809 147.434 315.582 147.486 315.375 147.592C315.168 147.693 314.99 147.846 314.842 148.049C314.693 148.252 314.578 148.5 314.496 148.793C314.414 149.086 314.373 149.424 314.373 149.807V150.053C314.373 150.354 314.414 150.637 314.496 150.902C314.582 151.164 314.705 151.395 314.865 151.594C315.029 151.793 315.227 151.949 315.457 152.062C315.691 152.176 315.957 152.232 316.254 152.232C316.637 152.232 316.961 152.154 317.227 151.998C317.492 151.842 317.725 151.633 317.924 151.371L318.58 151.893C318.443 152.1 318.27 152.297 318.059 152.484C317.848 152.672 317.588 152.824 317.279 152.941C316.975 153.059 316.613 153.117 316.195 153.117ZM321.012 147.656V153H319.928V146.66H320.982L321.012 147.656ZM322.992 146.625L322.986 147.633C322.896 147.613 322.811 147.602 322.729 147.598C322.65 147.59 322.561 147.586 322.459 147.586C322.209 147.586 321.988 147.625 321.797 147.703C321.605 147.781 321.443 147.891 321.311 148.031C321.178 148.172 321.072 148.34 320.994 148.535C320.92 148.727 320.871 148.938 320.848 149.168L320.543 149.344C320.543 148.961 320.58 148.602 320.654 148.266C320.732 147.93 320.852 147.633 321.012 147.375C321.172 147.113 321.375 146.91 321.621 146.766C321.871 146.617 322.168 146.543 322.512 146.543C322.59 146.543 322.68 146.553 322.781 146.572C322.883 146.588 322.953 146.605 322.992 146.625ZM330.293 145.225L327.469 153H326.314L329.566 144.469H330.311L330.293 145.225ZM332.66 153L329.83 145.225L329.812 144.469H330.557L333.82 153H332.66ZM332.514 149.842V150.768H327.721V149.842H332.514ZM335.531 146.66L336.92 148.969L338.326 146.66H339.598L337.523 149.789L339.662 153H338.408L336.943 150.621L335.479 153H334.219L336.352 149.789L334.283 146.66H335.531ZM341.93 146.66V153H340.84V146.66H341.93ZM340.758 144.979C340.758 144.803 340.811 144.654 340.916 144.533C341.025 144.412 341.186 144.352 341.396 144.352C341.604 144.352 341.762 144.412 341.871 144.533C341.984 144.654 342.041 144.803 342.041 144.979C342.041 145.146 341.984 145.291 341.871 145.412C341.762 145.529 341.604 145.588 341.396 145.588C341.186 145.588 341.025 145.529 340.916 145.412C340.811 145.291 340.758 145.146 340.758 144.979ZM347.361 151.318C347.361 151.162 347.326 151.018 347.256 150.885C347.189 150.748 347.051 150.625 346.84 150.516C346.633 150.402 346.32 150.305 345.902 150.223C345.551 150.148 345.232 150.061 344.947 149.959C344.666 149.857 344.426 149.734 344.227 149.59C344.031 149.445 343.881 149.275 343.775 149.08C343.67 148.885 343.617 148.656 343.617 148.395C343.617 148.145 343.672 147.908 343.781 147.686C343.895 147.463 344.053 147.266 344.256 147.094C344.463 146.922 344.711 146.787 345 146.689C345.289 146.592 345.611 146.543 345.967 146.543C346.475 146.543 346.908 146.633 347.268 146.812C347.627 146.992 347.902 147.232 348.094 147.533C348.285 147.83 348.381 148.16 348.381 148.523H347.297C347.297 148.348 347.244 148.178 347.139 148.014C347.037 147.846 346.887 147.707 346.688 147.598C346.492 147.488 346.252 147.434 345.967 147.434C345.666 147.434 345.422 147.48 345.234 147.574C345.051 147.664 344.916 147.779 344.83 147.92C344.748 148.061 344.707 148.209 344.707 148.365C344.707 148.482 344.727 148.588 344.766 148.682C344.809 148.771 344.883 148.855 344.988 148.934C345.094 149.008 345.242 149.078 345.434 149.145C345.625 149.211 345.869 149.277 346.166 149.344C346.686 149.461 347.113 149.602 347.449 149.766C347.785 149.93 348.035 150.131 348.199 150.369C348.363 150.607 348.445 150.896 348.445 151.236C348.445 151.514 348.387 151.768 348.27 151.998C348.156 152.229 347.99 152.428 347.771 152.596C347.557 152.76 347.299 152.889 346.998 152.982C346.701 153.072 346.367 153.117 345.996 153.117C345.438 153.117 344.965 153.018 344.578 152.818C344.191 152.619 343.898 152.361 343.699 152.045C343.5 151.729 343.4 151.395 343.4 151.043H344.49C344.506 151.34 344.592 151.576 344.748 151.752C344.904 151.924 345.096 152.047 345.322 152.121C345.549 152.191 345.773 152.227 345.996 152.227C346.293 152.227 346.541 152.188 346.74 152.109C346.943 152.031 347.098 151.924 347.203 151.787C347.309 151.65 347.361 151.494 347.361 151.318Z" fill="#FF0000"/>
<path d="M336.99 27.4688H339.814C340.455 27.4688 340.996 27.5664 341.438 27.7617C341.883 27.957 342.221 28.2461 342.451 28.6289C342.686 29.0078 342.803 29.4746 342.803 30.0293C342.803 30.4199 342.723 30.7773 342.562 31.1016C342.406 31.4219 342.18 31.6953 341.883 31.9219C341.59 32.1445 341.238 32.3105 340.828 32.4199L340.512 32.543H337.857L337.846 31.623H339.85C340.256 31.623 340.594 31.5527 340.863 31.4121C341.133 31.2676 341.336 31.0742 341.473 30.832C341.609 30.5898 341.678 30.3223 341.678 30.0293C341.678 29.7012 341.613 29.4141 341.484 29.168C341.355 28.9219 341.152 28.7324 340.875 28.5996C340.602 28.4629 340.248 28.3945 339.814 28.3945H338.121V36H336.99V27.4688ZM341.977 36L339.902 32.1328L341.08 32.127L343.184 35.9297V36H341.977ZM345.398 29.6602V36H344.309V29.6602H345.398ZM344.227 27.9785C344.227 27.8027 344.279 27.6543 344.385 27.5332C344.494 27.4121 344.654 27.3516 344.865 27.3516C345.072 27.3516 345.23 27.4121 345.34 27.5332C345.453 27.6543 345.51 27.8027 345.51 27.9785C345.51 28.1465 345.453 28.291 345.34 28.4121C345.23 28.5293 345.072 28.5879 344.865 28.5879C344.654 28.5879 344.494 28.5293 344.385 28.4121C344.279 28.291 344.227 28.1465 344.227 27.9785ZM351.246 29.6602H352.23V35.8652C352.23 36.4238 352.117 36.9004 351.891 37.2949C351.664 37.6895 351.348 37.9883 350.941 38.1914C350.539 38.3984 350.074 38.502 349.547 38.502C349.328 38.502 349.07 38.4668 348.773 38.3965C348.48 38.3301 348.191 38.2148 347.906 38.0508C347.625 37.8906 347.389 37.6738 347.197 37.4004L347.766 36.7559C348.031 37.0762 348.309 37.2988 348.598 37.4238C348.891 37.5488 349.18 37.6113 349.465 37.6113C349.809 37.6113 350.105 37.5469 350.355 37.418C350.605 37.2891 350.799 37.0977 350.936 36.8438C351.076 36.5938 351.146 36.2852 351.146 35.918V31.0547L351.246 29.6602ZM346.881 32.9004V32.7773C346.881 32.293 346.938 31.8535 347.051 31.459C347.168 31.0605 347.334 30.7188 347.549 30.4336C347.768 30.1484 348.031 29.9297 348.34 29.7773C348.648 29.6211 348.996 29.543 349.383 29.543C349.781 29.543 350.129 29.6133 350.426 29.7539C350.727 29.8906 350.98 30.0918 351.188 30.3574C351.398 30.6191 351.564 30.9355 351.686 31.3066C351.807 31.6777 351.891 32.0977 351.938 32.5664V33.1055C351.895 33.5703 351.811 33.9883 351.686 34.3594C351.564 34.7305 351.398 35.0469 351.188 35.3086C350.98 35.5703 350.727 35.7715 350.426 35.9121C350.125 36.0488 349.773 36.1172 349.371 36.1172C348.992 36.1172 348.648 36.0371 348.34 35.877C348.035 35.7168 347.773 35.4922 347.555 35.2031C347.336 34.9141 347.168 34.5742 347.051 34.1836C346.938 33.7891 346.881 33.3613 346.881 32.9004ZM347.965 32.7773V32.9004C347.965 33.2168 347.996 33.5137 348.059 33.791C348.125 34.0684 348.225 34.3125 348.357 34.5234C348.494 34.7344 348.668 34.9004 348.879 35.0215C349.09 35.1387 349.342 35.1973 349.635 35.1973C349.994 35.1973 350.291 35.1211 350.525 34.9688C350.76 34.8164 350.945 34.6152 351.082 34.3652C351.223 34.1152 351.332 33.8438 351.41 33.5508V32.1387C351.367 31.9238 351.301 31.7168 351.211 31.5176C351.125 31.3145 351.012 31.1348 350.871 30.9785C350.734 30.8184 350.564 30.6914 350.361 30.5977C350.158 30.5039 349.92 30.457 349.646 30.457C349.35 30.457 349.094 30.5195 348.879 30.6445C348.668 30.7656 348.494 30.9336 348.357 31.1484C348.225 31.3594 348.125 31.6055 348.059 31.8867C347.996 32.1641 347.965 32.4609 347.965 32.7773ZM354.961 27V36H353.877V27H354.961ZM354.703 32.5898L354.252 32.5723C354.256 32.1387 354.32 31.7383 354.445 31.3711C354.57 31 354.746 30.6777 354.973 30.4043C355.199 30.1309 355.469 29.9199 355.781 29.7715C356.098 29.6191 356.447 29.543 356.83 29.543C357.143 29.543 357.424 29.5859 357.674 29.6719C357.924 29.7539 358.137 29.8867 358.312 30.0703C358.492 30.2539 358.629 30.4922 358.723 30.7852C358.816 31.0742 358.863 31.4277 358.863 31.8457V36H357.773V31.834C357.773 31.502 357.725 31.2363 357.627 31.0371C357.529 30.834 357.387 30.6875 357.199 30.5977C357.012 30.5039 356.781 30.457 356.508 30.457C356.238 30.457 355.992 30.5137 355.77 30.627C355.551 30.7402 355.361 30.8965 355.201 31.0957C355.045 31.2949 354.922 31.5234 354.832 31.7812C354.746 32.0352 354.703 32.3047 354.703 32.5898ZM363.141 29.6602V30.4922H359.713V29.6602H363.141ZM360.873 28.1191H361.957V34.4297C361.957 34.6445 361.99 34.8066 362.057 34.916C362.123 35.0254 362.209 35.0977 362.314 35.1328C362.42 35.168 362.533 35.1855 362.654 35.1855C362.744 35.1855 362.838 35.1777 362.936 35.1621C363.037 35.1426 363.113 35.127 363.164 35.1152L363.17 36C363.084 36.0273 362.971 36.0527 362.83 36.0762C362.693 36.1035 362.527 36.1172 362.332 36.1172C362.066 36.1172 361.822 36.0645 361.6 35.959C361.377 35.8535 361.199 35.6777 361.066 35.4316C360.938 35.1816 360.873 34.8457 360.873 34.4238V28.1191ZM342.141 47.2871H343.266C343.207 47.8262 343.053 48.3086 342.803 48.7344C342.553 49.1602 342.199 49.498 341.742 49.748C341.285 49.9941 340.715 50.1172 340.031 50.1172C339.531 50.1172 339.076 50.0234 338.666 49.8359C338.26 49.6484 337.91 49.3828 337.617 49.0391C337.324 48.6914 337.098 48.2754 336.938 47.791C336.781 47.3027 336.703 46.7598 336.703 46.1621V45.3125C336.703 44.7148 336.781 44.1738 336.938 43.6895C337.098 43.2012 337.326 42.7832 337.623 42.4355C337.924 42.0879 338.285 41.8203 338.707 41.6328C339.129 41.4453 339.604 41.3516 340.131 41.3516C340.775 41.3516 341.32 41.4727 341.766 41.7148C342.211 41.957 342.557 42.293 342.803 42.7227C343.053 43.1484 343.207 43.6426 343.266 44.2051H342.141C342.086 43.8066 341.984 43.4648 341.836 43.1797C341.688 42.8906 341.477 42.668 341.203 42.5117C340.93 42.3555 340.572 42.2773 340.131 42.2773C339.752 42.2773 339.418 42.3496 339.129 42.4941C338.844 42.6387 338.604 42.8438 338.408 43.1094C338.217 43.375 338.072 43.6934 337.975 44.0645C337.877 44.4355 337.828 44.8477 337.828 45.3008V46.1621C337.828 46.5801 337.871 46.9727 337.957 47.3398C338.047 47.707 338.182 48.0293 338.361 48.3066C338.541 48.584 338.77 48.8027 339.047 48.9629C339.324 49.1191 339.652 49.1973 340.031 49.1973C340.512 49.1973 340.895 49.1211 341.18 48.9688C341.465 48.8164 341.68 48.5977 341.824 48.3125C341.973 48.0273 342.078 47.6855 342.141 47.2871ZM347.273 50.1172C346.832 50.1172 346.432 50.043 346.072 49.8945C345.717 49.7422 345.41 49.5293 345.152 49.2559C344.898 48.9824 344.703 48.6582 344.566 48.2832C344.43 47.9082 344.361 47.498 344.361 47.0527V46.8066C344.361 46.291 344.438 45.832 344.59 45.4297C344.742 45.0234 344.949 44.6797 345.211 44.3984C345.473 44.1172 345.77 43.9043 346.102 43.7598C346.434 43.6152 346.777 43.543 347.133 43.543C347.586 43.543 347.977 43.6211 348.305 43.7773C348.637 43.9336 348.908 44.1523 349.119 44.4336C349.33 44.7109 349.486 45.0391 349.588 45.418C349.689 45.793 349.74 46.2031 349.74 46.6484V47.1348H345.006V46.25H348.656V46.168C348.641 45.8867 348.582 45.6133 348.48 45.3477C348.383 45.082 348.227 44.8633 348.012 44.6914C347.797 44.5195 347.504 44.4336 347.133 44.4336C346.887 44.4336 346.66 44.4863 346.453 44.5918C346.246 44.6934 346.068 44.8457 345.92 45.0488C345.771 45.252 345.656 45.5 345.574 45.793C345.492 46.0859 345.451 46.4238 345.451 46.8066V47.0527C345.451 47.3535 345.492 47.6367 345.574 47.9023C345.66 48.1641 345.783 48.3945 345.943 48.5938C346.107 48.793 346.305 48.9492 346.535 49.0625C346.77 49.1758 347.035 49.2324 347.332 49.2324C347.715 49.2324 348.039 49.1543 348.305 48.998C348.57 48.8418 348.803 48.6328 349.002 48.3711L349.658 48.8926C349.521 49.0996 349.348 49.2969 349.137 49.4844C348.926 49.6719 348.666 49.8242 348.357 49.9414C348.053 50.0586 347.691 50.1172 347.273 50.1172ZM352.09 45.0137V50H351.006V43.6602H352.031L352.09 45.0137ZM351.832 46.5898L351.381 46.5723C351.385 46.1387 351.449 45.7383 351.574 45.3711C351.699 45 351.875 44.6777 352.102 44.4043C352.328 44.1309 352.598 43.9199 352.91 43.7715C353.227 43.6191 353.576 43.543 353.959 43.543C354.271 43.543 354.553 43.5859 354.803 43.6719C355.053 43.7539 355.266 43.8867 355.441 44.0703C355.621 44.2539 355.758 44.4922 355.852 44.7852C355.945 45.0742 355.992 45.4277 355.992 45.8457V50H354.902V45.834C354.902 45.502 354.854 45.2363 354.756 45.0371C354.658 44.834 354.516 44.6875 354.328 44.5977C354.141 44.5039 353.91 44.457 353.637 44.457C353.367 44.457 353.121 44.5137 352.898 44.627C352.68 44.7402 352.49 44.8965 352.33 45.0957C352.174 45.2949 352.051 45.5234 351.961 45.7812C351.875 46.0352 351.832 46.3047 351.832 46.5898ZM360.293 43.6602V44.4922H356.865V43.6602H360.293ZM358.025 42.1191H359.109V48.4297C359.109 48.6445 359.143 48.8066 359.209 48.916C359.275 49.0254 359.361 49.0977 359.467 49.1328C359.572 49.168 359.686 49.1855 359.807 49.1855C359.896 49.1855 359.99 49.1777 360.088 49.1621C360.189 49.1426 360.266 49.127 360.316 49.1152L360.322 50C360.236 50.0273 360.123 50.0527 359.982 50.0762C359.846 50.1035 359.68 50.1172 359.484 50.1172C359.219 50.1172 358.975 50.0645 358.752 49.959C358.529 49.8535 358.352 49.6777 358.219 49.4316C358.09 49.1816 358.025 48.8457 358.025 48.4238V42.1191ZM364.195 50.1172C363.754 50.1172 363.354 50.043 362.994 49.8945C362.639 49.7422 362.332 49.5293 362.074 49.2559C361.82 48.9824 361.625 48.6582 361.488 48.2832C361.352 47.9082 361.283 47.498 361.283 47.0527V46.8066C361.283 46.291 361.359 45.832 361.512 45.4297C361.664 45.0234 361.871 44.6797 362.133 44.3984C362.395 44.1172 362.691 43.9043 363.023 43.7598C363.355 43.6152 363.699 43.543 364.055 43.543C364.508 43.543 364.898 43.6211 365.227 43.7773C365.559 43.9336 365.83 44.1523 366.041 44.4336C366.252 44.7109 366.408 45.0391 366.51 45.418C366.611 45.793 366.662 46.2031 366.662 46.6484V47.1348H361.928V46.25H365.578V46.168C365.562 45.8867 365.504 45.6133 365.402 45.3477C365.305 45.082 365.148 44.8633 364.934 44.6914C364.719 44.5195 364.426 44.4336 364.055 44.4336C363.809 44.4336 363.582 44.4863 363.375 44.5918C363.168 44.6934 362.99 44.8457 362.842 45.0488C362.693 45.252 362.578 45.5 362.496 45.793C362.414 46.0859 362.373 46.4238 362.373 46.8066V47.0527C362.373 47.3535 362.414 47.6367 362.496 47.9023C362.582 48.1641 362.705 48.3945 362.865 48.5938C363.029 48.793 363.227 48.9492 363.457 49.0625C363.691 49.1758 363.957 49.2324 364.254 49.2324C364.637 49.2324 364.961 49.1543 365.227 48.998C365.492 48.8418 365.725 48.6328 365.924 48.3711L366.58 48.8926C366.443 49.0996 366.27 49.2969 366.059 49.4844C365.848 49.6719 365.588 49.8242 365.279 49.9414C364.975 50.0586 364.613 50.1172 364.195 50.1172ZM369.012 44.6562V50H367.928V43.6602H368.982L369.012 44.6562ZM370.992 43.625L370.986 44.6328C370.896 44.6133 370.811 44.6016 370.729 44.5977C370.65 44.5898 370.561 44.5859 370.459 44.5859C370.209 44.5859 369.988 44.625 369.797 44.7031C369.605 44.7812 369.443 44.8906 369.311 45.0312C369.178 45.1719 369.072 45.3398 368.994 45.5352C368.92 45.7266 368.871 45.9375 368.848 46.168L368.543 46.3438C368.543 45.9609 368.58 45.6016 368.654 45.2656C368.732 44.9297 368.852 44.6328 369.012 44.375C369.172 44.1133 369.375 43.9102 369.621 43.7656C369.871 43.6172 370.168 43.543 370.512 43.543C370.59 43.543 370.68 43.5527 370.781 43.5723C370.883 43.5879 370.953 43.6055 370.992 43.625ZM378.293 42.2246L375.469 50H374.314L377.566 41.4688H378.311L378.293 42.2246ZM380.66 50L377.83 42.2246L377.812 41.4688H378.557L381.82 50H380.66ZM380.514 46.8418V47.7676H375.721V46.8418H380.514ZM383.531 43.6602L384.92 45.9688L386.326 43.6602H387.598L385.523 46.7891L387.662 50H386.408L384.943 47.6211L383.479 50H382.219L384.352 46.7891L382.283 43.6602H383.531ZM389.93 43.6602V50H388.84V43.6602H389.93ZM388.758 41.9785C388.758 41.8027 388.811 41.6543 388.916 41.5332C389.025 41.4121 389.186 41.3516 389.396 41.3516C389.604 41.3516 389.762 41.4121 389.871 41.5332C389.984 41.6543 390.041 41.8027 390.041 41.9785C390.041 42.1465 389.984 42.291 389.871 42.4121C389.762 42.5293 389.604 42.5879 389.396 42.5879C389.186 42.5879 389.025 42.5293 388.916 42.4121C388.811 42.291 388.758 42.1465 388.758 41.9785ZM395.361 48.3184C395.361 48.1621 395.326 48.0176 395.256 47.8848C395.189 47.748 395.051 47.625 394.84 47.5156C394.633 47.4023 394.32 47.3047 393.902 47.2227C393.551 47.1484 393.232 47.0605 392.947 46.959C392.666 46.8574 392.426 46.7344 392.227 46.5898C392.031 46.4453 391.881 46.2754 391.775 46.0801C391.67 45.8848 391.617 45.6562 391.617 45.3945C391.617 45.1445 391.672 44.9082 391.781 44.6855C391.895 44.4629 392.053 44.2656 392.256 44.0938C392.463 43.9219 392.711 43.7871 393 43.6895C393.289 43.5918 393.611 43.543 393.967 43.543C394.475 43.543 394.908 43.6328 395.268 43.8125C395.627 43.9922 395.902 44.2324 396.094 44.5332C396.285 44.8301 396.381 45.1602 396.381 45.5234H395.297C395.297 45.3477 395.244 45.1777 395.139 45.0137C395.037 44.8457 394.887 44.707 394.688 44.5977C394.492 44.4883 394.252 44.4336 393.967 44.4336C393.666 44.4336 393.422 44.4805 393.234 44.5742C393.051 44.6641 392.916 44.7793 392.83 44.9199C392.748 45.0605 392.707 45.209 392.707 45.3652C392.707 45.4824 392.727 45.5879 392.766 45.6816C392.809 45.7715 392.883 45.8555 392.988 45.9336C393.094 46.0078 393.242 46.0781 393.434 46.1445C393.625 46.2109 393.869 46.2773 394.166 46.3438C394.686 46.4609 395.113 46.6016 395.449 46.7656C395.785 46.9297 396.035 47.1309 396.199 47.3691C396.363 47.6074 396.445 47.8965 396.445 48.2363C396.445 48.5137 396.387 48.7676 396.27 48.998C396.156 49.2285 395.99 49.4277 395.771 49.5957C395.557 49.7598 395.299 49.8887 394.998 49.9824C394.701 50.0723 394.367 50.1172 393.996 50.1172C393.438 50.1172 392.965 50.0176 392.578 49.8184C392.191 49.6191 391.898 49.3613 391.699 49.0449C391.5 48.7285 391.4 48.3945 391.4 48.043H392.49C392.506 48.3398 392.592 48.5762 392.748 48.752C392.904 48.9238 393.096 49.0469 393.322 49.1211C393.549 49.1914 393.773 49.2266 393.996 49.2266C394.293 49.2266 394.541 49.1875 394.74 49.1094C394.943 49.0312 395.098 48.9238 395.203 48.7871C395.309 48.6504 395.361 48.4941 395.361 48.3184Z" fill="#0029FF"/>
<path d="M398.141 119.287H399.266C399.207 119.826 399.053 120.309 398.803 120.734C398.553 121.16 398.199 121.498 397.742 121.748C397.285 121.994 396.715 122.117 396.031 122.117C395.531 122.117 395.076 122.023 394.666 121.836C394.26 121.648 393.91 121.383 393.617 121.039C393.324 120.691 393.098 120.275 392.938 119.791C392.781 119.303 392.703 118.76 392.703 118.162V117.312C392.703 116.715 392.781 116.174 392.938 115.689C393.098 115.201 393.326 114.783 393.623 114.436C393.924 114.088 394.285 113.82 394.707 113.633C395.129 113.445 395.604 113.352 396.131 113.352C396.775 113.352 397.32 113.473 397.766 113.715C398.211 113.957 398.557 114.293 398.803 114.723C399.053 115.148 399.207 115.643 399.266 116.205H398.141C398.086 115.807 397.984 115.465 397.836 115.18C397.688 114.891 397.477 114.668 397.203 114.512C396.93 114.355 396.572 114.277 396.131 114.277C395.752 114.277 395.418 114.35 395.129 114.494C394.844 114.639 394.604 114.844 394.408 115.109C394.217 115.375 394.072 115.693 393.975 116.064C393.877 116.436 393.828 116.848 393.828 117.301V118.162C393.828 118.58 393.871 118.973 393.957 119.34C394.047 119.707 394.182 120.029 394.361 120.307C394.541 120.584 394.77 120.803 395.047 120.963C395.324 121.119 395.652 121.197 396.031 121.197C396.512 121.197 396.895 121.121 397.18 120.969C397.465 120.816 397.68 120.598 397.824 120.312C397.973 120.027 398.078 119.686 398.141 119.287ZM404.381 120.916V117.652C404.381 117.402 404.33 117.186 404.229 117.002C404.131 116.814 403.982 116.67 403.783 116.568C403.584 116.467 403.338 116.416 403.045 116.416C402.771 116.416 402.531 116.463 402.324 116.557C402.121 116.65 401.961 116.773 401.844 116.926C401.73 117.078 401.674 117.242 401.674 117.418H400.59C400.59 117.191 400.648 116.967 400.766 116.744C400.883 116.521 401.051 116.32 401.27 116.141C401.492 115.957 401.758 115.812 402.066 115.707C402.379 115.598 402.727 115.543 403.109 115.543C403.57 115.543 403.977 115.621 404.328 115.777C404.684 115.934 404.961 116.17 405.16 116.486C405.363 116.799 405.465 117.191 405.465 117.664V120.617C405.465 120.828 405.482 121.053 405.518 121.291C405.557 121.529 405.613 121.734 405.688 121.906V122H404.557C404.502 121.875 404.459 121.709 404.428 121.502C404.396 121.291 404.381 121.096 404.381 120.916ZM404.568 118.156L404.58 118.918H403.484C403.176 118.918 402.9 118.943 402.658 118.994C402.416 119.041 402.213 119.113 402.049 119.211C401.885 119.309 401.76 119.432 401.674 119.58C401.588 119.725 401.545 119.895 401.545 120.09C401.545 120.289 401.59 120.471 401.68 120.635C401.77 120.799 401.904 120.93 402.084 121.027C402.268 121.121 402.492 121.168 402.758 121.168C403.09 121.168 403.383 121.098 403.637 120.957C403.891 120.816 404.092 120.645 404.24 120.441C404.393 120.238 404.475 120.041 404.486 119.85L404.949 120.371C404.922 120.535 404.848 120.717 404.727 120.916C404.605 121.115 404.443 121.307 404.24 121.49C404.041 121.67 403.803 121.82 403.525 121.941C403.252 122.059 402.943 122.117 402.6 122.117C402.17 122.117 401.793 122.033 401.469 121.865C401.148 121.697 400.898 121.473 400.719 121.191C400.543 120.906 400.455 120.588 400.455 120.236C400.455 119.896 400.521 119.598 400.654 119.34C400.787 119.078 400.979 118.861 401.229 118.689C401.479 118.514 401.779 118.381 402.131 118.291C402.482 118.201 402.875 118.156 403.309 118.156H404.568ZM408.248 116.92V122H407.158V115.66H408.189L408.248 116.92ZM408.025 118.59L407.521 118.572C407.525 118.139 407.582 117.738 407.691 117.371C407.801 117 407.963 116.678 408.178 116.404C408.393 116.131 408.66 115.92 408.98 115.771C409.301 115.619 409.672 115.543 410.094 115.543C410.391 115.543 410.664 115.586 410.914 115.672C411.164 115.754 411.381 115.885 411.564 116.064C411.748 116.244 411.891 116.475 411.992 116.756C412.094 117.037 412.145 117.377 412.145 117.775V122H411.061V117.828C411.061 117.496 411.004 117.23 410.891 117.031C410.781 116.832 410.625 116.688 410.422 116.598C410.219 116.504 409.98 116.457 409.707 116.457C409.387 116.457 409.119 116.514 408.904 116.627C408.689 116.74 408.518 116.896 408.389 117.096C408.26 117.295 408.166 117.523 408.107 117.781C408.053 118.035 408.025 118.305 408.025 118.59ZM412.133 117.992L411.406 118.215C411.41 117.867 411.467 117.533 411.576 117.213C411.689 116.893 411.852 116.607 412.062 116.357C412.277 116.107 412.541 115.91 412.854 115.766C413.166 115.617 413.523 115.543 413.926 115.543C414.266 115.543 414.566 115.588 414.828 115.678C415.094 115.768 415.316 115.906 415.496 116.094C415.68 116.277 415.818 116.514 415.912 116.803C416.006 117.092 416.053 117.436 416.053 117.834V122H414.963V117.822C414.963 117.467 414.906 117.191 414.793 116.996C414.684 116.797 414.527 116.658 414.324 116.58C414.125 116.498 413.887 116.457 413.609 116.457C413.371 116.457 413.16 116.498 412.977 116.58C412.793 116.662 412.639 116.775 412.514 116.92C412.389 117.061 412.293 117.223 412.227 117.406C412.164 117.59 412.133 117.785 412.133 117.992ZM420.324 122.117C419.883 122.117 419.482 122.043 419.123 121.895C418.768 121.742 418.461 121.529 418.203 121.256C417.949 120.982 417.754 120.658 417.617 120.283C417.48 119.908 417.412 119.498 417.412 119.053V118.807C417.412 118.291 417.488 117.832 417.641 117.43C417.793 117.023 418 116.68 418.262 116.398C418.523 116.117 418.82 115.904 419.152 115.76C419.484 115.615 419.828 115.543 420.184 115.543C420.637 115.543 421.027 115.621 421.355 115.777C421.688 115.934 421.959 116.152 422.17 116.434C422.381 116.711 422.537 117.039 422.639 117.418C422.74 117.793 422.791 118.203 422.791 118.648V119.135H418.057V118.25H421.707V118.168C421.691 117.887 421.633 117.613 421.531 117.348C421.434 117.082 421.277 116.863 421.062 116.691C420.848 116.52 420.555 116.434 420.184 116.434C419.938 116.434 419.711 116.486 419.504 116.592C419.297 116.693 419.119 116.846 418.971 117.049C418.822 117.252 418.707 117.5 418.625 117.793C418.543 118.086 418.502 118.424 418.502 118.807V119.053C418.502 119.354 418.543 119.637 418.625 119.902C418.711 120.164 418.834 120.395 418.994 120.594C419.158 120.793 419.355 120.949 419.586 121.062C419.82 121.176 420.086 121.232 420.383 121.232C420.766 121.232 421.09 121.154 421.355 120.998C421.621 120.842 421.854 120.633 422.053 120.371L422.709 120.893C422.572 121.1 422.398 121.297 422.188 121.484C421.977 121.672 421.717 121.824 421.408 121.941C421.104 122.059 420.742 122.117 420.324 122.117ZM425.141 116.656V122H424.057V115.66H425.111L425.141 116.656ZM427.121 115.625L427.115 116.633C427.025 116.613 426.939 116.602 426.857 116.598C426.779 116.59 426.689 116.586 426.588 116.586C426.338 116.586 426.117 116.625 425.926 116.703C425.734 116.781 425.572 116.891 425.439 117.031C425.307 117.172 425.201 117.34 425.123 117.535C425.049 117.727 425 117.938 424.977 118.168L424.672 118.344C424.672 117.961 424.709 117.602 424.783 117.266C424.861 116.93 424.98 116.633 425.141 116.375C425.301 116.113 425.504 115.91 425.75 115.766C426 115.617 426.297 115.543 426.641 115.543C426.719 115.543 426.809 115.553 426.91 115.572C427.012 115.588 427.082 115.605 427.121 115.625ZM431.627 120.916V117.652C431.627 117.402 431.576 117.186 431.475 117.002C431.377 116.814 431.229 116.67 431.029 116.568C430.83 116.467 430.584 116.416 430.291 116.416C430.018 116.416 429.777 116.463 429.57 116.557C429.367 116.65 429.207 116.773 429.09 116.926C428.977 117.078 428.92 117.242 428.92 117.418H427.836C427.836 117.191 427.895 116.967 428.012 116.744C428.129 116.521 428.297 116.32 428.516 116.141C428.738 115.957 429.004 115.812 429.312 115.707C429.625 115.598 429.973 115.543 430.355 115.543C430.816 115.543 431.223 115.621 431.574 115.777C431.93 115.934 432.207 116.17 432.406 116.486C432.609 116.799 432.711 117.191 432.711 117.664V120.617C432.711 120.828 432.729 121.053 432.764 121.291C432.803 121.529 432.859 121.734 432.934 121.906V122H431.803C431.748 121.875 431.705 121.709 431.674 121.502C431.643 121.291 431.627 121.096 431.627 120.916ZM431.814 118.156L431.826 118.918H430.73C430.422 118.918 430.146 118.943 429.904 118.994C429.662 119.041 429.459 119.113 429.295 119.211C429.131 119.309 429.006 119.432 428.92 119.58C428.834 119.725 428.791 119.895 428.791 120.09C428.791 120.289 428.836 120.471 428.926 120.635C429.016 120.799 429.15 120.93 429.33 121.027C429.514 121.121 429.738 121.168 430.004 121.168C430.336 121.168 430.629 121.098 430.883 120.957C431.137 120.816 431.338 120.645 431.486 120.441C431.639 120.238 431.721 120.041 431.732 119.85L432.195 120.371C432.168 120.535 432.094 120.717 431.973 120.916C431.852 121.115 431.689 121.307 431.486 121.49C431.287 121.67 431.049 121.82 430.771 121.941C430.498 122.059 430.189 122.117 429.846 122.117C429.416 122.117 429.039 122.033 428.715 121.865C428.395 121.697 428.145 121.473 427.965 121.191C427.789 120.906 427.701 120.588 427.701 120.236C427.701 119.896 427.768 119.598 427.9 119.34C428.033 119.078 428.225 118.861 428.475 118.689C428.725 118.514 429.025 118.381 429.377 118.291C429.729 118.201 430.121 118.156 430.555 118.156H431.814ZM437.387 113H438.477V120.77L438.383 122H437.387V113ZM442.76 118.777V118.9C442.76 119.361 442.705 119.789 442.596 120.184C442.486 120.574 442.326 120.914 442.115 121.203C441.904 121.492 441.646 121.717 441.342 121.877C441.037 122.037 440.688 122.117 440.293 122.117C439.891 122.117 439.537 122.049 439.232 121.912C438.932 121.771 438.678 121.57 438.471 121.309C438.264 121.047 438.098 120.73 437.973 120.359C437.852 119.988 437.768 119.57 437.721 119.105V118.566C437.768 118.098 437.852 117.678 437.973 117.307C438.098 116.936 438.264 116.619 438.471 116.357C438.678 116.092 438.932 115.891 439.232 115.754C439.533 115.613 439.883 115.543 440.281 115.543C440.68 115.543 441.033 115.621 441.342 115.777C441.65 115.93 441.908 116.148 442.115 116.434C442.326 116.719 442.486 117.061 442.596 117.459C442.705 117.854 442.76 118.293 442.76 118.777ZM441.67 118.9V118.777C441.67 118.461 441.641 118.164 441.582 117.887C441.523 117.605 441.43 117.359 441.301 117.148C441.172 116.934 441.002 116.766 440.791 116.645C440.58 116.52 440.32 116.457 440.012 116.457C439.738 116.457 439.5 116.504 439.297 116.598C439.098 116.691 438.928 116.818 438.787 116.979C438.646 117.135 438.531 117.314 438.441 117.518C438.355 117.717 438.291 117.924 438.248 118.139V119.551C438.311 119.824 438.412 120.088 438.553 120.342C438.697 120.592 438.889 120.797 439.127 120.957C439.369 121.117 439.668 121.197 440.023 121.197C440.316 121.197 440.566 121.139 440.773 121.021C440.984 120.9 441.154 120.734 441.283 120.523C441.416 120.312 441.514 120.068 441.576 119.791C441.639 119.514 441.67 119.217 441.67 118.9ZM447.869 120.916V117.652C447.869 117.402 447.818 117.186 447.717 117.002C447.619 116.814 447.471 116.67 447.271 116.568C447.072 116.467 446.826 116.416 446.533 116.416C446.26 116.416 446.02 116.463 445.812 116.557C445.609 116.65 445.449 116.773 445.332 116.926C445.219 117.078 445.162 117.242 445.162 117.418H444.078C444.078 117.191 444.137 116.967 444.254 116.744C444.371 116.521 444.539 116.32 444.758 116.141C444.98 115.957 445.246 115.812 445.555 115.707C445.867 115.598 446.215 115.543 446.598 115.543C447.059 115.543 447.465 115.621 447.816 115.777C448.172 115.934 448.449 116.17 448.648 116.486C448.852 116.799 448.953 117.191 448.953 117.664V120.617C448.953 120.828 448.971 121.053 449.006 121.291C449.045 121.529 449.102 121.734 449.176 121.906V122H448.045C447.99 121.875 447.947 121.709 447.916 121.502C447.885 121.291 447.869 121.096 447.869 120.916ZM448.057 118.156L448.068 118.918H446.973C446.664 118.918 446.389 118.943 446.146 118.994C445.904 119.041 445.701 119.113 445.537 119.211C445.373 119.309 445.248 119.432 445.162 119.58C445.076 119.725 445.033 119.895 445.033 120.09C445.033 120.289 445.078 120.471 445.168 120.635C445.258 120.799 445.393 120.93 445.572 121.027C445.756 121.121 445.98 121.168 446.246 121.168C446.578 121.168 446.871 121.098 447.125 120.957C447.379 120.816 447.58 120.645 447.729 120.441C447.881 120.238 447.963 120.041 447.975 119.85L448.438 120.371C448.41 120.535 448.336 120.717 448.215 120.916C448.094 121.115 447.932 121.307 447.729 121.49C447.529 121.67 447.291 121.82 447.014 121.941C446.74 122.059 446.432 122.117 446.088 122.117C445.658 122.117 445.281 122.033 444.957 121.865C444.637 121.697 444.387 121.473 444.207 121.191C444.031 120.906 443.943 120.588 443.943 120.236C443.943 119.896 444.01 119.598 444.143 119.34C444.275 119.078 444.467 118.861 444.717 118.689C444.967 118.514 445.268 118.381 445.619 118.291C445.971 118.201 446.363 118.156 446.797 118.156H448.057ZM454.35 120.318C454.35 120.162 454.314 120.018 454.244 119.885C454.178 119.748 454.039 119.625 453.828 119.516C453.621 119.402 453.309 119.305 452.891 119.223C452.539 119.148 452.221 119.061 451.936 118.959C451.654 118.857 451.414 118.734 451.215 118.59C451.02 118.445 450.869 118.275 450.764 118.08C450.658 117.885 450.605 117.656 450.605 117.395C450.605 117.145 450.66 116.908 450.77 116.686C450.883 116.463 451.041 116.266 451.244 116.094C451.451 115.922 451.699 115.787 451.988 115.689C452.277 115.592 452.6 115.543 452.955 115.543C453.463 115.543 453.896 115.633 454.256 115.812C454.615 115.992 454.891 116.232 455.082 116.533C455.273 116.83 455.369 117.16 455.369 117.523H454.285C454.285 117.348 454.232 117.178 454.127 117.014C454.025 116.846 453.875 116.707 453.676 116.598C453.48 116.488 453.24 116.434 452.955 116.434C452.654 116.434 452.41 116.48 452.223 116.574C452.039 116.664 451.904 116.779 451.818 116.92C451.736 117.061 451.695 117.209 451.695 117.365C451.695 117.482 451.715 117.588 451.754 117.682C451.797 117.771 451.871 117.855 451.977 117.934C452.082 118.008 452.23 118.078 452.422 118.145C452.613 118.211 452.857 118.277 453.154 118.344C453.674 118.461 454.102 118.602 454.438 118.766C454.773 118.93 455.023 119.131 455.188 119.369C455.352 119.607 455.434 119.896 455.434 120.236C455.434 120.514 455.375 120.768 455.258 120.998C455.145 121.229 454.979 121.428 454.76 121.596C454.545 121.76 454.287 121.889 453.986 121.982C453.689 122.072 453.355 122.117 452.984 122.117C452.426 122.117 451.953 122.018 451.566 121.818C451.18 121.619 450.887 121.361 450.688 121.045C450.488 120.729 450.389 120.395 450.389 120.043H451.479C451.494 120.34 451.58 120.576 451.736 120.752C451.893 120.924 452.084 121.047 452.311 121.121C452.537 121.191 452.762 121.227 452.984 121.227C453.281 121.227 453.529 121.188 453.729 121.109C453.932 121.031 454.086 120.924 454.191 120.787C454.297 120.65 454.35 120.494 454.35 120.318ZM459.488 122.117C459.047 122.117 458.646 122.043 458.287 121.895C457.932 121.742 457.625 121.529 457.367 121.256C457.113 120.982 456.918 120.658 456.781 120.283C456.645 119.908 456.576 119.498 456.576 119.053V118.807C456.576 118.291 456.652 117.832 456.805 117.43C456.957 117.023 457.164 116.68 457.426 116.398C457.688 116.117 457.984 115.904 458.316 115.76C458.648 115.615 458.992 115.543 459.348 115.543C459.801 115.543 460.191 115.621 460.52 115.777C460.852 115.934 461.123 116.152 461.334 116.434C461.545 116.711 461.701 117.039 461.803 117.418C461.904 117.793 461.955 118.203 461.955 118.648V119.135H457.221V118.25H460.871V118.168C460.855 117.887 460.797 117.613 460.695 117.348C460.598 117.082 460.441 116.863 460.227 116.691C460.012 116.52 459.719 116.434 459.348 116.434C459.102 116.434 458.875 116.486 458.668 116.592C458.461 116.693 458.283 116.846 458.135 117.049C457.986 117.252 457.871 117.5 457.789 117.793C457.707 118.086 457.666 118.424 457.666 118.807V119.053C457.666 119.354 457.707 119.637 457.789 119.902C457.875 120.164 457.998 120.395 458.158 120.594C458.322 120.793 458.52 120.949 458.75 121.062C458.984 121.176 459.25 121.232 459.547 121.232C459.93 121.232 460.254 121.154 460.52 120.998C460.785 120.842 461.018 120.633 461.217 120.371L461.873 120.893C461.736 121.1 461.562 121.297 461.352 121.484C461.141 121.672 460.881 121.824 460.572 121.941C460.268 122.059 459.906 122.117 459.488 122.117ZM464.398 113V122H463.309V113H464.398ZM467.316 115.66V122H466.227V115.66H467.316ZM466.145 113.979C466.145 113.803 466.197 113.654 466.303 113.533C466.412 113.412 466.572 113.352 466.783 113.352C466.99 113.352 467.148 113.412 467.258 113.533C467.371 113.654 467.428 113.803 467.428 113.979C467.428 114.146 467.371 114.291 467.258 114.412C467.148 114.529 466.99 114.588 466.783 114.588C466.572 114.588 466.412 114.529 466.303 114.412C466.197 114.291 466.145 114.146 466.145 113.979ZM470.141 117.014V122H469.057V115.66H470.082L470.141 117.014ZM469.883 118.59L469.432 118.572C469.436 118.139 469.5 117.738 469.625 117.371C469.75 117 469.926 116.678 470.152 116.404C470.379 116.131 470.648 115.92 470.961 115.771C471.277 115.619 471.627 115.543 472.01 115.543C472.322 115.543 472.604 115.586 472.854 115.672C473.104 115.754 473.316 115.887 473.492 116.07C473.672 116.254 473.809 116.492 473.902 116.785C473.996 117.074 474.043 117.428 474.043 117.846V122H472.953V117.834C472.953 117.502 472.904 117.236 472.807 117.037C472.709 116.834 472.566 116.688 472.379 116.598C472.191 116.504 471.961 116.457 471.688 116.457C471.418 116.457 471.172 116.514 470.949 116.627C470.73 116.74 470.541 116.896 470.381 117.096C470.225 117.295 470.102 117.523 470.012 117.781C469.926 118.035 469.883 118.305 469.883 118.59ZM478.32 122.117C477.879 122.117 477.479 122.043 477.119 121.895C476.764 121.742 476.457 121.529 476.199 121.256C475.945 120.982 475.75 120.658 475.613 120.283C475.477 119.908 475.408 119.498 475.408 119.053V118.807C475.408 118.291 475.484 117.832 475.637 117.43C475.789 117.023 475.996 116.68 476.258 116.398C476.52 116.117 476.816 115.904 477.148 115.76C477.48 115.615 477.824 115.543 478.18 115.543C478.633 115.543 479.023 115.621 479.352 115.777C479.684 115.934 479.955 116.152 480.166 116.434C480.377 116.711 480.533 117.039 480.635 117.418C480.736 117.793 480.787 118.203 480.787 118.648V119.135H476.053V118.25H479.703V118.168C479.688 117.887 479.629 117.613 479.527 117.348C479.43 117.082 479.273 116.863 479.059 116.691C478.844 116.52 478.551 116.434 478.18 116.434C477.934 116.434 477.707 116.486 477.5 116.592C477.293 116.693 477.115 116.846 476.967 117.049C476.818 117.252 476.703 117.5 476.621 117.793C476.539 118.086 476.498 118.424 476.498 118.807V119.053C476.498 119.354 476.539 119.637 476.621 119.902C476.707 120.164 476.83 120.395 476.99 120.594C477.154 120.793 477.352 120.949 477.582 121.062C477.816 121.176 478.082 121.232 478.379 121.232C478.762 121.232 479.086 121.154 479.352 120.998C479.617 120.842 479.85 120.633 480.049 120.371L480.705 120.893C480.568 121.1 480.395 121.297 480.184 121.484C479.973 121.672 479.713 121.824 479.404 121.941C479.1 122.059 478.738 122.117 478.32 122.117Z" fill="black"/>
<line x1="51.0248" y1="73.5006" x2="414.025" y2="91.5006" stroke="black"/>
<path d="M270.661 82.1576L268.882 82.0643L268.942 81.1463L270.709 81.2389C271.317 81.2708 271.831 81.1706 272.25 80.9383C272.669 80.7021 272.992 80.3592 273.219 79.9095C273.45 79.4561 273.582 78.9193 273.615 78.2991L273.642 77.7783C273.668 77.2907 273.632 76.8546 273.535 76.4701C273.438 76.0817 273.283 75.7509 273.07 75.4776C272.858 75.2005 272.591 74.9851 272.271 74.8314C271.954 74.6779 271.585 74.5901 271.164 74.568L269.245 74.4675L269.293 73.543L271.212 73.6435C271.77 73.6728 272.274 73.7931 272.725 74.0044C273.176 74.2119 273.558 74.4999 273.871 74.8683C274.188 75.2331 274.423 75.6679 274.577 76.1727C274.731 76.6736 274.791 77.2322 274.759 77.8486L274.732 78.3576C274.7 78.974 274.581 79.5252 274.376 80.0112C274.171 80.4933 273.889 80.899 273.532 81.2284C273.178 81.558 272.758 81.804 272.272 81.9663C271.791 82.1249 271.254 82.1886 270.661 82.1576ZM269.931 73.5764L269.485 82.0959L268.355 82.0368L268.802 73.5172L269.931 73.5764ZM277.564 76.1708L277.232 82.5019L276.143 82.4449L276.475 76.1138L277.564 76.1708ZM276.481 74.4301C276.49 74.2546 276.551 74.1091 276.663 73.9937C276.778 73.8785 276.941 73.8264 277.152 73.8375C277.359 73.8483 277.513 73.917 277.616 74.0437C277.723 74.1705 277.772 74.3217 277.763 74.4973C277.754 74.665 277.69 74.8064 277.57 74.9214C277.455 75.0327 277.294 75.0829 277.087 75.0721C276.877 75.0611 276.72 74.9942 276.617 74.8714C276.518 74.745 276.472 74.5979 276.481 74.4301ZM282.744 81.1069C282.752 80.9508 282.725 80.8047 282.661 80.6684C282.602 80.5284 282.47 80.3982 282.265 80.278C282.064 80.154 281.757 80.0401 281.344 79.9363C280.997 79.8438 280.684 79.7394 280.404 79.623C280.129 79.5069 279.895 79.3714 279.704 79.2167C279.516 79.0621 279.375 78.8846 279.28 78.684C279.185 78.4834 279.144 78.2525 279.158 77.9911C279.171 77.7414 279.238 77.5083 279.359 77.2917C279.484 77.0753 279.652 76.8865 279.864 76.7255C280.08 76.5647 280.334 76.4431 280.628 76.3607C280.922 76.2783 281.246 76.2464 281.601 76.2651C282.108 76.2916 282.537 76.404 282.886 76.6023C283.236 76.8005 283.498 77.0549 283.673 77.3652C283.849 77.6717 283.927 78.0064 283.908 78.3691L282.826 78.3124C282.835 78.1369 282.791 77.9644 282.695 77.7951C282.602 77.622 282.459 77.4757 282.266 77.356C282.076 77.2366 281.839 77.1694 281.555 77.1545C281.254 77.1387 281.008 77.1727 280.816 77.2566C280.628 77.3367 280.487 77.4447 280.394 77.5806C280.305 77.7168 280.256 77.8629 280.248 78.0189C280.242 78.1359 280.256 78.2423 280.29 78.3379C280.328 78.4299 280.398 78.5177 280.499 78.6012C280.6 78.6808 280.745 78.7588 280.933 78.8351C281.12 78.9115 281.361 78.9906 281.654 79.0724C282.166 79.2166 282.586 79.3795 282.913 79.5609C283.24 79.7423 283.479 79.9563 283.63 80.2028C283.782 80.4494 283.849 80.7423 283.831 81.0817C283.816 81.3587 283.744 81.6091 283.615 81.8332C283.49 82.0574 283.314 82.2477 283.087 82.4039C282.864 82.5565 282.599 82.6718 282.294 82.7497C281.993 82.8238 281.657 82.8512 281.286 82.8318C280.729 82.8026 280.262 82.6783 279.886 82.4592C279.51 82.24 279.231 81.9672 279.049 81.6408C278.866 81.3144 278.784 80.9756 278.803 80.6246L279.891 80.6816C279.891 80.9789 279.965 81.2194 280.112 81.4031C280.259 81.5829 280.443 81.7158 280.666 81.8018C280.888 81.8839 281.111 81.9307 281.333 81.9424C281.629 81.9579 281.879 81.9319 282.082 81.8643C282.289 81.7969 282.449 81.6977 282.561 81.5667C282.674 81.4357 282.735 81.2824 282.744 81.1069ZM288.143 76.7252L288.099 77.5561L284.676 77.3767L284.72 76.5458L288.143 76.7252ZM285.959 75.0676L287.041 75.1244L286.711 81.4263C286.7 81.6408 286.725 81.8045 286.785 81.9172C286.846 82.0299 286.928 82.1065 287.031 82.1471C287.135 82.1878 287.247 82.2113 287.368 82.2176C287.458 82.2223 287.552 82.2194 287.65 82.2089C287.752 82.1947 287.829 82.1831 287.881 82.1741L287.84 83.0579C287.753 83.0807 287.639 83.1002 287.497 83.1162C287.359 83.1363 287.192 83.1413 286.997 83.1311C286.732 83.1172 286.491 83.0517 286.274 82.9348C286.057 82.8178 285.889 82.633 285.769 82.3802C285.654 82.1238 285.607 81.785 285.629 81.3637L285.959 75.0676ZM292.871 82.2361L293.041 78.9769C293.054 78.7272 293.015 78.5081 292.923 78.3194C292.836 78.127 292.695 77.9749 292.501 77.8631C292.308 77.7512 292.065 77.6877 291.772 77.6723C291.499 77.658 291.257 77.6922 291.045 77.775C290.837 77.858 290.671 77.9725 290.546 78.1185C290.425 78.2647 290.36 78.4256 290.35 78.6011L289.268 78.5444C289.28 78.3182 289.35 78.0969 289.479 77.8807C289.607 77.6645 289.786 77.4724 290.013 77.3044C290.245 77.1327 290.518 77.0023 290.832 76.9131C291.15 76.8202 291.5 76.7838 291.882 76.8038C292.342 76.828 292.744 76.9272 293.087 77.1017C293.434 77.2763 293.698 77.5268 293.881 77.8532C294.067 78.1759 294.148 78.5733 294.123 79.0453L293.969 81.9944C293.958 82.205 293.963 82.4303 293.986 82.6701C294.013 82.91 294.058 83.1178 294.124 83.2933L294.119 83.387L292.989 83.3278C292.941 83.2001 292.907 83.032 292.887 82.8237C292.867 82.6114 292.861 82.4155 292.871 82.2361ZM293.202 79.4899L293.174 80.2512L292.08 80.1938C291.772 80.1777 291.495 80.1886 291.251 80.2267C291.007 80.2608 290.8 80.3223 290.631 80.4113C290.462 80.5002 290.331 80.6166 290.237 80.7603C290.144 80.9001 290.092 81.0676 290.082 81.2626C290.071 81.4616 290.107 81.6453 290.188 81.8138C290.269 81.9824 290.397 82.1201 290.571 82.227C290.749 82.3303 290.971 82.3888 291.237 82.4027C291.568 82.4201 291.864 82.3652 292.125 82.2381C292.386 82.1109 292.596 81.9498 292.755 81.7548C292.918 81.5599 293.01 81.3672 293.032 81.1766L293.467 81.7216C293.431 81.8841 293.347 82.0616 293.216 82.2542C293.084 82.4468 292.913 82.6294 292.7 82.8021C292.492 82.9712 292.246 83.1089 291.963 83.2153C291.683 83.318 291.372 83.3604 291.029 83.3424C290.6 83.3199 290.228 83.2163 289.913 83.0316C289.602 82.8471 289.364 82.6097 289.199 82.3194C289.038 82.0255 288.967 81.7029 288.986 81.3519C289.004 81.0125 289.085 80.7175 289.232 80.467C289.378 80.2126 289.58 80.0061 289.839 79.8476C290.098 79.6851 290.405 79.5682 290.761 79.4969C291.117 79.4256 291.511 79.4013 291.944 79.424L293.202 79.4899ZM296.943 78.5418L296.682 83.5213L295.599 83.4645L295.931 77.1334L296.955 77.187L296.943 78.5418ZM296.603 80.1023L296.153 80.0611C296.18 79.6283 296.265 79.2319 296.409 78.8717C296.553 78.5077 296.746 78.1951 296.986 77.9339C297.227 77.6726 297.507 77.4761 297.827 77.3442C298.151 77.2086 298.504 77.1509 298.886 77.1709C299.198 77.1873 299.477 77.2449 299.722 77.3438C299.967 77.4388 300.173 77.5826 300.339 77.7751C300.509 77.9679 300.633 78.213 300.711 78.5104C300.79 78.804 300.818 79.1595 300.796 79.5769L300.579 83.7255L299.49 83.6685L299.708 79.5082C299.726 79.1766 299.691 78.9088 299.604 78.7047C299.517 78.4968 299.382 78.343 299.2 78.2435C299.017 78.14 298.79 78.0812 298.516 78.0669C298.247 78.0528 297.999 78.0964 297.77 78.1979C297.546 78.2996 297.349 78.4457 297.178 78.6363C297.012 78.827 296.877 79.0488 296.774 79.3016C296.675 79.5506 296.618 79.8175 296.603 80.1023ZM304.797 83.1721C305.054 83.1856 305.295 83.1454 305.519 83.0515C305.743 82.9576 305.93 82.8227 306.08 82.6467C306.23 82.4668 306.321 82.2584 306.353 82.0215L307.383 82.0755C307.344 82.4489 307.199 82.7914 306.948 83.1029C306.701 83.4107 306.385 83.6543 306 83.8336C305.616 84.009 305.199 84.085 304.75 84.0615C304.274 84.0365 303.863 83.9309 303.517 83.7446C303.175 83.5584 302.894 83.3129 302.676 83.0081C302.461 82.7035 302.305 82.3589 302.208 81.9744C302.115 81.5862 302.079 81.1795 302.101 80.7543L302.114 80.5085C302.137 80.0833 302.214 79.6845 302.347 79.312C302.484 78.9359 302.675 78.6075 302.921 78.327C303.17 78.0467 303.475 77.8319 303.835 77.6826C304.199 77.5334 304.618 77.4713 305.094 77.4963C305.59 77.5222 306.017 77.6464 306.377 77.8686C306.738 78.087 307.014 78.3753 307.206 78.7335C307.403 79.088 307.499 79.4842 307.496 79.9222L306.466 79.8682C306.46 79.6058 306.399 79.3659 306.281 79.1485C306.167 78.9313 306.004 78.7546 305.792 78.6183C305.585 78.4784 305.336 78.4008 305.048 78.3857C304.716 78.3683 304.434 78.42 304.201 78.5408C303.972 78.6578 303.785 78.8241 303.641 79.0395C303.5 79.2512 303.394 79.4901 303.321 79.7562C303.253 80.0186 303.211 80.2883 303.197 80.5652L303.184 80.811C303.169 81.088 303.182 81.3624 303.223 81.6345C303.263 81.9065 303.342 82.1551 303.46 82.3803C303.581 82.6057 303.749 82.7905 303.964 82.9348C304.184 83.0754 304.461 83.1545 304.797 83.1721ZM311.117 84.3951C310.676 84.372 310.28 84.277 309.929 84.1099C309.582 83.9392 309.287 83.7105 309.043 83.424C308.804 83.1376 308.626 82.8036 308.509 82.422C308.392 82.0403 308.346 81.6272 308.369 81.1825L308.382 80.9367C308.409 80.4218 308.509 79.9674 308.682 79.5736C308.855 79.1759 309.08 78.8434 309.356 78.5763C309.632 78.3091 309.94 78.112 310.279 77.9851C310.618 77.8581 310.965 77.804 311.32 77.8226C311.773 77.8463 312.159 77.9447 312.478 78.1179C312.802 78.2914 313.061 78.524 313.257 78.8159C313.453 79.1039 313.592 79.4398 313.674 79.8235C313.756 80.2033 313.785 80.6155 313.762 81.0602L313.736 81.5459L309.008 81.2981L309.054 80.4146L312.7 80.6056L312.704 80.5237C312.703 80.242 312.659 79.9659 312.572 79.6953C312.488 79.4249 312.343 79.1983 312.138 79.0154C311.932 78.8325 311.644 78.7314 311.274 78.712C311.028 78.6991 310.799 78.7399 310.587 78.8344C310.375 78.925 310.189 79.0678 310.03 79.2629C309.871 79.458 309.743 79.6996 309.646 79.9879C309.549 80.2762 309.49 80.6115 309.47 80.9937L309.457 81.2395C309.441 81.5399 309.468 81.8248 309.536 82.0944C309.608 82.3602 309.719 82.5968 309.868 82.8042C310.021 83.0117 310.21 83.1781 310.435 83.3032C310.663 83.4286 310.925 83.4991 311.221 83.5146C311.604 83.5347 311.932 83.4736 312.205 83.3315C312.478 83.1894 312.721 82.9928 312.934 82.7419L313.562 83.297C313.415 83.4966 313.231 83.6845 313.01 83.8607C312.79 84.0369 312.523 84.1754 312.208 84.2763C311.898 84.3774 311.534 84.417 311.117 84.3951Z" fill="black"/>
</svg>
