<svg width="532" height="219" viewBox="0 0 532 219" fill="none" xmlns="http://www.w3.org/2000/svg">
<line x1="30.3068" y1="195.279" x2="161.307" y2="69.2793" stroke="black" stroke-width="2" stroke-dasharray="2 2"/>
<line x1="30.4686" y1="195.153" x2="301.469" y2="25.1529" stroke="black" stroke-width="2" stroke-dasharray="2 2"/>
<line x1="30.7253" y1="195.038" x2="506.725" y2="59.0385" stroke="black" stroke-width="2" stroke-dasharray="2 2"/>
<circle cx="162.5" cy="69.5" r="25" fill="white" stroke="black"/>
<circle cx="301.5" cy="25.5" r="25" fill="white" stroke="black"/>
<circle cx="506.5" cy="59.5" r="25" fill="white" stroke="black"/>
<path d="M160.426 69.9492L163.238 65.3203H165.77L161.621 71.5898L165.898 78H163.391L160.461 73.2539L157.531 78H155.012L159.289 71.5898L155.141 65.3203H157.648L160.426 69.9492ZM168.478 69.696C168.686 69.696 168.87 69.76 169.03 69.888C169.19 70.016 169.27 70.216 169.27 70.488C169.27 70.76 169.19 70.968 169.03 71.112C168.87 71.24 168.686 71.304 168.478 71.304C168.238 71.304 168.038 71.24 167.878 71.112C167.734 70.968 167.662 70.76 167.662 70.488C167.662 70.216 167.734 70.016 167.878 69.888C168.038 69.76 168.238 69.696 168.478 69.696ZM169.126 72.576V80.304H167.758V72.576H169.126Z" fill="black"/>
<path d="M72.9297 130.465L77.9102 123.938H80.6289L73.9844 132.504L77.957 141H75.4844L72.4609 134.355L67.3281 141H64.6094L71.3945 132.293L67.5273 123.938H69.9648L72.9297 130.465ZM81.8838 132.696C82.0918 132.696 82.2758 132.76 82.4358 132.888C82.5958 133.016 82.6758 133.216 82.6758 133.488C82.6758 133.76 82.5958 133.968 82.4358 134.112C82.2758 134.24 82.0918 134.304 81.8838 134.304C81.6438 134.304 81.4438 134.24 81.2838 134.112C81.1398 133.968 81.0678 133.76 81.0678 133.488C81.0678 133.216 81.1398 133.016 81.2838 132.888C81.4438 132.76 81.6438 132.696 81.8838 132.696ZM82.5318 135.576V143.304H81.1638V135.576H82.5318Z" fill="black"/>
<path d="M291.176 25.9492L293.988 21.3203H296.52L292.371 27.5898L296.648 34H294.141L291.211 29.2539L288.281 34H285.762L290.039 27.5898L285.891 21.3203H288.398L291.176 25.9492ZM299.228 25.696C299.436 25.696 299.62 25.76 299.78 25.888C299.94 26.016 300.02 26.216 300.02 26.488C300.02 26.76 299.94 26.968 299.78 27.112C299.62 27.24 299.436 27.304 299.228 27.304C298.988 27.304 298.788 27.24 298.628 27.112C298.484 26.968 298.412 26.76 298.412 26.488C298.412 26.216 298.484 26.016 298.628 25.888C298.788 25.76 298.988 25.696 299.228 25.696ZM299.876 28.576V36.304H298.508V28.576H299.876ZM304.651 35.776V33.112H302.059V31.864H304.651V29.2H305.899V31.864H308.491V33.112H305.899V35.776H304.651ZM315.088 26.848V37.12H313.384V30.496C313.384 30.08 313.392 29.704 313.408 29.368C313.44 29.032 313.464 28.696 313.48 28.36C313.32 28.504 313.144 28.664 312.952 28.84C312.76 29 312.56 29.152 312.352 29.296L311.056 30.232L310.216 29.056L313.336 26.848H315.088Z" fill="black"/>
<path d="M152.68 130.465L157.66 123.938H160.379L153.734 132.504L157.707 141H155.234L152.211 134.355L147.078 141H144.359L151.145 132.293L147.277 123.938H149.715L152.68 130.465ZM161.634 132.696C161.842 132.696 162.026 132.76 162.186 132.888C162.346 133.016 162.426 133.216 162.426 133.488C162.426 133.76 162.346 133.968 162.186 134.112C162.026 134.24 161.842 134.304 161.634 134.304C161.394 134.304 161.194 134.24 161.034 134.112C160.89 133.968 160.818 133.76 160.818 133.488C160.818 133.216 160.89 133.016 161.034 132.888C161.194 132.76 161.394 132.696 161.634 132.696ZM162.282 135.576V143.304H160.914V135.576H162.282ZM167.057 142.776V140.112H164.465V138.864H167.057V136.2H168.305V138.864H170.897V140.112H168.305V142.776H167.057ZM177.494 133.848V144.12H175.79V137.496C175.79 137.08 175.798 136.704 175.814 136.368C175.846 136.032 175.87 135.696 175.886 135.36C175.726 135.504 175.55 135.664 175.358 135.84C175.166 136 174.966 136.152 174.758 136.296L173.462 137.232L172.622 136.056L175.742 133.848H177.494Z" fill="black"/>
<path d="M496.176 59.9492L498.988 55.3203H501.52L497.371 61.5898L501.648 68H499.141L496.211 63.2539L493.281 68H490.762L495.039 61.5898L490.891 55.3203H493.398L496.176 59.9492ZM504.228 59.696C504.436 59.696 504.62 59.76 504.78 59.888C504.94 60.016 505.02 60.216 505.02 60.488C505.02 60.76 504.94 60.968 504.78 61.112C504.62 61.24 504.436 61.304 504.228 61.304C503.988 61.304 503.788 61.24 503.628 61.112C503.484 60.968 503.412 60.76 503.412 60.488C503.412 60.216 503.484 60.016 503.628 59.888C503.788 59.76 503.988 59.696 504.228 59.696ZM504.876 62.576V70.304H503.508V62.576H504.876ZM509.651 69.776V67.112H507.059V65.864H509.651V63.2H510.899V65.864H513.491V67.112H510.899V69.776H509.651ZM521.672 71.12H514.904V69.824L517.664 67.136C518.32 66.512 518.808 66.008 519.128 65.624C519.464 65.224 519.688 64.872 519.8 64.568C519.928 64.248 519.992 63.912 519.992 63.56C519.992 63.048 519.84 62.664 519.536 62.408C519.248 62.152 518.864 62.024 518.384 62.024C517.904 62.024 517.464 62.12 517.064 62.312C516.68 62.488 516.28 62.736 515.864 63.056L515.024 61.952C515.488 61.552 515.992 61.232 516.536 60.992C517.096 60.752 517.72 60.632 518.408 60.632C519.432 60.632 520.232 60.888 520.808 61.4C521.4 61.896 521.696 62.584 521.696 63.464C521.696 64.248 521.456 64.952 520.976 65.576C520.512 66.2 519.832 66.936 518.936 67.784L516.992 69.632H521.672V71.12Z" fill="black"/>
<path d="M230.68 150.465L235.66 143.938H238.379L231.734 152.504L235.707 161H233.234L230.211 154.355L225.078 161H222.359L229.145 152.293L225.277 143.938H227.715L230.68 150.465ZM239.634 152.696C239.842 152.696 240.026 152.76 240.186 152.888C240.346 153.016 240.426 153.216 240.426 153.488C240.426 153.76 240.346 153.968 240.186 154.112C240.026 154.24 239.842 154.304 239.634 154.304C239.394 154.304 239.194 154.24 239.034 154.112C238.89 153.968 238.818 153.76 238.818 153.488C238.818 153.216 238.89 153.016 239.034 152.888C239.194 152.76 239.394 152.696 239.634 152.696ZM240.282 155.576V163.304H238.914V155.576H240.282ZM245.057 162.776V160.112H242.465V158.864H245.057V156.2H246.305V158.864H248.897V160.112H246.305V162.776H245.057ZM257.078 164.12H250.31V162.824L253.07 160.136C253.726 159.512 254.214 159.008 254.534 158.624C254.87 158.224 255.094 157.872 255.206 157.568C255.334 157.248 255.398 156.912 255.398 156.56C255.398 156.048 255.246 155.664 254.942 155.408C254.654 155.152 254.27 155.024 253.79 155.024C253.31 155.024 252.87 155.12 252.47 155.312C252.086 155.488 251.686 155.736 251.27 156.056L250.43 154.952C250.894 154.552 251.398 154.232 251.942 153.992C252.502 153.752 253.126 153.632 253.814 153.632C254.838 153.632 255.638 153.888 256.214 154.4C256.806 154.896 257.102 155.584 257.102 156.464C257.102 157.248 256.862 157.952 256.382 158.576C255.918 159.2 255.238 159.936 254.342 160.784L252.398 162.632H257.078V164.12Z" fill="black"/>
<path d="M31.7071 109.293C31.3166 108.902 30.6834 108.902 30.2929 109.293L23.9289 115.657C23.5384 116.047 23.5384 116.681 23.9289 117.071C24.3195 117.462 24.9526 117.462 25.3431 117.071L31 111.414L36.6569 117.071C37.0474 117.462 37.6805 117.462 38.0711 117.071C38.4616 116.681 38.4616 116.047 38.0711 115.657L31.7071 109.293ZM32 196L32 110L30 110L30 196L32 196Z" fill="black"/>
<path d="M117.707 196.707C118.098 196.317 118.098 195.683 117.707 195.293L111.343 188.929C110.953 188.538 110.319 188.538 109.929 188.929C109.538 189.319 109.538 189.953 109.929 190.343L115.586 196L109.929 201.657C109.538 202.047 109.538 202.681 109.929 203.071C110.319 203.462 110.953 203.462 111.343 203.071L117.707 196.707ZM31 197H117V195H31V197Z" fill="black"/>
<path d="M121.456 207.962L123.565 204.49H125.464L122.353 209.192L125.561 214H123.68L121.482 210.44L119.285 214H117.396L120.604 209.192L117.492 204.49H119.373L121.456 207.962Z" fill="black"/>
<path d="M15.5791 107.618L17.7939 100.49H19.5342L15.7109 111.468C15.1191 113.05 14.1787 113.841 12.8896 113.841L12.582 113.814L11.9756 113.7V112.382L12.415 112.417C12.9658 112.417 13.3936 112.306 13.6982 112.083C14.0088 111.86 14.2637 111.453 14.4629 110.861L14.8232 109.895L11.4307 100.49H13.2061L15.5791 107.618Z" fill="black"/>
<path d="M278 36L266.771 33.3095L270.055 44.3795L278 36ZM187.284 63.9587L269.656 39.5187L269.087 37.6013L186.716 62.0413L187.284 63.9587Z" fill="black"/>
<path d="M481 60L472.232 52.4859L470.109 63.836L481 60ZM325.816 31.9829L471.97 59.3278L472.337 57.3619L326.184 30.0171L325.816 31.9829Z" fill="black"/>
</svg>
