<svg width="320" height="211" viewBox="0 0 320 211" fill="none" xmlns="http://www.w3.org/2000/svg">
<ellipse cx="249.654" cy="73.1231" rx="70.663" ry="30.4846" transform="rotate(48.5 249.654 73.1231)" fill="#C4C4C4"/>
<circle cx="25.5" cy="185.5" r="25" stroke="black"/>
<circle cx="249.5" cy="73.5" r="25" fill="#FF9900" stroke="black"/>
<circle cx="282.5" cy="185.5" r="25" stroke="black"/>
<path d="M23.4258 185.949L26.2383 181.32H28.7695L24.6211 187.59L28.8984 194H26.3906L23.4609 189.254L20.5312 194H18.0117L22.2891 187.59L18.1406 181.32H20.6484L23.4258 185.949ZM31.4775 185.696C31.6855 185.696 31.8695 185.76 32.0295 185.888C32.1895 186.016 32.2695 186.216 32.2695 186.488C32.2695 186.76 32.1895 186.968 32.0295 187.112C31.8695 187.24 31.6855 187.304 31.4775 187.304C31.2375 187.304 31.0375 187.24 30.8775 187.112C30.7335 186.968 30.6615 186.76 30.6615 186.488C30.6615 186.216 30.7335 186.016 30.8775 185.888C31.0375 185.76 31.2375 185.696 31.4775 185.696ZM32.1255 188.576V196.304H30.7575V188.576H32.1255Z" fill="black"/>
<path d="M280.426 185.949L283.238 181.32H285.77L281.621 187.59L285.898 194H283.391L280.461 189.254L277.531 194H275.012L279.289 187.59L275.141 181.32H277.648L280.426 185.949ZM287.662 186.488C287.662 186.216 287.734 186.016 287.878 185.888C288.038 185.76 288.238 185.696 288.478 185.696C288.686 185.696 288.87 185.76 289.03 185.888C289.19 186.016 289.27 186.216 289.27 186.488C289.27 186.76 289.19 186.968 289.03 187.112C288.87 187.24 288.686 187.304 288.478 187.304C288.238 187.304 288.038 187.24 287.878 187.112C287.734 186.968 287.662 186.76 287.662 186.488ZM286.774 199.76C286.518 199.76 286.293 199.744 286.101 199.712C285.893 199.68 285.717 199.64 285.573 199.592V198.56C285.733 198.608 285.901 198.64 286.077 198.656C286.237 198.688 286.413 198.704 286.606 198.704C286.942 198.704 287.214 198.616 287.422 198.44C287.646 198.28 287.758 197.968 287.758 197.504V188.576H289.126V197.456C289.126 198.176 288.942 198.736 288.574 199.136C288.206 199.552 287.605 199.76 286.774 199.76Z" fill="black"/>
<path d="M243.195 80.2305H250.613V82H240.547V80.4062L247.543 71.1133H240.652V69.3203H250.262V70.8555L243.195 80.2305ZM253.462 73.696C253.67 73.696 253.854 73.76 254.014 73.888C254.174 74.016 254.254 74.216 254.254 74.488C254.254 74.76 254.174 74.968 254.014 75.112C253.854 75.24 253.67 75.304 253.462 75.304C253.222 75.304 253.022 75.24 252.862 75.112C252.718 74.968 252.646 74.76 252.646 74.488C252.646 74.216 252.718 74.016 252.862 73.888C253.022 73.76 253.222 73.696 253.462 73.696ZM254.11 76.576V84.304H252.742V76.576H254.11ZM256.677 74.488C256.677 74.216 256.749 74.016 256.893 73.888C257.053 73.76 257.253 73.696 257.493 73.696C257.701 73.696 257.885 73.76 258.045 73.888C258.205 74.016 258.285 74.216 258.285 74.488C258.285 74.76 258.205 74.968 258.045 75.112C257.885 75.24 257.701 75.304 257.493 75.304C257.253 75.304 257.053 75.24 256.893 75.112C256.749 74.968 256.677 74.76 256.677 74.488ZM255.789 87.76C255.533 87.76 255.309 87.744 255.117 87.712C254.909 87.68 254.733 87.64 254.589 87.592V86.56C254.749 86.608 254.917 86.64 255.093 86.656C255.253 86.688 255.429 86.704 255.621 86.704C255.957 86.704 256.229 86.616 256.437 86.44C256.661 86.28 256.773 85.968 256.773 85.504V76.576H258.141V85.456C258.141 86.176 257.957 86.736 257.589 87.136C257.221 87.552 256.621 87.76 255.789 87.76Z" fill="black"/>
<path d="M248.008 143.234C246.289 143.234 244.891 142.672 243.812 141.547C242.734 140.414 242.195 138.902 242.195 137.012V136.613C242.195 135.355 242.434 134.234 242.91 133.25C243.395 132.258 244.066 131.484 244.926 130.93C245.793 130.367 246.73 130.086 247.738 130.086C249.387 130.086 250.668 130.629 251.582 131.715C252.496 132.801 252.953 134.355 252.953 136.379V137.281H244.363C244.395 138.531 244.758 139.543 245.453 140.316C246.156 141.082 247.047 141.465 248.125 141.465C248.891 141.465 249.539 141.309 250.07 140.996C250.602 140.684 251.066 140.27 251.465 139.754L252.789 140.785C251.727 142.418 250.133 143.234 248.008 143.234ZM247.738 131.867C246.863 131.867 246.129 132.188 245.535 132.828C244.941 133.461 244.574 134.352 244.434 135.5H250.785V135.336C250.723 134.234 250.426 133.383 249.895 132.781C249.363 132.172 248.645 131.867 247.738 131.867ZM255.872 134.696C256.08 134.696 256.264 134.76 256.424 134.888C256.584 135.016 256.664 135.216 256.664 135.488C256.664 135.76 256.584 135.968 256.424 136.112C256.264 136.24 256.08 136.304 255.872 136.304C255.632 136.304 255.432 136.24 255.272 136.112C255.128 135.968 255.056 135.76 255.056 135.488C255.056 135.216 255.128 135.016 255.272 134.888C255.432 134.76 255.632 134.696 255.872 134.696ZM256.52 137.576V145.304H255.152V137.576H256.52ZM259.087 135.488C259.087 135.216 259.159 135.016 259.303 134.888C259.463 134.76 259.663 134.696 259.903 134.696C260.111 134.696 260.295 134.76 260.455 134.888C260.615 135.016 260.695 135.216 260.695 135.488C260.695 135.76 260.615 135.968 260.455 136.112C260.295 136.24 260.111 136.304 259.903 136.304C259.663 136.304 259.463 136.24 259.303 136.112C259.159 135.968 259.087 135.76 259.087 135.488ZM258.199 148.76C257.943 148.76 257.719 148.744 257.527 148.712C257.319 148.68 257.143 148.64 256.999 148.592V147.56C257.159 147.608 257.327 147.64 257.503 147.656C257.663 147.688 257.839 147.704 258.031 147.704C258.367 147.704 258.639 147.616 258.847 147.44C259.071 147.28 259.183 146.968 259.183 146.504V137.576H260.551V146.456C260.551 147.176 260.367 147.736 259.999 148.136C259.631 148.552 259.031 148.76 258.199 148.76Z" fill="#B60A0A"/>
<path d="M217.125 42.1016C218.203 41.8906 219.043 41.2305 219.645 40.1211C220.246 39.0117 220.559 37.543 220.582 35.7148V34.1445C220.582 32.3398 220.203 30.957 219.445 29.9961C218.688 29.0352 217.648 28.5547 216.328 28.5547C215.008 28.5547 213.973 29.043 213.223 30.0195C212.473 30.9961 212.098 32.3789 212.098 34.168V35.4922C212.098 37.3672 212.402 38.8828 213.012 40.0391C213.629 41.1953 214.504 41.8828 215.637 42.1016V44H209.871V42.1602H212.461C211.633 41.3633 210.984 40.3672 210.516 39.1719C210.047 37.9688 209.812 36.7344 209.812 35.4688V34.168C209.812 32.7148 210.086 31.418 210.633 30.2773C211.188 29.1367 211.961 28.2578 212.953 27.6406C213.945 27.0156 215.07 26.7031 216.328 26.7031C217.578 26.7031 218.695 27.0078 219.68 27.6172C220.672 28.2266 221.445 29.0859 222 30.1953C222.555 31.3047 222.844 32.5625 222.867 33.9688V35.4922C222.867 36.7422 222.633 37.9688 222.164 39.1719C221.695 40.3672 221.047 41.3633 220.219 42.1602H222.797V44H217.125V42.1016ZM226.489 35.696C226.697 35.696 226.881 35.76 227.041 35.888C227.201 36.016 227.281 36.216 227.281 36.488C227.281 36.76 227.201 36.968 227.041 37.112C226.881 37.24 226.697 37.304 226.489 37.304C226.249 37.304 226.049 37.24 225.889 37.112C225.745 36.968 225.673 36.76 225.673 36.488C225.673 36.216 225.745 36.016 225.889 35.888C226.049 35.76 226.249 35.696 226.489 35.696ZM227.137 38.576V46.304H225.769V38.576H227.137ZM229.704 36.488C229.704 36.216 229.776 36.016 229.92 35.888C230.08 35.76 230.28 35.696 230.52 35.696C230.728 35.696 230.912 35.76 231.072 35.888C231.232 36.016 231.312 36.216 231.312 36.488C231.312 36.76 231.232 36.968 231.072 37.112C230.912 37.24 230.728 37.304 230.52 37.304C230.28 37.304 230.08 37.24 229.92 37.112C229.776 36.968 229.704 36.76 229.704 36.488ZM228.816 49.76C228.56 49.76 228.336 49.744 228.144 49.712C227.936 49.68 227.76 49.64 227.616 49.592V48.56C227.776 48.608 227.944 48.64 228.12 48.656C228.28 48.688 228.456 48.704 228.648 48.704C228.984 48.704 229.256 48.616 229.464 48.44C229.688 48.28 229.8 47.968 229.8 47.504V38.576H231.168V47.456C231.168 48.176 230.984 48.736 230.616 49.136C230.248 49.552 229.648 49.76 228.816 49.76Z" fill="black"/>
<path d="M226 83L214.466 82.4626L219.767 92.7204L226 83ZM48.4592 175.888L218.464 88.0207L217.546 86.244L47.5408 174.112L48.4592 175.888Z" fill="black"/>
<line x1="256.96" y1="98.7212" x2="274.96" y2="160.721" stroke="#B60A0A" stroke-width="2" stroke-dasharray="2 2"/>
</svg>
