<svg width="682" height="131" viewBox="0 0 682 131" fill="none" xmlns="http://www.w3.org/2000/svg">
<rect x="28.5" width="167" height="58" rx="15" fill="#FF0000" fill-opacity="0.3"/>
<path d="M94.3047 32.6514C94.3047 32.4229 94.2695 32.2178 94.1992 32.0361C94.1348 31.8486 94.0117 31.6787 93.8301 31.5264C93.6484 31.3682 93.3936 31.2129 93.0654 31.0605C92.7373 30.9082 92.3125 30.75 91.791 30.5859C91.2109 30.3984 90.6602 30.1875 90.1387 29.9531C89.623 29.7188 89.166 29.4463 88.7676 29.1357C88.375 28.8193 88.0645 28.4531 87.8359 28.0371C87.6133 27.6211 87.502 27.1377 87.502 26.5869C87.502 26.0537 87.6191 25.5703 87.8535 25.1367C88.0879 24.6973 88.416 24.3223 88.8379 24.0117C89.2598 23.6953 89.7578 23.4521 90.332 23.2822C90.9121 23.1123 91.5479 23.0273 92.2393 23.0273C93.1826 23.0273 94.0059 23.1973 94.709 23.5371C95.4121 23.877 95.957 24.3428 96.3438 24.9346C96.7363 25.5264 96.9326 26.2031 96.9326 26.9648H94.3135C94.3135 26.5898 94.2344 26.2617 94.0762 25.9805C93.9238 25.6934 93.6895 25.4678 93.373 25.3037C93.0625 25.1396 92.6699 25.0576 92.1953 25.0576C91.7383 25.0576 91.3574 25.1279 91.0527 25.2686C90.748 25.4033 90.5195 25.5879 90.3672 25.8223C90.2148 26.0508 90.1387 26.3086 90.1387 26.5957C90.1387 26.8125 90.1914 27.0088 90.2969 27.1846C90.4082 27.3604 90.5723 27.5244 90.7891 27.6768C91.0059 27.8291 91.2725 27.9727 91.5889 28.1074C91.9053 28.2422 92.2715 28.374 92.6875 28.5029C93.3848 28.7139 93.9971 28.9512 94.5244 29.2148C95.0576 29.4785 95.5029 29.7744 95.8604 30.1025C96.2178 30.4307 96.4873 30.8027 96.6689 31.2188C96.8506 31.6348 96.9414 32.1064 96.9414 32.6338C96.9414 33.1904 96.833 33.6885 96.6162 34.1279C96.3994 34.5674 96.0859 34.9395 95.6758 35.2441C95.2656 35.5488 94.7764 35.7803 94.208 35.9385C93.6396 36.0967 93.0039 36.1758 92.3008 36.1758C91.668 36.1758 91.0439 36.0938 90.4287 35.9297C89.8135 35.7598 89.2539 35.5049 88.75 35.165C88.252 34.8252 87.8535 34.3916 87.5547 33.8643C87.2559 33.3369 87.1064 32.7129 87.1064 31.9922H89.752C89.752 32.3906 89.8135 32.7275 89.9365 33.0029C90.0596 33.2783 90.2324 33.501 90.4551 33.6709C90.6836 33.8408 90.9531 33.9639 91.2637 34.04C91.5801 34.1162 91.9258 34.1543 92.3008 34.1543C92.7578 34.1543 93.1328 34.0898 93.4258 33.9609C93.7246 33.832 93.9443 33.6533 94.085 33.4248C94.2314 33.1963 94.3047 32.9385 94.3047 32.6514ZM102.953 36.1758C102.215 36.1758 101.553 36.0586 100.967 35.8242C100.381 35.584 99.8828 35.2529 99.4727 34.8311C99.0684 34.4092 98.7578 33.9199 98.541 33.3633C98.3242 32.8008 98.2158 32.2031 98.2158 31.5703V31.2188C98.2158 30.498 98.3184 29.8389 98.5234 29.2412C98.7285 28.6436 99.0215 28.125 99.4023 27.6855C99.7891 27.2461 100.258 26.9092 100.809 26.6748C101.359 26.4346 101.98 26.3145 102.672 26.3145C103.346 26.3145 103.943 26.4258 104.465 26.6484C104.986 26.8711 105.423 27.1875 105.774 27.5977C106.132 28.0078 106.401 28.5 106.583 29.0742C106.765 29.6426 106.855 30.2754 106.855 30.9727V32.0273H99.2969V30.3398H104.368V30.1465C104.368 29.7949 104.304 29.4814 104.175 29.2061C104.052 28.9248 103.864 28.7021 103.612 28.5381C103.36 28.374 103.038 28.292 102.646 28.292C102.312 28.292 102.024 28.3652 101.784 28.5117C101.544 28.6582 101.348 28.8633 101.195 29.127C101.049 29.3906 100.938 29.7012 100.861 30.0586C100.791 30.4102 100.756 30.7969 100.756 31.2188V31.5703C100.756 31.9512 100.809 32.3027 100.914 32.625C101.025 32.9473 101.181 33.2256 101.38 33.46C101.585 33.6943 101.831 33.876 102.118 34.0049C102.411 34.1338 102.742 34.1982 103.111 34.1982C103.568 34.1982 103.993 34.1104 104.386 33.9346C104.784 33.7529 105.127 33.4805 105.414 33.1172L106.645 34.4531C106.445 34.7402 106.173 35.0156 105.827 35.2793C105.487 35.543 105.077 35.7598 104.597 35.9297C104.116 36.0938 103.568 36.1758 102.953 36.1758ZM110.775 28.5205V36H108.244V26.4902H110.617L110.775 28.5205ZM110.406 30.9111H109.721C109.721 30.208 109.812 29.5752 109.993 29.0127C110.175 28.4443 110.43 27.9609 110.758 27.5625C111.086 27.1582 111.476 26.8506 111.927 26.6396C112.384 26.4229 112.894 26.3145 113.456 26.3145C113.901 26.3145 114.309 26.3789 114.678 26.5078C115.047 26.6367 115.363 26.8418 115.627 27.123C115.896 27.4043 116.102 27.7764 116.242 28.2393C116.389 28.7021 116.462 29.2676 116.462 29.9355V36H113.913V29.9268C113.913 29.5049 113.854 29.1768 113.737 28.9424C113.62 28.708 113.447 28.5439 113.219 28.4502C112.996 28.3506 112.721 28.3008 112.393 28.3008C112.053 28.3008 111.757 28.3682 111.505 28.5029C111.259 28.6377 111.054 28.8252 110.89 29.0654C110.731 29.2998 110.611 29.5752 110.529 29.8916C110.447 30.208 110.406 30.5479 110.406 30.9111ZM123.528 33.3721C123.528 33.1904 123.476 33.0264 123.37 32.8799C123.265 32.7334 123.068 32.5986 122.781 32.4756C122.5 32.3467 122.093 32.2295 121.56 32.124C121.079 32.0186 120.631 31.8867 120.215 31.7285C119.805 31.5645 119.447 31.3682 119.143 31.1396C118.844 30.9111 118.609 30.6416 118.439 30.3311C118.27 30.0146 118.185 29.6543 118.185 29.25C118.185 28.8516 118.27 28.4766 118.439 28.125C118.615 27.7734 118.864 27.4629 119.187 27.1934C119.515 26.918 119.913 26.7041 120.382 26.5518C120.856 26.3936 121.39 26.3145 121.981 26.3145C122.808 26.3145 123.517 26.4463 124.108 26.71C124.706 26.9736 125.163 27.3369 125.479 27.7998C125.802 28.2568 125.963 28.7783 125.963 29.3643H123.432C123.432 29.1182 123.379 28.8984 123.273 28.7051C123.174 28.5059 123.016 28.3506 122.799 28.2393C122.588 28.1221 122.312 28.0635 121.973 28.0635C121.691 28.0635 121.448 28.1133 121.243 28.2129C121.038 28.3066 120.88 28.4355 120.769 28.5996C120.663 28.7578 120.61 28.9336 120.61 29.127C120.61 29.2734 120.64 29.4053 120.698 29.5225C120.763 29.6338 120.865 29.7363 121.006 29.8301C121.146 29.9238 121.328 30.0117 121.551 30.0938C121.779 30.1699 122.061 30.2402 122.395 30.3047C123.08 30.4453 123.692 30.6299 124.231 30.8584C124.771 31.0811 125.198 31.3857 125.515 31.7725C125.831 32.1533 125.989 32.6543 125.989 33.2754C125.989 33.6973 125.896 34.084 125.708 34.4355C125.521 34.7871 125.251 35.0947 124.899 35.3584C124.548 35.6162 124.126 35.8184 123.634 35.9648C123.147 36.1055 122.6 36.1758 121.99 36.1758C121.105 36.1758 120.355 36.0176 119.74 35.7012C119.131 35.3848 118.668 34.9834 118.352 34.4971C118.041 34.0049 117.886 33.501 117.886 32.9854H120.285C120.297 33.3311 120.385 33.6094 120.549 33.8203C120.719 34.0312 120.933 34.1836 121.19 34.2773C121.454 34.3711 121.738 34.418 122.043 34.418C122.371 34.418 122.644 34.374 122.86 34.2861C123.077 34.1924 123.241 34.0693 123.353 33.917C123.47 33.7588 123.528 33.5771 123.528 33.3721ZM132.01 36.1758C131.271 36.1758 130.609 36.0586 130.023 35.8242C129.438 35.584 128.939 35.2529 128.529 34.8311C128.125 34.4092 127.814 33.9199 127.598 33.3633C127.381 32.8008 127.272 32.2031 127.272 31.5703V31.2188C127.272 30.498 127.375 29.8389 127.58 29.2412C127.785 28.6436 128.078 28.125 128.459 27.6855C128.846 27.2461 129.314 26.9092 129.865 26.6748C130.416 26.4346 131.037 26.3145 131.729 26.3145C132.402 26.3145 133 26.4258 133.521 26.6484C134.043 26.8711 134.479 27.1875 134.831 27.5977C135.188 28.0078 135.458 28.5 135.64 29.0742C135.821 29.6426 135.912 30.2754 135.912 30.9727V32.0273H128.354V30.3398H133.425V30.1465C133.425 29.7949 133.36 29.4814 133.231 29.2061C133.108 28.9248 132.921 28.7021 132.669 28.5381C132.417 28.374 132.095 28.292 131.702 28.292C131.368 28.292 131.081 28.3652 130.841 28.5117C130.601 28.6582 130.404 28.8633 130.252 29.127C130.105 29.3906 129.994 29.7012 129.918 30.0586C129.848 30.4102 129.812 30.7969 129.812 31.2188V31.5703C129.812 31.9512 129.865 32.3027 129.971 32.625C130.082 32.9473 130.237 33.2256 130.437 33.46C130.642 33.6943 130.888 33.876 131.175 34.0049C131.468 34.1338 131.799 34.1982 132.168 34.1982C132.625 34.1982 133.05 34.1104 133.442 33.9346C133.841 33.7529 134.184 33.4805 134.471 33.1172L135.701 34.4531C135.502 34.7402 135.229 35.0156 134.884 35.2793C134.544 35.543 134.134 35.7598 133.653 35.9297C133.173 36.0938 132.625 36.1758 132.01 36.1758Z" fill="black"/>
<rect x="490.5" width="167" height="58" rx="15" fill="#0029FF" fill-opacity="0.3"/>
<path d="M566.846 25.3916L563.365 36H560.562L565.316 23.2031H567.101L566.846 25.3916ZM569.737 36L566.248 25.3916L565.967 23.2031H567.769L572.55 36H569.737ZM569.579 31.2363V33.3018H562.82V31.2363H569.579ZM577.507 34.1982C577.817 34.1982 578.093 34.1396 578.333 34.0225C578.573 33.8994 578.761 33.7295 578.896 33.5127C579.036 33.29 579.109 33.0293 579.115 32.7305H581.497C581.491 33.3984 581.312 33.9932 580.961 34.5146C580.609 35.0303 580.138 35.4375 579.546 35.7363C578.954 36.0293 578.292 36.1758 577.56 36.1758C576.821 36.1758 576.177 36.0527 575.626 35.8066C575.081 35.5605 574.627 35.2207 574.264 34.7871C573.9 34.3477 573.628 33.8379 573.446 33.2578C573.265 32.6719 573.174 32.0449 573.174 31.377V31.1221C573.174 30.4482 573.265 29.8213 573.446 29.2412C573.628 28.6553 573.9 28.1455 574.264 27.7119C574.627 27.2725 575.081 26.9297 575.626 26.6836C576.171 26.4375 576.81 26.3145 577.542 26.3145C578.321 26.3145 579.004 26.4639 579.59 26.7627C580.182 27.0615 580.645 27.4893 580.979 28.0459C581.318 28.5967 581.491 29.25 581.497 30.0059H579.115C579.109 29.6895 579.042 29.4023 578.913 29.1445C578.79 28.8867 578.608 28.6816 578.368 28.5293C578.134 28.3711 577.844 28.292 577.498 28.292C577.129 28.292 576.827 28.3711 576.593 28.5293C576.358 28.6816 576.177 28.8926 576.048 29.1621C575.919 29.4258 575.828 29.7275 575.775 30.0674C575.729 30.4014 575.705 30.7529 575.705 31.1221V31.377C575.705 31.7461 575.729 32.1006 575.775 32.4404C575.822 32.7803 575.91 33.082 576.039 33.3457C576.174 33.6094 576.358 33.8174 576.593 33.9697C576.827 34.1221 577.132 34.1982 577.507 34.1982ZM587.623 26.4902V28.2832H582.086V26.4902H587.623ZM583.457 24.1436H585.988V33.1348C585.988 33.4102 586.023 33.6211 586.094 33.7676C586.17 33.9141 586.281 34.0166 586.428 34.0752C586.574 34.1279 586.759 34.1543 586.981 34.1543C587.14 34.1543 587.28 34.1484 587.403 34.1367C587.532 34.1191 587.641 34.1016 587.729 34.084L587.737 35.9473C587.521 36.0176 587.286 36.0732 587.034 36.1143C586.782 36.1553 586.504 36.1758 586.199 36.1758C585.643 36.1758 585.156 36.085 584.74 35.9033C584.33 35.7158 584.014 35.417 583.791 35.0068C583.568 34.5967 583.457 34.0576 583.457 33.3896V24.1436Z" fill="black"/>
<path d="M681 29H682V28H681V29ZM681 110V111H682V110H681ZM624.293 109.293C623.902 109.683 623.902 110.317 624.293 110.707L630.657 117.071C631.047 117.462 631.681 117.462 632.071 117.071C632.462 116.681 632.462 116.047 632.071 115.657L626.414 110L632.071 104.343C632.462 103.953 632.462 103.319 632.071 102.929C631.681 102.538 631.047 102.538 630.657 102.929L624.293 109.293ZM657.5 30L681 30V28L657.5 28V30ZM680 29V110H682V29H680ZM681 109H625V111H681V109Z" fill="black"/>
<path d="M1 110H0V111H1V110ZM1 29V28H0V29H1ZM29.2071 29.7071C29.5976 29.3166 29.5976 28.6834 29.2071 28.2929L22.8431 21.9289C22.4526 21.5384 21.8195 21.5384 21.4289 21.9289C21.0384 22.3195 21.0384 22.9526 21.4289 23.3431L27.0858 29L21.4289 34.6569C21.0384 35.0474 21.0384 35.6805 21.4289 36.0711C21.8195 36.4616 22.4526 36.4616 22.8431 36.0711L29.2071 29.7071ZM67 109L1 109V111L67 111V109ZM2 110L2 29H0L0 110H2ZM1 30L28.5 30V28L1 28V30Z" fill="black"/>
<path d="M540.846 105.392L537.365 116H534.562L539.316 103.203H541.101L540.846 105.392ZM543.737 116L540.248 105.392L539.967 103.203H541.769L546.55 116H543.737ZM543.579 111.236V113.302H536.82V111.236H543.579ZM551.507 114.198C551.817 114.198 552.093 114.14 552.333 114.022C552.573 113.899 552.761 113.729 552.896 113.513C553.036 113.29 553.109 113.029 553.115 112.73H555.497C555.491 113.398 555.312 113.993 554.961 114.515C554.609 115.03 554.138 115.438 553.546 115.736C552.954 116.029 552.292 116.176 551.56 116.176C550.821 116.176 550.177 116.053 549.626 115.807C549.081 115.561 548.627 115.221 548.264 114.787C547.9 114.348 547.628 113.838 547.446 113.258C547.265 112.672 547.174 112.045 547.174 111.377V111.122C547.174 110.448 547.265 109.821 547.446 109.241C547.628 108.655 547.9 108.146 548.264 107.712C548.627 107.272 549.081 106.93 549.626 106.684C550.171 106.438 550.81 106.314 551.542 106.314C552.321 106.314 553.004 106.464 553.59 106.763C554.182 107.062 554.645 107.489 554.979 108.046C555.318 108.597 555.491 109.25 555.497 110.006H553.115C553.109 109.689 553.042 109.402 552.913 109.145C552.79 108.887 552.608 108.682 552.368 108.529C552.134 108.371 551.844 108.292 551.498 108.292C551.129 108.292 550.827 108.371 550.593 108.529C550.358 108.682 550.177 108.893 550.048 109.162C549.919 109.426 549.828 109.728 549.775 110.067C549.729 110.401 549.705 110.753 549.705 111.122V111.377C549.705 111.746 549.729 112.101 549.775 112.44C549.822 112.78 549.91 113.082 550.039 113.346C550.174 113.609 550.358 113.817 550.593 113.97C550.827 114.122 551.132 114.198 551.507 114.198ZM561.623 106.49V108.283H556.086V106.49H561.623ZM557.457 104.144H559.988V113.135C559.988 113.41 560.023 113.621 560.094 113.768C560.17 113.914 560.281 114.017 560.428 114.075C560.574 114.128 560.759 114.154 560.981 114.154C561.14 114.154 561.28 114.148 561.403 114.137C561.532 114.119 561.641 114.102 561.729 114.084L561.737 115.947C561.521 116.018 561.286 116.073 561.034 116.114C560.782 116.155 560.504 116.176 560.199 116.176C559.643 116.176 559.156 116.085 558.74 115.903C558.33 115.716 558.014 115.417 557.791 115.007C557.568 114.597 557.457 114.058 557.457 113.39V104.144ZM568.689 113.724V106.49H571.221V116H568.839L568.689 113.724ZM568.971 111.772L569.718 111.755C569.718 112.388 569.645 112.977 569.498 113.521C569.352 114.061 569.132 114.529 568.839 114.928C568.546 115.32 568.177 115.628 567.731 115.851C567.286 116.067 566.762 116.176 566.158 116.176C565.695 116.176 565.268 116.111 564.875 115.982C564.488 115.848 564.154 115.64 563.873 115.358C563.598 115.071 563.381 114.705 563.223 114.26C563.07 113.809 562.994 113.267 562.994 112.634V106.49H565.525V112.651C565.525 112.933 565.558 113.17 565.622 113.363C565.692 113.557 565.789 113.715 565.912 113.838C566.035 113.961 566.179 114.049 566.343 114.102C566.513 114.154 566.7 114.181 566.905 114.181C567.427 114.181 567.837 114.075 568.136 113.864C568.44 113.653 568.654 113.366 568.777 113.003C568.906 112.634 568.971 112.224 568.971 111.772ZM578.287 113.855V109.619C578.287 109.314 578.237 109.054 578.138 108.837C578.038 108.614 577.883 108.441 577.672 108.318C577.467 108.195 577.2 108.134 576.872 108.134C576.591 108.134 576.348 108.184 576.143 108.283C575.938 108.377 575.779 108.515 575.668 108.696C575.557 108.872 575.501 109.08 575.501 109.32H572.97C572.97 108.916 573.063 108.532 573.251 108.169C573.438 107.806 573.711 107.486 574.068 107.211C574.426 106.93 574.851 106.71 575.343 106.552C575.841 106.394 576.397 106.314 577.013 106.314C577.751 106.314 578.407 106.438 578.981 106.684C579.556 106.93 580.007 107.299 580.335 107.791C580.669 108.283 580.836 108.898 580.836 109.637V113.706C580.836 114.228 580.868 114.655 580.933 114.989C580.997 115.317 581.091 115.604 581.214 115.851V116H578.656C578.533 115.742 578.439 115.42 578.375 115.033C578.316 114.641 578.287 114.248 578.287 113.855ZM578.621 110.208L578.639 111.641H577.224C576.89 111.641 576.6 111.679 576.354 111.755C576.107 111.831 575.905 111.939 575.747 112.08C575.589 112.215 575.472 112.373 575.396 112.555C575.325 112.736 575.29 112.936 575.29 113.152C575.29 113.369 575.34 113.565 575.439 113.741C575.539 113.911 575.683 114.046 575.87 114.146C576.058 114.239 576.277 114.286 576.529 114.286C576.91 114.286 577.241 114.21 577.522 114.058C577.804 113.905 578.021 113.718 578.173 113.495C578.331 113.272 578.413 113.062 578.419 112.862L579.087 113.935C578.993 114.175 578.864 114.424 578.7 114.682C578.542 114.939 578.34 115.183 578.094 115.411C577.848 115.634 577.552 115.818 577.206 115.965C576.86 116.105 576.45 116.176 575.976 116.176C575.372 116.176 574.824 116.056 574.332 115.815C573.846 115.569 573.459 115.232 573.172 114.805C572.891 114.371 572.75 113.879 572.75 113.328C572.75 112.83 572.844 112.388 573.031 112.001C573.219 111.614 573.494 111.289 573.857 111.025C574.227 110.756 574.687 110.554 575.237 110.419C575.788 110.278 576.427 110.208 577.153 110.208H578.621ZM587.445 106.49V108.283H581.908V106.49H587.445ZM583.279 104.144H585.811V113.135C585.811 113.41 585.846 113.621 585.916 113.768C585.992 113.914 586.104 114.017 586.25 114.075C586.396 114.128 586.581 114.154 586.804 114.154C586.962 114.154 587.103 114.148 587.226 114.137C587.354 114.119 587.463 114.102 587.551 114.084L587.56 115.947C587.343 116.018 587.108 116.073 586.856 116.114C586.604 116.155 586.326 116.176 586.021 116.176C585.465 116.176 584.979 116.085 584.562 115.903C584.152 115.716 583.836 115.417 583.613 115.007C583.391 114.597 583.279 114.058 583.279 113.39V104.144ZM588.254 111.342V111.157C588.254 110.46 588.354 109.818 588.553 109.232C588.752 108.641 589.042 108.128 589.423 107.694C589.804 107.261 590.272 106.924 590.829 106.684C591.386 106.438 592.024 106.314 592.745 106.314C593.466 106.314 594.107 106.438 594.67 106.684C595.232 106.924 595.704 107.261 596.085 107.694C596.472 108.128 596.765 108.641 596.964 109.232C597.163 109.818 597.263 110.46 597.263 111.157V111.342C597.263 112.033 597.163 112.675 596.964 113.267C596.765 113.853 596.472 114.365 596.085 114.805C595.704 115.238 595.235 115.575 594.679 115.815C594.122 116.056 593.483 116.176 592.763 116.176C592.042 116.176 591.4 116.056 590.838 115.815C590.281 115.575 589.81 115.238 589.423 114.805C589.042 114.365 588.752 113.853 588.553 113.267C588.354 112.675 588.254 112.033 588.254 111.342ZM590.785 111.157V111.342C590.785 111.74 590.82 112.112 590.891 112.458C590.961 112.804 591.072 113.108 591.225 113.372C591.383 113.63 591.588 113.832 591.84 113.979C592.092 114.125 592.399 114.198 592.763 114.198C593.114 114.198 593.416 114.125 593.668 113.979C593.92 113.832 594.122 113.63 594.274 113.372C594.427 113.108 594.538 112.804 594.608 112.458C594.685 112.112 594.723 111.74 594.723 111.342V111.157C594.723 110.771 594.685 110.407 594.608 110.067C594.538 109.722 594.424 109.417 594.266 109.153C594.113 108.884 593.911 108.673 593.659 108.521C593.407 108.368 593.103 108.292 592.745 108.292C592.388 108.292 592.083 108.368 591.831 108.521C591.585 108.673 591.383 108.884 591.225 109.153C591.072 109.417 590.961 109.722 590.891 110.067C590.82 110.407 590.785 110.771 590.785 111.157ZM601.35 108.564V116H598.818V106.49H601.2L601.35 108.564ZM604.215 106.429L604.171 108.775C604.048 108.758 603.898 108.743 603.723 108.731C603.553 108.714 603.397 108.705 603.257 108.705C602.899 108.705 602.589 108.752 602.325 108.846C602.067 108.934 601.851 109.065 601.675 109.241C601.505 109.417 601.376 109.631 601.288 109.883C601.206 110.135 601.159 110.422 601.147 110.744L600.638 110.586C600.638 109.971 600.699 109.405 600.822 108.89C600.945 108.368 601.124 107.914 601.358 107.527C601.599 107.141 601.892 106.842 602.237 106.631C602.583 106.42 602.979 106.314 603.424 106.314C603.564 106.314 603.708 106.326 603.854 106.35C604.001 106.367 604.121 106.394 604.215 106.429ZM610.552 113.372C610.552 113.19 610.499 113.026 610.394 112.88C610.288 112.733 610.092 112.599 609.805 112.476C609.523 112.347 609.116 112.229 608.583 112.124C608.103 112.019 607.654 111.887 607.238 111.729C606.828 111.564 606.471 111.368 606.166 111.14C605.867 110.911 605.633 110.642 605.463 110.331C605.293 110.015 605.208 109.654 605.208 109.25C605.208 108.852 605.293 108.477 605.463 108.125C605.639 107.773 605.888 107.463 606.21 107.193C606.538 106.918 606.937 106.704 607.405 106.552C607.88 106.394 608.413 106.314 609.005 106.314C609.831 106.314 610.54 106.446 611.132 106.71C611.729 106.974 612.187 107.337 612.503 107.8C612.825 108.257 612.986 108.778 612.986 109.364H610.455C610.455 109.118 610.402 108.898 610.297 108.705C610.197 108.506 610.039 108.351 609.822 108.239C609.611 108.122 609.336 108.063 608.996 108.063C608.715 108.063 608.472 108.113 608.267 108.213C608.062 108.307 607.903 108.436 607.792 108.6C607.687 108.758 607.634 108.934 607.634 109.127C607.634 109.273 607.663 109.405 607.722 109.522C607.786 109.634 607.889 109.736 608.029 109.83C608.17 109.924 608.352 110.012 608.574 110.094C608.803 110.17 609.084 110.24 609.418 110.305C610.104 110.445 610.716 110.63 611.255 110.858C611.794 111.081 612.222 111.386 612.538 111.772C612.854 112.153 613.013 112.654 613.013 113.275C613.013 113.697 612.919 114.084 612.731 114.436C612.544 114.787 612.274 115.095 611.923 115.358C611.571 115.616 611.149 115.818 610.657 115.965C610.171 116.105 609.623 116.176 609.014 116.176C608.129 116.176 607.379 116.018 606.764 115.701C606.154 115.385 605.691 114.983 605.375 114.497C605.064 114.005 604.909 113.501 604.909 112.985H607.309C607.32 113.331 607.408 113.609 607.572 113.82C607.742 114.031 607.956 114.184 608.214 114.277C608.478 114.371 608.762 114.418 609.066 114.418C609.395 114.418 609.667 114.374 609.884 114.286C610.101 114.192 610.265 114.069 610.376 113.917C610.493 113.759 610.552 113.577 610.552 113.372Z" fill="black"/>
<rect x="259.5" y="89" width="167" height="42" rx="15" fill="#C4C4C4"/>
<path d="M85.3047 112.651C85.3047 112.423 85.2695 112.218 85.1992 112.036C85.1348 111.849 85.0117 111.679 84.8301 111.526C84.6484 111.368 84.3936 111.213 84.0654 111.061C83.7373 110.908 83.3125 110.75 82.791 110.586C82.2109 110.398 81.6602 110.188 81.1387 109.953C80.623 109.719 80.166 109.446 79.7676 109.136C79.375 108.819 79.0645 108.453 78.8359 108.037C78.6133 107.621 78.502 107.138 78.502 106.587C78.502 106.054 78.6191 105.57 78.8535 105.137C79.0879 104.697 79.416 104.322 79.8379 104.012C80.2598 103.695 80.7578 103.452 81.332 103.282C81.9121 103.112 82.5479 103.027 83.2393 103.027C84.1826 103.027 85.0059 103.197 85.709 103.537C86.4121 103.877 86.957 104.343 87.3438 104.935C87.7363 105.526 87.9326 106.203 87.9326 106.965H85.3135C85.3135 106.59 85.2344 106.262 85.0762 105.98C84.9238 105.693 84.6895 105.468 84.373 105.304C84.0625 105.14 83.6699 105.058 83.1953 105.058C82.7383 105.058 82.3574 105.128 82.0527 105.269C81.748 105.403 81.5195 105.588 81.3672 105.822C81.2148 106.051 81.1387 106.309 81.1387 106.596C81.1387 106.812 81.1914 107.009 81.2969 107.185C81.4082 107.36 81.5723 107.524 81.7891 107.677C82.0059 107.829 82.2725 107.973 82.5889 108.107C82.9053 108.242 83.2715 108.374 83.6875 108.503C84.3848 108.714 84.9971 108.951 85.5244 109.215C86.0576 109.479 86.5029 109.774 86.8604 110.103C87.2178 110.431 87.4873 110.803 87.6689 111.219C87.8506 111.635 87.9414 112.106 87.9414 112.634C87.9414 113.19 87.833 113.688 87.6162 114.128C87.3994 114.567 87.0859 114.939 86.6758 115.244C86.2656 115.549 85.7764 115.78 85.208 115.938C84.6396 116.097 84.0039 116.176 83.3008 116.176C82.668 116.176 82.0439 116.094 81.4287 115.93C80.8135 115.76 80.2539 115.505 79.75 115.165C79.252 114.825 78.8535 114.392 78.5547 113.864C78.2559 113.337 78.1064 112.713 78.1064 111.992H80.752C80.752 112.391 80.8135 112.728 80.9365 113.003C81.0596 113.278 81.2324 113.501 81.4551 113.671C81.6836 113.841 81.9531 113.964 82.2637 114.04C82.5801 114.116 82.9258 114.154 83.3008 114.154C83.7578 114.154 84.1328 114.09 84.4258 113.961C84.7246 113.832 84.9443 113.653 85.085 113.425C85.2314 113.196 85.3047 112.938 85.3047 112.651ZM93.9531 116.176C93.2148 116.176 92.5527 116.059 91.9668 115.824C91.3809 115.584 90.8828 115.253 90.4727 114.831C90.0684 114.409 89.7578 113.92 89.541 113.363C89.3242 112.801 89.2158 112.203 89.2158 111.57V111.219C89.2158 110.498 89.3184 109.839 89.5234 109.241C89.7285 108.644 90.0215 108.125 90.4023 107.686C90.7891 107.246 91.2578 106.909 91.8086 106.675C92.3594 106.435 92.9805 106.314 93.6719 106.314C94.3457 106.314 94.9434 106.426 95.4648 106.648C95.9863 106.871 96.4229 107.188 96.7744 107.598C97.1318 108.008 97.4014 108.5 97.583 109.074C97.7646 109.643 97.8555 110.275 97.8555 110.973V112.027H90.2969V110.34H95.3682V110.146C95.3682 109.795 95.3037 109.481 95.1748 109.206C95.0518 108.925 94.8643 108.702 94.6123 108.538C94.3604 108.374 94.0381 108.292 93.6455 108.292C93.3115 108.292 93.0244 108.365 92.7842 108.512C92.5439 108.658 92.3477 108.863 92.1953 109.127C92.0488 109.391 91.9375 109.701 91.8613 110.059C91.791 110.41 91.7559 110.797 91.7559 111.219V111.57C91.7559 111.951 91.8086 112.303 91.9141 112.625C92.0254 112.947 92.1807 113.226 92.3799 113.46C92.585 113.694 92.8311 113.876 93.1182 114.005C93.4111 114.134 93.7422 114.198 94.1113 114.198C94.5684 114.198 94.9932 114.11 95.3857 113.935C95.7842 113.753 96.127 113.48 96.4141 113.117L97.6445 114.453C97.4453 114.74 97.1729 115.016 96.8271 115.279C96.4873 115.543 96.0771 115.76 95.5967 115.93C95.1162 116.094 94.5684 116.176 93.9531 116.176ZM101.775 108.521V116H99.2441V106.49H101.617L101.775 108.521ZM101.406 110.911H100.721C100.721 110.208 100.812 109.575 100.993 109.013C101.175 108.444 101.43 107.961 101.758 107.562C102.086 107.158 102.476 106.851 102.927 106.64C103.384 106.423 103.894 106.314 104.456 106.314C104.901 106.314 105.309 106.379 105.678 106.508C106.047 106.637 106.363 106.842 106.627 107.123C106.896 107.404 107.102 107.776 107.242 108.239C107.389 108.702 107.462 109.268 107.462 109.936V116H104.913V109.927C104.913 109.505 104.854 109.177 104.737 108.942C104.62 108.708 104.447 108.544 104.219 108.45C103.996 108.351 103.721 108.301 103.393 108.301C103.053 108.301 102.757 108.368 102.505 108.503C102.259 108.638 102.054 108.825 101.89 109.065C101.731 109.3 101.611 109.575 101.529 109.892C101.447 110.208 101.406 110.548 101.406 110.911ZM114.528 113.372C114.528 113.19 114.476 113.026 114.37 112.88C114.265 112.733 114.068 112.599 113.781 112.476C113.5 112.347 113.093 112.229 112.56 112.124C112.079 112.019 111.631 111.887 111.215 111.729C110.805 111.564 110.447 111.368 110.143 111.14C109.844 110.911 109.609 110.642 109.439 110.331C109.27 110.015 109.185 109.654 109.185 109.25C109.185 108.852 109.27 108.477 109.439 108.125C109.615 107.773 109.864 107.463 110.187 107.193C110.515 106.918 110.913 106.704 111.382 106.552C111.856 106.394 112.39 106.314 112.981 106.314C113.808 106.314 114.517 106.446 115.108 106.71C115.706 106.974 116.163 107.337 116.479 107.8C116.802 108.257 116.963 108.778 116.963 109.364H114.432C114.432 109.118 114.379 108.898 114.273 108.705C114.174 108.506 114.016 108.351 113.799 108.239C113.588 108.122 113.312 108.063 112.973 108.063C112.691 108.063 112.448 108.113 112.243 108.213C112.038 108.307 111.88 108.436 111.769 108.6C111.663 108.758 111.61 108.934 111.61 109.127C111.61 109.273 111.64 109.405 111.698 109.522C111.763 109.634 111.865 109.736 112.006 109.83C112.146 109.924 112.328 110.012 112.551 110.094C112.779 110.17 113.061 110.24 113.395 110.305C114.08 110.445 114.692 110.63 115.231 110.858C115.771 111.081 116.198 111.386 116.515 111.772C116.831 112.153 116.989 112.654 116.989 113.275C116.989 113.697 116.896 114.084 116.708 114.436C116.521 114.787 116.251 115.095 115.899 115.358C115.548 115.616 115.126 115.818 114.634 115.965C114.147 116.105 113.6 116.176 112.99 116.176C112.105 116.176 111.355 116.018 110.74 115.701C110.131 115.385 109.668 114.983 109.352 114.497C109.041 114.005 108.886 113.501 108.886 112.985H111.285C111.297 113.331 111.385 113.609 111.549 113.82C111.719 114.031 111.933 114.184 112.19 114.277C112.454 114.371 112.738 114.418 113.043 114.418C113.371 114.418 113.644 114.374 113.86 114.286C114.077 114.192 114.241 114.069 114.353 113.917C114.47 113.759 114.528 113.577 114.528 113.372ZM118.229 111.342V111.157C118.229 110.46 118.328 109.818 118.527 109.232C118.727 108.641 119.017 108.128 119.397 107.694C119.778 107.261 120.247 106.924 120.804 106.684C121.36 106.438 121.999 106.314 122.72 106.314C123.44 106.314 124.082 106.438 124.645 106.684C125.207 106.924 125.679 107.261 126.06 107.694C126.446 108.128 126.739 108.641 126.938 109.232C127.138 109.818 127.237 110.46 127.237 111.157V111.342C127.237 112.033 127.138 112.675 126.938 113.267C126.739 113.853 126.446 114.365 126.06 114.805C125.679 115.238 125.21 115.575 124.653 115.815C124.097 116.056 123.458 116.176 122.737 116.176C122.017 116.176 121.375 116.056 120.812 115.815C120.256 115.575 119.784 115.238 119.397 114.805C119.017 114.365 118.727 113.853 118.527 113.267C118.328 112.675 118.229 112.033 118.229 111.342ZM120.76 111.157V111.342C120.76 111.74 120.795 112.112 120.865 112.458C120.936 112.804 121.047 113.108 121.199 113.372C121.357 113.63 121.562 113.832 121.814 113.979C122.066 114.125 122.374 114.198 122.737 114.198C123.089 114.198 123.391 114.125 123.643 113.979C123.895 113.832 124.097 113.63 124.249 113.372C124.401 113.108 124.513 112.804 124.583 112.458C124.659 112.112 124.697 111.74 124.697 111.342V111.157C124.697 110.771 124.659 110.407 124.583 110.067C124.513 109.722 124.398 109.417 124.24 109.153C124.088 108.884 123.886 108.673 123.634 108.521C123.382 108.368 123.077 108.292 122.72 108.292C122.362 108.292 122.058 108.368 121.806 108.521C121.56 108.673 121.357 108.884 121.199 109.153C121.047 109.417 120.936 109.722 120.865 110.067C120.795 110.407 120.76 110.771 120.76 111.157ZM131.324 108.564V116H128.793V106.49H131.175L131.324 108.564ZM134.189 106.429L134.146 108.775C134.022 108.758 133.873 108.743 133.697 108.731C133.527 108.714 133.372 108.705 133.231 108.705C132.874 108.705 132.563 108.752 132.3 108.846C132.042 108.934 131.825 109.065 131.649 109.241C131.479 109.417 131.351 109.631 131.263 109.883C131.181 110.135 131.134 110.422 131.122 110.744L130.612 110.586C130.612 109.971 130.674 109.405 130.797 108.89C130.92 108.368 131.099 107.914 131.333 107.527C131.573 107.141 131.866 106.842 132.212 106.631C132.558 106.42 132.953 106.314 133.398 106.314C133.539 106.314 133.683 106.326 133.829 106.35C133.976 106.367 134.096 106.394 134.189 106.429ZM140.526 113.372C140.526 113.19 140.474 113.026 140.368 112.88C140.263 112.733 140.066 112.599 139.779 112.476C139.498 112.347 139.091 112.229 138.558 112.124C138.077 112.019 137.629 111.887 137.213 111.729C136.803 111.564 136.445 111.368 136.141 111.14C135.842 110.911 135.607 110.642 135.438 110.331C135.268 110.015 135.183 109.654 135.183 109.25C135.183 108.852 135.268 108.477 135.438 108.125C135.613 107.773 135.862 107.463 136.185 107.193C136.513 106.918 136.911 106.704 137.38 106.552C137.854 106.394 138.388 106.314 138.979 106.314C139.806 106.314 140.515 106.446 141.106 106.71C141.704 106.974 142.161 107.337 142.478 107.8C142.8 108.257 142.961 108.778 142.961 109.364H140.43C140.43 109.118 140.377 108.898 140.271 108.705C140.172 108.506 140.014 108.351 139.797 108.239C139.586 108.122 139.311 108.063 138.971 108.063C138.689 108.063 138.446 108.113 138.241 108.213C138.036 108.307 137.878 108.436 137.767 108.6C137.661 108.758 137.608 108.934 137.608 109.127C137.608 109.273 137.638 109.405 137.696 109.522C137.761 109.634 137.863 109.736 138.004 109.83C138.145 109.924 138.326 110.012 138.549 110.094C138.777 110.17 139.059 110.24 139.393 110.305C140.078 110.445 140.69 110.63 141.229 110.858C141.769 111.081 142.196 111.386 142.513 111.772C142.829 112.153 142.987 112.654 142.987 113.275C142.987 113.697 142.894 114.084 142.706 114.436C142.519 114.787 142.249 115.095 141.897 115.358C141.546 115.616 141.124 115.818 140.632 115.965C140.146 116.105 139.598 116.176 138.988 116.176C138.104 116.176 137.354 116.018 136.738 115.701C136.129 115.385 135.666 114.983 135.35 114.497C135.039 114.005 134.884 113.501 134.884 112.985H137.283C137.295 113.331 137.383 113.609 137.547 113.82C137.717 114.031 137.931 114.184 138.188 114.277C138.452 114.371 138.736 114.418 139.041 114.418C139.369 114.418 139.642 114.374 139.858 114.286C140.075 114.192 140.239 114.069 140.351 113.917C140.468 113.759 140.526 113.577 140.526 113.372Z" fill="black"/>
<path d="M323.164 113.97L325.713 103.203H327.137L327.462 104.996L324.746 116H323.217L323.164 113.97ZM321.854 103.203L323.964 113.97L323.788 116H322.083L319.244 103.203H321.854ZM329.703 113.926L331.786 103.203H334.396L331.566 116H329.861L329.703 113.926ZM327.937 103.203L330.503 114.014L330.433 116H328.903L326.17 104.987L326.521 103.203H327.937ZM334.985 111.342V111.157C334.985 110.46 335.085 109.818 335.284 109.232C335.483 108.641 335.773 108.128 336.154 107.694C336.535 107.261 337.004 106.924 337.561 106.684C338.117 106.438 338.756 106.314 339.477 106.314C340.197 106.314 340.839 106.438 341.401 106.684C341.964 106.924 342.436 107.261 342.816 107.694C343.203 108.128 343.496 108.641 343.695 109.232C343.895 109.818 343.994 110.46 343.994 111.157V111.342C343.994 112.033 343.895 112.675 343.695 113.267C343.496 113.853 343.203 114.365 342.816 114.805C342.436 115.238 341.967 115.575 341.41 115.815C340.854 116.056 340.215 116.176 339.494 116.176C338.773 116.176 338.132 116.056 337.569 115.815C337.013 115.575 336.541 115.238 336.154 114.805C335.773 114.365 335.483 113.853 335.284 113.267C335.085 112.675 334.985 112.033 334.985 111.342ZM337.517 111.157V111.342C337.517 111.74 337.552 112.112 337.622 112.458C337.692 112.804 337.804 113.108 337.956 113.372C338.114 113.63 338.319 113.832 338.571 113.979C338.823 114.125 339.131 114.198 339.494 114.198C339.846 114.198 340.147 114.125 340.399 113.979C340.651 113.832 340.854 113.63 341.006 113.372C341.158 113.108 341.27 112.804 341.34 112.458C341.416 112.112 341.454 111.74 341.454 111.342V111.157C341.454 110.771 341.416 110.407 341.34 110.067C341.27 109.722 341.155 109.417 340.997 109.153C340.845 108.884 340.643 108.673 340.391 108.521C340.139 108.368 339.834 108.292 339.477 108.292C339.119 108.292 338.814 108.368 338.562 108.521C338.316 108.673 338.114 108.884 337.956 109.153C337.804 109.417 337.692 109.722 337.622 110.067C337.552 110.407 337.517 110.771 337.517 111.157ZM348.081 108.564V116H345.55V106.49H347.932L348.081 108.564ZM350.946 106.429L350.902 108.775C350.779 108.758 350.63 108.743 350.454 108.731C350.284 108.714 350.129 108.705 349.988 108.705C349.631 108.705 349.32 108.752 349.057 108.846C348.799 108.934 348.582 109.065 348.406 109.241C348.236 109.417 348.107 109.631 348.02 109.883C347.938 110.135 347.891 110.422 347.879 110.744L347.369 110.586C347.369 109.971 347.431 109.405 347.554 108.89C347.677 108.368 347.855 107.914 348.09 107.527C348.33 107.141 348.623 106.842 348.969 106.631C349.314 106.42 349.71 106.314 350.155 106.314C350.296 106.314 350.439 106.326 350.586 106.35C350.732 106.367 350.853 106.394 350.946 106.429ZM354.813 102.5V116H352.273V102.5H354.813ZM362.521 113.926V102.5H365.07V116H362.776L362.521 113.926ZM356.51 111.359V111.175C356.51 110.448 356.592 109.789 356.756 109.197C356.92 108.6 357.16 108.087 357.477 107.659C357.793 107.231 358.183 106.9 358.646 106.666C359.108 106.432 359.636 106.314 360.228 106.314C360.784 106.314 361.271 106.432 361.687 106.666C362.108 106.9 362.466 107.234 362.759 107.668C363.058 108.096 363.298 108.603 363.479 109.188C363.661 109.769 363.793 110.404 363.875 111.096V111.5C363.793 112.162 363.661 112.777 363.479 113.346C363.298 113.914 363.058 114.412 362.759 114.84C362.466 115.262 362.108 115.59 361.687 115.824C361.265 116.059 360.772 116.176 360.21 116.176C359.618 116.176 359.091 116.056 358.628 115.815C358.171 115.575 357.784 115.238 357.468 114.805C357.157 114.371 356.92 113.861 356.756 113.275C356.592 112.689 356.51 112.051 356.51 111.359ZM359.041 111.175V111.359C359.041 111.752 359.07 112.118 359.129 112.458C359.193 112.798 359.296 113.1 359.437 113.363C359.583 113.621 359.771 113.823 359.999 113.97C360.233 114.11 360.518 114.181 360.852 114.181C361.285 114.181 361.643 114.084 361.924 113.891C362.205 113.691 362.419 113.419 362.565 113.073C362.718 112.728 362.806 112.329 362.829 111.878V110.727C362.812 110.357 362.759 110.026 362.671 109.733C362.589 109.435 362.466 109.18 362.302 108.969C362.144 108.758 361.944 108.594 361.704 108.477C361.47 108.359 361.191 108.301 360.869 108.301C360.541 108.301 360.26 108.377 360.025 108.529C359.791 108.676 359.601 108.878 359.454 109.136C359.313 109.394 359.208 109.698 359.138 110.05C359.073 110.396 359.041 110.771 359.041 111.175Z" fill="black"/>
<path d="M153.793 109.293C153.402 109.683 153.402 110.317 153.793 110.707L160.157 117.071C160.547 117.462 161.181 117.462 161.571 117.071C161.962 116.681 161.962 116.047 161.571 115.657L155.914 110L161.571 104.343C161.962 103.953 161.962 103.319 161.571 102.929C161.181 102.538 160.547 102.538 160.157 102.929L153.793 109.293ZM259.5 109L154.5 109V111L259.5 111V109Z" fill="black"/>
<path d="M425.793 109.293C425.402 109.683 425.402 110.317 425.793 110.707L432.157 117.071C432.547 117.462 433.181 117.462 433.571 117.071C433.962 116.681 433.962 116.047 433.571 115.657L427.914 110L433.571 104.343C433.962 103.953 433.962 103.319 433.571 102.929C433.181 102.538 432.547 102.538 432.157 102.929L425.793 109.293ZM523.5 109L426.5 109V111L523.5 111V109Z" fill="black"/>
<path d="M490.707 29.7071C491.098 29.3166 491.098 28.6834 490.707 28.2929L484.343 21.9289C483.953 21.5384 483.319 21.5384 482.929 21.9289C482.538 22.3195 482.538 22.9526 482.929 23.3431L488.586 29L482.929 34.6569C482.538 35.0474 482.538 35.6805 482.929 36.0711C483.319 36.4616 483.953 36.4616 484.343 36.0711L490.707 29.7071ZM195 30H490V28H195V30Z" fill="black"/>
</svg>
