<svg width="530" height="447" viewBox="0 0 530 447" fill="none" xmlns="http://www.w3.org/2000/svg">
<circle cx="100.5" cy="133.5" r="33" fill="white" stroke="black"/>
<circle cx="100.5" cy="261.5" r="33" fill="#FF9900" stroke="black"/>
<circle cx="33.5" cy="33.5" r="33" fill="#FF9900" stroke="black"/>
<path d="M88.0312 133.949L90.8438 129.32H93.375L89.2266 135.59L93.5039 142H90.9961L88.0664 137.254L85.1367 142H82.6172L86.8945 135.59L82.7461 129.32H85.2539L88.0312 133.949ZM96.731 139.072C96.731 139.232 96.723 139.44 96.707 139.696C96.691 139.936 96.675 140.144 96.659 140.32H96.731C96.795 140.256 96.883 140.152 96.995 140.008C97.123 139.864 97.251 139.72 97.379 139.576C97.523 139.416 97.635 139.288 97.715 139.192L100.403 136.576H102.011L98.603 139.888L102.227 144.304H100.571L97.667 140.704L96.731 141.472V144.304H95.363V133.36H96.731V139.072ZM103.203 141.112V139.864H109.635V141.112H103.203ZM116.233 134.848V145.12H114.529V138.496C114.529 138.08 114.537 137.704 114.553 137.368C114.585 137.032 114.609 136.696 114.625 136.36C114.465 136.504 114.289 136.664 114.097 136.84C113.905 137 113.705 137.152 113.497 137.296L112.201 138.232L111.361 137.056L114.481 134.848H116.233Z" fill="black"/>
<path d="M85.8164 268.23H93.2344V270H83.168V268.406L90.1641 259.113H83.2734V257.32H92.8828V258.855L85.8164 268.23ZM96.731 267.072C96.731 267.232 96.723 267.44 96.707 267.696C96.691 267.936 96.675 268.144 96.659 268.32H96.731C96.795 268.256 96.883 268.152 96.995 268.008C97.123 267.864 97.251 267.72 97.379 267.576C97.523 267.416 97.635 267.288 97.715 267.192L100.403 264.576H102.011L98.603 267.888L102.227 272.304H100.571L97.667 268.704L96.731 269.472V272.304H95.363V261.36H96.731V267.072ZM103.203 269.112V267.864H109.635V269.112H103.203ZM116.233 262.848V273.12H114.529V266.496C114.529 266.08 114.537 265.704 114.553 265.368C114.585 265.032 114.609 264.696 114.625 264.36C114.465 264.504 114.289 264.664 114.097 264.84C113.905 265 113.705 265.152 113.497 265.296L112.201 266.232L111.361 265.056L114.481 262.848H116.233Z" fill="black"/>
<path d="M23.9375 40.7461C23.0938 41.7383 21.8555 42.2344 20.2227 42.2344C18.8711 42.2344 17.8398 41.8438 17.1289 41.0625C16.4258 40.2734 16.0703 39.1094 16.0625 37.5703V29.3203H18.2305V37.5117C18.2305 39.4336 19.0117 40.3945 20.5742 40.3945C22.2305 40.3945 23.332 39.7773 23.8789 38.543V29.3203H26.0469V42H23.9844L23.9375 40.7461ZM30.3989 39.072C30.3989 39.232 30.3909 39.44 30.3749 39.696C30.3589 39.936 30.3429 40.144 30.3269 40.32H30.3989C30.4629 40.256 30.5509 40.152 30.6629 40.008C30.7909 39.864 30.9189 39.72 31.0469 39.576C31.1909 39.416 31.3029 39.288 31.3829 39.192L34.0709 36.576H35.6789L32.2709 39.888L35.8949 44.304H34.2389L31.3349 40.704L30.3989 41.472V44.304H29.0309V33.36H30.3989V39.072ZM36.8713 41.112V39.864H43.3033V41.112H36.8713ZM49.9006 34.848V45.12H48.1966V38.496C48.1966 38.08 48.2046 37.704 48.2206 37.368C48.2526 37.032 48.2766 36.696 48.2926 36.36C48.1326 36.504 47.9566 36.664 47.7646 36.84C47.5726 37 47.3726 37.152 47.1646 37.296L45.8686 38.232L45.0286 37.056L48.1486 34.848H49.9006Z" fill="black"/>
<circle cx="298.5" cy="133.5" r="33" fill="white" stroke="black"/>
<circle cx="298.5" cy="261.5" r="33" fill="#FF9900" stroke="black"/>
<circle cx="298.5" cy="413.5" r="33" fill="white" stroke="black"/>
<circle cx="231.5" cy="33.5" r="33" fill="#FF9900" stroke="black"/>
<circle cx="496.5" cy="133.5" r="33" fill="white" stroke="black"/>
<circle cx="496.5" cy="261.5" r="33" fill="#FF9900" stroke="black"/>
<circle cx="429.5" cy="33.5" r="33" fill="#FF9900" stroke="black"/>
<path d="M294.281 133.949L297.094 129.32H299.625L295.477 135.59L299.754 142H297.246L294.316 137.254L291.387 142H288.867L293.145 135.59L288.996 129.32H291.504L294.281 133.949ZM302.981 139.072C302.981 139.232 302.973 139.44 302.957 139.696C302.941 139.936 302.925 140.144 302.909 140.32H302.981C303.045 140.256 303.133 140.152 303.245 140.008C303.373 139.864 303.501 139.72 303.629 139.576C303.773 139.416 303.885 139.288 303.965 139.192L306.653 136.576H308.261L304.853 139.888L308.477 144.304H306.821L303.917 140.704L302.981 141.472V144.304H301.613V133.36H302.981V139.072Z" fill="black"/>
<path d="M292.066 268.23H299.484V270H289.418V268.406L296.414 259.113H289.523V257.32H299.133V258.855L292.066 268.23ZM302.981 267.072C302.981 267.232 302.973 267.44 302.957 267.696C302.941 267.936 302.925 268.144 302.909 268.32H302.981C303.045 268.256 303.133 268.152 303.245 268.008C303.373 267.864 303.501 267.72 303.629 267.576C303.773 267.416 303.885 267.288 303.965 267.192L306.653 264.576H308.261L304.853 267.888L308.477 272.304H306.821L303.917 268.704L302.981 269.472V272.304H301.613V261.36H302.981V267.072Z" fill="black"/>
<path d="M291.656 409.32L291.715 410.727C292.645 409.633 293.898 409.086 295.477 409.086C297.25 409.086 298.457 409.766 299.098 411.125C299.52 410.516 300.066 410.023 300.738 409.648C301.418 409.273 302.219 409.086 303.141 409.086C305.922 409.086 307.336 410.559 307.383 413.504V422H305.215V413.633C305.215 412.727 305.008 412.051 304.594 411.605C304.18 411.152 303.484 410.926 302.508 410.926C301.703 410.926 301.035 411.168 300.504 411.652C299.973 412.129 299.664 412.773 299.578 413.586V422H297.398V413.691C297.398 411.848 296.496 410.926 294.691 410.926C293.27 410.926 292.297 411.531 291.773 412.742V422H289.605V409.32H291.656Z" fill="black"/>
<path d="M230.188 40.7461C229.344 41.7383 228.105 42.2344 226.473 42.2344C225.121 42.2344 224.09 41.8438 223.379 41.0625C222.676 40.2734 222.32 39.1094 222.312 37.5703V29.3203H224.48V37.5117C224.48 39.4336 225.262 40.3945 226.824 40.3945C228.48 40.3945 229.582 39.7773 230.129 38.543V29.3203H232.297V42H230.234L230.188 40.7461ZM236.649 39.072C236.649 39.232 236.641 39.44 236.625 39.696C236.609 39.936 236.593 40.144 236.577 40.32H236.649C236.713 40.256 236.801 40.152 236.913 40.008C237.041 39.864 237.169 39.72 237.297 39.576C237.441 39.416 237.553 39.288 237.633 39.192L240.321 36.576H241.929L238.521 39.888L242.145 44.304H240.489L237.585 40.704L236.649 41.472V44.304H235.281V33.36H236.649V39.072Z" fill="black"/>
<path d="M484.031 133.949L486.844 129.32H489.375L485.227 135.59L489.504 142H486.996L484.066 137.254L481.137 142H478.617L482.895 135.59L478.746 129.32H481.254L484.031 133.949ZM492.731 139.072C492.731 139.232 492.723 139.44 492.707 139.696C492.691 139.936 492.675 140.144 492.659 140.32H492.731C492.795 140.256 492.883 140.152 492.995 140.008C493.123 139.864 493.251 139.72 493.379 139.576C493.523 139.416 493.635 139.288 493.715 139.192L496.403 136.576H498.011L494.603 139.888L498.227 144.304H496.571L493.667 140.704L492.731 141.472V144.304H491.363V133.36H492.731V139.072ZM501.795 143.776V141.112H499.203V139.864H501.795V137.2H503.043V139.864H505.635V141.112H503.043V143.776H501.795ZM512.233 134.848V145.12H510.529V138.496C510.529 138.08 510.537 137.704 510.553 137.368C510.585 137.032 510.609 136.696 510.625 136.36C510.465 136.504 510.289 136.664 510.097 136.84C509.905 137 509.705 137.152 509.497 137.296L508.201 138.232L507.361 137.056L510.481 134.848H512.233Z" fill="black"/>
<path d="M481.816 268.23H489.234V270H479.168V268.406L486.164 259.113H479.273V257.32H488.883V258.855L481.816 268.23ZM492.731 267.072C492.731 267.232 492.723 267.44 492.707 267.696C492.691 267.936 492.675 268.144 492.659 268.32H492.731C492.795 268.256 492.883 268.152 492.995 268.008C493.123 267.864 493.251 267.72 493.379 267.576C493.523 267.416 493.635 267.288 493.715 267.192L496.403 264.576H498.011L494.603 267.888L498.227 272.304H496.571L493.667 268.704L492.731 269.472V272.304H491.363V261.36H492.731V267.072ZM501.795 271.776V269.112H499.203V267.864H501.795V265.2H503.043V267.864H505.635V269.112H503.043V271.776H501.795ZM512.233 262.848V273.12H510.529V266.496C510.529 266.08 510.537 265.704 510.553 265.368C510.585 265.032 510.609 264.696 510.625 264.36C510.465 264.504 510.289 264.664 510.097 264.84C509.905 265 509.705 265.152 509.497 265.296L508.201 266.232L507.361 265.056L510.481 262.848H512.233Z" fill="black"/>
<path d="M419.938 40.7461C419.094 41.7383 417.855 42.2344 416.223 42.2344C414.871 42.2344 413.84 41.8438 413.129 41.0625C412.426 40.2734 412.07 39.1094 412.062 37.5703V29.3203H414.23V37.5117C414.23 39.4336 415.012 40.3945 416.574 40.3945C418.23 40.3945 419.332 39.7773 419.879 38.543V29.3203H422.047V42H419.984L419.938 40.7461ZM426.399 39.072C426.399 39.232 426.391 39.44 426.375 39.696C426.359 39.936 426.343 40.144 426.327 40.32H426.399C426.463 40.256 426.551 40.152 426.663 40.008C426.791 39.864 426.919 39.72 427.047 39.576C427.191 39.416 427.303 39.288 427.383 39.192L430.071 36.576H431.679L428.271 39.888L431.895 44.304H430.239L427.335 40.704L426.399 41.472V44.304H425.031V33.36H426.399V39.072ZM435.463 43.776V41.112H432.871V39.864H435.463V37.2H436.711V39.864H439.303V41.112H436.711V43.776H435.463ZM445.901 34.848V45.12H444.197V38.496C444.197 38.08 444.205 37.704 444.221 37.368C444.253 37.032 444.277 36.696 444.293 36.36C444.133 36.504 443.957 36.664 443.765 36.84C443.573 37 443.373 37.152 443.165 37.296L441.869 38.232L441.029 37.056L444.149 34.848H445.901Z" fill="black"/>
<path d="M265 133L255 127.226V138.774L265 133ZM134 134H256V132H134V134Z" fill="black"/>
<path d="M100 228L105.774 218H94.2265L100 228ZM99 167L99 219H101L101 167H99Z" fill="black"/>
<path d="M125 284L129.466 294.648L136.455 285.456L125 284ZM271.605 394.204L132.77 288.651L131.559 290.243L270.395 395.796L271.605 394.204Z" fill="black"/>
<path d="M297.951 295.001L292.301 305.071L303.847 304.929L297.951 295.001ZM300 379.988L299.062 303.988L297.062 304.012L298 380.012L300 379.988Z" fill="black"/>
<path d="M472 284L460.545 285.456L467.534 294.648L472 284ZM326.605 395.796L465.441 290.243L464.23 288.651L325.395 394.204L326.605 395.796Z" fill="black"/>
<path d="M298 228L303.774 218H292.226L298 228ZM297 167V219H299V167H297Z" fill="black"/>
<path d="M496 228L501.774 218H490.226L496 228ZM495 167V219H497V167H495Z" fill="black"/>
<path d="M100 100L97.0114 88.8465L88.8465 97.0114L100 100ZM56.2929 57.7071L92.9289 94.3431L94.3432 92.9289L57.7071 56.2929L56.2929 57.7071Z" fill="black"/>
<path d="M298 100L295.011 88.8465L286.846 97.0114L298 100ZM254.293 57.7071L290.929 94.3431L292.343 92.9289L255.707 56.2929L254.293 57.7071Z" fill="black"/>
<path d="M497 100L494.011 88.8465L485.846 97.0114L497 100ZM453.293 57.7071L489.929 94.3431L491.343 92.9289L454.707 56.2929L453.293 57.7071Z" fill="black"/>
<path d="M463 133L453 127.226V138.774L463 133ZM332 134H454V132H332V134Z" fill="black"/>
</svg>
