<svg width="912" height="300" viewBox="0 0 912 300" fill="none" xmlns="http://www.w3.org/2000/svg">
<rect x="0.5" y="0.5" width="299" height="299" fill="white" stroke="black"/>
<path d="M28.9113 244.521C28.9113 244.521 64.4113 176.875 117.411 173.521C170.411 170.166 208.126 159.472 275.411 104.021" stroke="black"/>
<path d="M264.321 103.713L283.05 98.4998L274.359 115.891L264.321 103.713Z" fill="#FF9900" stroke="black"/>
<path d="M143.885 163.955L163.09 166.978L147.97 179.199L143.885 163.955Z" fill="#FF9900" stroke="black"/>
<path d="M28.5778 243.5C28.5778 243.5 63.5779 158.854 116.578 155.5C169.578 152.146 192.126 141.472 259.411 86.0209" stroke="black" stroke-dasharray="2 2"/>
<path d="M18.8159 246.64L34.3318 234.926L32.6193 254.292L18.8159 246.64Z" fill="#FF9900" stroke="black"/>
<path d="M147.188 151.332L130.95 165.174L126.031 148.566L147.188 151.332Z" fill="#E5E5E5"/>
<path d="M265.413 78.1L259.334 98.5523L246.163 87.3035L265.413 78.1Z" fill="#E5E5E5"/>
<line x1="134.909" y1="154.625" x2="151.909" y2="169.625" stroke="black" stroke-dasharray="1 1"/>
<line x1="256.941" y1="87.6567" x2="273.941" y2="105.657" stroke="black" stroke-dasharray="1 1"/>
<path d="M95.0778 253L97.2106 258.528H104.113L98.5288 261.944L100.662 267.472L95.0778 264.056L89.4938 267.472L91.6267 261.944L86.0427 258.528H92.9449L95.0778 253Z" fill="#F2C94C"/>
<path d="M275.078 34L277.211 39.5279H284.113L278.529 42.9443L280.662 48.4721L275.078 45.0557L269.494 48.4721L271.627 42.9443L266.043 39.5279H272.945L275.078 34Z" fill="#F2C94C"/>
<path d="M239.078 164L241.211 169.528H248.113L242.529 172.944L244.662 178.472L239.078 175.056L233.494 178.472L235.627 172.944L230.043 169.528H236.945L239.078 164Z" fill="#F2C94C"/>
<path d="M19.0778 164L21.2106 169.528H28.1128L22.5288 172.944L24.6617 178.472L19.0778 175.056L13.4938 178.472L15.6267 172.944L10.0427 169.528H16.9449L19.0778 164Z" fill="#F2C94C"/>
<line x1="26.0823" y1="239.067" x2="18.0823" y2="180.067" stroke="black" stroke-dasharray="2 8"/>
<line x1="162.593" y1="169.5" x2="229.593" y2="171.5" stroke="black" stroke-dasharray="2 8"/>
<line x1="145.593" y1="154.5" x2="212.593" y2="156.5" stroke="black" stroke-dasharray="2 8"/>
<line x1="243.131" y1="165.776" x2="269.131" y2="113.776" stroke="black" stroke-dasharray="2 8"/>
<line x1="273.078" y1="98.9898" x2="274.078" y2="49.9898" stroke="black" stroke-dasharray="2 8"/>
<line x1="256.078" y1="80.9898" x2="257.078" y2="31.9898" stroke="black" stroke-dasharray="2 8"/>
<line x1="227.131" y1="146.776" x2="253.131" y2="94.7764" stroke="black" stroke-dasharray="2 8"/>
<line x1="34.7178" y1="246.52" x2="82.7178" y2="260.52" stroke="black" stroke-dasharray="2 8"/>
<rect x="612.5" y="0.5" width="299" height="299" fill="white" stroke="black"/>
<path d="M640.911 250.521C640.911 250.521 676.411 182.875 729.411 179.521C782.411 176.166 820.126 165.472 887.411 110.021" stroke="black"/>
<path d="M876.321 109.713L895.05 104.5L886.359 121.891L876.321 109.713Z" fill="#FF9900" stroke="black"/>
<path d="M755.885 169.955L775.09 172.978L759.97 185.199L755.885 169.955Z" fill="#FF9900" stroke="black"/>
<path d="M640.578 249.5C640.578 249.5 675.578 164.854 728.578 161.5C781.578 158.146 804.126 147.472 871.411 92.0209" stroke="black" stroke-dasharray="2 2"/>
<path d="M630.816 252.64L646.332 240.926L644.619 260.292L630.816 252.64Z" fill="#FF9900" stroke="black"/>
<path d="M759.188 157.332L742.95 171.174L738.031 154.566L759.188 157.332Z" fill="#E5E5E5"/>
<path d="M877.413 84.1L871.334 104.552L858.163 93.3035L877.413 84.1Z" fill="#E5E5E5"/>
<line x1="746.743" y1="160.813" x2="763.743" y2="175.813" stroke="black" stroke-width="0.5" stroke-dasharray="1 1"/>
<line x1="868.76" y1="93.8283" x2="885.76" y2="111.828" stroke="black" stroke-width="0.5" stroke-dasharray="1 1"/>
<path d="M707.078 259L709.211 264.528H716.113L710.529 267.944L712.662 273.472L707.078 270.056L701.494 273.472L703.627 267.944L698.043 264.528H704.945L707.078 259Z" fill="#F2C94C"/>
<path d="M887.078 40L889.211 45.5279H896.113L890.529 48.9443L892.662 54.4721L887.078 51.0557L881.494 54.4721L883.627 48.9443L878.043 45.5279H884.945L887.078 40Z" fill="#F2C94C"/>
<path d="M851.078 170L853.211 175.528H860.113L854.529 178.944L856.662 184.472L851.078 181.056L845.494 184.472L847.627 178.944L842.043 175.528H848.945L851.078 170Z" fill="#F2C94C"/>
<path d="M631.078 170L633.211 175.528H640.113L634.529 178.944L636.662 184.472L631.078 181.056L625.494 184.472L627.627 178.944L622.043 175.528H628.945L631.078 170Z" fill="#F2C94C"/>
<path d="M633.078 173L635.211 178.528H642.113L636.529 181.944L638.662 187.472L633.078 184.056L627.494 187.472L629.627 181.944L624.043 178.528H630.945L633.078 173Z" fill="#E5E5E5"/>
<path d="M703.078 258L705.211 263.528H712.113L706.529 266.944L708.662 272.472L703.078 269.056L697.494 272.472L699.627 266.944L694.043 263.528H700.945L703.078 258Z" fill="#E5E5E5"/>
<path d="M834.078 152L836.211 157.528H843.113L837.529 160.944L839.662 166.472L834.078 163.056L828.494 166.472L830.627 160.944L825.043 157.528H831.945L834.078 152Z" fill="#E5E5E5"/>
<path d="M869.078 26L871.211 31.5279H878.113L872.529 34.9443L874.662 40.4721L869.078 37.0557L863.494 40.4721L865.627 34.9443L860.043 31.5279H866.945L869.078 26Z" fill="#E5E5E5"/>
<line x1="638.08" y1="245.042" x2="633.08" y2="186.042" stroke="black" stroke-dasharray="2 8"/>
<line x1="774.593" y1="175.5" x2="841.593" y2="177.5" stroke="black" stroke-dasharray="2 8"/>
<line x1="757.593" y1="160.5" x2="824.593" y2="162.5" stroke="black" stroke-dasharray="2 8"/>
<line x1="855.131" y1="171.776" x2="881.131" y2="119.776" stroke="black" stroke-dasharray="2 8"/>
<line x1="885.078" y1="104.99" x2="886.078" y2="55.9898" stroke="black" stroke-dasharray="2 8"/>
<line x1="868.078" y1="86.9898" x2="869.078" y2="37.9898" stroke="black" stroke-dasharray="2 8"/>
<line x1="839.131" y1="152.776" x2="865.131" y2="100.776" stroke="black" stroke-dasharray="2 8"/>
<line x1="646.719" y1="252.52" x2="697.719" y2="267.52" stroke="black" stroke-dasharray="2 8"/>
<rect x="306.5" y="0.5" width="299" height="299" fill="white" stroke="black"/>
<path d="M335.334 250.521C335.334 250.521 370.834 182.875 423.834 179.521C476.833 176.166 514.548 165.472 581.834 110.021" stroke="black"/>
<path d="M570.743 109.713L589.472 104.5L580.782 121.891L570.743 109.713Z" fill="#FF9900" stroke="black"/>
<path d="M450.307 169.955L469.512 172.978L454.392 185.199L450.307 169.955Z" fill="#FF9900" stroke="black"/>
<path d="M325.238 252.64L340.754 240.926L339.042 260.292L325.238 252.64Z" fill="#FF9900" stroke="black"/>
<path d="M401.5 259L403.633 264.528H410.535L404.951 267.944L407.084 273.472L401.5 270.056L395.916 273.472L398.049 267.944L392.465 264.528H399.367L401.5 259Z" fill="#F2C94C"/>
<path d="M581.5 40L583.633 45.5279H590.535L584.951 48.9443L587.084 54.4721L581.5 51.0557L575.916 54.4721L578.049 48.9443L572.465 45.5279H579.367L581.5 40Z" fill="#F2C94C"/>
<path d="M545.5 170L547.633 175.528H554.535L548.951 178.944L551.084 184.472L545.5 181.056L539.916 184.472L542.049 178.944L536.465 175.528H543.367L545.5 170Z" fill="#F2C94C"/>
<path d="M325.5 170L327.633 175.528H334.535L328.951 178.944L331.084 184.472L325.5 181.056L319.916 184.472L322.049 178.944L316.465 175.528H323.367L325.5 170Z" fill="#F2C94C"/>
<path d="M328.5 173L330.633 178.528H337.535L331.951 181.944L334.084 187.472L328.5 184.056L322.916 187.472L325.049 181.944L319.465 178.528H326.367L328.5 173Z" fill="#E5E5E5"/>
<path d="M396.5 257L398.633 262.528H405.535L399.951 265.944L402.084 271.472L396.5 268.056L390.916 271.472L393.049 265.944L387.465 262.528H394.367L396.5 257Z" fill="#E5E5E5"/>
<path d="M539.5 162L541.633 167.528H548.535L542.951 170.944L545.084 176.472L539.5 173.056L533.916 176.472L536.049 170.944L530.465 167.528H537.367L539.5 162Z" fill="#E5E5E5"/>
<path d="M575.5 48L577.633 53.5279H584.535L578.951 56.9443L581.084 62.4721L575.5 59.0557L569.916 62.4721L572.049 56.9443L566.465 53.5279H573.367L575.5 48Z" fill="#E5E5E5"/>
<line x1="332.501" y1="245.034" x2="328.501" y2="187.034" stroke="black" stroke-dasharray="2 8"/>
<line x1="468.969" y1="175.501" x2="532.969" y2="171.501" stroke="black" stroke-dasharray="2 8"/>
<line x1="544.588" y1="164.716" x2="575.588" y2="119.716" stroke="black" stroke-dasharray="2 8"/>
<line x1="579.502" y1="105.046" x2="575.502" y2="62.0463" stroke="black" stroke-dasharray="2 8"/>
<line x1="341.126" y1="252.516" x2="387.126" y2="264.516" stroke="black" stroke-dasharray="2 8"/>
<path d="M12.3242 16C12.2461 15.8477 12.1895 15.6582 12.1543 15.4316C11.7441 15.8887 11.2109 16.1172 10.5547 16.1172C9.93359 16.1172 9.41797 15.9375 9.00781 15.5781C8.60156 15.2188 8.39844 14.7656 8.39844 14.2188C8.39844 13.5469 8.64648 13.0312 9.14258 12.6719C9.64258 12.3125 10.3633 12.1309 11.3047 12.127H12.084V11.7637C12.084 11.4707 12.0078 11.2363 11.8555 11.0605C11.707 10.8848 11.4707 10.7969 11.1465 10.7969C10.8613 10.7969 10.6367 10.8652 10.4727 11.002C10.3125 11.1387 10.2324 11.3262 10.2324 11.5645H8.53906C8.53906 11.1973 8.65234 10.8574 8.87891 10.5449C9.10547 10.2324 9.42578 9.98828 9.83984 9.8125C10.2539 9.63281 10.7188 9.54297 11.2344 9.54297C12.0156 9.54297 12.6348 9.74023 13.0918 10.1348C13.5527 10.5254 13.7832 11.0762 13.7832 11.7871V14.5352C13.7871 15.1367 13.8711 15.5918 14.0352 15.9004V16H12.3242ZM10.9238 14.8223C11.1738 14.8223 11.4043 14.7676 11.6152 14.6582C11.8262 14.5449 11.9824 14.3945 12.084 14.207V13.1172H11.4512C10.6035 13.1172 10.1523 13.4102 10.0977 13.9961L10.0918 14.0957C10.0918 14.3066 10.166 14.4805 10.3145 14.6172C10.4629 14.7539 10.666 14.8223 10.9238 14.8223ZM18.002 12.666C18.002 13.5488 17.875 14.3984 17.6211 15.2148C17.3672 16.0312 17.002 16.752 16.5254 17.377C16.0488 18.002 15.5391 18.4316 14.9961 18.666L14.668 17.7695C15.2227 17.3516 15.6602 16.707 15.9805 15.8359C16.3008 14.9648 16.4668 13.9629 16.4785 12.8301V12.5195C16.4785 11.3516 16.3184 10.3223 15.998 9.43164C15.6816 8.54102 15.2383 7.87305 14.668 7.42773L14.9961 6.53125C15.5273 6.76172 16.0273 7.17969 16.4961 7.78516C16.9688 8.39062 17.334 9.0957 17.5918 9.90039C17.8535 10.7051 17.9902 11.5391 18.002 12.4023V12.666Z" fill="black"/>
<path d="M623.287 14.752C623.6 14.752 623.854 14.666 624.049 14.4941C624.244 14.3223 624.346 14.0938 624.354 13.8086H625.941C625.938 14.2383 625.82 14.6328 625.59 14.9922C625.359 15.3477 625.043 15.625 624.641 15.8242C624.242 16.0195 623.801 16.1172 623.316 16.1172C622.41 16.1172 621.695 15.8301 621.172 15.2559C620.648 14.6777 620.387 13.8809 620.387 12.8652V12.7539C620.387 11.7773 620.646 10.998 621.166 10.416C621.686 9.83398 622.398 9.54297 623.305 9.54297C624.098 9.54297 624.732 9.76953 625.209 10.2227C625.689 10.6719 625.934 11.2715 625.941 12.0215H624.354C624.346 11.6934 624.244 11.4277 624.049 11.2246C623.854 11.0176 623.596 10.9141 623.275 10.9141C622.881 10.9141 622.582 11.0586 622.379 11.3477C622.18 11.6328 622.08 12.0977 622.08 12.7422V12.918C622.08 13.5703 622.18 14.0391 622.379 14.3242C622.578 14.6094 622.881 14.752 623.287 14.752ZM629.826 12.666C629.826 13.5488 629.699 14.3984 629.445 15.2148C629.191 16.0312 628.826 16.752 628.35 17.377C627.873 18.002 627.363 18.4316 626.82 18.666L626.492 17.7695C627.047 17.3516 627.484 16.707 627.805 15.8359C628.125 14.9648 628.291 13.9629 628.303 12.8301V12.5195C628.303 11.3516 628.143 10.3223 627.822 9.43164C627.506 8.54102 627.062 7.87305 626.492 7.42773L626.82 6.53125C627.352 6.76172 627.852 7.17969 628.32 7.78516C628.793 8.39062 629.158 9.0957 629.416 9.90039C629.678 10.7051 629.814 11.5391 629.826 12.4023V12.666Z" fill="black"/>
<path d="M320.363 12.8887C320.363 13.9043 320.146 14.6973 319.713 15.2676C319.279 15.834 318.674 16.1172 317.896 16.1172C317.209 16.1172 316.66 15.8535 316.25 15.3262L316.174 16H314.65V7H316.344V10.2285C316.734 9.77148 317.248 9.54297 317.885 9.54297C318.658 9.54297 319.264 9.82812 319.701 10.3984C320.143 10.9648 320.363 11.7637 320.363 12.7949V12.8887ZM318.67 12.7656C318.67 12.125 318.568 11.6582 318.365 11.3652C318.162 11.0684 317.859 10.9199 317.457 10.9199C316.918 10.9199 316.547 11.1406 316.344 11.582V14.084C316.551 14.5293 316.926 14.752 317.469 14.752C318.016 14.752 318.375 14.4824 318.547 13.9434C318.629 13.6855 318.67 13.293 318.67 12.7656ZM324.33 12.666C324.33 13.5488 324.203 14.3984 323.949 15.2148C323.695 16.0312 323.33 16.752 322.854 17.377C322.377 18.002 321.867 18.4316 321.324 18.666L320.996 17.7695C321.551 17.3516 321.988 16.707 322.309 15.8359C322.629 14.9648 322.795 13.9629 322.807 12.8301V12.5195C322.807 11.3516 322.646 10.3223 322.326 9.43164C322.01 8.54102 321.566 7.87305 320.996 7.42773L321.324 6.53125C321.855 6.76172 322.355 7.17969 322.824 7.78516C323.297 8.39062 323.662 9.0957 323.92 9.90039C324.182 10.7051 324.318 11.5391 324.33 12.4023V12.666Z" fill="black"/>
</svg>
